<svg width="1221" height="587" viewBox="0 0 1221 587" fill="none" xmlns="http://www.w3.org/2000/svg">
<g clip-path="url(#clip0_238_1637)">
<path d="M155.79 139.297C152.19 139.297 149.39 138.137 147.39 135.817C145.39 133.47 144.39 130.243 144.39 126.137C144.39 123.39 144.843 120.99 145.75 118.937C146.683 116.883 147.99 115.31 149.67 114.217C151.376 113.097 153.35 112.537 155.59 112.537C156.816 112.537 157.99 112.697 159.11 113.017C160.256 113.337 161.23 113.697 162.03 114.097C162.83 114.497 163.23 114.71 163.23 114.737L162.87 116.657C162.87 116.63 162.483 116.43 161.71 116.057C160.936 115.683 160.03 115.337 158.99 115.017C157.976 114.697 156.95 114.537 155.91 114.537C153.323 114.537 151.296 115.523 149.83 117.497C148.363 119.443 147.63 122.297 147.63 126.057C147.63 129.763 148.376 132.563 149.87 134.457C151.363 136.35 153.456 137.297 156.15 137.297C157.563 137.297 158.803 137.003 159.87 136.417C160.936 135.83 161.776 135.203 162.39 134.537C163.03 133.87 163.35 133.483 163.35 133.377L164.47 134.657C164.47 134.79 164.123 135.257 163.43 136.057C162.736 136.83 161.736 137.563 160.43 138.257C159.15 138.95 157.603 139.297 155.79 139.297ZM178.602 139.297C175.002 139.297 172.202 138.137 170.202 135.817C168.202 133.47 167.202 130.243 167.202 126.137C167.202 123.39 167.656 120.99 168.562 118.937C169.496 116.883 170.802 115.31 172.482 114.217C174.189 113.097 176.162 112.537 178.402 112.537C179.629 112.537 180.802 112.697 181.922 113.017C183.069 113.337 184.042 113.697 184.842 114.097C185.642 114.497 186.042 114.71 186.042 114.737L185.682 116.657C185.682 116.63 185.296 116.43 184.522 116.057C183.749 115.683 182.842 115.337 181.802 115.017C180.789 114.697 179.762 114.537 178.722 114.537C176.136 114.537 174.109 115.523 172.642 117.497C171.176 119.443 170.442 122.297 170.442 126.057C170.442 129.763 171.189 132.563 172.682 134.457C174.176 136.35 176.269 137.297 178.962 137.297C180.376 137.297 181.616 137.003 182.682 136.417C183.749 135.83 184.589 135.203 185.202 134.537C185.842 133.87 186.162 133.483 186.162 133.377L187.282 134.657C187.282 134.79 186.936 135.257 186.242 136.057C185.549 136.83 184.549 137.563 183.242 138.257C181.962 138.95 180.416 139.297 178.602 139.297ZM191.855 112.897H198.135C200.775 112.897 202.841 113.59 204.335 114.977C205.828 116.337 206.575 118.297 206.575 120.857C206.575 122.91 206.135 124.59 205.255 125.897C204.375 127.203 203.215 128.137 201.775 128.697L208.295 138.897H204.815L198.855 129.257H194.895V138.897H191.855V112.897ZM198.135 127.457C199.868 127.457 201.175 126.963 202.055 125.977C202.935 124.99 203.375 123.323 203.375 120.977C203.375 116.763 201.508 114.657 197.775 114.657H194.895V127.457H198.135ZM220.377 139.297C217.657 139.297 215.564 138.403 214.097 136.617C212.631 134.83 211.897 132.257 211.897 128.897C211.897 127.83 211.937 126.857 212.017 125.977C212.284 121.47 213.177 118.11 214.697 115.897C216.217 113.657 218.231 112.537 220.737 112.537C221.564 112.537 222.351 112.643 223.097 112.857C223.871 113.043 224.484 113.243 224.937 113.457C225.417 113.67 225.724 113.817 225.857 113.897L225.457 115.657C225.351 115.577 225.084 115.443 224.657 115.257C224.231 115.043 223.684 114.843 223.017 114.657C222.351 114.47 221.671 114.377 220.977 114.377C217.084 114.377 215.017 117.91 214.777 124.977C216.377 123.323 218.311 122.497 220.577 122.497C223.004 122.497 224.911 123.23 226.297 124.697C227.711 126.163 228.417 128.123 228.417 130.577C228.417 132.203 228.111 133.683 227.497 135.017C226.911 136.323 226.004 137.363 224.777 138.137C223.577 138.91 222.111 139.297 220.377 139.297ZM220.377 137.537C222.111 137.537 223.377 136.897 224.177 135.617C224.977 134.31 225.377 132.617 225.377 130.537C225.377 128.617 224.951 127.07 224.097 125.897C223.244 124.723 221.951 124.137 220.217 124.137C218.964 124.137 217.924 124.443 217.097 125.057C216.271 125.643 215.604 126.31 215.097 127.057L215.137 127.097C215.084 127.39 215.031 127.79 214.977 128.297C214.951 128.803 214.937 129.31 214.937 129.817C214.937 134.963 216.751 137.537 220.377 137.537Z" fill="black"/>
<path d="M339.684 351.778C336.084 351.778 333.284 350.618 331.284 348.298C329.284 345.952 328.284 342.725 328.284 338.618C328.284 335.872 328.738 333.472 329.644 331.418C330.578 329.365 331.884 327.792 333.564 326.698C335.271 325.578 337.244 325.018 339.484 325.018C340.711 325.018 341.884 325.178 343.004 325.498C344.151 325.818 345.124 326.178 345.924 326.578C346.724 326.978 347.124 327.192 347.124 327.218L346.764 329.138C346.764 329.112 346.378 328.912 345.604 328.538C344.831 328.165 343.924 327.818 342.884 327.498C341.871 327.178 340.844 327.018 339.804 327.018C337.218 327.018 335.191 328.005 333.724 329.978C332.258 331.925 331.524 334.778 331.524 338.538C331.524 342.245 332.271 345.045 333.764 346.938C335.258 348.832 337.351 349.778 340.044 349.778C341.458 349.778 342.698 349.485 343.764 348.898C344.831 348.312 345.671 347.685 346.284 347.018C346.924 346.352 347.244 345.965 347.244 345.858L348.364 347.138C348.364 347.272 348.018 347.738 347.324 348.538C346.631 349.312 345.631 350.045 344.324 350.738C343.044 351.432 341.498 351.778 339.684 351.778ZM362.497 351.778C358.897 351.778 356.097 350.618 354.097 348.298C352.097 345.952 351.097 342.725 351.097 338.618C351.097 335.872 351.55 333.472 352.457 331.418C353.39 329.365 354.697 327.792 356.377 326.698C358.083 325.578 360.057 325.018 362.297 325.018C363.523 325.018 364.697 325.178 365.817 325.498C366.963 325.818 367.937 326.178 368.737 326.578C369.537 326.978 369.937 327.192 369.937 327.218L369.577 329.138C369.577 329.112 369.19 328.912 368.417 328.538C367.643 328.165 366.737 327.818 365.697 327.498C364.683 327.178 363.657 327.018 362.617 327.018C360.03 327.018 358.003 328.005 356.537 329.978C355.07 331.925 354.337 334.778 354.337 338.538C354.337 342.245 355.083 345.045 356.577 346.938C358.07 348.832 360.163 349.778 362.857 349.778C364.27 349.778 365.51 349.485 366.577 348.898C367.643 348.312 368.483 347.685 369.097 347.018C369.737 346.352 370.057 345.965 370.057 345.858L371.177 347.138C371.177 347.272 370.83 347.738 370.137 348.538C369.443 349.312 368.443 350.045 367.137 350.738C365.857 351.432 364.31 351.778 362.497 351.778ZM375.749 325.378H382.029C384.669 325.378 386.736 326.072 388.229 327.458C389.723 328.818 390.469 330.778 390.469 333.338C390.469 335.392 390.029 337.072 389.149 338.378C388.269 339.685 387.109 340.618 385.669 341.178L392.189 351.378H388.709L382.749 341.738H378.789V351.378H375.749V325.378ZM382.029 339.938C383.763 339.938 385.069 339.445 385.949 338.458C386.829 337.472 387.269 335.805 387.269 333.458C387.269 329.245 385.403 327.138 381.669 327.138H378.789V339.938H382.029ZM406.152 344.818H394.952L394.752 343.298C395.845 341.138 396.992 338.378 398.192 335.018C399.418 331.632 400.445 328.298 401.272 325.018L404.032 325.378C403.232 328.445 402.192 331.512 400.912 334.578C399.658 337.645 398.352 340.458 396.992 343.018H406.152L406.832 329.178H409.112V343.018H411.952V344.618L409.112 344.818V351.378H406.152V344.818Z" fill="black"/>
<path d="M888.32 100.099C884.72 100.099 881.92 98.9389 879.92 96.6189C877.92 94.2722 876.92 91.0455 876.92 86.9389C876.92 84.1922 877.373 81.7922 878.28 79.7389C879.213 77.6855 880.52 76.1122 882.2 75.0189C883.907 73.8989 885.88 73.3389 888.12 73.3389C889.347 73.3389 890.52 73.4989 891.64 73.8189C892.787 74.1389 893.76 74.4989 894.56 74.8989C895.36 75.2989 895.76 75.5122 895.76 75.5389L895.4 77.4589C895.4 77.4322 895.013 77.2322 894.24 76.8589C893.467 76.4855 892.56 76.1389 891.52 75.8189C890.507 75.4989 889.48 75.3389 888.44 75.3389C885.853 75.3389 883.827 76.3255 882.36 78.2989C880.893 80.2455 880.16 83.0989 880.16 86.8589C880.16 90.5655 880.907 93.3655 882.4 95.2589C883.893 97.1522 885.987 98.0989 888.68 98.0989C890.093 98.0989 891.333 97.8055 892.4 97.2189C893.467 96.6322 894.307 96.0055 894.92 95.3389C895.56 94.6722 895.88 94.2855 895.88 94.1789L897 95.4589C897 95.5922 896.653 96.0589 895.96 96.8589C895.267 97.6322 894.267 98.3655 892.96 99.0589C891.68 99.7522 890.133 100.099 888.32 100.099ZM898.533 99.6989L906.853 86.7789L898.853 73.6989H902.533L908.973 84.5789L915.693 73.6989H918.213L910.253 86.2989L918.733 99.6989H915.013L908.173 88.5389H908.133L901.213 99.6989H898.533ZM931.992 100.099C928.392 100.099 925.592 98.9389 923.592 96.6189C921.592 94.2722 920.592 91.0455 920.592 86.9389C920.592 84.1922 921.045 81.7922 921.952 79.7389C922.885 77.6855 924.192 76.1122 925.872 75.0189C927.579 73.8989 929.552 73.3389 931.792 73.3389C933.019 73.3389 934.192 73.4989 935.312 73.8189C936.459 74.1389 937.432 74.4989 938.232 74.8989C939.032 75.2989 939.432 75.5122 939.432 75.5389L939.072 77.4589C939.072 77.4322 938.685 77.2322 937.912 76.8589C937.139 76.4855 936.232 76.1389 935.192 75.8189C934.179 75.4989 933.152 75.3389 932.112 75.3389C929.525 75.3389 927.499 76.3255 926.032 78.2989C924.565 80.2455 923.832 83.0989 923.832 86.8589C923.832 90.5655 924.579 93.3655 926.072 95.2589C927.565 97.1522 929.659 98.0989 932.352 98.0989C933.765 98.0989 935.005 97.8055 936.072 97.2189C937.139 96.6322 937.979 96.0055 938.592 95.3389C939.232 94.6722 939.552 94.2855 939.552 94.1789L940.672 95.4589C940.672 95.5922 940.325 96.0589 939.632 96.8589C938.939 97.6322 937.939 98.3655 936.632 99.0589C935.352 99.7522 933.805 100.099 931.992 100.099ZM945.244 73.6989H951.524C954.164 73.6989 956.231 74.3922 957.724 75.7789C959.218 77.1389 959.964 79.0989 959.964 81.6589C959.964 83.7122 959.524 85.3922 958.644 86.6989C957.764 88.0055 956.604 88.9389 955.164 89.4989L961.684 99.6989H958.204L952.244 90.0589H948.284V99.6989H945.244V73.6989ZM951.524 88.2589C953.258 88.2589 954.564 87.7655 955.444 86.7789C956.324 85.7922 956.764 84.1255 956.764 81.7789C956.764 77.5655 954.898 75.4589 951.164 75.4589H948.284V88.2589H951.524ZM971.607 100.099C970.167 100.099 968.927 99.8855 967.887 99.4589C966.847 99.0322 966.034 98.5789 965.447 98.0989C964.887 97.6189 964.607 97.3389 964.607 97.2589L965.567 95.6989C965.567 95.7522 965.82 95.9922 966.327 96.4189C966.86 96.8455 967.554 97.2455 968.407 97.6189C969.26 97.9922 970.22 98.1789 971.287 98.1789C973.18 98.1789 974.607 97.6589 975.567 96.6189C976.554 95.5789 977.047 94.0722 977.047 92.0989C977.047 90.3389 976.634 88.9789 975.807 88.0189C975.007 87.0589 973.82 86.5789 972.247 86.5789C971.847 86.5789 971.474 86.6455 971.127 86.7789C970.78 86.9122 970.5 87.0455 970.287 87.1789C970.1 87.3122 969.98 87.4055 969.927 87.4589L968.887 86.2589L976.247 76.4589H965.807L965.967 73.6989H979.047V75.5789L971.847 84.9789C972.167 84.8989 972.527 84.8589 972.927 84.8589C975.06 84.8589 976.78 85.5255 978.087 86.8589C979.42 88.1655 980.087 89.9122 980.087 92.0989C980.087 93.7522 979.714 95.1789 978.967 96.3789C978.247 97.5789 977.247 98.4989 975.967 99.1389C974.687 99.7789 973.234 100.099 971.607 100.099Z" fill="black"/>
<path d="M843.961 36.5V10.5H847.121L860.401 31.94L860.281 30.98V10.5H862.481V36.5H859.841L846.001 14.34H845.961L846.161 15.58V36.5H843.961ZM879.296 36.9C876.976 36.9 874.976 36.3667 873.296 35.3C871.643 34.2333 870.376 32.7 869.496 30.7C868.616 28.6733 868.176 26.2867 868.176 23.54C868.176 20.7933 868.616 18.42 869.496 16.42C870.376 14.3933 871.643 12.8467 873.296 11.78C874.976 10.6867 876.976 10.14 879.296 10.14C881.616 10.14 883.616 10.6867 885.296 11.78C886.976 12.8467 888.256 14.3933 889.136 16.42C890.043 18.42 890.496 20.7933 890.496 23.54C890.496 26.2867 890.043 28.6733 889.136 30.7C888.256 32.7 886.976 34.2333 885.296 35.3C883.616 36.3667 881.616 36.9 879.296 36.9ZM879.296 34.98C881.856 34.98 883.816 34.0067 885.176 32.06C886.563 30.1133 887.256 27.2733 887.256 23.54C887.256 19.8333 886.563 16.9933 885.176 15.02C883.816 13.0467 881.856 12.06 879.296 12.06C876.763 12.06 874.816 13.0467 873.456 15.02C872.096 16.9933 871.416 19.8333 871.416 23.54C871.416 27.2733 872.083 30.1133 873.416 32.06C874.776 34.0067 876.736 34.98 879.296 34.98ZM900.108 36.5V12.42H892.708V10.5H910.588V12.42H903.148V36.5H900.108Z" fill="black"/>
<path d="M477.965 560.042V521.042H482.525V538.562H500.345V521.042H504.905V560.042H500.345V541.322H482.525V560.042H477.965ZM525.646 560.642C521.646 560.642 518.506 559.402 516.226 556.922C513.946 554.402 512.806 550.642 512.806 545.642C512.806 540.602 513.906 536.642 516.106 533.762C518.306 530.882 521.306 529.442 525.106 529.442C528.546 529.442 531.186 530.642 533.026 533.042C534.906 535.402 535.846 538.762 535.846 543.122C535.846 543.882 535.806 544.502 535.726 544.982C535.646 545.462 535.586 545.762 535.546 545.882H517.366C517.366 553.962 520.286 558.002 526.126 558.002C527.726 558.002 529.086 557.722 530.206 557.162C531.366 556.562 532.266 555.942 532.906 555.302C533.546 554.622 533.866 554.222 533.866 554.102L535.606 555.542C535.606 555.702 535.226 556.222 534.466 557.102C533.706 557.942 532.586 558.742 531.106 559.502C529.626 560.262 527.806 560.642 525.646 560.642ZM531.766 543.362L531.826 542.222C531.826 535.422 529.586 532.022 525.106 532.022C522.746 532.022 520.926 532.962 519.646 534.842C518.366 536.682 517.626 539.522 517.426 543.362H531.766ZM548.454 560.642C545.814 560.642 543.694 560.002 542.094 558.722C540.494 557.402 539.694 555.582 539.694 553.262C539.694 547.382 545.354 543.842 556.674 542.642V539.462C556.674 536.622 556.214 534.682 555.294 533.642C554.374 532.602 552.754 532.082 550.434 532.082C549.394 532.082 548.334 532.282 547.254 532.682C546.174 533.042 545.254 533.442 544.494 533.882C543.774 534.282 543.314 534.542 543.114 534.662L542.634 532.202C542.834 532.042 543.334 531.742 544.134 531.302C544.974 530.862 546.014 530.442 547.254 530.042C548.534 529.642 549.814 529.442 551.094 529.442C554.534 529.442 557.054 530.162 558.654 531.602C560.254 533.042 561.054 535.582 561.054 539.222V553.922C561.054 555.522 561.194 556.602 561.474 557.162C561.794 557.722 562.174 558.002 562.614 558.002C562.974 558.002 563.414 557.942 563.934 557.822C564.454 557.662 564.794 557.542 564.954 557.462L565.134 559.502C564.814 559.622 564.134 559.842 563.094 560.162C562.054 560.482 561.174 560.642 560.454 560.642C559.414 560.642 558.614 560.322 558.054 559.682C557.494 559.002 557.154 557.822 557.034 556.142H556.974C556.974 556.302 556.654 556.762 556.014 557.522C555.374 558.282 554.414 559.002 553.134 559.682C551.894 560.322 550.334 560.642 548.454 560.642ZM549.774 558.002C551.214 558.002 552.454 557.682 553.494 557.042C554.534 556.402 555.314 555.702 555.834 554.942C556.394 554.182 556.674 553.742 556.674 553.622V544.862C553.034 545.262 550.034 546.042 547.674 547.202C545.354 548.362 544.194 550.202 544.194 552.722C544.194 554.442 544.694 555.762 545.694 556.682C546.694 557.562 548.054 558.002 549.774 558.002ZM570.868 560.042V515.162L575.188 514.922V560.042H570.868ZM591.607 560.642C589.447 560.642 587.847 559.982 586.807 558.662C585.767 557.302 585.247 555.082 585.247 552.002V532.982H582.127V530.462L585.247 530.102L586.867 520.562H589.627V530.042H597.307V532.982H589.627V550.922C589.627 553.522 589.867 555.322 590.347 556.322C590.867 557.282 591.747 557.762 592.987 557.762C593.987 557.762 594.887 557.662 595.687 557.462C596.487 557.262 596.887 557.142 596.887 557.102L597.187 559.502C597.107 559.582 596.847 559.722 596.407 559.922C596.007 560.082 595.387 560.242 594.547 560.402C593.747 560.562 592.767 560.642 591.607 560.642ZM603.737 515.162L608.117 514.922V532.742H608.177C608.177 532.742 608.417 532.482 608.897 531.962C609.417 531.402 610.417 530.842 611.897 530.282C613.377 529.722 614.997 529.442 616.757 529.442C619.677 529.442 621.917 530.262 623.477 531.902C625.077 533.502 625.877 535.902 625.877 539.102V560.042H621.557V539.642C621.557 534.962 619.477 532.622 615.317 532.622C613.877 532.622 612.617 532.842 611.537 533.282C610.457 533.722 609.617 534.202 609.017 534.722C608.417 535.242 608.117 535.542 608.117 535.622V560.042H603.737V515.162ZM634.56 575.642C633.84 575.642 633.22 575.582 632.7 575.462C632.18 575.342 631.78 575.222 631.5 575.102C631.22 574.982 631.04 574.902 630.96 574.862L631.44 572.102C631.56 572.182 631.86 572.282 632.34 572.402C632.82 572.562 633.34 572.642 633.9 572.642C635.74 572.642 637.28 571.642 638.52 569.642C639.76 567.682 641.14 564.602 642.66 560.402L630.9 530.042H636.06L644.94 555.122L652.98 530.042H656.16L645.78 560.522C644.06 565.442 642.36 569.182 640.68 571.742C639.04 574.342 637 575.642 634.56 575.642ZM682.478 560.042V523.922H671.378V521.042H698.198V523.922H687.038V560.042H682.478ZM703.054 515.162L707.434 514.922V532.742H707.494C707.494 532.742 707.734 532.482 708.214 531.962C708.734 531.402 709.734 530.842 711.214 530.282C712.694 529.722 714.314 529.442 716.074 529.442C718.994 529.442 721.234 530.262 722.794 531.902C724.394 533.502 725.194 535.902 725.194 539.102V560.042H720.874V539.642C720.874 534.962 718.794 532.622 714.634 532.622C713.194 532.622 711.934 532.842 710.854 533.282C709.774 533.722 708.934 534.202 708.334 534.722C707.734 535.242 707.434 535.542 707.434 535.622V560.042H703.054V515.162ZM740.537 560.042V524.522L733.337 528.542L732.317 526.202L741.257 521.042H744.857V560.042H740.537ZM758.005 560.042C759.965 551.002 764.585 539.442 771.865 525.362H753.925V521.042H775.585V524.642C772.945 529.562 770.405 535.322 767.965 541.922C765.565 548.522 763.825 554.562 762.745 560.042H758.005ZM805.903 560.642C801.743 560.642 798.543 559.362 796.303 556.802C794.063 554.242 792.943 550.422 792.943 545.342C792.943 540.222 794.043 536.302 796.243 533.582C798.483 530.822 801.743 529.442 806.023 529.442C807.423 529.442 808.743 529.642 809.983 530.042C811.223 530.402 812.263 530.822 813.103 531.302C813.983 531.742 814.423 531.982 814.423 532.022L813.883 534.482C813.723 534.362 813.283 534.122 812.563 533.762C811.883 533.362 810.983 532.982 809.863 532.622C808.783 532.262 807.663 532.082 806.503 532.082C803.423 532.082 801.163 533.102 799.723 535.142C798.283 537.182 797.563 540.562 797.563 545.282C797.563 549.842 798.323 553.102 799.843 555.062C801.363 557.022 803.503 558.002 806.263 558.002C807.823 558.002 809.143 557.722 810.223 557.162C811.343 556.602 812.203 556.022 812.803 555.422C813.403 554.782 813.703 554.402 813.703 554.282L815.623 555.542C815.623 555.702 815.263 556.222 814.543 557.102C813.823 557.942 812.743 558.742 811.303 559.502C809.863 560.262 808.063 560.642 805.903 560.642ZM831.154 560.642C827.154 560.642 824.014 559.402 821.734 556.922C819.454 554.402 818.314 550.642 818.314 545.642C818.314 540.602 819.414 536.642 821.614 533.762C823.814 530.882 826.814 529.442 830.614 529.442C834.054 529.442 836.694 530.642 838.534 533.042C840.414 535.402 841.354 538.762 841.354 543.122C841.354 543.882 841.314 544.502 841.234 544.982C841.154 545.462 841.094 545.762 841.054 545.882H822.874C822.874 553.962 825.794 558.002 831.634 558.002C833.234 558.002 834.594 557.722 835.714 557.162C836.874 556.562 837.774 555.942 838.414 555.302C839.054 554.622 839.374 554.222 839.374 554.102L841.114 555.542C841.114 555.702 840.734 556.222 839.974 557.102C839.214 557.942 838.094 558.742 836.614 559.502C835.134 560.262 833.314 560.642 831.154 560.642ZM837.274 543.362L837.334 542.222C837.334 535.422 835.094 532.022 830.614 532.022C828.254 532.022 826.434 532.962 825.154 534.842C823.874 536.682 823.134 539.522 822.934 543.362H837.274ZM847.782 560.042V515.162L852.102 514.922V560.042H847.782ZM861.141 560.042V515.162L865.461 514.922V560.042H861.141ZM881.94 560.642C879.82 560.642 878.02 560.322 876.54 559.682C875.1 559.002 874 558.282 873.24 557.522C872.52 556.762 872.16 556.322 872.16 556.202L873.66 554.102C873.66 554.182 873.98 554.562 874.62 555.242C875.26 555.922 876.14 556.562 877.26 557.162C878.38 557.722 879.7 558.002 881.22 558.002C883.46 558.002 885.14 557.442 886.26 556.322C887.42 555.202 888 553.842 888 552.242C888 551.082 887.7 550.122 887.1 549.362C886.54 548.602 885.82 548.022 884.94 547.622C884.1 547.182 882.92 546.702 881.4 546.182C879.64 545.542 878.24 544.962 877.2 544.442C876.16 543.882 875.26 543.062 874.5 541.982C873.78 540.902 873.42 539.502 873.42 537.782C873.42 535.222 874.34 533.202 876.18 531.722C878.06 530.202 880.46 529.442 883.38 529.442C884.66 529.442 885.88 529.622 887.04 529.982C888.24 530.302 889.2 530.662 889.92 531.062C890.64 531.422 891.1 531.662 891.3 531.782L890.58 534.362C890.42 534.242 890.02 534.002 889.38 533.642C888.74 533.242 887.9 532.862 886.86 532.502C885.86 532.142 884.82 531.962 883.74 531.962C881.9 531.962 880.4 532.422 879.24 533.342C878.12 534.262 877.56 535.422 877.56 536.822C877.56 537.982 877.86 538.962 878.46 539.762C879.06 540.522 879.8 541.122 880.68 541.562C881.6 542.002 882.82 542.502 884.34 543.062C886.1 543.662 887.52 544.262 888.6 544.862C889.72 545.422 890.66 546.242 891.42 547.322C892.18 548.402 892.56 549.802 892.56 551.522C892.56 554.122 891.66 556.302 889.86 558.062C888.06 559.782 885.42 560.642 881.94 560.642Z" fill="black"/>
<path d="M889.961 221.378V195.378H893.121L906.401 216.818L906.281 215.858V195.378H908.481V221.378H905.841L892.001 199.218H891.961L892.161 200.458V221.378H889.961ZM925.296 221.778C922.976 221.778 920.976 221.245 919.296 220.178C917.643 219.112 916.376 217.578 915.496 215.578C914.616 213.552 914.176 211.165 914.176 208.418C914.176 205.672 914.616 203.298 915.496 201.298C916.376 199.272 917.643 197.725 919.296 196.658C920.976 195.565 922.976 195.018 925.296 195.018C927.616 195.018 929.616 195.565 931.296 196.658C932.976 197.725 934.256 199.272 935.136 201.298C936.043 203.298 936.496 205.672 936.496 208.418C936.496 211.165 936.043 213.552 935.136 215.578C934.256 217.578 932.976 219.112 931.296 220.178C929.616 221.245 927.616 221.778 925.296 221.778ZM925.296 219.858C927.856 219.858 929.816 218.885 931.176 216.938C932.563 214.992 933.256 212.152 933.256 208.418C933.256 204.712 932.563 201.872 931.176 199.898C929.816 197.925 927.856 196.938 925.296 196.938C922.763 196.938 920.816 197.925 919.456 199.898C918.096 201.872 917.416 204.712 917.416 208.418C917.416 212.152 918.083 214.992 919.416 216.938C920.776 218.885 922.736 219.858 925.296 219.858ZM946.108 221.378V197.298H938.708V195.378H956.588V197.298H949.148V221.378H946.108ZM975.721 221.778C973.295 221.778 971.348 220.912 969.881 219.178C968.415 217.445 967.681 215.032 967.681 211.938C967.681 208.605 968.388 205.952 969.801 203.978C971.241 201.978 973.255 200.978 975.841 200.978C976.935 200.978 977.855 201.125 978.601 201.418C979.348 201.685 979.921 201.992 980.321 202.338C980.721 202.658 980.921 202.845 980.921 202.898H980.961V191.458L983.841 191.298V221.378H981.361L981.041 219.018C980.748 219.605 980.175 220.218 979.321 220.858C978.468 221.472 977.268 221.778 975.721 221.778ZM976.361 219.818C977.321 219.818 978.148 219.618 978.841 219.218C979.535 218.792 980.055 218.338 980.401 217.858C980.775 217.378 980.961 217.098 980.961 217.018V204.738C980.961 204.685 980.775 204.498 980.401 204.178C980.055 203.858 979.561 203.565 978.921 203.298C978.308 203.032 977.575 202.898 976.721 202.898C974.668 202.898 973.161 203.658 972.201 205.178C971.241 206.672 970.761 208.898 970.761 211.858C970.761 214.658 971.228 216.685 972.161 217.938C973.121 219.192 974.521 219.818 976.361 219.818ZM996.826 221.778C994.053 221.778 991.933 220.872 990.466 219.058C989.026 217.245 988.306 214.685 988.306 211.378C988.306 208.072 989.026 205.512 990.466 203.698C991.933 201.885 994.053 200.978 996.826 200.978C999.6 200.978 1001.71 201.885 1003.15 203.698C1004.61 205.512 1005.35 208.072 1005.35 211.378C1005.35 214.658 1004.6 217.218 1003.11 219.058C1001.64 220.872 999.546 221.778 996.826 221.778ZM996.826 220.018C998.693 220.018 1000.07 219.312 1000.95 217.898C1001.83 216.458 1002.27 214.285 1002.27 211.378C1002.27 208.498 1001.83 206.338 1000.95 204.898C1000.07 203.458 998.693 202.738 996.826 202.738C994.96 202.738 993.586 203.458 992.706 204.898C991.826 206.312 991.386 208.472 991.386 211.378C991.386 214.285 991.826 216.458 992.706 217.898C993.586 219.312 994.96 220.018 996.826 220.018ZM1009.87 201.378H1012.27L1012.63 203.498C1013.08 202.965 1013.77 202.418 1014.71 201.858C1015.64 201.272 1016.83 200.978 1018.27 200.978C1019.36 200.978 1020.24 201.178 1020.91 201.578C1021.6 201.952 1022.12 202.565 1022.47 203.418C1022.89 202.912 1023.6 202.378 1024.59 201.818C1025.57 201.258 1026.81 200.978 1028.31 200.978C1029.99 200.978 1031.21 201.418 1031.99 202.298C1032.76 203.178 1033.15 204.645 1033.15 206.698V221.378H1030.23V207.018C1030.23 205.472 1029.99 204.432 1029.51 203.898C1029.03 203.338 1028.27 203.058 1027.23 203.058C1026.13 203.058 1025.21 203.312 1024.47 203.818C1023.75 204.298 1023.21 204.778 1022.87 205.258C1022.92 205.845 1022.95 206.312 1022.95 206.658V221.378H1020.03V207.018C1020.03 205.498 1019.79 204.458 1019.31 203.898C1018.85 203.338 1018.12 203.058 1017.11 203.058C1015.99 203.058 1015.04 203.312 1014.27 203.818C1013.52 204.325 1013.01 204.792 1012.75 205.218V221.378H1009.87V201.378ZM1042.97 221.778C1041.21 221.778 1039.8 221.352 1038.73 220.498C1037.66 219.618 1037.13 218.405 1037.13 216.858C1037.13 212.938 1040.9 210.578 1048.45 209.778V207.658C1048.45 205.765 1048.14 204.472 1047.53 203.778C1046.92 203.085 1045.84 202.738 1044.29 202.738C1043.6 202.738 1042.89 202.872 1042.17 203.138C1041.45 203.378 1040.84 203.645 1040.33 203.938C1039.85 204.205 1039.54 204.378 1039.41 204.458L1039.09 202.818C1039.22 202.712 1039.56 202.512 1040.09 202.218C1040.65 201.925 1041.34 201.645 1042.17 201.378C1043.02 201.112 1043.88 200.978 1044.73 200.978C1047.02 200.978 1048.7 201.458 1049.77 202.418C1050.84 203.378 1051.37 205.072 1051.37 207.498V217.298C1051.37 218.365 1051.46 219.085 1051.65 219.458C1051.86 219.832 1052.12 220.018 1052.41 220.018C1052.65 220.018 1052.94 219.978 1053.29 219.898C1053.64 219.792 1053.86 219.712 1053.97 219.658L1054.09 221.018C1053.88 221.098 1053.42 221.245 1052.73 221.458C1052.04 221.672 1051.45 221.778 1050.97 221.778C1050.28 221.778 1049.74 221.565 1049.37 221.138C1049 220.685 1048.77 219.898 1048.69 218.778H1048.65C1048.65 218.885 1048.44 219.192 1048.01 219.698C1047.58 220.205 1046.94 220.685 1046.09 221.138C1045.26 221.565 1044.22 221.778 1042.97 221.778ZM1043.85 220.018C1044.81 220.018 1045.64 219.805 1046.33 219.378C1047.02 218.952 1047.54 218.485 1047.89 217.978C1048.26 217.472 1048.45 217.178 1048.45 217.098V211.258C1046.02 211.525 1044.02 212.045 1042.45 212.818C1040.9 213.592 1040.13 214.818 1040.13 216.498C1040.13 217.645 1040.46 218.525 1041.13 219.138C1041.8 219.725 1042.7 220.018 1043.85 220.018ZM1059.35 197.338C1058.87 197.338 1058.49 197.192 1058.19 196.898C1057.85 196.552 1057.67 196.125 1057.67 195.618C1057.67 195.112 1057.85 194.685 1058.19 194.338C1058.49 194.045 1058.87 193.898 1059.35 193.898C1059.86 193.898 1060.26 194.032 1060.55 194.298C1060.87 194.645 1061.03 195.085 1061.03 195.618C1061.03 196.098 1060.87 196.525 1060.55 196.898C1060.18 197.192 1059.78 197.338 1059.35 197.338ZM1057.87 221.378V201.378H1060.79V221.378H1057.87ZM1066.78 201.378H1069.18L1069.54 203.298C1069.97 202.792 1070.63 202.285 1071.54 201.778C1072.45 201.245 1073.75 200.978 1075.46 200.978C1077.38 200.978 1078.87 201.525 1079.94 202.618C1081.01 203.685 1081.54 205.285 1081.54 207.418V221.378H1078.62V208.018C1078.62 206.312 1078.27 205.072 1077.58 204.298C1076.89 203.498 1075.86 203.098 1074.5 203.098C1073.54 203.098 1072.7 203.245 1071.98 203.538C1071.26 203.832 1070.69 204.152 1070.26 204.498C1069.86 204.845 1069.66 205.045 1069.66 205.098V221.378H1066.78V201.378ZM896.321 263.778C893.548 263.778 891.415 262.925 889.921 261.218C888.428 259.512 887.681 256.965 887.681 253.578C887.681 250.165 888.415 247.552 889.881 245.738C891.375 243.898 893.548 242.978 896.401 242.978C897.335 242.978 898.215 243.112 899.041 243.378C899.868 243.618 900.561 243.898 901.121 244.218C901.708 244.512 902.001 244.672 902.001 244.698L901.641 246.338C901.535 246.258 901.241 246.098 900.761 245.858C900.308 245.592 899.708 245.338 898.961 245.098C898.241 244.858 897.495 244.738 896.721 244.738C894.668 244.738 893.161 245.418 892.201 246.778C891.241 248.138 890.761 250.392 890.761 253.538C890.761 256.578 891.268 258.752 892.281 260.058C893.295 261.365 894.721 262.018 896.561 262.018C897.601 262.018 898.481 261.832 899.201 261.458C899.948 261.085 900.521 260.698 900.921 260.298C901.321 259.872 901.521 259.618 901.521 259.538L902.801 260.378C902.801 260.485 902.561 260.832 902.081 261.418C901.601 261.978 900.881 262.512 899.921 263.018C898.961 263.525 897.761 263.778 896.321 263.778ZM913.115 263.778C910.342 263.778 908.222 262.872 906.755 261.058C905.315 259.245 904.595 256.685 904.595 253.378C904.595 250.072 905.315 247.512 906.755 245.698C908.222 243.885 910.342 242.978 913.115 242.978C915.889 242.978 917.995 243.885 919.435 245.698C920.902 247.512 921.635 250.072 921.635 253.378C921.635 256.658 920.889 259.218 919.395 261.058C917.929 262.872 915.835 263.778 913.115 263.778ZM913.115 262.018C914.982 262.018 916.355 261.312 917.235 259.898C918.115 258.458 918.555 256.285 918.555 253.378C918.555 250.498 918.115 248.338 917.235 246.898C916.355 245.458 914.982 244.738 913.115 244.738C911.249 244.738 909.875 245.458 908.995 246.898C908.115 248.312 907.675 250.472 907.675 253.378C907.675 256.285 908.115 258.458 908.995 259.898C909.875 261.312 911.249 262.018 913.115 262.018ZM926.154 243.378H928.554L928.914 245.298C929.341 244.792 930.008 244.285 930.914 243.778C931.821 243.245 933.128 242.978 934.834 242.978C936.754 242.978 938.248 243.525 939.314 244.618C940.381 245.685 940.914 247.285 940.914 249.418V263.378H937.994V250.018C937.994 248.312 937.648 247.072 936.954 246.298C936.261 245.498 935.234 245.098 933.874 245.098C932.914 245.098 932.074 245.245 931.354 245.538C930.634 245.832 930.061 246.152 929.634 246.498C929.234 246.845 929.034 247.045 929.034 247.098V263.378H926.154V243.378ZM951.543 263.778C950.103 263.778 949.036 263.338 948.343 262.458C947.65 261.552 947.303 260.072 947.303 258.018V245.338H945.223V243.658L947.303 243.418L948.383 237.058H950.223V243.378H955.343V245.338H950.223V257.298C950.223 259.032 950.383 260.232 950.703 260.898C951.05 261.538 951.636 261.858 952.463 261.858C953.13 261.858 953.73 261.792 954.263 261.658C954.796 261.525 955.063 261.445 955.063 261.418L955.263 263.018C955.21 263.072 955.036 263.165 954.743 263.298C954.476 263.405 954.063 263.512 953.503 263.618C952.97 263.725 952.316 263.778 951.543 263.778ZM959.63 243.378H961.79L962.23 247.498C962.23 247.338 962.377 246.885 962.67 246.138C962.99 245.365 963.47 244.645 964.11 243.978C964.75 243.312 965.577 242.978 966.59 242.978C967.097 242.978 967.67 243.072 968.31 243.258C968.95 243.418 969.363 243.538 969.55 243.618L969.27 245.818C969.083 245.738 968.657 245.618 967.99 245.458C967.35 245.298 966.777 245.218 966.27 245.218C965.497 245.218 964.83 245.485 964.27 246.018C963.737 246.525 963.337 247.072 963.07 247.658C962.803 248.245 962.63 248.685 962.55 248.978V263.378H959.63V243.378ZM979.834 263.778C977.061 263.778 974.941 262.872 973.474 261.058C972.034 259.245 971.314 256.685 971.314 253.378C971.314 250.072 972.034 247.512 973.474 245.698C974.941 243.885 977.061 242.978 979.834 242.978C982.607 242.978 984.714 243.885 986.154 245.698C987.621 247.512 988.354 250.072 988.354 253.378C988.354 256.658 987.607 259.218 986.114 261.058C984.647 262.872 982.554 263.778 979.834 263.778ZM979.834 262.018C981.701 262.018 983.074 261.312 983.954 259.898C984.834 258.458 985.274 256.285 985.274 253.378C985.274 250.498 984.834 248.338 983.954 246.898C983.074 245.458 981.701 244.738 979.834 244.738C977.967 244.738 976.594 245.458 975.714 246.898C974.834 248.312 974.394 250.472 974.394 253.378C974.394 256.285 974.834 258.458 975.714 259.898C976.594 261.312 977.967 262.018 979.834 262.018ZM992.873 263.378V233.458L995.753 233.298V263.378H992.873ZM1006.74 263.778C1005.33 263.778 1004.13 263.565 1003.14 263.138C1002.18 262.685 1001.45 262.205 1000.94 261.698C1000.46 261.192 1000.22 260.898 1000.22 260.818L1001.22 259.418C1001.22 259.472 1001.43 259.725 1001.86 260.178C1002.29 260.632 1002.87 261.058 1003.62 261.458C1004.37 261.832 1005.25 262.018 1006.26 262.018C1007.75 262.018 1008.87 261.645 1009.62 260.898C1010.39 260.152 1010.78 259.245 1010.78 258.178C1010.78 257.405 1010.58 256.765 1010.18 256.258C1009.81 255.752 1009.33 255.365 1008.74 255.098C1008.18 254.805 1007.39 254.485 1006.38 254.138C1005.21 253.712 1004.27 253.325 1003.58 252.978C1002.89 252.605 1002.29 252.058 1001.78 251.338C1001.3 250.618 1001.06 249.685 1001.06 248.538C1001.06 246.832 1001.67 245.485 1002.9 244.498C1004.15 243.485 1005.75 242.978 1007.7 242.978C1008.55 242.978 1009.37 243.098 1010.14 243.338C1010.94 243.552 1011.58 243.792 1012.06 244.058C1012.54 244.298 1012.85 244.458 1012.98 244.538L1012.5 246.258C1012.39 246.178 1012.13 246.018 1011.7 245.778C1011.27 245.512 1010.71 245.258 1010.02 245.018C1009.35 244.778 1008.66 244.658 1007.94 244.658C1006.71 244.658 1005.71 244.965 1004.94 245.578C1004.19 246.192 1003.82 246.965 1003.82 247.898C1003.82 248.672 1004.02 249.325 1004.42 249.858C1004.82 250.365 1005.31 250.765 1005.9 251.058C1006.51 251.352 1007.33 251.685 1008.34 252.058C1009.51 252.458 1010.46 252.858 1011.18 253.258C1011.93 253.632 1012.55 254.178 1013.06 254.898C1013.57 255.618 1013.82 256.552 1013.82 257.698C1013.82 259.432 1013.22 260.885 1012.02 262.058C1010.82 263.205 1009.06 263.778 1006.74 263.778ZM1034.48 263.778C1031.82 263.778 1029.72 262.952 1028.2 261.298C1026.68 259.618 1025.92 257.112 1025.92 253.778C1025.92 250.418 1026.66 247.778 1028.12 245.858C1029.59 243.938 1031.59 242.978 1034.12 242.978C1036.42 242.978 1038.18 243.778 1039.4 245.378C1040.66 246.952 1041.28 249.192 1041.28 252.098C1041.28 252.605 1041.26 253.018 1041.2 253.338C1041.15 253.658 1041.11 253.858 1041.08 253.938H1028.96C1028.96 259.325 1030.91 262.018 1034.8 262.018C1035.87 262.018 1036.78 261.832 1037.52 261.458C1038.3 261.058 1038.9 260.645 1039.32 260.218C1039.75 259.765 1039.96 259.498 1039.96 259.418L1041.12 260.378C1041.12 260.485 1040.87 260.832 1040.36 261.418C1039.86 261.978 1039.11 262.512 1038.12 263.018C1037.14 263.525 1035.92 263.778 1034.48 263.778ZM1038.56 252.258L1038.6 251.498C1038.6 246.965 1037.11 244.698 1034.12 244.698C1032.55 244.698 1031.34 245.325 1030.48 246.578C1029.63 247.805 1029.14 249.698 1029 252.258H1038.56ZM1045.57 243.378H1047.97L1048.33 245.778C1048.7 245.192 1049.34 244.578 1050.25 243.938C1051.16 243.298 1052.41 242.978 1054.01 242.978C1056.36 242.978 1058.22 243.845 1059.61 245.578C1061.02 247.312 1061.73 249.725 1061.73 252.818C1061.73 256.178 1061.02 258.845 1059.61 260.818C1058.2 262.792 1056.2 263.778 1053.61 263.778C1052.52 263.778 1051.58 263.645 1050.81 263.378C1050.06 263.085 1049.49 262.778 1049.09 262.458C1048.69 262.112 1048.49 261.912 1048.49 261.858H1048.45V273.378L1045.57 273.458V243.378ZM1052.65 261.858C1054.73 261.858 1056.25 261.125 1057.21 259.658C1058.17 258.165 1058.65 255.912 1058.65 252.898C1058.65 250.098 1058.17 248.072 1057.21 246.818C1056.25 245.565 1054.86 244.938 1053.05 244.938C1052.09 244.938 1051.26 245.138 1050.57 245.538C1049.88 245.938 1049.34 246.378 1048.97 246.858C1048.62 247.312 1048.45 247.578 1048.45 247.658V260.098C1048.74 260.472 1049.22 260.858 1049.89 261.258C1050.58 261.658 1051.5 261.858 1052.65 261.858ZM1067.63 239.338C1067.15 239.338 1066.77 239.192 1066.47 238.898C1066.13 238.552 1065.95 238.125 1065.95 237.618C1065.95 237.112 1066.13 236.685 1066.47 236.338C1066.77 236.045 1067.15 235.898 1067.63 235.898C1068.14 235.898 1068.54 236.032 1068.83 236.298C1069.15 236.645 1069.31 237.085 1069.31 237.618C1069.31 238.098 1069.15 238.525 1068.83 238.898C1068.46 239.192 1068.06 239.338 1067.63 239.338ZM1066.15 263.378V243.378H1069.07V263.378H1066.15ZM1079.98 263.778C1078.54 263.778 1077.47 263.338 1076.78 262.458C1076.09 261.552 1075.74 260.072 1075.74 258.018V245.338H1073.66V243.658L1075.74 243.418L1076.82 237.058H1078.66V243.378H1083.78V245.338H1078.66V257.298C1078.66 259.032 1078.82 260.232 1079.14 260.898C1079.49 261.538 1080.07 261.858 1080.9 261.858C1081.57 261.858 1082.17 261.792 1082.7 261.658C1083.23 261.525 1083.5 261.445 1083.5 261.418L1083.7 263.018C1083.65 263.072 1083.47 263.165 1083.18 263.298C1082.91 263.405 1082.5 263.512 1081.94 263.618C1081.41 263.725 1080.75 263.778 1079.98 263.778ZM1095.11 263.778C1092.33 263.778 1090.21 262.872 1088.75 261.058C1087.31 259.245 1086.59 256.685 1086.59 253.378C1086.59 250.072 1087.31 247.512 1088.75 245.698C1090.21 243.885 1092.33 242.978 1095.11 242.978C1097.88 242.978 1099.99 243.885 1101.43 245.698C1102.89 247.512 1103.63 250.072 1103.63 253.378C1103.63 256.658 1102.88 259.218 1101.39 261.058C1099.92 262.872 1097.83 263.778 1095.11 263.778ZM1095.11 262.018C1096.97 262.018 1098.35 261.312 1099.23 259.898C1100.11 258.458 1100.55 256.285 1100.55 253.378C1100.55 250.498 1100.11 248.338 1099.23 246.898C1098.35 245.458 1096.97 244.738 1095.11 244.738C1093.24 244.738 1091.87 245.458 1090.99 246.898C1090.11 248.312 1089.67 250.472 1089.67 253.378C1089.67 256.285 1090.11 258.458 1090.99 259.898C1091.87 261.312 1093.24 262.018 1095.11 262.018ZM1108.15 243.378H1110.55L1110.91 245.778C1111.28 245.192 1111.92 244.578 1112.83 243.938C1113.73 243.298 1114.99 242.978 1116.59 242.978C1118.93 242.978 1120.8 243.845 1122.19 245.578C1123.6 247.312 1124.31 249.725 1124.31 252.818C1124.31 256.178 1123.6 258.845 1122.19 260.818C1120.77 262.792 1118.77 263.778 1116.19 263.778C1115.09 263.778 1114.16 263.645 1113.39 263.378C1112.64 263.085 1112.07 262.778 1111.67 262.458C1111.27 262.112 1111.07 261.912 1111.07 261.858H1111.03V273.378L1108.15 273.458V243.378ZM1115.23 261.858C1117.31 261.858 1118.83 261.125 1119.79 259.658C1120.75 258.165 1121.23 255.912 1121.23 252.898C1121.23 250.098 1120.75 248.072 1119.79 246.818C1118.83 245.565 1117.44 244.938 1115.63 244.938C1114.67 244.938 1113.84 245.138 1113.15 245.538C1112.45 245.938 1111.92 246.378 1111.55 246.858C1111.2 247.312 1111.03 247.578 1111.03 247.658V260.098C1111.32 260.472 1111.8 260.858 1112.47 261.258C1113.16 261.658 1114.08 261.858 1115.23 261.858ZM1135.81 263.778C1133.14 263.778 1131.05 262.952 1129.53 261.298C1128.01 259.618 1127.25 257.112 1127.25 253.778C1127.25 250.418 1127.98 247.778 1129.45 245.858C1130.92 243.938 1132.92 242.978 1135.45 242.978C1137.74 242.978 1139.5 243.778 1140.73 245.378C1141.98 246.952 1142.61 249.192 1142.61 252.098C1142.61 252.605 1142.58 253.018 1142.53 253.338C1142.48 253.658 1142.44 253.858 1142.41 253.938H1130.29C1130.29 259.325 1132.24 262.018 1136.13 262.018C1137.2 262.018 1138.1 261.832 1138.85 261.458C1139.62 261.058 1140.22 260.645 1140.65 260.218C1141.08 259.765 1141.29 259.498 1141.29 259.418L1142.45 260.378C1142.45 260.485 1142.2 260.832 1141.69 261.418C1141.18 261.978 1140.44 262.512 1139.45 263.018C1138.46 263.525 1137.25 263.778 1135.81 263.778ZM1139.89 252.258L1139.93 251.498C1139.93 246.965 1138.44 244.698 1135.45 244.698C1133.88 244.698 1132.66 245.325 1131.81 246.578C1130.96 247.805 1130.46 249.698 1130.33 252.258H1139.89ZM1145.26 253.218V251.338H1154.42V253.218H1145.26ZM893.321 305.778C891.561 305.778 890.148 305.352 889.081 304.498C888.015 303.618 887.481 302.405 887.481 300.858C887.481 296.938 891.255 294.578 898.801 293.778V291.658C898.801 289.765 898.495 288.472 897.881 287.778C897.268 287.085 896.188 286.738 894.641 286.738C893.948 286.738 893.241 286.872 892.521 287.138C891.801 287.378 891.188 287.645 890.681 287.938C890.201 288.205 889.895 288.378 889.761 288.458L889.441 286.818C889.575 286.712 889.908 286.512 890.441 286.218C891.001 285.925 891.695 285.645 892.521 285.378C893.375 285.112 894.228 284.978 895.081 284.978C897.375 284.978 899.055 285.458 900.121 286.418C901.188 287.378 901.721 289.072 901.721 291.498V301.298C901.721 302.365 901.815 303.085 902.001 303.458C902.215 303.832 902.468 304.018 902.761 304.018C903.001 304.018 903.295 303.978 903.641 303.898C903.988 303.792 904.215 303.712 904.321 303.658L904.441 305.018C904.228 305.098 903.775 305.245 903.081 305.458C902.388 305.672 901.801 305.778 901.321 305.778C900.628 305.778 900.095 305.565 899.721 305.138C899.348 304.685 899.121 303.898 899.041 302.778H899.001C899.001 302.885 898.788 303.192 898.361 303.698C897.935 304.205 897.295 304.685 896.441 305.138C895.615 305.565 894.575 305.778 893.321 305.778ZM894.201 304.018C895.161 304.018 895.988 303.805 896.681 303.378C897.375 302.952 897.895 302.485 898.241 301.978C898.615 301.472 898.801 301.178 898.801 301.098V295.258C896.375 295.525 894.375 296.045 892.801 296.818C891.255 297.592 890.481 298.818 890.481 300.498C890.481 301.645 890.815 302.525 891.481 303.138C892.148 303.725 893.055 304.018 894.201 304.018ZM908.264 285.378H910.664L911.024 287.298C911.45 286.792 912.117 286.285 913.024 285.778C913.93 285.245 915.237 284.978 916.944 284.978C918.864 284.978 920.357 285.525 921.424 286.618C922.49 287.685 923.024 289.285 923.024 291.418V305.378H920.104V292.018C920.104 290.312 919.757 289.072 919.064 288.298C918.37 287.498 917.344 287.098 915.984 287.098C915.024 287.098 914.184 287.245 913.464 287.538C912.744 287.832 912.17 288.152 911.744 288.498C911.344 288.845 911.144 289.045 911.144 289.098V305.378H908.264V285.378ZM933.652 305.778C932.212 305.778 931.146 305.338 930.452 304.458C929.759 303.552 929.412 302.072 929.412 300.018V287.338H927.332V285.658L929.412 285.418L930.492 279.058H932.332V285.378H937.452V287.338H932.332V299.298C932.332 301.032 932.492 302.232 932.812 302.898C933.159 303.538 933.746 303.858 934.572 303.858C935.239 303.858 935.839 303.792 936.372 303.658C936.906 303.525 937.172 303.445 937.172 303.418L937.372 305.018C937.319 305.072 937.146 305.165 936.852 305.298C936.586 305.405 936.172 305.512 935.612 305.618C935.079 305.725 934.426 305.778 933.652 305.778ZM943.219 281.338C942.739 281.338 942.353 281.192 942.059 280.898C941.713 280.552 941.539 280.125 941.539 279.618C941.539 279.112 941.713 278.685 942.059 278.338C942.353 278.045 942.739 277.898 943.219 277.898C943.726 277.898 944.126 278.032 944.419 278.298C944.739 278.645 944.899 279.085 944.899 279.618C944.899 280.098 944.739 280.525 944.419 280.898C944.046 281.192 943.646 281.338 943.219 281.338ZM941.739 305.378V285.378H944.659V305.378H941.739ZM958.566 305.818C957.18 305.818 956.06 305.605 955.206 305.178C954.353 304.725 953.713 304.272 953.286 303.818L952.726 305.378H950.646V275.458L953.566 275.298V287.658H953.606C953.606 287.578 953.793 287.312 954.166 286.858C954.566 286.378 955.153 285.938 955.926 285.538C956.726 285.138 957.726 284.938 958.926 284.938C961.3 284.938 963.206 285.818 964.646 287.578C966.086 289.312 966.806 291.725 966.806 294.818C966.806 298.178 966.1 300.858 964.686 302.858C963.273 304.832 961.233 305.818 958.566 305.818ZM957.806 303.898C959.86 303.898 961.353 303.152 962.286 301.658C963.246 300.138 963.726 297.885 963.726 294.898C963.726 292.125 963.246 290.098 962.286 288.818C961.326 287.512 959.926 286.858 958.086 286.858C956.753 286.858 955.726 287.205 955.006 287.898C954.286 288.592 953.806 289.205 953.566 289.738V302.098C953.753 302.445 954.206 302.832 954.926 303.258C955.646 303.685 956.606 303.898 957.806 303.898ZM978.271 305.778C975.498 305.778 973.378 304.872 971.911 303.058C970.471 301.245 969.751 298.685 969.751 295.378C969.751 292.072 970.471 289.512 971.911 287.698C973.378 285.885 975.498 284.978 978.271 284.978C981.045 284.978 983.151 285.885 984.591 287.698C986.058 289.512 986.791 292.072 986.791 295.378C986.791 298.658 986.045 301.218 984.551 303.058C983.085 304.872 980.991 305.778 978.271 305.778ZM978.271 304.018C980.138 304.018 981.511 303.312 982.391 301.898C983.271 300.458 983.711 298.285 983.711 295.378C983.711 292.498 983.271 290.338 982.391 288.898C981.511 287.458 980.138 286.738 978.271 286.738C976.405 286.738 975.031 287.458 974.151 288.898C973.271 290.312 972.831 292.472 972.831 295.378C972.831 298.285 973.271 300.458 974.151 301.898C975.031 303.312 976.405 304.018 978.271 304.018ZM997.831 305.778C995.404 305.778 993.457 304.912 991.991 303.178C990.524 301.445 989.791 299.032 989.791 295.938C989.791 292.605 990.497 289.952 991.911 287.978C993.351 285.978 995.364 284.978 997.951 284.978C999.044 284.978 999.964 285.125 1000.71 285.418C1001.46 285.685 1002.03 285.992 1002.43 286.338C1002.83 286.658 1003.03 286.845 1003.03 286.898H1003.07V275.458L1005.95 275.298V305.378H1003.47L1003.15 303.018C1002.86 303.605 1002.28 304.218 1001.43 304.858C1000.58 305.472 999.377 305.778 997.831 305.778ZM998.471 303.818C999.431 303.818 1000.26 303.618 1000.95 303.218C1001.64 302.792 1002.16 302.338 1002.51 301.858C1002.88 301.378 1003.07 301.098 1003.07 301.018V288.738C1003.07 288.685 1002.88 288.498 1002.51 288.178C1002.16 287.858 1001.67 287.565 1001.03 287.298C1000.42 287.032 999.684 286.898 998.831 286.898C996.777 286.898 995.271 287.658 994.311 289.178C993.351 290.672 992.871 292.898 992.871 295.858C992.871 298.658 993.337 300.685 994.271 301.938C995.231 303.192 996.631 303.818 998.471 303.818ZM1011.98 315.778C1011.5 315.778 1011.08 315.738 1010.74 315.658C1010.39 315.578 1010.12 315.498 1009.94 315.418C1009.75 315.338 1009.63 315.285 1009.58 315.258L1009.9 313.418C1009.98 313.472 1010.18 313.538 1010.5 313.618C1010.82 313.725 1011.16 313.778 1011.54 313.778C1012.76 313.778 1013.79 313.112 1014.62 311.778C1015.44 310.472 1016.36 308.418 1017.38 305.618L1009.54 285.378H1012.98L1018.9 302.098L1024.26 285.378H1026.38L1019.46 305.698C1018.31 308.978 1017.18 311.472 1016.06 313.178C1014.96 314.912 1013.6 315.778 1011.98 315.778ZM1047.16 305.818C1045.77 305.818 1044.65 305.605 1043.8 305.178C1042.95 304.725 1042.31 304.272 1041.88 303.818L1041.32 305.378H1039.24V275.458L1042.16 275.298V287.658H1042.2C1042.2 287.578 1042.39 287.312 1042.76 286.858C1043.16 286.378 1043.75 285.938 1044.52 285.538C1045.32 285.138 1046.32 284.938 1047.52 284.938C1049.89 284.938 1051.8 285.818 1053.24 287.578C1054.68 289.312 1055.4 291.725 1055.4 294.818C1055.4 298.178 1054.69 300.858 1053.28 302.858C1051.87 304.832 1049.83 305.818 1047.16 305.818ZM1046.4 303.898C1048.45 303.898 1049.95 303.152 1050.88 301.658C1051.84 300.138 1052.32 297.885 1052.32 294.898C1052.32 292.125 1051.84 290.098 1050.88 288.818C1049.92 287.512 1048.52 286.858 1046.68 286.858C1045.35 286.858 1044.32 287.205 1043.6 287.898C1042.88 288.592 1042.4 289.205 1042.16 289.738V302.098C1042.35 302.445 1042.8 302.832 1043.52 303.258C1044.24 303.685 1045.2 303.898 1046.4 303.898ZM1061.31 281.338C1060.83 281.338 1060.44 281.192 1060.15 280.898C1059.8 280.552 1059.63 280.125 1059.63 279.618C1059.63 279.112 1059.8 278.685 1060.15 278.338C1060.44 278.045 1060.83 277.898 1061.31 277.898C1061.81 277.898 1062.21 278.032 1062.51 278.298C1062.83 278.645 1062.99 279.085 1062.99 279.618C1062.99 280.098 1062.83 280.525 1062.51 280.898C1062.13 281.192 1061.73 281.338 1061.31 281.338ZM1059.83 305.378V285.378H1062.75V305.378H1059.83ZM1068.73 285.378H1071.13L1071.49 287.298C1071.92 286.792 1072.59 286.285 1073.49 285.778C1074.4 285.245 1075.71 284.978 1077.41 284.978C1079.33 284.978 1080.83 285.525 1081.89 286.618C1082.96 287.685 1083.49 289.285 1083.49 291.418V305.378H1080.57V292.018C1080.57 290.312 1080.23 289.072 1079.53 288.298C1078.84 287.498 1077.81 287.098 1076.45 287.098C1075.49 287.098 1074.65 287.245 1073.93 287.538C1073.21 287.832 1072.64 288.152 1072.21 288.498C1071.81 288.845 1071.61 289.045 1071.61 289.098V305.378H1068.73V285.378ZM1095.72 305.778C1093.29 305.778 1091.35 304.912 1089.88 303.178C1088.41 301.445 1087.68 299.032 1087.68 295.938C1087.68 292.605 1088.39 289.952 1089.8 287.978C1091.24 285.978 1093.25 284.978 1095.84 284.978C1096.93 284.978 1097.85 285.125 1098.6 285.418C1099.35 285.685 1099.92 285.992 1100.32 286.338C1100.72 286.658 1100.92 286.845 1100.92 286.898H1100.96V275.458L1103.84 275.298V305.378H1101.36L1101.04 303.018C1100.75 303.605 1100.17 304.218 1099.32 304.858C1098.47 305.472 1097.27 305.778 1095.72 305.778ZM1096.36 303.818C1097.32 303.818 1098.15 303.618 1098.84 303.218C1099.53 302.792 1100.05 302.338 1100.4 301.858C1100.77 301.378 1100.96 301.098 1100.96 301.018V288.738C1100.96 288.685 1100.77 288.498 1100.4 288.178C1100.05 287.858 1099.56 287.565 1098.92 287.298C1098.31 287.032 1097.57 286.898 1096.72 286.898C1094.67 286.898 1093.16 287.658 1092.2 289.178C1091.24 290.672 1090.76 292.898 1090.76 295.858C1090.76 298.658 1091.23 300.685 1092.16 301.938C1093.12 303.192 1094.52 303.818 1096.36 303.818ZM1111.27 281.338C1110.79 281.338 1110.4 281.192 1110.11 280.898C1109.76 280.552 1109.59 280.125 1109.59 279.618C1109.59 279.112 1109.76 278.685 1110.11 278.338C1110.4 278.045 1110.79 277.898 1111.27 277.898C1111.77 277.898 1112.17 278.032 1112.47 278.298C1112.79 278.645 1112.95 279.085 1112.95 279.618C1112.95 280.098 1112.79 280.525 1112.47 280.898C1112.09 281.192 1111.69 281.338 1111.27 281.338ZM1109.79 305.378V285.378H1112.71V305.378H1109.79ZM1118.69 285.378H1121.09L1121.45 287.298C1121.88 286.792 1122.55 286.285 1123.45 285.778C1124.36 285.245 1125.67 284.978 1127.37 284.978C1129.29 284.978 1130.79 285.525 1131.85 286.618C1132.92 287.685 1133.45 289.285 1133.45 291.418V305.378H1130.53V292.018C1130.53 290.312 1130.19 289.072 1129.49 288.298C1128.8 287.498 1127.77 287.098 1126.41 287.098C1125.45 287.098 1124.61 287.245 1123.89 287.538C1123.17 287.832 1122.6 288.152 1122.17 288.498C1121.77 288.845 1121.57 289.045 1121.57 289.098V305.378H1118.69V285.378ZM1145.6 315.778C1142.78 315.778 1140.63 315.218 1139.16 314.098C1137.7 313.005 1136.96 311.392 1136.96 309.258C1136.96 307.872 1137.27 306.752 1137.88 305.898C1138.52 305.045 1139.32 304.418 1140.28 304.018C1139.8 303.458 1139.56 302.672 1139.56 301.658C1139.56 300.352 1140.18 299.232 1141.4 298.298C1140.34 297.738 1139.51 296.938 1138.92 295.898C1138.34 294.832 1138.04 293.552 1138.04 292.058C1138.04 289.632 1138.72 287.845 1140.08 286.698C1141.47 285.552 1143.24 284.978 1145.4 284.978C1146.44 284.978 1147.36 285.112 1148.16 285.378L1153.32 285.418V286.978L1150.76 287.058C1151.83 288.258 1152.36 289.925 1152.36 292.058C1152.36 294.352 1151.74 296.112 1150.48 297.338C1149.26 298.565 1147.55 299.178 1145.36 299.178C1144.46 299.178 1143.64 299.085 1142.92 298.898C1141.99 299.512 1141.52 300.205 1141.52 300.978C1141.52 301.698 1141.82 302.205 1142.4 302.498C1142.99 302.765 1143.94 302.898 1145.24 302.898C1151.08 302.898 1154 304.952 1154 309.058C1154 311.245 1153.27 312.912 1151.8 314.058C1150.36 315.205 1148.3 315.778 1145.6 315.778ZM1145.28 297.578C1148.11 297.578 1149.52 295.725 1149.52 292.018C1149.52 290.098 1149.15 288.738 1148.4 287.938C1147.66 287.112 1146.6 286.698 1145.24 286.698C1143.88 286.698 1142.8 287.098 1142 287.898C1141.23 288.698 1140.84 290.085 1140.84 292.058C1140.84 293.872 1141.23 295.245 1142 296.178C1142.78 297.112 1143.87 297.578 1145.28 297.578ZM1145.6 313.978C1147.47 313.978 1148.91 313.592 1149.92 312.818C1150.94 312.072 1151.44 310.978 1151.44 309.538C1151.44 306.738 1149.27 305.338 1144.92 305.338C1143.67 305.338 1142.67 305.232 1141.92 305.018C1141.12 305.338 1140.47 305.845 1139.96 306.538C1139.48 307.258 1139.24 308.152 1139.24 309.218C1139.24 310.818 1139.79 312.005 1140.88 312.778C1142 313.578 1143.58 313.978 1145.6 313.978Z" fill="black"/>
</g>
<defs>
<clipPath id="clip0_238_1637">
<rect width="1221" height="586" fill="white" transform="translate(0 0.5)"/>
</clipPath>
</defs>
</svg>
