<svg width="741" height="1198" viewBox="0 0 741 1198" fill="none" xmlns="http://www.w3.org/2000/svg">
<g clip-path="url(#clip0_238_1638)">
<path d="M94.3041 1133.36H106.184C111.784 1133.36 116.124 1135.06 119.204 1138.46C122.324 1141.82 123.884 1146.66 123.884 1152.98C123.884 1159.26 122.344 1164.06 119.264 1167.38C116.224 1170.7 111.864 1172.36 106.184 1172.36H94.3041V1133.36ZM106.244 1169.48C114.724 1169.48 118.964 1163.98 118.964 1152.98C118.964 1141.82 114.704 1136.24 106.184 1136.24H98.8641V1169.48H106.244ZM141.751 1172.96C137.751 1172.96 134.611 1171.72 132.331 1169.24C130.051 1166.72 128.911 1162.96 128.911 1157.96C128.911 1152.92 130.011 1148.96 132.211 1146.08C134.411 1143.2 137.411 1141.76 141.211 1141.76C144.651 1141.76 147.291 1142.96 149.131 1145.36C151.011 1147.72 151.951 1151.08 151.951 1155.44C151.951 1156.2 151.911 1156.82 151.831 1157.3C151.751 1157.78 151.691 1158.08 151.651 1158.2H133.471C133.471 1166.28 136.391 1170.32 142.231 1170.32C143.831 1170.32 145.191 1170.04 146.311 1169.48C147.471 1168.88 148.371 1168.26 149.011 1167.62C149.651 1166.94 149.971 1166.54 149.971 1166.42L151.711 1167.86C151.711 1168.02 151.331 1168.54 150.571 1169.42C149.811 1170.26 148.691 1171.06 147.211 1171.82C145.731 1172.58 143.911 1172.96 141.751 1172.96ZM147.871 1155.68L147.931 1154.54C147.931 1147.74 145.691 1144.34 141.211 1144.34C138.851 1144.34 137.031 1145.28 135.751 1147.16C134.471 1149 133.731 1151.84 133.531 1155.68H147.871ZM159.579 1145.3H156.459V1142.78L159.579 1142.42V1138.1C159.579 1134.22 160.179 1131.38 161.379 1129.58C162.579 1127.74 164.599 1126.82 167.439 1126.82C168.399 1126.82 169.299 1126.96 170.139 1127.24C170.979 1127.48 171.659 1127.74 172.179 1128.02C172.699 1128.3 173.019 1128.48 173.139 1128.56L172.539 1130.9C172.419 1130.82 172.159 1130.68 171.759 1130.48C171.359 1130.24 170.839 1130.02 170.199 1129.82C169.559 1129.62 168.899 1129.52 168.219 1129.52C167.139 1129.52 166.299 1129.78 165.699 1130.3C165.099 1130.82 164.639 1131.74 164.319 1133.06C164.039 1134.38 163.899 1136.22 163.899 1138.58V1142.36H172.599V1145.3H163.899V1172.36H159.579V1145.3ZM185.948 1172.96C183.028 1172.96 180.768 1172.16 179.168 1170.56C177.568 1168.92 176.768 1166.5 176.768 1163.3V1142.36H181.148V1162.4C181.148 1167.32 183.228 1169.78 187.388 1169.78C188.828 1169.78 190.068 1169.56 191.108 1169.12C192.148 1168.64 192.968 1168.14 193.568 1167.62C194.208 1167.1 194.528 1166.8 194.528 1166.72V1142.36H198.908V1172.36H195.248L194.648 1169.48C194.128 1170.2 193.168 1170.96 191.768 1171.76C190.368 1172.56 188.428 1172.96 185.948 1172.96ZM207.891 1142.36H211.491L212.031 1145.24C212.671 1144.48 213.671 1143.72 215.031 1142.96C216.391 1142.16 218.351 1141.76 220.911 1141.76C223.791 1141.76 226.031 1142.58 227.631 1144.22C229.231 1145.82 230.031 1148.22 230.031 1151.42V1172.36H225.651V1152.32C225.651 1149.76 225.131 1147.9 224.091 1146.74C223.051 1145.54 221.511 1144.94 219.471 1144.94C218.031 1144.94 216.771 1145.16 215.691 1145.6C214.611 1146.04 213.751 1146.52 213.111 1147.04C212.511 1147.56 212.211 1147.86 212.211 1147.94V1172.36H207.891V1142.36ZM249.274 1172.96C245.114 1172.96 241.914 1171.68 239.674 1169.12C237.434 1166.56 236.314 1162.74 236.314 1157.66C236.314 1152.54 237.414 1148.62 239.614 1145.9C241.854 1143.14 245.114 1141.76 249.394 1141.76C250.794 1141.76 252.114 1141.96 253.354 1142.36C254.594 1142.72 255.634 1143.14 256.474 1143.62C257.354 1144.06 257.794 1144.3 257.794 1144.34L257.254 1146.8C257.094 1146.68 256.654 1146.44 255.934 1146.08C255.254 1145.68 254.354 1145.3 253.234 1144.94C252.154 1144.58 251.034 1144.4 249.874 1144.4C246.794 1144.4 244.534 1145.42 243.094 1147.46C241.654 1149.5 240.934 1152.88 240.934 1157.6C240.934 1162.16 241.694 1165.42 243.214 1167.38C244.734 1169.34 246.874 1170.32 249.634 1170.32C251.194 1170.32 252.514 1170.04 253.594 1169.48C254.714 1168.92 255.574 1168.34 256.174 1167.74C256.774 1167.1 257.074 1166.72 257.074 1166.6L258.994 1167.86C258.994 1168.02 258.634 1168.54 257.914 1169.42C257.194 1170.26 256.114 1171.06 254.674 1171.82C253.234 1172.58 251.434 1172.96 249.274 1172.96ZM271.345 1172.96C269.185 1172.96 267.585 1172.3 266.545 1170.98C265.505 1169.62 264.985 1167.4 264.985 1164.32V1145.3H261.865V1142.78L264.985 1142.42L266.605 1132.88H269.365V1142.36H277.045V1145.3H269.365V1163.24C269.365 1165.84 269.605 1167.64 270.085 1168.64C270.605 1169.6 271.485 1170.08 272.725 1170.08C273.725 1170.08 274.625 1169.98 275.425 1169.78C276.225 1169.58 276.625 1169.46 276.625 1169.42L276.925 1171.82C276.845 1171.9 276.585 1172.04 276.145 1172.24C275.745 1172.4 275.125 1172.56 274.285 1172.72C273.485 1172.88 272.505 1172.96 271.345 1172.96ZM304.559 1172.36V1136.24H293.459V1133.36H320.279V1136.24H309.119V1172.36H304.559ZM325.135 1127.48L329.515 1127.24V1145.06H329.575C329.575 1145.06 329.815 1144.8 330.295 1144.28C330.815 1143.72 331.815 1143.16 333.295 1142.6C334.775 1142.04 336.395 1141.76 338.155 1141.76C341.075 1141.76 343.315 1142.58 344.875 1144.22C346.475 1145.82 347.275 1148.22 347.275 1151.42V1172.36H342.955V1151.96C342.955 1147.28 340.875 1144.94 336.715 1144.94C335.275 1144.94 334.015 1145.16 332.935 1145.6C331.855 1146.04 331.015 1146.52 330.415 1147.04C329.815 1147.56 329.515 1147.86 329.515 1147.94V1172.36H325.135V1127.48ZM362.618 1172.36V1136.84L355.418 1140.86L354.398 1138.52L363.338 1133.36H366.938V1172.36H362.618ZM380.087 1172.36C382.047 1163.32 386.667 1151.76 393.947 1137.68H376.007V1133.36H397.667V1136.96C395.027 1141.88 392.487 1147.64 390.047 1154.24C387.647 1160.84 385.907 1166.88 384.827 1172.36H380.087ZM406.001 1172.9C405.321 1172.9 404.701 1172.66 404.141 1172.18C403.581 1171.66 403.301 1170.98 403.301 1170.14C403.301 1169.3 403.581 1168.62 404.141 1168.1C404.701 1167.62 405.321 1167.38 406.001 1167.38C406.761 1167.38 407.401 1167.62 407.921 1168.1C408.441 1168.62 408.701 1169.3 408.701 1170.14C408.701 1170.98 408.441 1171.66 407.921 1172.18C407.361 1172.66 406.721 1172.9 406.001 1172.9ZM424.611 1172.36V1136.84L417.411 1140.86L416.391 1138.52L425.331 1133.36H428.931V1172.36H424.611ZM437.579 1157.12V1154.3H451.319V1157.12H437.579ZM457.852 1172.36V1127.48L462.172 1127.24V1172.36H457.852ZM473.371 1136.3C472.651 1136.3 472.071 1136.08 471.631 1135.64C471.111 1135.12 470.851 1134.48 470.851 1133.72C470.851 1132.96 471.111 1132.32 471.631 1131.8C472.071 1131.36 472.651 1131.14 473.371 1131.14C474.131 1131.14 474.731 1131.34 475.171 1131.74C475.651 1132.26 475.891 1132.92 475.891 1133.72C475.891 1134.44 475.651 1135.08 475.171 1135.64C474.611 1136.08 474.011 1136.3 473.371 1136.3ZM471.151 1172.36V1142.36H475.531V1172.36H471.151ZM484.452 1172.36V1127.48L488.832 1127.24V1156.1L492.492 1153.58L501.432 1142.36H504.732L494.832 1154.66L505.992 1172.36H501.012L491.472 1157.24L488.832 1158.86V1172.36H484.452ZM522.435 1172.96C518.435 1172.96 515.295 1171.72 513.015 1169.24C510.735 1166.72 509.595 1162.96 509.595 1157.96C509.595 1152.92 510.695 1148.96 512.895 1146.08C515.095 1143.2 518.095 1141.76 521.895 1141.76C525.335 1141.76 527.975 1142.96 529.815 1145.36C531.695 1147.72 532.635 1151.08 532.635 1155.44C532.635 1156.2 532.595 1156.82 532.515 1157.3C532.435 1157.78 532.375 1158.08 532.335 1158.2H514.155C514.155 1166.28 517.075 1170.32 522.915 1170.32C524.515 1170.32 525.875 1170.04 526.995 1169.48C528.155 1168.88 529.055 1168.26 529.695 1167.62C530.335 1166.94 530.655 1166.54 530.655 1166.42L532.395 1167.86C532.395 1168.02 532.015 1168.54 531.255 1169.42C530.495 1170.26 529.375 1171.06 527.895 1171.82C526.415 1172.58 524.595 1172.96 522.435 1172.96ZM528.555 1155.68L528.615 1154.54C528.615 1147.74 526.375 1144.34 521.895 1144.34C519.535 1144.34 517.715 1145.28 516.435 1147.16C515.155 1149 514.415 1151.84 514.215 1155.68H528.555ZM563.746 1172.96C559.586 1172.96 556.386 1171.68 554.146 1169.12C551.906 1166.56 550.786 1162.74 550.786 1157.66C550.786 1152.54 551.886 1148.62 554.086 1145.9C556.326 1143.14 559.586 1141.76 563.866 1141.76C565.266 1141.76 566.586 1141.96 567.826 1142.36C569.066 1142.72 570.106 1143.14 570.946 1143.62C571.826 1144.06 572.266 1144.3 572.266 1144.34L571.726 1146.8C571.566 1146.68 571.126 1146.44 570.406 1146.08C569.726 1145.68 568.826 1145.3 567.706 1144.94C566.626 1144.58 565.506 1144.4 564.346 1144.4C561.266 1144.4 559.006 1145.42 557.566 1147.46C556.126 1149.5 555.406 1152.88 555.406 1157.6C555.406 1162.16 556.166 1165.42 557.686 1167.38C559.206 1169.34 561.346 1170.32 564.106 1170.32C565.666 1170.32 566.986 1170.04 568.066 1169.48C569.186 1168.92 570.046 1168.34 570.646 1167.74C571.246 1167.1 571.546 1166.72 571.546 1166.6L573.466 1167.86C573.466 1168.02 573.106 1168.54 572.386 1169.42C571.666 1170.26 570.586 1171.06 569.146 1171.82C567.706 1172.58 565.906 1172.96 563.746 1172.96ZM588.998 1172.96C584.998 1172.96 581.858 1171.72 579.578 1169.24C577.298 1166.72 576.158 1162.96 576.158 1157.96C576.158 1152.92 577.258 1148.96 579.458 1146.08C581.658 1143.2 584.658 1141.76 588.458 1141.76C591.898 1141.76 594.538 1142.96 596.378 1145.36C598.258 1147.72 599.198 1151.08 599.198 1155.44C599.198 1156.2 599.158 1156.82 599.078 1157.3C598.998 1157.78 598.938 1158.08 598.898 1158.2H580.718C580.718 1166.28 583.638 1170.32 589.478 1170.32C591.078 1170.32 592.438 1170.04 593.558 1169.48C594.718 1168.88 595.618 1168.26 596.258 1167.62C596.898 1166.94 597.218 1166.54 597.218 1166.42L598.958 1167.86C598.958 1168.02 598.578 1168.54 597.818 1169.42C597.058 1170.26 595.938 1171.06 594.458 1171.82C592.978 1172.58 591.158 1172.96 588.998 1172.96ZM595.118 1155.68L595.178 1154.54C595.178 1147.74 592.938 1144.34 588.458 1144.34C586.098 1144.34 584.278 1145.28 582.998 1147.16C581.718 1149 580.978 1151.84 580.778 1155.68H595.118ZM605.625 1172.36V1127.48L609.945 1127.24V1172.36H605.625ZM618.984 1172.36V1127.48L623.304 1127.24V1172.36H618.984ZM639.784 1172.96C637.664 1172.96 635.864 1172.64 634.384 1172C632.944 1171.32 631.844 1170.6 631.084 1169.84C630.364 1169.08 630.004 1168.64 630.004 1168.52L631.504 1166.42C631.504 1166.5 631.824 1166.88 632.464 1167.56C633.104 1168.24 633.984 1168.88 635.104 1169.48C636.224 1170.04 637.544 1170.32 639.064 1170.32C641.304 1170.32 642.984 1169.76 644.104 1168.64C645.264 1167.52 645.844 1166.16 645.844 1164.56C645.844 1163.4 645.544 1162.44 644.944 1161.68C644.384 1160.92 643.664 1160.34 642.784 1159.94C641.944 1159.5 640.764 1159.02 639.244 1158.5C637.484 1157.86 636.084 1157.28 635.044 1156.76C634.004 1156.2 633.104 1155.38 632.344 1154.3C631.624 1153.22 631.264 1151.82 631.264 1150.1C631.264 1147.54 632.184 1145.52 634.024 1144.04C635.904 1142.52 638.304 1141.76 641.224 1141.76C642.504 1141.76 643.724 1141.94 644.884 1142.3C646.084 1142.62 647.044 1142.98 647.764 1143.38C648.484 1143.74 648.944 1143.98 649.144 1144.1L648.424 1146.68C648.264 1146.56 647.864 1146.32 647.224 1145.96C646.584 1145.56 645.744 1145.18 644.704 1144.82C643.704 1144.46 642.664 1144.28 641.584 1144.28C639.744 1144.28 638.244 1144.74 637.084 1145.66C635.964 1146.58 635.404 1147.74 635.404 1149.14C635.404 1150.3 635.704 1151.28 636.304 1152.08C636.904 1152.84 637.644 1153.44 638.524 1153.88C639.444 1154.32 640.664 1154.82 642.184 1155.38C643.944 1155.98 645.364 1156.58 646.444 1157.18C647.564 1157.74 648.504 1158.56 649.264 1159.64C650.024 1160.72 650.404 1162.12 650.404 1163.84C650.404 1166.44 649.504 1168.62 647.704 1170.38C645.904 1172.1 643.264 1172.96 639.784 1172.96Z" fill="black"/>
<path d="M38.7668 367.996V341.996H41.8068V367.996H38.7668ZM49.3928 349.956H47.3128V348.276L49.3928 348.036V345.156C49.3928 342.569 49.7928 340.676 50.5928 339.476C51.3928 338.249 52.7394 337.636 54.6328 337.636C55.2728 337.636 55.8728 337.729 56.4328 337.916C56.9928 338.076 57.4461 338.249 57.7928 338.436C58.1394 338.623 58.3528 338.743 58.4328 338.796L58.0328 340.356C57.9528 340.303 57.7794 340.209 57.5128 340.076C57.2461 339.916 56.8994 339.769 56.4728 339.636C56.0461 339.503 55.6061 339.436 55.1528 339.436C54.4328 339.436 53.8728 339.609 53.4728 339.956C53.0728 340.303 52.7661 340.916 52.5528 341.796C52.3661 342.676 52.2728 343.903 52.2728 345.476V347.996H58.0728V349.956H52.2728V367.996H49.3928V349.956ZM71.2278 367.996V341.996H74.3878L87.6678 363.436L87.5478 362.476V341.996H89.7478V367.996H87.1078L73.2678 345.836H73.2278L73.4278 347.076V367.996H71.2278ZM106.562 368.396C104.242 368.396 102.242 367.863 100.562 366.796C98.9091 365.729 97.6425 364.196 96.7625 362.196C95.8825 360.169 95.4425 357.783 95.4425 355.036C95.4425 352.289 95.8825 349.916 96.7625 347.916C97.6425 345.889 98.9091 344.343 100.562 343.276C102.242 342.183 104.242 341.636 106.562 341.636C108.882 341.636 110.882 342.183 112.562 343.276C114.242 344.343 115.522 345.889 116.402 347.916C117.309 349.916 117.762 352.289 117.762 355.036C117.762 357.783 117.309 360.169 116.402 362.196C115.522 364.196 114.242 365.729 112.562 366.796C110.882 367.863 108.882 368.396 106.562 368.396ZM106.562 366.476C109.122 366.476 111.082 365.503 112.442 363.556C113.829 361.609 114.522 358.769 114.522 355.036C114.522 351.329 113.829 348.489 112.442 346.516C111.082 344.543 109.122 343.556 106.562 343.556C104.029 343.556 102.082 344.543 100.722 346.516C99.3625 348.489 98.6825 351.329 98.6825 355.036C98.6825 358.769 99.3491 361.609 100.682 363.556C102.042 365.503 104.002 366.476 106.562 366.476ZM127.374 367.996V343.916H119.974V341.996H137.854V343.916H130.414V367.996H127.374ZM154.588 368.396C152.828 368.396 151.414 367.969 150.348 367.116C149.281 366.236 148.748 365.023 148.748 363.476C148.748 359.556 152.521 357.196 160.068 356.396V354.276C160.068 352.383 159.761 351.089 159.148 350.396C158.534 349.703 157.454 349.356 155.908 349.356C155.214 349.356 154.508 349.489 153.788 349.756C153.068 349.996 152.454 350.263 151.948 350.556C151.468 350.823 151.161 350.996 151.028 351.076L150.708 349.436C150.841 349.329 151.174 349.129 151.708 348.836C152.268 348.543 152.961 348.263 153.788 347.996C154.641 347.729 155.494 347.596 156.348 347.596C158.641 347.596 160.321 348.076 161.388 349.036C162.454 349.996 162.988 351.689 162.988 354.116V363.916C162.988 364.983 163.081 365.703 163.268 366.076C163.481 366.449 163.734 366.636 164.028 366.636C164.268 366.636 164.561 366.596 164.908 366.516C165.254 366.409 165.481 366.329 165.588 366.276L165.708 367.636C165.494 367.716 165.041 367.863 164.348 368.076C163.654 368.289 163.068 368.396 162.588 368.396C161.894 368.396 161.361 368.183 160.988 367.756C160.614 367.303 160.388 366.516 160.308 365.396H160.268C160.268 365.503 160.054 365.809 159.628 366.316C159.201 366.823 158.561 367.303 157.708 367.756C156.881 368.183 155.841 368.396 154.588 368.396ZM155.468 366.636C156.428 366.636 157.254 366.423 157.948 365.996C158.641 365.569 159.161 365.103 159.508 364.596C159.881 364.089 160.068 363.796 160.068 363.716V357.876C157.641 358.143 155.641 358.663 154.068 359.436C152.521 360.209 151.748 361.436 151.748 363.116C151.748 364.263 152.081 365.143 152.748 365.756C153.414 366.343 154.321 366.636 155.468 366.636ZM169.53 347.996H171.93L172.29 349.916C172.717 349.409 173.384 348.903 174.29 348.396C175.197 347.863 176.504 347.596 178.21 347.596C180.13 347.596 181.624 348.143 182.69 349.236C183.757 350.303 184.29 351.903 184.29 354.036V367.996H181.37V354.636C181.37 352.929 181.024 351.689 180.33 350.916C179.637 350.116 178.61 349.716 177.25 349.716C176.29 349.716 175.45 349.863 174.73 350.156C174.01 350.449 173.437 350.769 173.01 351.116C172.61 351.463 172.41 351.663 172.41 351.716V367.996H169.53V347.996ZM194.919 368.396C193.479 368.396 192.412 367.956 191.719 367.076C191.026 366.169 190.679 364.689 190.679 362.636V349.956H188.599V348.276L190.679 348.036L191.759 341.676H193.599V347.996H198.719V349.956H193.599V361.916C193.599 363.649 193.759 364.849 194.079 365.516C194.426 366.156 195.012 366.476 195.839 366.476C196.506 366.476 197.106 366.409 197.639 366.276C198.172 366.143 198.439 366.063 198.439 366.036L198.639 367.636C198.586 367.689 198.412 367.783 198.119 367.916C197.852 368.023 197.439 368.129 196.879 368.236C196.346 368.343 195.692 368.396 194.919 368.396ZM204.486 343.956C204.006 343.956 203.619 343.809 203.326 343.516C202.979 343.169 202.806 342.743 202.806 342.236C202.806 341.729 202.979 341.303 203.326 340.956C203.619 340.663 204.006 340.516 204.486 340.516C204.993 340.516 205.393 340.649 205.686 340.916C206.006 341.263 206.166 341.703 206.166 342.236C206.166 342.716 206.006 343.143 205.686 343.516C205.313 343.809 204.913 343.956 204.486 343.956ZM203.006 367.996V347.996H205.926V367.996H203.006ZM218.353 378.396C215.526 378.396 213.38 377.836 211.913 376.716C210.446 375.623 209.713 374.009 209.713 371.876C209.713 370.489 210.02 369.369 210.633 368.516C211.273 367.663 212.073 367.036 213.033 366.636C212.553 366.076 212.313 365.289 212.313 364.276C212.313 362.969 212.926 361.849 214.153 360.916C213.086 360.356 212.26 359.556 211.673 358.516C211.086 357.449 210.793 356.169 210.793 354.676C210.793 352.249 211.473 350.463 212.833 349.316C214.22 348.169 215.993 347.596 218.153 347.596C219.193 347.596 220.113 347.729 220.913 347.996L226.073 348.036V349.596L223.513 349.676C224.58 350.876 225.113 352.543 225.113 354.676C225.113 356.969 224.486 358.729 223.233 359.956C222.006 361.183 220.3 361.796 218.113 361.796C217.206 361.796 216.393 361.703 215.673 361.516C214.74 362.129 214.273 362.823 214.273 363.596C214.273 364.316 214.566 364.823 215.153 365.116C215.74 365.383 216.686 365.516 217.993 365.516C223.833 365.516 226.753 367.569 226.753 371.676C226.753 373.863 226.02 375.529 224.553 376.676C223.113 377.823 221.046 378.396 218.353 378.396ZM218.033 360.196C220.86 360.196 222.273 358.343 222.273 354.636C222.273 352.716 221.9 351.356 221.153 350.556C220.406 349.729 219.353 349.316 217.993 349.316C216.633 349.316 215.553 349.716 214.753 350.516C213.98 351.316 213.593 352.703 213.593 354.676C213.593 356.489 213.98 357.863 214.753 358.796C215.526 359.729 216.62 360.196 218.033 360.196ZM218.353 376.596C220.22 376.596 221.66 376.209 222.673 375.436C223.686 374.689 224.193 373.596 224.193 372.156C224.193 369.356 222.02 367.956 217.673 367.956C216.42 367.956 215.42 367.849 214.673 367.636C213.873 367.956 213.22 368.463 212.713 369.156C212.233 369.876 211.993 370.769 211.993 371.836C211.993 373.436 212.54 374.623 213.633 375.396C214.753 376.196 216.326 376.596 218.353 376.596ZM237 368.396C234.333 368.396 232.24 367.569 230.72 365.916C229.2 364.236 228.44 361.729 228.44 358.396C228.44 355.036 229.173 352.396 230.64 350.476C232.107 348.556 234.107 347.596 236.64 347.596C238.933 347.596 240.693 348.396 241.92 349.996C243.173 351.569 243.8 353.809 243.8 356.716C243.8 357.223 243.773 357.636 243.72 357.956C243.667 358.276 243.627 358.476 243.6 358.556H231.48C231.48 363.943 233.427 366.636 237.32 366.636C238.387 366.636 239.293 366.449 240.04 366.076C240.813 365.676 241.413 365.263 241.84 364.836C242.267 364.383 242.48 364.116 242.48 364.036L243.64 364.996C243.64 365.103 243.387 365.449 242.88 366.036C242.373 366.596 241.627 367.129 240.64 367.636C239.653 368.143 238.44 368.396 237 368.396ZM241.08 356.876L241.12 356.116C241.12 351.583 239.627 349.316 236.64 349.316C235.067 349.316 233.853 349.943 233 351.196C232.147 352.423 231.653 354.316 231.52 356.876H241.08ZM248.085 347.996H250.485L250.845 349.916C251.272 349.409 251.938 348.903 252.845 348.396C253.752 347.863 255.058 347.596 256.765 347.596C258.685 347.596 260.178 348.143 261.245 349.236C262.312 350.303 262.845 351.903 262.845 354.036V367.996H259.925V354.636C259.925 352.929 259.578 351.689 258.885 350.916C258.192 350.116 257.165 349.716 255.805 349.716C254.845 349.716 254.005 349.863 253.285 350.156C252.565 350.449 251.992 350.769 251.565 351.116C251.165 351.463 250.965 351.663 250.965 351.716V367.996H248.085V347.996ZM39.4468 385.956C38.9668 385.956 38.5802 385.809 38.2868 385.516C37.9402 385.169 37.7668 384.743 37.7668 384.236C37.7668 383.729 37.9402 383.303 38.2868 382.956C38.5802 382.663 38.9668 382.516 39.4468 382.516C39.9535 382.516 40.3535 382.649 40.6468 382.916C40.9668 383.263 41.1268 383.703 41.1268 384.236C41.1268 384.716 40.9668 385.143 40.6468 385.516C40.2735 385.809 39.8735 385.956 39.4468 385.956ZM37.9668 409.996V389.996H40.8868V409.996H37.9668ZM51.834 410.396C50.4207 410.396 49.2207 410.183 48.234 409.756C47.274 409.303 46.5407 408.823 46.034 408.316C45.554 407.809 45.314 407.516 45.314 407.436L46.314 406.036C46.314 406.089 46.5274 406.343 46.954 406.796C47.3807 407.249 47.9674 407.676 48.714 408.076C49.4607 408.449 50.3407 408.636 51.354 408.636C52.8474 408.636 53.9674 408.263 54.714 407.516C55.4874 406.769 55.874 405.863 55.874 404.796C55.874 404.023 55.674 403.383 55.274 402.876C54.9007 402.369 54.4207 401.983 53.834 401.716C53.274 401.423 52.4874 401.103 51.474 400.756C50.3007 400.329 49.3674 399.943 48.674 399.596C47.9807 399.223 47.3807 398.676 46.874 397.956C46.394 397.236 46.154 396.303 46.154 395.156C46.154 393.449 46.7674 392.103 47.994 391.116C49.2474 390.103 50.8474 389.596 52.794 389.596C53.6474 389.596 54.4607 389.716 55.234 389.956C56.034 390.169 56.674 390.409 57.154 390.676C57.634 390.916 57.9407 391.076 58.074 391.156L57.594 392.876C57.4874 392.796 57.2207 392.636 56.794 392.396C56.3674 392.129 55.8074 391.876 55.114 391.636C54.4474 391.396 53.754 391.276 53.034 391.276C51.8074 391.276 50.8074 391.583 50.034 392.196C49.2874 392.809 48.914 393.583 48.914 394.516C48.914 395.289 49.114 395.943 49.514 396.476C49.914 396.983 50.4074 397.383 50.994 397.676C51.6074 397.969 52.4207 398.303 53.434 398.676C54.6074 399.076 55.554 399.476 56.274 399.876C57.0207 400.249 57.6474 400.796 58.154 401.516C58.6607 402.236 58.914 403.169 58.914 404.316C58.914 406.049 58.314 407.503 57.114 408.676C55.914 409.823 54.154 410.396 51.834 410.396ZM76.6581 410.396C74.8981 410.396 73.4848 409.969 72.4181 409.116C71.3514 408.236 70.8181 407.023 70.8181 405.476C70.8181 401.556 74.5914 399.196 82.1381 398.396V396.276C82.1381 394.383 81.8314 393.089 81.2181 392.396C80.6048 391.703 79.5248 391.356 77.9781 391.356C77.2848 391.356 76.5781 391.489 75.8581 391.756C75.1381 391.996 74.5248 392.263 74.0181 392.556C73.5381 392.823 73.2314 392.996 73.0981 393.076L72.7781 391.436C72.9114 391.329 73.2448 391.129 73.7781 390.836C74.3381 390.543 75.0314 390.263 75.8581 389.996C76.7114 389.729 77.5648 389.596 78.4181 389.596C80.7114 389.596 82.3914 390.076 83.4581 391.036C84.5248 391.996 85.0581 393.689 85.0581 396.116V405.916C85.0581 406.983 85.1514 407.703 85.3381 408.076C85.5514 408.449 85.8048 408.636 86.0981 408.636C86.3381 408.636 86.6314 408.596 86.9781 408.516C87.3248 408.409 87.5514 408.329 87.6581 408.276L87.7781 409.636C87.5648 409.716 87.1114 409.863 86.4181 410.076C85.7248 410.289 85.1381 410.396 84.6581 410.396C83.9648 410.396 83.4314 410.183 83.0581 409.756C82.6848 409.303 82.4581 408.516 82.3781 407.396H82.3381C82.3381 407.503 82.1248 407.809 81.6981 408.316C81.2714 408.823 80.6314 409.303 79.7781 409.756C78.9514 410.183 77.9114 410.396 76.6581 410.396ZM77.5381 408.636C78.4981 408.636 79.3248 408.423 80.0181 407.996C80.7114 407.569 81.2314 407.103 81.5781 406.596C81.9514 406.089 82.1381 405.796 82.1381 405.716V399.876C79.7114 400.143 77.7114 400.663 76.1381 401.436C74.5914 402.209 73.8181 403.436 73.8181 405.116C73.8181 406.263 74.1514 407.143 74.8181 407.756C75.4848 408.343 76.3914 408.636 77.5381 408.636ZM99.5206 410.436C98.1339 410.436 97.0139 410.223 96.1606 409.796C95.3073 409.343 94.6673 408.889 94.2406 408.436L93.6806 409.996H91.6006V380.076L94.5206 379.916V392.276H94.5606C94.5606 392.196 94.7473 391.929 95.1206 391.476C95.5206 390.996 96.1073 390.556 96.8806 390.156C97.6806 389.756 98.6806 389.556 99.8806 389.556C102.254 389.556 104.161 390.436 105.601 392.196C107.041 393.929 107.761 396.343 107.761 399.436C107.761 402.796 107.054 405.476 105.641 407.476C104.227 409.449 102.187 410.436 99.5206 410.436ZM98.7606 408.516C100.814 408.516 102.307 407.769 103.241 406.276C104.201 404.756 104.681 402.503 104.681 399.516C104.681 396.743 104.201 394.716 103.241 393.436C102.281 392.129 100.881 391.476 99.0406 391.476C97.7073 391.476 96.6806 391.823 95.9606 392.516C95.2406 393.209 94.7606 393.823 94.5206 394.356V406.716C94.7073 407.063 95.1606 407.449 95.8806 407.876C96.6006 408.303 97.5606 408.516 98.7606 408.516ZM117.186 410.396C115.772 410.396 114.572 410.183 113.586 409.756C112.626 409.303 111.892 408.823 111.386 408.316C110.906 407.809 110.666 407.516 110.666 407.436L111.666 406.036C111.666 406.089 111.879 406.343 112.306 406.796C112.732 407.249 113.319 407.676 114.066 408.076C114.812 408.449 115.692 408.636 116.706 408.636C118.199 408.636 119.319 408.263 120.066 407.516C120.839 406.769 121.226 405.863 121.226 404.796C121.226 404.023 121.026 403.383 120.626 402.876C120.252 402.369 119.772 401.983 119.186 401.716C118.626 401.423 117.839 401.103 116.826 400.756C115.652 400.329 114.719 399.943 114.026 399.596C113.332 399.223 112.732 398.676 112.226 397.956C111.746 397.236 111.506 396.303 111.506 395.156C111.506 393.449 112.119 392.103 113.346 391.116C114.599 390.103 116.199 389.596 118.146 389.596C118.999 389.596 119.812 389.716 120.586 389.956C121.386 390.169 122.026 390.409 122.506 390.676C122.986 390.916 123.292 391.076 123.426 391.156L122.946 392.876C122.839 392.796 122.572 392.636 122.146 392.396C121.719 392.129 121.159 391.876 120.466 391.636C119.799 391.396 119.106 391.276 118.386 391.276C117.159 391.276 116.159 391.583 115.386 392.196C114.639 392.809 114.266 393.583 114.266 394.516C114.266 395.289 114.466 395.943 114.866 396.476C115.266 396.983 115.759 397.383 116.346 397.676C116.959 397.969 117.772 398.303 118.786 398.676C119.959 399.076 120.906 399.476 121.626 399.876C122.372 400.249 122.999 400.796 123.506 401.516C124.012 402.236 124.266 403.169 124.266 404.316C124.266 406.049 123.666 407.503 122.466 408.676C121.266 409.823 119.506 410.396 117.186 410.396ZM135.594 410.396C132.927 410.396 130.834 409.569 129.314 407.916C127.794 406.236 127.034 403.729 127.034 400.396C127.034 397.036 127.767 394.396 129.234 392.476C130.7 390.556 132.7 389.596 135.234 389.596C137.527 389.596 139.287 390.396 140.514 391.996C141.767 393.569 142.394 395.809 142.394 398.716C142.394 399.223 142.367 399.636 142.314 399.956C142.26 400.276 142.22 400.476 142.194 400.556H130.074C130.074 405.943 132.02 408.636 135.914 408.636C136.98 408.636 137.887 408.449 138.634 408.076C139.407 407.676 140.007 407.263 140.434 406.836C140.86 406.383 141.074 406.116 141.074 406.036L142.234 406.996C142.234 407.103 141.98 407.449 141.474 408.036C140.967 408.596 140.22 409.129 139.234 409.636C138.247 410.143 137.034 410.396 135.594 410.396ZM139.674 398.876L139.714 398.116C139.714 393.583 138.22 391.316 135.234 391.316C133.66 391.316 132.447 391.943 131.594 393.196C130.74 394.423 130.247 396.316 130.114 398.876H139.674ZM146.679 389.996H149.079L149.439 391.916C149.865 391.409 150.532 390.903 151.439 390.396C152.345 389.863 153.652 389.596 155.359 389.596C157.279 389.596 158.772 390.143 159.839 391.236C160.905 392.303 161.439 393.903 161.439 396.036V409.996H158.519V396.636C158.519 394.929 158.172 393.689 157.479 392.916C156.785 392.116 155.759 391.716 154.399 391.716C153.439 391.716 152.599 391.863 151.879 392.156C151.159 392.449 150.585 392.769 150.159 393.116C149.759 393.463 149.559 393.663 149.559 393.716V409.996H146.679V389.996ZM172.067 410.396C170.627 410.396 169.561 409.956 168.867 409.076C168.174 408.169 167.827 406.689 167.827 404.636V391.956H165.747V390.276L167.827 390.036L168.907 383.676H170.747V389.996H175.867V391.956H170.747V403.916C170.747 405.649 170.907 406.849 171.227 407.516C171.574 408.156 172.161 408.476 172.987 408.476C173.654 408.476 174.254 408.409 174.787 408.276C175.321 408.143 175.587 408.063 175.587 408.036L175.787 409.636C175.734 409.689 175.561 409.783 175.267 409.916C175.001 410.023 174.587 410.129 174.027 410.236C173.494 410.343 172.841 410.396 172.067 410.396ZM178.994 415.556C179.821 414.783 180.488 413.796 180.994 412.596C181.501 411.423 181.741 410.343 181.714 409.356H181.594C181.168 409.356 180.781 409.209 180.434 408.916C180.114 408.596 179.954 408.183 179.954 407.676C179.954 407.196 180.114 406.783 180.434 406.436C180.728 406.169 181.101 406.036 181.554 406.036C182.034 406.036 182.421 406.169 182.714 406.436L182.914 406.716C183.208 407.143 183.354 407.783 183.354 408.636C183.354 409.916 183.021 411.329 182.354 412.876C181.688 414.423 180.848 415.609 179.834 416.436L178.994 415.556ZM203.474 410.396C202.034 410.396 200.967 409.956 200.274 409.076C199.58 408.169 199.234 406.689 199.234 404.636V391.956H197.154V390.276L199.234 390.036L200.314 383.676H202.154V389.996H207.274V391.956H202.154V403.916C202.154 405.649 202.314 406.849 202.634 407.516C202.98 408.156 203.567 408.476 204.394 408.476C205.06 408.476 205.66 408.409 206.194 408.276C206.727 408.143 206.994 408.063 206.994 408.036L207.194 409.636C207.14 409.689 206.967 409.783 206.674 409.916C206.407 410.023 205.994 410.129 205.434 410.236C204.9 410.343 204.247 410.396 203.474 410.396ZM211.561 380.076L214.481 379.916V391.796H214.521C214.521 391.796 214.681 391.623 215.001 391.276C215.347 390.903 216.014 390.529 217.001 390.156C217.987 389.783 219.067 389.596 220.241 389.596C222.187 389.596 223.681 390.143 224.721 391.236C225.787 392.303 226.321 393.903 226.321 396.036V409.996H223.441V396.396C223.441 393.276 222.054 391.716 219.281 391.716C218.321 391.716 217.481 391.863 216.761 392.156C216.041 392.449 215.481 392.769 215.081 393.116C214.681 393.463 214.481 393.663 214.481 393.716V409.996H211.561V380.076ZM239.109 410.396C236.443 410.396 234.349 409.569 232.829 407.916C231.309 406.236 230.549 403.729 230.549 400.396C230.549 397.036 231.283 394.396 232.749 392.476C234.216 390.556 236.216 389.596 238.749 389.596C241.043 389.596 242.803 390.396 244.029 391.996C245.283 393.569 245.909 395.809 245.909 398.716C245.909 399.223 245.883 399.636 245.829 399.956C245.776 400.276 245.736 400.476 245.709 400.556H233.589C233.589 405.943 235.536 408.636 239.429 408.636C240.496 408.636 241.403 408.449 242.149 408.076C242.923 407.676 243.523 407.263 243.949 406.836C244.376 406.383 244.589 406.116 244.589 406.036L245.749 406.996C245.749 407.103 245.496 407.449 244.989 408.036C244.483 408.596 243.736 409.129 242.749 409.636C241.763 410.143 240.549 410.396 239.109 410.396ZM243.189 398.876L243.229 398.116C243.229 393.583 241.736 391.316 238.749 391.316C237.176 391.316 235.963 391.943 235.109 393.196C234.256 394.423 233.763 396.316 233.629 398.876H243.189ZM42.1268 452.396C40.3668 452.396 38.9535 451.969 37.8868 451.116C36.8202 450.236 36.2868 449.023 36.2868 447.476C36.2868 443.556 40.0602 441.196 47.6068 440.396V438.276C47.6068 436.383 47.3002 435.089 46.6868 434.396C46.0735 433.703 44.9935 433.356 43.4468 433.356C42.7535 433.356 42.0468 433.489 41.3268 433.756C40.6068 433.996 39.9935 434.263 39.4868 434.556C39.0068 434.823 38.7002 434.996 38.5668 435.076L38.2468 433.436C38.3802 433.329 38.7135 433.129 39.2468 432.836C39.8068 432.543 40.5002 432.263 41.3268 431.996C42.1802 431.729 43.0335 431.596 43.8868 431.596C46.1802 431.596 47.8602 432.076 48.9268 433.036C49.9935 433.996 50.5268 435.689 50.5268 438.116V447.916C50.5268 448.983 50.6202 449.703 50.8068 450.076C51.0202 450.449 51.2735 450.636 51.5668 450.636C51.8068 450.636 52.1002 450.596 52.4468 450.516C52.7935 450.409 53.0202 450.329 53.1268 450.276L53.2468 451.636C53.0335 451.716 52.5802 451.863 51.8868 452.076C51.1935 452.289 50.6068 452.396 50.1268 452.396C49.4335 452.396 48.9002 452.183 48.5268 451.756C48.1535 451.303 47.9268 450.516 47.8468 449.396H47.8068C47.8068 449.503 47.5935 449.809 47.1668 450.316C46.7402 450.823 46.1002 451.303 45.2468 451.756C44.4202 452.183 43.3802 452.396 42.1268 452.396ZM43.0068 450.636C43.9668 450.636 44.7935 450.423 45.4868 449.996C46.1802 449.569 46.7002 449.103 47.0468 448.596C47.4202 448.089 47.6068 447.796 47.6068 447.716V441.876C45.1802 442.143 43.1802 442.663 41.6068 443.436C40.0602 444.209 39.2868 445.436 39.2868 447.116C39.2868 448.263 39.6202 449.143 40.2868 449.756C40.9535 450.343 41.8602 450.636 43.0068 450.636ZM57.0693 431.996H59.4693L59.8293 433.916C60.256 433.409 60.9227 432.903 61.8293 432.396C62.736 431.863 64.0427 431.596 65.7493 431.596C67.6693 431.596 69.1627 432.143 70.2293 433.236C71.296 434.303 71.8293 435.903 71.8293 438.036V451.996H68.9093V438.636C68.9093 436.929 68.5627 435.689 67.8693 434.916C67.176 434.116 66.1493 433.716 64.7893 433.716C63.8293 433.716 62.9893 433.863 62.2693 434.156C61.5493 434.449 60.976 434.769 60.5493 435.116C60.1493 435.463 59.9493 435.663 59.9493 435.716V451.996H57.0693V431.996ZM82.4581 452.396C81.0181 452.396 79.9514 451.956 79.2581 451.076C78.5648 450.169 78.2181 448.689 78.2181 446.636V433.956H76.1381V432.276L78.2181 432.036L79.2981 425.676H81.1381V431.996H86.2581V433.956H81.1381V445.916C81.1381 447.649 81.2981 448.849 81.6181 449.516C81.9648 450.156 82.5514 450.476 83.3781 450.476C84.0448 450.476 84.6448 450.409 85.1781 450.276C85.7114 450.143 85.9781 450.063 85.9781 450.036L86.1781 451.636C86.1248 451.689 85.9514 451.783 85.6581 451.916C85.3914 452.023 84.9781 452.129 84.4181 452.236C83.8848 452.343 83.2314 452.396 82.4581 452.396ZM92.025 427.956C91.545 427.956 91.1583 427.809 90.865 427.516C90.5183 427.169 90.345 426.743 90.345 426.236C90.345 425.729 90.5183 425.303 90.865 424.956C91.1583 424.663 91.545 424.516 92.025 424.516C92.5316 424.516 92.9316 424.649 93.225 424.916C93.545 425.263 93.705 425.703 93.705 426.236C93.705 426.716 93.545 427.143 93.225 427.516C92.8516 427.809 92.4516 427.956 92.025 427.956ZM90.545 451.996V431.996H93.465V451.996H90.545ZM107.372 452.436C105.985 452.436 104.865 452.223 104.012 451.796C103.159 451.343 102.519 450.889 102.092 450.436L101.532 451.996H99.4521V422.076L102.372 421.916V434.276H102.412C102.412 434.196 102.599 433.929 102.972 433.476C103.372 432.996 103.959 432.556 104.732 432.156C105.532 431.756 106.532 431.556 107.732 431.556C110.105 431.556 112.012 432.436 113.452 434.196C114.892 435.929 115.612 438.343 115.612 441.436C115.612 444.796 114.905 447.476 113.492 449.476C112.079 451.449 110.039 452.436 107.372 452.436ZM106.612 450.516C108.665 450.516 110.159 449.769 111.092 448.276C112.052 446.756 112.532 444.503 112.532 441.516C112.532 438.743 112.052 436.716 111.092 435.436C110.132 434.129 108.732 433.476 106.892 433.476C105.559 433.476 104.532 433.823 103.812 434.516C103.092 435.209 102.612 435.823 102.372 436.356V448.716C102.559 449.063 103.012 449.449 103.732 449.876C104.452 450.303 105.412 450.516 106.612 450.516ZM127.077 452.396C124.304 452.396 122.184 451.489 120.717 449.676C119.277 447.863 118.557 445.303 118.557 441.996C118.557 438.689 119.277 436.129 120.717 434.316C122.184 432.503 124.304 431.596 127.077 431.596C129.85 431.596 131.957 432.503 133.397 434.316C134.864 436.129 135.597 438.689 135.597 441.996C135.597 445.276 134.85 447.836 133.357 449.676C131.89 451.489 129.797 452.396 127.077 452.396ZM127.077 450.636C128.944 450.636 130.317 449.929 131.197 448.516C132.077 447.076 132.517 444.903 132.517 441.996C132.517 439.116 132.077 436.956 131.197 435.516C130.317 434.076 128.944 433.356 127.077 433.356C125.21 433.356 123.837 434.076 122.957 435.516C122.077 436.929 121.637 439.089 121.637 441.996C121.637 444.903 122.077 447.076 122.957 448.516C123.837 449.929 125.21 450.636 127.077 450.636ZM146.636 452.396C144.21 452.396 142.263 451.529 140.796 449.796C139.33 448.063 138.596 445.649 138.596 442.556C138.596 439.223 139.303 436.569 140.716 434.596C142.156 432.596 144.17 431.596 146.756 431.596C147.85 431.596 148.77 431.743 149.516 432.036C150.263 432.303 150.836 432.609 151.236 432.956C151.636 433.276 151.836 433.463 151.836 433.516H151.876V422.076L154.756 421.916V451.996H152.276L151.956 449.636C151.663 450.223 151.09 450.836 150.236 451.476C149.383 452.089 148.183 452.396 146.636 452.396ZM147.276 450.436C148.236 450.436 149.063 450.236 149.756 449.836C150.45 449.409 150.97 448.956 151.316 448.476C151.69 447.996 151.876 447.716 151.876 447.636V435.356C151.876 435.303 151.69 435.116 151.316 434.796C150.97 434.476 150.476 434.183 149.836 433.916C149.223 433.649 148.49 433.516 147.636 433.516C145.583 433.516 144.076 434.276 143.116 435.796C142.156 437.289 141.676 439.516 141.676 442.476C141.676 445.276 142.143 447.303 143.076 448.556C144.036 449.809 145.436 450.436 147.276 450.436ZM160.781 462.396C160.301 462.396 159.888 462.356 159.541 462.276C159.195 462.196 158.928 462.116 158.741 462.036C158.555 461.956 158.435 461.903 158.381 461.876L158.701 460.036C158.781 460.089 158.981 460.156 159.301 460.236C159.621 460.343 159.968 460.396 160.341 460.396C161.568 460.396 162.595 459.729 163.421 458.396C164.248 457.089 165.168 455.036 166.181 452.236L158.341 431.996H161.781L167.701 448.716L173.061 431.996H175.181L168.261 452.316C167.115 455.596 165.981 458.089 164.861 459.796C163.768 461.529 162.408 462.396 160.781 462.396ZM195.966 452.436C194.579 452.436 193.459 452.223 192.606 451.796C191.753 451.343 191.113 450.889 190.686 450.436L190.126 451.996H188.046V422.076L190.966 421.916V434.276H191.006C191.006 434.196 191.193 433.929 191.566 433.476C191.966 432.996 192.553 432.556 193.326 432.156C194.126 431.756 195.126 431.556 196.326 431.556C198.699 431.556 200.606 432.436 202.046 434.196C203.486 435.929 204.206 438.343 204.206 441.436C204.206 444.796 203.499 447.476 202.086 449.476C200.673 451.449 198.633 452.436 195.966 452.436ZM195.206 450.516C197.259 450.516 198.753 449.769 199.686 448.276C200.646 446.756 201.126 444.503 201.126 441.516C201.126 438.743 200.646 436.716 199.686 435.436C198.726 434.129 197.326 433.476 195.486 433.476C194.153 433.476 193.126 433.823 192.406 434.516C191.686 435.209 191.206 435.823 190.966 436.356V448.716C191.153 449.063 191.606 449.449 192.326 449.876C193.046 450.303 194.006 450.516 195.206 450.516ZM210.111 427.956C209.631 427.956 209.244 427.809 208.951 427.516C208.604 427.169 208.431 426.743 208.431 426.236C208.431 425.729 208.604 425.303 208.951 424.956C209.244 424.663 209.631 424.516 210.111 424.516C210.618 424.516 211.018 424.649 211.311 424.916C211.631 425.263 211.791 425.703 211.791 426.236C211.791 426.716 211.631 427.143 211.311 427.516C210.938 427.809 210.538 427.956 210.111 427.956ZM208.631 451.996V431.996H211.551V451.996H208.631ZM217.538 431.996H219.938L220.298 433.916C220.725 433.409 221.391 432.903 222.298 432.396C223.205 431.863 224.511 431.596 226.218 431.596C228.138 431.596 229.631 432.143 230.698 433.236C231.765 434.303 232.298 435.903 232.298 438.036V451.996H229.378V438.636C229.378 436.929 229.031 435.689 228.338 434.916C227.645 434.116 226.618 433.716 225.258 433.716C224.298 433.716 223.458 433.863 222.738 434.156C222.018 434.449 221.445 434.769 221.018 435.116C220.618 435.463 220.418 435.663 220.418 435.716V451.996H217.538V431.996ZM244.527 452.396C242.1 452.396 240.154 451.529 238.687 449.796C237.22 448.063 236.487 445.649 236.487 442.556C236.487 439.223 237.194 436.569 238.607 434.596C240.047 432.596 242.06 431.596 244.647 431.596C245.74 431.596 246.66 431.743 247.407 432.036C248.154 432.303 248.727 432.609 249.127 432.956C249.527 433.276 249.727 433.463 249.727 433.516H249.767V422.076L252.647 421.916V451.996H250.167L249.847 449.636C249.554 450.223 248.98 450.836 248.127 451.476C247.274 452.089 246.074 452.396 244.527 452.396ZM245.167 450.436C246.127 450.436 246.954 450.236 247.647 449.836C248.34 449.409 248.86 448.956 249.207 448.476C249.58 447.996 249.767 447.716 249.767 447.636V435.356C249.767 435.303 249.58 435.116 249.207 434.796C248.86 434.476 248.367 434.183 247.727 433.916C247.114 433.649 246.38 433.516 245.527 433.516C243.474 433.516 241.967 434.276 241.007 435.796C240.047 437.289 239.567 439.516 239.567 442.476C239.567 445.276 240.034 447.303 240.967 448.556C241.927 449.809 243.327 450.436 245.167 450.436ZM263.592 452.396C262.179 452.396 260.979 452.183 259.992 451.756C259.032 451.303 258.299 450.823 257.792 450.316C257.312 449.809 257.072 449.516 257.072 449.436L258.072 448.036C258.072 448.089 258.285 448.343 258.712 448.796C259.139 449.249 259.725 449.676 260.472 450.076C261.219 450.449 262.099 450.636 263.112 450.636C264.605 450.636 265.725 450.263 266.472 449.516C267.245 448.769 267.632 447.863 267.632 446.796C267.632 446.023 267.432 445.383 267.032 444.876C266.659 444.369 266.179 443.983 265.592 443.716C265.032 443.423 264.245 443.103 263.232 442.756C262.059 442.329 261.125 441.943 260.432 441.596C259.739 441.223 259.139 440.676 258.632 439.956C258.152 439.236 257.912 438.303 257.912 437.156C257.912 435.449 258.525 434.103 259.752 433.116C261.005 432.103 262.605 431.596 264.552 431.596C265.405 431.596 266.219 431.716 266.992 431.956C267.792 432.169 268.432 432.409 268.912 432.676C269.392 432.916 269.699 433.076 269.832 433.156L269.352 434.876C269.245 434.796 268.979 434.636 268.552 434.396C268.125 434.129 267.565 433.876 266.872 433.636C266.205 433.396 265.512 433.276 264.792 433.276C263.565 433.276 262.565 433.583 261.792 434.196C261.045 434.809 260.672 435.583 260.672 436.516C260.672 437.289 260.872 437.943 261.272 438.476C261.672 438.983 262.165 439.383 262.752 439.676C263.365 439.969 264.179 440.303 265.192 440.676C266.365 441.076 267.312 441.476 268.032 441.876C268.779 442.249 269.405 442.796 269.912 443.516C270.419 444.236 270.672 445.169 270.672 446.316C270.672 448.049 270.072 449.503 268.872 450.676C267.672 451.823 265.912 452.396 263.592 452.396ZM38.8068 475.956H36.7268V474.276L38.8068 474.036V471.156C38.8068 468.569 39.2068 466.676 40.0068 465.476C40.8068 464.249 42.1535 463.636 44.0468 463.636C44.6868 463.636 45.2868 463.729 45.8468 463.916C46.4068 464.076 46.8602 464.249 47.2068 464.436C47.5535 464.623 47.7668 464.743 47.8468 464.796L47.4468 466.356C47.3668 466.303 47.1935 466.209 46.9268 466.076C46.6602 465.916 46.3135 465.769 45.8868 465.636C45.4602 465.503 45.0202 465.436 44.5668 465.436C43.8468 465.436 43.2868 465.609 42.8868 465.956C42.4868 466.303 42.1802 466.916 41.9668 467.796C41.7802 468.676 41.6868 469.903 41.6868 471.476V473.996H47.4868V475.956H41.6868V493.996H38.8068V475.956ZM50.5059 473.996H52.6659L53.1059 478.116C53.1059 477.956 53.2526 477.503 53.5459 476.756C53.8659 475.983 54.3459 475.263 54.9859 474.596C55.6259 473.929 56.4526 473.596 57.4659 473.596C57.9726 473.596 58.5459 473.689 59.1859 473.876C59.8259 474.036 60.2392 474.156 60.4259 474.236L60.1459 476.436C59.9592 476.356 59.5326 476.236 58.8659 476.076C58.2259 475.916 57.6526 475.836 57.1459 475.836C56.3726 475.836 55.7059 476.103 55.1459 476.636C54.6126 477.143 54.2126 477.689 53.9459 478.276C53.6792 478.863 53.5059 479.303 53.4259 479.596V493.996H50.5059V473.996ZM70.164 494.396C67.4974 494.396 65.404 493.569 63.884 491.916C62.364 490.236 61.604 487.729 61.604 484.396C61.604 481.036 62.3374 478.396 63.804 476.476C65.2707 474.556 67.2707 473.596 69.804 473.596C72.0974 473.596 73.8574 474.396 75.084 475.996C76.3374 477.569 76.964 479.809 76.964 482.716C76.964 483.223 76.9374 483.636 76.884 483.956C76.8307 484.276 76.7907 484.476 76.764 484.556H64.644C64.644 489.943 66.5907 492.636 70.484 492.636C71.5507 492.636 72.4574 492.449 73.204 492.076C73.9774 491.676 74.5774 491.263 75.004 490.836C75.4307 490.383 75.644 490.116 75.644 490.036L76.804 490.996C76.804 491.103 76.5507 491.449 76.044 492.036C75.5374 492.596 74.7907 493.129 73.804 493.636C72.8174 494.143 71.604 494.396 70.164 494.396ZM74.244 482.876L74.284 482.116C74.284 477.583 72.7907 475.316 69.804 475.316C68.2307 475.316 67.0174 475.943 66.164 477.196C65.3107 478.423 64.8174 480.316 64.684 482.876H74.244ZM88.289 494.396C85.6224 494.396 83.529 493.569 82.009 491.916C80.489 490.236 79.729 487.729 79.729 484.396C79.729 481.036 80.4624 478.396 81.929 476.476C83.3957 474.556 85.3957 473.596 87.929 473.596C90.2224 473.596 91.9824 474.396 93.209 475.996C94.4624 477.569 95.089 479.809 95.089 482.716C95.089 483.223 95.0624 483.636 95.009 483.956C94.9557 484.276 94.9157 484.476 94.889 484.556H82.769C82.769 489.943 84.7157 492.636 88.609 492.636C89.6757 492.636 90.5824 492.449 91.329 492.076C92.1024 491.676 92.7024 491.263 93.129 490.836C93.5557 490.383 93.769 490.116 93.769 490.036L94.929 490.996C94.929 491.103 94.6757 491.449 94.169 492.036C93.6624 492.596 92.9157 493.129 91.929 493.636C90.9424 494.143 89.729 494.396 88.289 494.396ZM92.369 482.876L92.409 482.116C92.409 477.583 90.9157 475.316 87.929 475.316C86.3557 475.316 85.1424 475.943 84.289 477.196C83.4357 478.423 82.9424 480.316 82.809 482.876H92.369ZM99.374 493.996V464.076L102.254 463.916V493.996H99.374ZM108.32 504.396C107.84 504.396 107.427 504.356 107.08 504.276C106.734 504.196 106.467 504.116 106.28 504.036C106.094 503.956 105.974 503.903 105.92 503.876L106.24 502.036C106.32 502.089 106.52 502.156 106.84 502.236C107.16 502.343 107.507 502.396 107.88 502.396C109.107 502.396 110.134 501.729 110.96 500.396C111.787 499.089 112.707 497.036 113.72 494.236L105.88 473.996H109.32L115.24 490.716L120.6 473.996H122.72L115.8 494.316C114.654 497.596 113.52 500.089 112.4 501.796C111.307 503.529 109.947 504.396 108.32 504.396Z" fill="black"/>
<path d="M357.814 909.401C354.214 909.401 351.414 908.241 349.414 905.921C347.414 903.574 346.414 900.347 346.414 896.241C346.414 893.494 346.867 891.094 347.774 889.041C348.707 886.987 350.014 885.414 351.694 884.321C353.401 883.201 355.374 882.641 357.614 882.641C358.841 882.641 360.014 882.801 361.134 883.121C362.281 883.441 363.254 883.801 364.054 884.201C364.854 884.601 365.254 884.814 365.254 884.841L364.894 886.761C364.894 886.734 364.507 886.534 363.734 886.161C362.961 885.787 362.054 885.441 361.014 885.121C360.001 884.801 358.974 884.641 357.934 884.641C355.347 884.641 353.321 885.627 351.854 887.601C350.387 889.547 349.654 892.401 349.654 896.161C349.654 899.867 350.401 902.667 351.894 904.561C353.387 906.454 355.481 907.401 358.174 907.401C359.587 907.401 360.827 907.107 361.894 906.521C362.961 905.934 363.801 905.307 364.414 904.641C365.054 903.974 365.374 903.587 365.374 903.481L366.494 904.761C366.494 904.894 366.147 905.361 365.454 906.161C364.761 906.934 363.761 907.667 362.454 908.361C361.174 909.054 359.627 909.401 357.814 909.401ZM380.627 909.401C377.027 909.401 374.227 908.241 372.227 905.921C370.227 903.574 369.227 900.347 369.227 896.241C369.227 893.494 369.68 891.094 370.587 889.041C371.52 886.987 372.827 885.414 374.507 884.321C376.213 883.201 378.187 882.641 380.427 882.641C381.653 882.641 382.827 882.801 383.947 883.121C385.093 883.441 386.067 883.801 386.867 884.201C387.667 884.601 388.067 884.814 388.067 884.841L387.707 886.761C387.707 886.734 387.32 886.534 386.547 886.161C385.773 885.787 384.867 885.441 383.827 885.121C382.813 884.801 381.787 884.641 380.747 884.641C378.16 884.641 376.133 885.627 374.667 887.601C373.2 889.547 372.467 892.401 372.467 896.161C372.467 899.867 373.213 902.667 374.707 904.561C376.2 906.454 378.293 907.401 380.987 907.401C382.4 907.401 383.64 907.107 384.707 906.521C385.773 905.934 386.613 905.307 387.227 904.641C387.867 903.974 388.187 903.587 388.187 903.481L389.307 904.761C389.307 904.894 388.96 905.361 388.267 906.161C387.573 906.934 386.573 907.667 385.267 908.361C383.987 909.054 382.44 909.401 380.627 909.401ZM393.879 883.001H400.159C402.799 883.001 404.866 883.694 406.359 885.081C407.852 886.441 408.599 888.401 408.599 890.961C408.599 893.014 408.159 894.694 407.279 896.001C406.399 897.307 405.239 898.241 403.799 898.801L410.319 909.001H406.839L400.879 899.361H396.919V909.001H393.879V883.001ZM400.159 897.561C401.892 897.561 403.199 897.067 404.079 896.081C404.959 895.094 405.399 893.427 405.399 891.081C405.399 886.867 403.532 884.761 399.799 884.761H396.919V897.561H400.159ZM422.402 909.401C419.682 909.401 417.588 908.507 416.122 906.721C414.655 904.934 413.922 902.361 413.922 899.001C413.922 897.934 413.962 896.961 414.042 896.081C414.308 891.574 415.202 888.214 416.722 886.001C418.242 883.761 420.255 882.641 422.762 882.641C423.588 882.641 424.375 882.747 425.122 882.961C425.895 883.147 426.508 883.347 426.962 883.561C427.442 883.774 427.748 883.921 427.882 884.001L427.482 885.761C427.375 885.681 427.108 885.547 426.682 885.361C426.255 885.147 425.708 884.947 425.042 884.761C424.375 884.574 423.695 884.481 423.002 884.481C419.108 884.481 417.042 888.014 416.802 895.081C418.402 893.427 420.335 892.601 422.602 892.601C425.028 892.601 426.935 893.334 428.322 894.801C429.735 896.267 430.442 898.227 430.442 900.681C430.442 902.307 430.135 903.787 429.522 905.121C428.935 906.427 428.028 907.467 426.802 908.241C425.602 909.014 424.135 909.401 422.402 909.401ZM422.402 907.641C424.135 907.641 425.402 907.001 426.202 905.721C427.002 904.414 427.402 902.721 427.402 900.641C427.402 898.721 426.975 897.174 426.122 896.001C425.268 894.827 423.975 894.241 422.242 894.241C420.988 894.241 419.948 894.547 419.122 895.161C418.295 895.747 417.628 896.414 417.122 897.161L417.162 897.201C417.108 897.494 417.055 897.894 417.002 898.401C416.975 898.907 416.962 899.414 416.962 899.921C416.962 905.067 418.775 907.641 422.402 907.641Z" fill="black"/>
<path d="M136.569 959.401C132.969 959.401 130.169 958.241 128.169 955.921C126.169 953.574 125.169 950.347 125.169 946.241C125.169 943.494 125.622 941.094 126.529 939.041C127.462 936.987 128.769 935.414 130.449 934.321C132.156 933.201 134.129 932.641 136.369 932.641C137.596 932.641 138.769 932.801 139.889 933.121C141.036 933.441 142.009 933.801 142.809 934.201C143.609 934.601 144.009 934.814 144.009 934.841L143.649 936.761C143.649 936.734 143.262 936.534 142.489 936.161C141.716 935.787 140.809 935.441 139.769 935.121C138.756 934.801 137.729 934.641 136.689 934.641C134.102 934.641 132.076 935.627 130.609 937.601C129.142 939.547 128.409 942.401 128.409 946.161C128.409 949.867 129.156 952.667 130.649 954.561C132.142 956.454 134.236 957.401 136.929 957.401C138.342 957.401 139.582 957.107 140.649 956.521C141.716 955.934 142.556 955.307 143.169 954.641C143.809 953.974 144.129 953.587 144.129 953.481L145.249 954.761C145.249 954.894 144.902 955.361 144.209 956.161C143.516 956.934 142.516 957.667 141.209 958.361C139.929 959.054 138.382 959.401 136.569 959.401ZM159.382 959.401C155.782 959.401 152.982 958.241 150.982 955.921C148.982 953.574 147.982 950.347 147.982 946.241C147.982 943.494 148.435 941.094 149.342 939.041C150.275 936.987 151.582 935.414 153.262 934.321C154.968 933.201 156.942 932.641 159.182 932.641C160.408 932.641 161.582 932.801 162.702 933.121C163.848 933.441 164.822 933.801 165.622 934.201C166.422 934.601 166.822 934.814 166.822 934.841L166.462 936.761C166.462 936.734 166.075 936.534 165.302 936.161C164.528 935.787 163.622 935.441 162.582 935.121C161.568 934.801 160.542 934.641 159.502 934.641C156.915 934.641 154.888 935.627 153.422 937.601C151.955 939.547 151.222 942.401 151.222 946.161C151.222 949.867 151.968 952.667 153.462 954.561C154.955 956.454 157.048 957.401 159.742 957.401C161.155 957.401 162.395 957.107 163.462 956.521C164.528 955.934 165.368 955.307 165.982 954.641C166.622 953.974 166.942 953.587 166.942 953.481L168.062 954.761C168.062 954.894 167.715 955.361 167.022 956.161C166.328 956.934 165.328 957.667 164.022 958.361C162.742 959.054 161.195 959.401 159.382 959.401ZM172.634 933.001H178.914C181.554 933.001 183.621 933.694 185.114 935.081C186.607 936.441 187.354 938.401 187.354 940.961C187.354 943.014 186.914 944.694 186.034 946.001C185.154 947.307 183.994 948.241 182.554 948.801L189.074 959.001H185.594L179.634 949.361H175.674V959.001H172.634V933.001ZM178.914 947.561C180.647 947.561 181.954 947.067 182.834 946.081C183.714 945.094 184.154 943.427 184.154 941.081C184.154 936.867 182.287 934.761 178.554 934.761H175.674V947.561H178.914ZM203.037 952.441H191.837L191.637 950.921C192.73 948.761 193.877 946.001 195.077 942.641C196.303 939.254 197.33 935.921 198.157 932.641L200.917 933.001C200.117 936.067 199.077 939.134 197.797 942.201C196.543 945.267 195.237 948.081 193.877 950.641H203.037L203.717 936.801H205.997V950.641H208.837V952.241L205.997 952.441V959.001H203.037V952.441Z" fill="black"/>
</g>
<defs>
<clipPath id="clip0_238_1638">
<rect width="741" height="1198" fill="white"/>
</clipPath>
</defs>
</svg>
