<svg width="741" height="1197" viewBox="0 0 741 1197" fill="none" xmlns="http://www.w3.org/2000/svg">
<path d="M340.089 59.5084C338.649 59.5084 337.582 59.0684 336.889 58.1884C336.196 57.2817 335.849 55.8017 335.849 53.7484V41.0684H333.769V39.3884L335.849 39.1484L336.929 32.7884H338.769V39.1084H343.889V41.0684H338.769V53.0284C338.769 54.7617 338.929 55.9617 339.249 56.6284C339.596 57.2684 340.182 57.5884 341.009 57.5884C341.676 57.5884 342.276 57.5217 342.809 57.3884C343.342 57.255 343.609 57.175 343.609 57.1484L343.809 58.7484C343.756 58.8017 343.582 58.895 343.289 59.0284C343.022 59.135 342.609 59.2417 342.049 59.3484C341.516 59.455 340.862 59.5084 340.089 59.5084ZM348.176 29.1884L351.096 29.0284V40.9084H351.136C351.136 40.9084 351.296 40.735 351.616 40.3884C351.962 40.015 352.629 39.6417 353.616 39.2684C354.602 38.895 355.682 38.7084 356.856 38.7084C358.802 38.7084 360.296 39.255 361.336 40.3484C362.402 41.415 362.936 43.015 362.936 45.1484V59.1084H360.056V45.5084C360.056 42.3884 358.669 40.8284 355.896 40.8284C354.936 40.8284 354.096 40.975 353.376 41.2684C352.656 41.5617 352.096 41.8817 351.696 42.2284C351.296 42.575 351.096 42.775 351.096 42.8284V59.1084H348.176V29.1884ZM375.725 59.5084C373.058 59.5084 370.965 58.6817 369.445 57.0284C367.925 55.3484 367.165 52.8417 367.165 49.5084C367.165 46.1484 367.898 43.5084 369.365 41.5884C370.831 39.6684 372.831 38.7084 375.365 38.7084C377.658 38.7084 379.418 39.5084 380.645 41.1084C381.898 42.6817 382.525 44.9217 382.525 47.8284C382.525 48.335 382.498 48.7484 382.445 49.0684C382.391 49.3884 382.351 49.5884 382.325 49.6684H370.205C370.205 55.055 372.151 57.7484 376.045 57.7484C377.111 57.7484 378.018 57.5617 378.765 57.1884C379.538 56.7884 380.138 56.375 380.565 55.9484C380.991 55.495 381.205 55.2284 381.205 55.1484L382.365 56.1084C382.365 56.215 382.111 56.5617 381.605 57.1484C381.098 57.7084 380.351 58.2417 379.365 58.7484C378.378 59.255 377.165 59.5084 375.725 59.5084ZM379.805 47.9884L379.845 47.2284C379.845 42.695 378.351 40.4284 375.365 40.4284C373.791 40.4284 372.578 41.055 371.725 42.3084C370.871 43.535 370.378 45.4284 370.245 47.9884H379.805ZM386.77 39.1084H388.93L389.37 43.2284C389.37 43.0684 389.516 42.615 389.81 41.8684C390.13 41.095 390.61 40.375 391.25 39.7084C391.89 39.0417 392.716 38.7084 393.73 38.7084C394.236 38.7084 394.81 38.8017 395.45 38.9884C396.09 39.1484 396.503 39.2684 396.69 39.3484L396.41 41.5484C396.223 41.4684 395.796 41.3484 395.13 41.1884C394.49 41.0284 393.916 40.9484 393.41 40.9484C392.636 40.9484 391.97 41.215 391.41 41.7484C390.876 42.255 390.476 42.8017 390.21 43.3884C389.943 43.975 389.77 44.415 389.69 44.7084V59.1084H386.77V39.1084ZM403.312 59.5084C401.552 59.5084 400.139 59.0817 399.072 58.2284C398.006 57.3484 397.472 56.135 397.472 54.5884C397.472 50.6684 401.246 48.3084 408.792 47.5084V45.3884C408.792 43.495 408.486 42.2017 407.872 41.5084C407.259 40.815 406.179 40.4684 404.632 40.4684C403.939 40.4684 403.232 40.6017 402.512 40.8684C401.792 41.1084 401.179 41.375 400.672 41.6684C400.192 41.935 399.886 42.1084 399.752 42.1884L399.432 40.5484C399.566 40.4417 399.899 40.2417 400.432 39.9484C400.992 39.655 401.686 39.375 402.512 39.1084C403.366 38.8417 404.219 38.7084 405.072 38.7084C407.366 38.7084 409.046 39.1884 410.112 40.1484C411.179 41.1084 411.712 42.8017 411.712 45.2284V55.0284C411.712 56.095 411.806 56.815 411.992 57.1884C412.206 57.5617 412.459 57.7484 412.752 57.7484C412.992 57.7484 413.286 57.7084 413.632 57.6284C413.979 57.5217 414.206 57.4417 414.312 57.3884L414.432 58.7484C414.219 58.8284 413.766 58.975 413.072 59.1884C412.379 59.4017 411.792 59.5084 411.312 59.5084C410.619 59.5084 410.086 59.295 409.712 58.8684C409.339 58.415 409.112 57.6284 409.032 56.5084H408.992C408.992 56.615 408.779 56.9217 408.352 57.4284C407.926 57.935 407.286 58.415 406.432 58.8684C405.606 59.295 404.566 59.5084 403.312 59.5084ZM404.192 57.7484C405.152 57.7484 405.979 57.535 406.672 57.1084C407.366 56.6817 407.886 56.215 408.232 55.7084C408.606 55.2017 408.792 54.9084 408.792 54.8284V48.9884C406.366 49.255 404.366 49.775 402.792 50.5484C401.246 51.3217 400.472 52.5484 400.472 54.2284C400.472 55.375 400.806 56.255 401.472 56.8684C402.139 57.455 403.046 57.7484 404.192 57.7484ZM418.255 39.1084H420.655L421.015 41.5084C421.388 40.9217 422.028 40.3084 422.935 39.6684C423.842 39.0284 425.095 38.7084 426.695 38.7084C429.042 38.7084 430.908 39.575 432.295 41.3084C433.708 43.0417 434.415 45.455 434.415 48.5484C434.415 51.9084 433.708 54.575 432.295 56.5484C430.882 58.5217 428.882 59.5084 426.295 59.5084C425.202 59.5084 424.268 59.375 423.495 59.1084C422.748 58.815 422.175 58.5084 421.775 58.1884C421.375 57.8417 421.175 57.6417 421.175 57.5884H421.135V69.1084L418.255 69.1884V39.1084ZM425.335 57.5884C427.415 57.5884 428.935 56.855 429.895 55.3884C430.855 53.895 431.335 51.6417 431.335 48.6284C431.335 45.8284 430.855 43.8017 429.895 42.5484C428.935 41.295 427.548 40.6684 425.735 40.6684C424.775 40.6684 423.948 40.8684 423.255 41.2684C422.562 41.6684 422.028 42.1084 421.655 42.5884C421.308 43.0417 421.135 43.3084 421.135 43.3884V55.8284C421.428 56.2017 421.908 56.5884 422.575 56.9884C423.268 57.3884 424.188 57.5884 425.335 57.5884ZM445.92 59.5084C443.253 59.5084 441.16 58.6817 439.64 57.0284C438.12 55.3484 437.36 52.8417 437.36 49.5084C437.36 46.1484 438.093 43.5084 439.56 41.5884C441.027 39.6684 443.027 38.7084 445.56 38.7084C447.853 38.7084 449.613 39.5084 450.84 41.1084C452.093 42.6817 452.72 44.9217 452.72 47.8284C452.72 48.335 452.693 48.7484 452.64 49.0684C452.587 49.3884 452.547 49.5884 452.52 49.6684H440.4C440.4 55.055 442.347 57.7484 446.24 57.7484C447.307 57.7484 448.213 57.5617 448.96 57.1884C449.733 56.7884 450.333 56.375 450.76 55.9484C451.187 55.495 451.4 55.2284 451.4 55.1484L452.56 56.1084C452.56 56.215 452.307 56.5617 451.8 57.1484C451.293 57.7084 450.547 58.2417 449.56 58.7484C448.573 59.255 447.36 59.5084 445.92 59.5084ZM450 47.9884L450.04 47.2284C450.04 42.695 448.547 40.4284 445.56 40.4284C443.987 40.4284 442.773 41.055 441.92 42.3084C441.067 43.535 440.573 45.4284 440.44 47.9884H450ZM462.845 59.5084C460.898 59.5084 459.392 58.975 458.325 57.9084C457.258 56.815 456.725 55.2017 456.725 53.0684V39.1084H459.645V52.4684C459.645 55.7484 461.032 57.3884 463.805 57.3884C464.765 57.3884 465.592 57.2417 466.285 56.9484C466.978 56.6284 467.525 56.295 467.925 55.9484C468.352 55.6017 468.565 55.4017 468.565 55.3484V39.1084H471.485V59.1084H469.045L468.645 57.1884C468.298 57.6684 467.658 58.175 466.725 58.7084C465.792 59.2417 464.498 59.5084 462.845 59.5084ZM482.394 59.5084C480.954 59.5084 479.887 59.0684 479.194 58.1884C478.5 57.2817 478.154 55.8017 478.154 53.7484V41.0684H476.074V39.3884L478.154 39.1484L479.234 32.7884H481.074V39.1084H486.194V41.0684H481.074V53.0284C481.074 54.7617 481.234 55.9617 481.554 56.6284C481.9 57.2684 482.487 57.5884 483.314 57.5884C483.98 57.5884 484.58 57.5217 485.114 57.3884C485.647 57.255 485.914 57.175 485.914 57.1484L486.114 58.7484C486.06 58.8017 485.887 58.895 485.594 59.0284C485.327 59.135 484.914 59.2417 484.354 59.3484C483.82 59.455 483.167 59.5084 482.394 59.5084ZM491.961 35.0684C491.481 35.0684 491.094 34.9217 490.801 34.6284C490.454 34.2817 490.281 33.855 490.281 33.3484C490.281 32.8417 490.454 32.415 490.801 32.0684C491.094 31.775 491.481 31.6284 491.961 31.6284C492.467 31.6284 492.867 31.7617 493.161 32.0284C493.481 32.375 493.641 32.815 493.641 33.3484C493.641 33.8284 493.481 34.255 493.161 34.6284C492.787 34.9217 492.387 35.0684 491.961 35.0684ZM490.481 59.1084V39.1084H493.401V59.1084H490.481ZM506.508 59.5084C503.734 59.5084 501.601 58.655 500.108 56.9484C498.614 55.2417 497.868 52.695 497.868 49.3084C497.868 45.895 498.601 43.2817 500.068 41.4684C501.561 39.6284 503.734 38.7084 506.588 38.7084C507.521 38.7084 508.401 38.8417 509.228 39.1084C510.054 39.3484 510.748 39.6284 511.308 39.9484C511.894 40.2417 512.188 40.4017 512.188 40.4284L511.828 42.0684C511.721 41.9884 511.428 41.8284 510.948 41.5884C510.494 41.3217 509.894 41.0684 509.148 40.8284C508.428 40.5884 507.681 40.4684 506.908 40.4684C504.854 40.4684 503.348 41.1484 502.388 42.5084C501.428 43.8684 500.948 46.1217 500.948 49.2684C500.948 52.3084 501.454 54.4817 502.468 55.7884C503.481 57.095 504.908 57.7484 506.748 57.7484C507.788 57.7484 508.668 57.5617 509.388 57.1884C510.134 56.815 510.708 56.4284 511.108 56.0284C511.508 55.6017 511.708 55.3484 511.708 55.2684L512.988 56.1084C512.988 56.215 512.748 56.5617 512.268 57.1484C511.788 57.7084 511.068 58.2417 510.108 58.7484C509.148 59.255 507.948 59.5084 506.508 59.5084ZM339.289 101.508C337.529 101.508 336.116 101.082 335.049 100.228C333.982 99.3484 333.449 98.135 333.449 96.5884C333.449 92.6684 337.222 90.3084 344.769 89.5084V87.3884C344.769 85.495 344.462 84.2017 343.849 83.5084C343.236 82.815 342.156 82.4684 340.609 82.4684C339.916 82.4684 339.209 82.6017 338.489 82.8684C337.769 83.1084 337.156 83.375 336.649 83.6684C336.169 83.935 335.862 84.1084 335.729 84.1884L335.409 82.5484C335.542 82.4417 335.876 82.2417 336.409 81.9484C336.969 81.655 337.662 81.375 338.489 81.1084C339.342 80.8417 340.196 80.7084 341.049 80.7084C343.342 80.7084 345.022 81.1884 346.089 82.1484C347.156 83.1084 347.689 84.8017 347.689 87.2284V97.0284C347.689 98.095 347.782 98.815 347.969 99.1884C348.182 99.5617 348.436 99.7484 348.729 99.7484C348.969 99.7484 349.262 99.7084 349.609 99.6284C349.956 99.5217 350.182 99.4417 350.289 99.3884L350.409 100.748C350.196 100.828 349.742 100.975 349.049 101.188C348.356 101.402 347.769 101.508 347.289 101.508C346.596 101.508 346.062 101.295 345.689 100.868C345.316 100.415 345.089 99.6284 345.009 98.5084H344.969C344.969 98.615 344.756 98.9217 344.329 99.4284C343.902 99.935 343.262 100.415 342.409 100.868C341.582 101.295 340.542 101.508 339.289 101.508ZM340.169 99.7484C341.129 99.7484 341.956 99.535 342.649 99.1084C343.342 98.6817 343.862 98.215 344.209 97.7084C344.582 97.2017 344.769 96.9084 344.769 96.8284V90.9884C342.342 91.255 340.342 91.775 338.769 92.5484C337.222 93.3217 336.449 94.5484 336.449 96.2284C336.449 97.375 336.782 98.255 337.449 98.8684C338.116 99.455 339.022 99.7484 340.169 99.7484ZM354.231 81.1084H356.631L356.991 83.0284C357.418 82.5217 358.085 82.015 358.991 81.5084C359.898 80.975 361.205 80.7084 362.911 80.7084C364.831 80.7084 366.325 81.255 367.391 82.3484C368.458 83.415 368.991 85.015 368.991 87.1484V101.108H366.071V87.7484C366.071 86.0417 365.725 84.8017 365.031 84.0284C364.338 83.2284 363.311 82.8284 361.951 82.8284C360.991 82.8284 360.151 82.975 359.431 83.2684C358.711 83.5617 358.138 83.8817 357.711 84.2284C357.311 84.575 357.111 84.775 357.111 84.8284V101.108H354.231V81.1084ZM379.62 101.508C378.18 101.508 377.114 101.068 376.42 100.188C375.727 99.2817 375.38 97.8017 375.38 95.7484V83.0684H373.3V81.3884L375.38 81.1484L376.46 74.7884H378.3V81.1084H383.42V83.0684H378.3V95.0284C378.3 96.7617 378.46 97.9617 378.78 98.6284C379.127 99.2684 379.714 99.5884 380.54 99.5884C381.207 99.5884 381.807 99.5217 382.34 99.3884C382.874 99.255 383.14 99.175 383.14 99.1484L383.34 100.748C383.287 100.802 383.114 100.895 382.82 101.028C382.554 101.135 382.14 101.242 381.58 101.348C381.047 101.455 380.394 101.508 379.62 101.508ZM389.187 77.0684C388.707 77.0684 388.32 76.9217 388.027 76.6284C387.68 76.2817 387.507 75.855 387.507 75.3484C387.507 74.8417 387.68 74.415 388.027 74.0684C388.32 73.775 388.707 73.6284 389.187 73.6284C389.694 73.6284 390.094 73.7617 390.387 74.0284C390.707 74.375 390.867 74.815 390.867 75.3484C390.867 75.8284 390.707 76.255 390.387 76.6284C390.014 76.9217 389.614 77.0684 389.187 77.0684ZM387.707 101.108V81.1084H390.627V101.108H387.707ZM404.534 101.548C403.148 101.548 402.028 101.335 401.174 100.908C400.321 100.455 399.681 100.002 399.254 99.5484L398.694 101.108H396.614V71.1884L399.534 71.0284V83.3884H399.574C399.574 83.3084 399.761 83.0417 400.134 82.5884C400.534 82.1084 401.121 81.6684 401.894 81.2684C402.694 80.8684 403.694 80.6684 404.894 80.6684C407.268 80.6684 409.174 81.5484 410.614 83.3084C412.054 85.0417 412.774 87.455 412.774 90.5484C412.774 93.9084 412.068 96.5884 410.654 98.5884C409.241 100.562 407.201 101.548 404.534 101.548ZM403.774 99.6284C405.828 99.6284 407.321 98.8817 408.254 97.3884C409.214 95.8684 409.694 93.615 409.694 90.6284C409.694 87.855 409.214 85.8284 408.254 84.5484C407.294 83.2417 405.894 82.5884 404.054 82.5884C402.721 82.5884 401.694 82.935 400.974 83.6284C400.254 84.3217 399.774 84.935 399.534 85.4684V97.8284C399.721 98.175 400.174 98.5617 400.894 98.9884C401.614 99.415 402.574 99.6284 403.774 99.6284ZM424.239 101.508C421.466 101.508 419.346 100.602 417.879 98.7884C416.439 96.975 415.719 94.415 415.719 91.1084C415.719 87.8017 416.439 85.2417 417.879 83.4284C419.346 81.615 421.466 80.7084 424.239 80.7084C427.013 80.7084 429.119 81.615 430.559 83.4284C432.026 85.2417 432.759 87.8017 432.759 91.1084C432.759 94.3884 432.013 96.9484 430.519 98.7884C429.053 100.602 426.959 101.508 424.239 101.508ZM424.239 99.7484C426.106 99.7484 427.479 99.0417 428.359 97.6284C429.239 96.1884 429.679 94.015 429.679 91.1084C429.679 88.2284 429.239 86.0684 428.359 84.6284C427.479 83.1884 426.106 82.4684 424.239 82.4684C422.373 82.4684 420.999 83.1884 420.119 84.6284C419.239 86.0417 418.799 88.2017 418.799 91.1084C418.799 94.015 419.239 96.1884 420.119 97.6284C420.999 99.0417 422.373 99.7484 424.239 99.7484ZM443.798 101.508C441.372 101.508 439.425 100.642 437.958 98.9084C436.492 97.175 435.758 94.7617 435.758 91.6684C435.758 88.335 436.465 85.6817 437.878 83.7084C439.318 81.7084 441.332 80.7084 443.918 80.7084C445.012 80.7084 445.932 80.855 446.678 81.1484C447.425 81.415 447.998 81.7217 448.398 82.0684C448.798 82.3884 448.998 82.575 448.998 82.6284H449.038V71.1884L451.918 71.0284V101.108H449.438L449.118 98.7484C448.825 99.335 448.252 99.9484 447.398 100.588C446.545 101.202 445.345 101.508 443.798 101.508ZM444.438 99.5484C445.398 99.5484 446.225 99.3484 446.918 98.9484C447.612 98.5217 448.132 98.0684 448.478 97.5884C448.852 97.1084 449.038 96.8284 449.038 96.7484V84.4684C449.038 84.415 448.852 84.2284 448.478 83.9084C448.132 83.5884 447.638 83.295 446.998 83.0284C446.385 82.7617 445.652 82.6284 444.798 82.6284C442.745 82.6284 441.238 83.3884 440.278 84.9084C439.318 86.4017 438.838 88.6284 438.838 91.5884C438.838 94.3884 439.305 96.415 440.238 97.6684C441.198 98.9217 442.598 99.5484 444.438 99.5484ZM457.943 111.508C457.463 111.508 457.05 111.468 456.703 111.388C456.357 111.308 456.09 111.228 455.903 111.148C455.717 111.068 455.597 111.015 455.543 110.988L455.863 109.148C455.943 109.202 456.143 109.268 456.463 109.348C456.783 109.455 457.13 109.508 457.503 109.508C458.73 109.508 459.757 108.842 460.583 107.508C461.41 106.202 462.33 104.148 463.343 101.348L455.503 81.1084H458.943L464.863 97.8284L470.223 81.1084H472.343L465.423 101.428C464.277 104.708 463.143 107.202 462.023 108.908C460.93 110.642 459.57 111.508 457.943 111.508Z" fill="black"/>
<path d="M41.4302 359.947C39.6969 359.947 38.2569 359.694 37.1102 359.187C35.9636 358.681 35.1102 358.147 34.5502 357.587C34.0169 357.001 33.7502 356.654 33.7502 356.547L34.7502 354.987C34.7502 355.067 35.0036 355.374 35.5102 355.907C36.0169 356.414 36.7502 356.894 37.7102 357.347C38.6969 357.774 39.8969 357.987 41.3102 357.987C42.9902 357.987 44.3102 357.507 45.2702 356.547C46.2302 355.561 46.7102 354.347 46.7102 352.907C46.7102 351.921 46.4702 351.094 45.9902 350.427C45.5102 349.761 44.9102 349.227 44.1902 348.827C43.4969 348.427 42.5502 347.974 41.3502 347.467C39.9636 346.907 38.8436 346.374 37.9902 345.867C37.1369 345.361 36.4169 344.667 35.8302 343.787C35.2436 342.881 34.9502 341.734 34.9502 340.347C34.9502 338.161 35.6436 336.427 37.0302 335.147C38.4169 333.841 40.2702 333.187 42.5902 333.187C43.7369 333.187 44.7636 333.361 45.6702 333.707C46.6036 334.027 47.3502 334.387 47.9102 334.787C48.4702 335.161 48.7502 335.374 48.7502 335.427L48.3502 337.187C48.3502 337.134 48.0836 336.921 47.5502 336.547C47.0169 336.174 46.3369 335.827 45.5102 335.507C44.6836 335.187 43.7636 335.027 42.7502 335.027C41.2569 335.027 40.0836 335.441 39.2302 336.267C38.3769 337.094 37.9502 338.214 37.9502 339.627C37.9502 340.614 38.1769 341.441 38.6302 342.107C39.1102 342.747 39.6969 343.267 40.3902 343.667C41.1102 344.067 42.0569 344.507 43.2302 344.987C44.6436 345.574 45.7769 346.134 46.6302 346.667C47.4836 347.174 48.2036 347.894 48.7902 348.827C49.4036 349.761 49.7102 350.961 49.7102 352.427C49.7102 353.894 49.3636 355.201 48.6702 356.347C48.0036 357.467 47.0436 358.347 45.7902 358.987C44.5369 359.627 43.0836 359.947 41.4302 359.947ZM60.4396 359.947C58.4929 359.947 56.9863 359.414 55.9196 358.347C54.8529 357.254 54.3196 355.641 54.3196 353.507V339.547H57.2396V352.907C57.2396 356.187 58.6263 357.827 61.3996 357.827C62.3596 357.827 63.1863 357.681 63.8796 357.387C64.5729 357.067 65.1196 356.734 65.5196 356.387C65.9463 356.041 66.1596 355.841 66.1596 355.787V339.547H69.0796V359.547H66.6396L66.2396 357.627C65.8929 358.107 65.2529 358.614 64.3196 359.147C63.3863 359.681 62.0929 359.947 60.4396 359.947ZM82.1884 359.947C79.415 359.947 77.2817 359.094 75.7884 357.387C74.295 355.681 73.5484 353.134 73.5484 349.747C73.5484 346.334 74.2817 343.721 75.7484 341.907C77.2417 340.067 79.415 339.147 82.2684 339.147C83.2017 339.147 84.0817 339.281 84.9084 339.547C85.735 339.787 86.4284 340.067 86.9884 340.387C87.575 340.681 87.8684 340.841 87.8684 340.867L87.5084 342.507C87.4017 342.427 87.1084 342.267 86.6284 342.027C86.175 341.761 85.575 341.507 84.8284 341.267C84.1084 341.027 83.3617 340.907 82.5884 340.907C80.535 340.907 79.0284 341.587 78.0684 342.947C77.1084 344.307 76.6284 346.561 76.6284 349.707C76.6284 352.747 77.135 354.921 78.1484 356.227C79.1617 357.534 80.5884 358.187 82.4284 358.187C83.4684 358.187 84.3484 358.001 85.0684 357.627C85.815 357.254 86.3884 356.867 86.7884 356.467C87.1884 356.041 87.3884 355.787 87.3884 355.707L88.6684 356.547C88.6684 356.654 88.4284 357.001 87.9484 357.587C87.4684 358.147 86.7484 358.681 85.7884 359.187C84.8284 359.694 83.6284 359.947 82.1884 359.947ZM91.9424 329.627L94.8624 329.467V341.347H94.9024C94.9024 341.347 95.0624 341.174 95.3824 340.827C95.7291 340.454 96.3958 340.081 97.3824 339.707C98.3691 339.334 99.4491 339.147 100.622 339.147C102.569 339.147 104.062 339.694 105.102 340.787C106.169 341.854 106.702 343.454 106.702 345.587V359.547H103.822V345.947C103.822 342.827 102.436 341.267 99.6624 341.267C98.7024 341.267 97.8624 341.414 97.1424 341.707C96.4224 342.001 95.8624 342.321 95.4624 342.667C95.0624 343.014 94.8624 343.214 94.8624 343.267V359.547H91.9424V329.627ZM125.907 359.947C124.147 359.947 122.734 359.521 121.667 358.667C120.6 357.787 120.067 356.574 120.067 355.027C120.067 351.107 123.84 348.747 131.387 347.947V345.827C131.387 343.934 131.08 342.641 130.467 341.947C129.854 341.254 128.774 340.907 127.227 340.907C126.534 340.907 125.827 341.041 125.107 341.307C124.387 341.547 123.774 341.814 123.267 342.107C122.787 342.374 122.48 342.547 122.347 342.627L122.027 340.987C122.16 340.881 122.494 340.681 123.027 340.387C123.587 340.094 124.28 339.814 125.107 339.547C125.96 339.281 126.814 339.147 127.667 339.147C129.96 339.147 131.64 339.627 132.707 340.587C133.774 341.547 134.307 343.241 134.307 345.667V355.467C134.307 356.534 134.4 357.254 134.587 357.627C134.8 358.001 135.054 358.187 135.347 358.187C135.587 358.187 135.88 358.147 136.227 358.067C136.574 357.961 136.8 357.881 136.907 357.827L137.027 359.187C136.814 359.267 136.36 359.414 135.667 359.627C134.974 359.841 134.387 359.947 133.907 359.947C133.214 359.947 132.68 359.734 132.307 359.307C131.934 358.854 131.707 358.067 131.627 356.947H131.587C131.587 357.054 131.374 357.361 130.947 357.867C130.52 358.374 129.88 358.854 129.027 359.307C128.2 359.734 127.16 359.947 125.907 359.947ZM126.787 358.187C127.747 358.187 128.574 357.974 129.267 357.547C129.96 357.121 130.48 356.654 130.827 356.147C131.2 355.641 131.387 355.347 131.387 355.267V349.427C128.96 349.694 126.96 350.214 125.387 350.987C123.84 351.761 123.067 352.987 123.067 354.667C123.067 355.814 123.4 356.694 124.067 357.307C124.734 357.894 125.64 358.187 126.787 358.187ZM147.37 359.947C144.943 359.947 142.996 359.081 141.53 357.347C140.063 355.614 139.33 353.201 139.33 350.107C139.33 346.774 140.036 344.121 141.45 342.147C142.89 340.147 144.903 339.147 147.49 339.147C148.583 339.147 149.503 339.294 150.25 339.587C150.996 339.854 151.57 340.161 151.97 340.507C152.37 340.827 152.57 341.014 152.57 341.067H152.61V329.627L155.49 329.467V359.547H153.01L152.69 357.187C152.396 357.774 151.823 358.387 150.97 359.027C150.116 359.641 148.916 359.947 147.37 359.947ZM148.01 357.987C148.97 357.987 149.796 357.787 150.49 357.387C151.183 356.961 151.703 356.507 152.05 356.027C152.423 355.547 152.61 355.267 152.61 355.187V342.907C152.61 342.854 152.423 342.667 152.05 342.347C151.703 342.027 151.21 341.734 150.57 341.467C149.956 341.201 149.223 341.067 148.37 341.067C146.316 341.067 144.81 341.827 143.85 343.347C142.89 344.841 142.41 347.067 142.41 350.027C142.41 352.827 142.876 354.854 143.81 356.107C144.77 357.361 146.17 357.987 148.01 357.987ZM165.595 359.947C163.835 359.947 162.421 359.521 161.355 358.667C160.288 357.787 159.755 356.574 159.755 355.027C159.755 351.107 163.528 348.747 171.075 347.947V345.827C171.075 343.934 170.768 342.641 170.155 341.947C169.541 341.254 168.461 340.907 166.915 340.907C166.221 340.907 165.515 341.041 164.795 341.307C164.075 341.547 163.461 341.814 162.955 342.107C162.475 342.374 162.168 342.547 162.035 342.627L161.715 340.987C161.848 340.881 162.181 340.681 162.715 340.387C163.275 340.094 163.968 339.814 164.795 339.547C165.648 339.281 166.501 339.147 167.355 339.147C169.648 339.147 171.328 339.627 172.395 340.587C173.461 341.547 173.995 343.241 173.995 345.667V355.467C173.995 356.534 174.088 357.254 174.275 357.627C174.488 358.001 174.741 358.187 175.035 358.187C175.275 358.187 175.568 358.147 175.915 358.067C176.261 357.961 176.488 357.881 176.595 357.827L176.715 359.187C176.501 359.267 176.048 359.414 175.355 359.627C174.661 359.841 174.075 359.947 173.595 359.947C172.901 359.947 172.368 359.734 171.995 359.307C171.621 358.854 171.395 358.067 171.315 356.947H171.275C171.275 357.054 171.061 357.361 170.635 357.867C170.208 358.374 169.568 358.854 168.715 359.307C167.888 359.734 166.848 359.947 165.595 359.947ZM166.475 358.187C167.435 358.187 168.261 357.974 168.955 357.547C169.648 357.121 170.168 356.654 170.515 356.147C170.888 355.641 171.075 355.347 171.075 355.267V349.427C168.648 349.694 166.648 350.214 165.075 350.987C163.528 351.761 162.755 352.987 162.755 354.667C162.755 355.814 163.088 356.694 163.755 357.307C164.421 357.894 165.328 358.187 166.475 358.187ZM180.537 339.547H182.937L183.297 341.947C183.67 341.361 184.31 340.747 185.217 340.107C186.124 339.467 187.377 339.147 188.977 339.147C191.324 339.147 193.19 340.014 194.577 341.747C195.99 343.481 196.697 345.894 196.697 348.987C196.697 352.347 195.99 355.014 194.577 356.987C193.164 358.961 191.164 359.947 188.577 359.947C187.484 359.947 186.55 359.814 185.777 359.547C185.03 359.254 184.457 358.947 184.057 358.627C183.657 358.281 183.457 358.081 183.457 358.027H183.417V369.547L180.537 369.627V339.547ZM187.617 358.027C189.697 358.027 191.217 357.294 192.177 355.827C193.137 354.334 193.617 352.081 193.617 349.067C193.617 346.267 193.137 344.241 192.177 342.987C191.217 341.734 189.83 341.107 188.017 341.107C187.057 341.107 186.23 341.307 185.537 341.707C184.844 342.107 184.31 342.547 183.937 343.027C183.59 343.481 183.417 343.747 183.417 343.827V356.267C183.71 356.641 184.19 357.027 184.857 357.427C185.55 357.827 186.47 358.027 187.617 358.027ZM206.082 359.947C204.642 359.947 203.575 359.507 202.882 358.627C202.189 357.721 201.842 356.241 201.842 354.187V341.507H199.762V339.827L201.842 339.587L202.922 333.227H204.762V339.547H209.882V341.507H204.762V353.467C204.762 355.201 204.922 356.401 205.242 357.067C205.589 357.707 206.175 358.027 207.002 358.027C207.669 358.027 208.269 357.961 208.802 357.827C209.335 357.694 209.602 357.614 209.602 357.587L209.802 359.187C209.749 359.241 209.575 359.334 209.282 359.467C209.015 359.574 208.602 359.681 208.042 359.787C207.509 359.894 206.855 359.947 206.082 359.947ZM221.249 359.947C218.582 359.947 216.489 359.121 214.969 357.467C213.449 355.787 212.689 353.281 212.689 349.947C212.689 346.587 213.422 343.947 214.889 342.027C216.356 340.107 218.356 339.147 220.889 339.147C223.182 339.147 224.942 339.947 226.169 341.547C227.422 343.121 228.049 345.361 228.049 348.267C228.049 348.774 228.022 349.187 227.969 349.507C227.916 349.827 227.876 350.027 227.849 350.107H215.729C215.729 355.494 217.676 358.187 221.569 358.187C222.636 358.187 223.542 358.001 224.289 357.627C225.062 357.227 225.662 356.814 226.089 356.387C226.516 355.934 226.729 355.667 226.729 355.587L227.889 356.547C227.889 356.654 227.636 357.001 227.129 357.587C226.622 358.147 225.876 358.681 224.889 359.187C223.902 359.694 222.689 359.947 221.249 359.947ZM225.329 348.427L225.369 347.667C225.369 343.134 223.876 340.867 220.889 340.867C219.316 340.867 218.102 341.494 217.249 342.747C216.396 343.974 215.902 345.867 215.769 348.427H225.329ZM232.294 339.547H234.454L234.894 343.667C234.894 343.507 235.041 343.054 235.334 342.307C235.654 341.534 236.134 340.814 236.774 340.147C237.414 339.481 238.241 339.147 239.254 339.147C239.761 339.147 240.334 339.241 240.974 339.427C241.614 339.587 242.027 339.707 242.214 339.787L241.934 341.987C241.747 341.907 241.321 341.787 240.654 341.627C240.014 341.467 239.441 341.387 238.934 341.387C238.161 341.387 237.494 341.654 236.934 342.187C236.401 342.694 236.001 343.241 235.734 343.827C235.467 344.414 235.294 344.854 235.214 345.147V359.547H232.294V339.547ZM34.9902 381.547H37.3902L37.7502 383.947C38.1236 383.361 38.7636 382.747 39.6702 382.107C40.5769 381.467 41.8302 381.147 43.4302 381.147C45.7769 381.147 47.6436 382.014 49.0302 383.747C50.4436 385.481 51.1502 387.894 51.1502 390.987C51.1502 394.347 50.4436 397.014 49.0302 398.987C47.6169 400.961 45.6169 401.947 43.0302 401.947C41.9369 401.947 41.0036 401.814 40.2302 401.547C39.4836 401.254 38.9102 400.947 38.5102 400.627C38.1102 400.281 37.9102 400.081 37.9102 400.027H37.8702V411.547L34.9902 411.627V381.547ZM42.0702 400.027C44.1502 400.027 45.6702 399.294 46.6302 397.827C47.5902 396.334 48.0702 394.081 48.0702 391.067C48.0702 388.267 47.5902 386.241 46.6302 384.987C45.6702 383.734 44.2836 383.107 42.4702 383.107C41.5102 383.107 40.6836 383.307 39.9902 383.707C39.2969 384.107 38.7636 384.547 38.3902 385.027C38.0436 385.481 37.8702 385.747 37.8702 385.827V398.267C38.1636 398.641 38.6436 399.027 39.3102 399.427C40.0036 399.827 40.9236 400.027 42.0702 400.027ZM55.5752 381.547H57.7352L58.1752 385.667C58.1752 385.507 58.3219 385.054 58.6152 384.307C58.9352 383.534 59.4152 382.814 60.0552 382.147C60.6952 381.481 61.5219 381.147 62.5352 381.147C63.0419 381.147 63.6152 381.241 64.2552 381.427C64.8952 381.587 65.3086 381.707 65.4952 381.787L65.2152 383.987C65.0286 383.907 64.6019 383.787 63.9352 383.627C63.2952 383.467 62.7219 383.387 62.2152 383.387C61.4419 383.387 60.7752 383.654 60.2152 384.187C59.6819 384.694 59.2819 385.241 59.0152 385.827C58.7486 386.414 58.5752 386.854 58.4952 387.147V401.547H55.5752V381.547ZM75.2334 401.947C72.5667 401.947 70.4734 401.121 68.9534 399.467C67.4334 397.787 66.6734 395.281 66.6734 391.947C66.6734 388.587 67.4067 385.947 68.8734 384.027C70.34 382.107 72.34 381.147 74.8734 381.147C77.1667 381.147 78.9267 381.947 80.1534 383.547C81.4067 385.121 82.0334 387.361 82.0334 390.267C82.0334 390.774 82.0067 391.187 81.9534 391.507C81.9 391.827 81.86 392.027 81.8334 392.107H69.7134C69.7134 397.494 71.66 400.187 75.5534 400.187C76.62 400.187 77.5267 400.001 78.2734 399.627C79.0467 399.227 79.6467 398.814 80.0734 398.387C80.5 397.934 80.7134 397.667 80.7134 397.587L81.8734 398.547C81.8734 398.654 81.62 399.001 81.1134 399.587C80.6067 400.147 79.86 400.681 78.8734 401.187C77.8867 401.694 76.6734 401.947 75.2334 401.947ZM79.3134 390.427L79.3534 389.667C79.3534 385.134 77.86 382.867 74.8734 382.867C73.3 382.867 72.0867 383.494 71.2334 384.747C70.38 385.974 69.8867 387.867 69.7534 390.427H79.3134ZM90.6784 401.547L83.8384 381.547H87.2784L92.4784 398.387L97.9984 381.547H100.198L93.3184 401.547H90.6784ZM110.351 401.947C107.684 401.947 105.591 401.121 104.071 399.467C102.551 397.787 101.791 395.281 101.791 391.947C101.791 388.587 102.524 385.947 103.991 384.027C105.457 382.107 107.457 381.147 109.991 381.147C112.284 381.147 114.044 381.947 115.271 383.547C116.524 385.121 117.151 387.361 117.151 390.267C117.151 390.774 117.124 391.187 117.071 391.507C117.017 391.827 116.977 392.027 116.951 392.107H104.831C104.831 397.494 106.777 400.187 110.671 400.187C111.737 400.187 112.644 400.001 113.391 399.627C114.164 399.227 114.764 398.814 115.191 398.387C115.617 397.934 115.831 397.667 115.831 397.587L116.991 398.547C116.991 398.654 116.737 399.001 116.231 399.587C115.724 400.147 114.977 400.681 113.991 401.187C113.004 401.694 111.791 401.947 110.351 401.947ZM114.431 390.427L114.471 389.667C114.471 385.134 112.977 382.867 109.991 382.867C108.417 382.867 107.204 383.494 106.351 384.747C105.497 385.974 105.004 387.867 104.871 390.427H114.431ZM121.436 381.547H123.836L124.196 383.467C124.622 382.961 125.289 382.454 126.196 381.947C127.102 381.414 128.409 381.147 130.116 381.147C132.036 381.147 133.529 381.694 134.596 382.787C135.662 383.854 136.196 385.454 136.196 387.587V401.547H133.276V388.187C133.276 386.481 132.929 385.241 132.236 384.467C131.542 383.667 130.516 383.267 129.156 383.267C128.196 383.267 127.356 383.414 126.636 383.707C125.916 384.001 125.342 384.321 124.916 384.667C124.516 385.014 124.316 385.214 124.316 385.267V401.547H121.436V381.547ZM146.824 401.947C145.384 401.947 144.318 401.507 143.624 400.627C142.931 399.721 142.584 398.241 142.584 396.187V383.507H140.504V381.827L142.584 381.587L143.664 375.227H145.504V381.547H150.624V383.507H145.504V395.467C145.504 397.201 145.664 398.401 145.984 399.067C146.331 399.707 146.918 400.027 147.744 400.027C148.411 400.027 149.011 399.961 149.544 399.827C150.078 399.694 150.344 399.614 150.344 399.587L150.544 401.187C150.491 401.241 150.318 401.334 150.024 401.467C149.758 401.574 149.344 401.681 148.784 401.787C148.251 401.894 147.598 401.947 146.824 401.947ZM159.911 401.947C158.498 401.947 157.298 401.734 156.311 401.307C155.351 400.854 154.618 400.374 154.111 399.867C153.631 399.361 153.391 399.067 153.391 398.987L154.391 397.587C154.391 397.641 154.605 397.894 155.031 398.347C155.458 398.801 156.045 399.227 156.791 399.627C157.538 400.001 158.418 400.187 159.431 400.187C160.925 400.187 162.045 399.814 162.791 399.067C163.565 398.321 163.951 397.414 163.951 396.347C163.951 395.574 163.751 394.934 163.351 394.427C162.978 393.921 162.498 393.534 161.911 393.267C161.351 392.974 160.565 392.654 159.551 392.307C158.378 391.881 157.445 391.494 156.751 391.147C156.058 390.774 155.458 390.227 154.951 389.507C154.471 388.787 154.231 387.854 154.231 386.707C154.231 385.001 154.845 383.654 156.071 382.667C157.325 381.654 158.925 381.147 160.871 381.147C161.725 381.147 162.538 381.267 163.311 381.507C164.111 381.721 164.751 381.961 165.231 382.227C165.711 382.467 166.018 382.627 166.151 382.707L165.671 384.427C165.565 384.347 165.298 384.187 164.871 383.947C164.445 383.681 163.885 383.427 163.191 383.187C162.525 382.947 161.831 382.827 161.111 382.827C159.885 382.827 158.885 383.134 158.111 383.747C157.365 384.361 156.991 385.134 156.991 386.067C156.991 386.841 157.191 387.494 157.591 388.027C157.991 388.534 158.485 388.934 159.071 389.227C159.685 389.521 160.498 389.854 161.511 390.227C162.685 390.627 163.631 391.027 164.351 391.427C165.098 391.801 165.725 392.347 166.231 393.067C166.738 393.787 166.991 394.721 166.991 395.867C166.991 397.601 166.391 399.054 165.191 400.227C163.991 401.374 162.231 401.947 159.911 401.947ZM181.415 383.507H179.335V381.827L181.415 381.587V378.707C181.415 376.121 181.815 374.227 182.615 373.027C183.415 371.801 184.762 371.187 186.655 371.187C187.295 371.187 187.895 371.281 188.455 371.467C189.015 371.627 189.469 371.801 189.815 371.987C190.162 372.174 190.375 372.294 190.455 372.347L190.055 373.907C189.975 373.854 189.802 373.761 189.535 373.627C189.269 373.467 188.922 373.321 188.495 373.187C188.069 373.054 187.629 372.987 187.175 372.987C186.455 372.987 185.895 373.161 185.495 373.507C185.095 373.854 184.789 374.467 184.575 375.347C184.389 376.227 184.295 377.454 184.295 379.027V381.547H190.095V383.507H184.295V401.547H181.415V383.507ZM196.688 401.947C194.928 401.947 193.515 401.521 192.448 400.667C191.382 399.787 190.848 398.574 190.848 397.027C190.848 393.107 194.622 390.747 202.168 389.947V387.827C202.168 385.934 201.862 384.641 201.248 383.947C200.635 383.254 199.555 382.907 198.008 382.907C197.315 382.907 196.608 383.041 195.888 383.307C195.168 383.547 194.555 383.814 194.048 384.107C193.568 384.374 193.262 384.547 193.128 384.627L192.808 382.987C192.942 382.881 193.275 382.681 193.808 382.387C194.368 382.094 195.062 381.814 195.888 381.547C196.742 381.281 197.595 381.147 198.448 381.147C200.742 381.147 202.422 381.627 203.488 382.587C204.555 383.547 205.088 385.241 205.088 387.667V397.467C205.088 398.534 205.182 399.254 205.368 399.627C205.582 400.001 205.835 400.187 206.128 400.187C206.368 400.187 206.662 400.147 207.008 400.067C207.355 399.961 207.582 399.881 207.688 399.827L207.808 401.187C207.595 401.267 207.142 401.414 206.448 401.627C205.755 401.841 205.168 401.947 204.688 401.947C203.995 401.947 203.462 401.734 203.088 401.307C202.715 400.854 202.488 400.067 202.408 398.947H202.368C202.368 399.054 202.155 399.361 201.728 399.867C201.302 400.374 200.662 400.854 199.808 401.307C198.982 401.734 197.942 401.947 196.688 401.947ZM197.568 400.187C198.528 400.187 199.355 399.974 200.048 399.547C200.742 399.121 201.262 398.654 201.608 398.147C201.982 397.641 202.168 397.347 202.168 397.267V391.427C199.742 391.694 197.742 392.214 196.168 392.987C194.622 393.761 193.848 394.987 193.848 396.667C193.848 397.814 194.182 398.694 194.848 399.307C195.515 399.894 196.422 400.187 197.568 400.187ZM211.631 401.547V371.627L214.511 371.467V401.547H211.631ZM225.497 401.947C224.084 401.947 222.884 401.734 221.897 401.307C220.937 400.854 220.204 400.374 219.697 399.867C219.217 399.361 218.977 399.067 218.977 398.987L219.977 397.587C219.977 397.641 220.19 397.894 220.617 398.347C221.044 398.801 221.63 399.227 222.377 399.627C223.124 400.001 224.004 400.187 225.017 400.187C226.51 400.187 227.63 399.814 228.377 399.067C229.15 398.321 229.537 397.414 229.537 396.347C229.537 395.574 229.337 394.934 228.937 394.427C228.564 393.921 228.084 393.534 227.497 393.267C226.937 392.974 226.15 392.654 225.137 392.307C223.964 391.881 223.03 391.494 222.337 391.147C221.644 390.774 221.044 390.227 220.537 389.507C220.057 388.787 219.817 387.854 219.817 386.707C219.817 385.001 220.43 383.654 221.657 382.667C222.91 381.654 224.51 381.147 226.457 381.147C227.31 381.147 228.124 381.267 228.897 381.507C229.697 381.721 230.337 381.961 230.817 382.227C231.297 382.467 231.604 382.627 231.737 382.707L231.257 384.427C231.15 384.347 230.884 384.187 230.457 383.947C230.03 383.681 229.47 383.427 228.777 383.187C228.11 382.947 227.417 382.827 226.697 382.827C225.47 382.827 224.47 383.134 223.697 383.747C222.95 384.361 222.577 385.134 222.577 386.067C222.577 386.841 222.777 387.494 223.177 388.027C223.577 388.534 224.07 388.934 224.657 389.227C225.27 389.521 226.084 389.854 227.097 390.227C228.27 390.627 229.217 391.027 229.937 391.427C230.684 391.801 231.31 392.347 231.817 393.067C232.324 393.787 232.577 394.721 232.577 395.867C232.577 397.601 231.977 399.054 230.777 400.227C229.577 401.374 227.817 401.947 225.497 401.947ZM243.905 401.947C241.239 401.947 239.145 401.121 237.625 399.467C236.105 397.787 235.345 395.281 235.345 391.947C235.345 388.587 236.079 385.947 237.545 384.027C239.012 382.107 241.012 381.147 243.545 381.147C245.839 381.147 247.599 381.947 248.825 383.547C250.079 385.121 250.705 387.361 250.705 390.267C250.705 390.774 250.679 391.187 250.625 391.507C250.572 391.827 250.532 392.027 250.505 392.107H238.385C238.385 397.494 240.332 400.187 244.225 400.187C245.292 400.187 246.199 400.001 246.945 399.627C247.719 399.227 248.319 398.814 248.745 398.387C249.172 397.934 249.385 397.667 249.385 397.587L250.545 398.547C250.545 398.654 250.292 399.001 249.785 399.587C249.279 400.147 248.532 400.681 247.545 401.187C246.559 401.694 245.345 401.947 243.905 401.947ZM247.985 390.427L248.025 389.667C248.025 385.134 246.532 382.867 243.545 382.867C241.972 382.867 240.759 383.494 239.905 384.747C239.052 385.974 238.559 387.867 238.425 390.427H247.985ZM34.9902 423.547H37.3902L37.7502 425.947C38.1236 425.361 38.7636 424.747 39.6702 424.107C40.5769 423.467 41.8302 423.147 43.4302 423.147C45.7769 423.147 47.6436 424.014 49.0302 425.747C50.4436 427.481 51.1502 429.894 51.1502 432.987C51.1502 436.347 50.4436 439.014 49.0302 440.987C47.6169 442.961 45.6169 443.947 43.0302 443.947C41.9369 443.947 41.0036 443.814 40.2302 443.547C39.4836 443.254 38.9102 442.947 38.5102 442.627C38.1102 442.281 37.9102 442.081 37.9102 442.027H37.8702V453.547L34.9902 453.627V423.547ZM42.0702 442.027C44.1502 442.027 45.6702 441.294 46.6302 439.827C47.5902 438.334 48.0702 436.081 48.0702 433.067C48.0702 430.267 47.5902 428.241 46.6302 426.987C45.6702 425.734 44.2836 425.107 42.4702 425.107C41.5102 425.107 40.6836 425.307 39.9902 425.707C39.2969 426.107 38.7636 426.547 38.3902 427.027C38.0436 427.481 37.8702 427.747 37.8702 427.827V440.267C38.1636 440.641 38.6436 441.027 39.3102 441.427C40.0036 441.827 40.9236 442.027 42.0702 442.027ZM62.6152 443.947C59.8419 443.947 57.7219 443.041 56.2552 441.227C54.8152 439.414 54.0952 436.854 54.0952 433.547C54.0952 430.241 54.8152 427.681 56.2552 425.867C57.7219 424.054 59.8419 423.147 62.6152 423.147C65.3886 423.147 67.4952 424.054 68.9352 425.867C70.4019 427.681 71.1352 430.241 71.1352 433.547C71.1352 436.827 70.3886 439.387 68.8952 441.227C67.4286 443.041 65.3352 443.947 62.6152 443.947ZM62.6152 442.187C64.4819 442.187 65.8552 441.481 66.7352 440.067C67.6152 438.627 68.0552 436.454 68.0552 433.547C68.0552 430.667 67.6152 428.507 66.7352 427.067C65.8552 425.627 64.4819 424.907 62.6152 424.907C60.7486 424.907 59.3752 425.627 58.4952 427.067C57.6152 428.481 57.1752 430.641 57.1752 433.547C57.1752 436.454 57.6152 438.627 58.4952 440.067C59.3752 441.481 60.7486 442.187 62.6152 442.187ZM80.6143 443.947C79.201 443.947 78.001 443.734 77.0143 443.307C76.0543 442.854 75.321 442.374 74.8143 441.867C74.3343 441.361 74.0943 441.067 74.0943 440.987L75.0943 439.587C75.0943 439.641 75.3076 439.894 75.7343 440.347C76.161 440.801 76.7476 441.227 77.4943 441.627C78.241 442.001 79.121 442.187 80.1343 442.187C81.6276 442.187 82.7476 441.814 83.4943 441.067C84.2676 440.321 84.6543 439.414 84.6543 438.347C84.6543 437.574 84.4543 436.934 84.0543 436.427C83.681 435.921 83.201 435.534 82.6143 435.267C82.0543 434.974 81.2676 434.654 80.2543 434.307C79.081 433.881 78.1476 433.494 77.4543 433.147C76.761 432.774 76.161 432.227 75.6543 431.507C75.1743 430.787 74.9343 429.854 74.9343 428.707C74.9343 427.001 75.5476 425.654 76.7743 424.667C78.0276 423.654 79.6276 423.147 81.5743 423.147C82.4276 423.147 83.241 423.267 84.0143 423.507C84.8143 423.721 85.4543 423.961 85.9343 424.227C86.4143 424.467 86.721 424.627 86.8543 424.707L86.3743 426.427C86.2676 426.347 86.001 426.187 85.5743 425.947C85.1476 425.681 84.5876 425.427 83.8943 425.187C83.2276 424.947 82.5343 424.827 81.8143 424.827C80.5876 424.827 79.5876 425.134 78.8143 425.747C78.0676 426.361 77.6943 427.134 77.6943 428.067C77.6943 428.841 77.8943 429.494 78.2943 430.027C78.6943 430.534 79.1876 430.934 79.7743 431.227C80.3876 431.521 81.201 431.854 82.2143 432.227C83.3876 432.627 84.3343 433.027 85.0543 433.427C85.801 433.801 86.4276 434.347 86.9343 435.067C87.441 435.787 87.6943 436.721 87.6943 437.867C87.6943 439.601 87.0943 441.054 85.8943 442.227C84.6943 443.374 82.9343 443.947 80.6143 443.947ZM93.4224 419.507C92.9424 419.507 92.5558 419.361 92.2624 419.067C91.9158 418.721 91.7424 418.294 91.7424 417.787C91.7424 417.281 91.9158 416.854 92.2624 416.507C92.5558 416.214 92.9424 416.067 93.4224 416.067C93.9291 416.067 94.3291 416.201 94.6224 416.467C94.9424 416.814 95.1024 417.254 95.1024 417.787C95.1024 418.267 94.9424 418.694 94.6224 419.067C94.2491 419.361 93.8491 419.507 93.4224 419.507ZM91.9424 443.547V423.547H94.8624V443.547H91.9424ZM105.77 443.947C104.33 443.947 103.263 443.507 102.57 442.627C101.876 441.721 101.53 440.241 101.53 438.187V425.507H99.4496V423.827L101.53 423.587L102.61 417.227H104.45V423.547H109.57V425.507H104.45V437.467C104.45 439.201 104.61 440.401 104.93 441.067C105.276 441.707 105.863 442.027 106.69 442.027C107.356 442.027 107.956 441.961 108.49 441.827C109.023 441.694 109.29 441.614 109.29 441.587L109.49 443.187C109.436 443.241 109.263 443.334 108.97 443.467C108.703 443.574 108.29 443.681 107.73 443.787C107.196 443.894 106.543 443.947 105.77 443.947ZM115.336 419.507C114.856 419.507 114.47 419.361 114.176 419.067C113.83 418.721 113.656 418.294 113.656 417.787C113.656 417.281 113.83 416.854 114.176 416.507C114.47 416.214 114.856 416.067 115.336 416.067C115.843 416.067 116.243 416.201 116.536 416.467C116.856 416.814 117.016 417.254 117.016 417.787C117.016 418.267 116.856 418.694 116.536 419.067C116.163 419.361 115.763 419.507 115.336 419.507ZM113.856 443.547V423.547H116.776V443.547H113.856ZM127.124 443.547L120.284 423.547H123.724L128.924 440.387L134.444 423.547H136.644L129.764 443.547H127.124ZM146.796 443.947C144.129 443.947 142.036 443.121 140.516 441.467C138.996 439.787 138.236 437.281 138.236 433.947C138.236 430.587 138.969 427.947 140.436 426.027C141.903 424.107 143.903 423.147 146.436 423.147C148.729 423.147 150.489 423.947 151.716 425.547C152.969 427.121 153.596 429.361 153.596 432.267C153.596 432.774 153.569 433.187 153.516 433.507C153.463 433.827 153.423 434.027 153.396 434.107H141.276C141.276 439.494 143.223 442.187 147.116 442.187C148.183 442.187 149.089 442.001 149.836 441.627C150.609 441.227 151.209 440.814 151.636 440.387C152.063 439.934 152.276 439.667 152.276 439.587L153.436 440.547C153.436 440.654 153.183 441.001 152.676 441.587C152.169 442.147 151.423 442.681 150.436 443.187C149.449 443.694 148.236 443.947 146.796 443.947ZM150.876 432.427L150.916 431.667C150.916 427.134 149.423 424.867 146.436 424.867C144.863 424.867 143.649 425.494 142.796 426.747C141.943 427.974 141.449 429.867 141.316 432.427H150.876ZM167.177 423.547H169.337L169.777 427.667C169.777 427.507 169.923 427.054 170.217 426.307C170.537 425.534 171.017 424.814 171.657 424.147C172.297 423.481 173.123 423.147 174.137 423.147C174.643 423.147 175.217 423.241 175.857 423.427C176.497 423.587 176.91 423.707 177.097 423.787L176.817 425.987C176.63 425.907 176.203 425.787 175.537 425.627C174.897 425.467 174.323 425.387 173.817 425.387C173.043 425.387 172.377 425.654 171.817 426.187C171.283 426.694 170.883 427.241 170.617 427.827C170.35 428.414 170.177 428.854 170.097 429.147V443.547H167.177V423.547ZM186.835 443.947C184.168 443.947 182.075 443.121 180.555 441.467C179.035 439.787 178.275 437.281 178.275 433.947C178.275 430.587 179.008 427.947 180.475 426.027C181.942 424.107 183.942 423.147 186.475 423.147C188.768 423.147 190.528 423.947 191.755 425.547C193.008 427.121 193.635 429.361 193.635 432.267C193.635 432.774 193.608 433.187 193.555 433.507C193.502 433.827 193.462 434.027 193.435 434.107H181.315C181.315 439.494 183.262 442.187 187.155 442.187C188.222 442.187 189.128 442.001 189.875 441.627C190.648 441.227 191.248 440.814 191.675 440.387C192.102 439.934 192.315 439.667 192.315 439.587L193.475 440.547C193.475 440.654 193.222 441.001 192.715 441.587C192.208 442.147 191.462 442.681 190.475 443.187C189.488 443.694 188.275 443.947 186.835 443.947ZM190.915 432.427L190.955 431.667C190.955 427.134 189.462 424.867 186.475 424.867C184.902 424.867 183.688 425.494 182.835 426.747C181.982 427.974 181.488 429.867 181.355 432.427H190.915ZM202.88 443.947C201.467 443.947 200.267 443.734 199.28 443.307C198.32 442.854 197.587 442.374 197.08 441.867C196.6 441.361 196.36 441.067 196.36 440.987L197.36 439.587C197.36 439.641 197.573 439.894 198 440.347C198.427 440.801 199.013 441.227 199.76 441.627C200.507 442.001 201.387 442.187 202.4 442.187C203.893 442.187 205.013 441.814 205.76 441.067C206.533 440.321 206.92 439.414 206.92 438.347C206.92 437.574 206.72 436.934 206.32 436.427C205.947 435.921 205.467 435.534 204.88 435.267C204.32 434.974 203.533 434.654 202.52 434.307C201.347 433.881 200.413 433.494 199.72 433.147C199.027 432.774 198.427 432.227 197.92 431.507C197.44 430.787 197.2 429.854 197.2 428.707C197.2 427.001 197.813 425.654 199.04 424.667C200.293 423.654 201.893 423.147 203.84 423.147C204.693 423.147 205.507 423.267 206.28 423.507C207.08 423.721 207.72 423.961 208.2 424.227C208.68 424.467 208.987 424.627 209.12 424.707L208.64 426.427C208.533 426.347 208.267 426.187 207.84 425.947C207.413 425.681 206.853 425.427 206.16 425.187C205.493 424.947 204.8 424.827 204.08 424.827C202.853 424.827 201.853 425.134 201.08 425.747C200.333 426.361 199.96 427.134 199.96 428.067C199.96 428.841 200.16 429.494 200.56 430.027C200.96 430.534 201.453 430.934 202.04 431.227C202.653 431.521 203.467 431.854 204.48 432.227C205.653 432.627 206.6 433.027 207.32 433.427C208.067 433.801 208.693 434.347 209.2 435.067C209.707 435.787 209.96 436.721 209.96 437.867C209.96 439.601 209.36 441.054 208.16 442.227C206.96 443.374 205.2 443.947 202.88 443.947ZM220.088 443.947C218.141 443.947 216.635 443.414 215.568 442.347C214.501 441.254 213.968 439.641 213.968 437.507V423.547H216.888V436.907C216.888 440.187 218.275 441.827 221.048 441.827C222.008 441.827 222.835 441.681 223.528 441.387C224.221 441.067 224.768 440.734 225.168 440.387C225.595 440.041 225.808 439.841 225.808 439.787V423.547H228.728V443.547H226.288L225.888 441.627C225.541 442.107 224.901 442.614 223.968 443.147C223.035 443.681 221.741 443.947 220.088 443.947ZM234.717 443.547V413.627L237.597 413.467V443.547H234.717ZM248.543 443.947C247.103 443.947 246.036 443.507 245.343 442.627C244.65 441.721 244.303 440.241 244.303 438.187V425.507H242.223V423.827L244.303 423.587L245.383 417.227H247.223V423.547H252.343V425.507H247.223V437.467C247.223 439.201 247.383 440.401 247.703 441.067C248.05 441.707 248.636 442.027 249.463 442.027C250.13 442.027 250.73 441.961 251.263 441.827C251.796 441.694 252.063 441.614 252.063 441.587L252.263 443.187C252.21 443.241 252.036 443.334 251.743 443.467C251.476 443.574 251.063 443.681 250.503 443.787C249.97 443.894 249.316 443.947 248.543 443.947ZM261.63 443.947C260.217 443.947 259.017 443.734 258.03 443.307C257.07 442.854 256.337 442.374 255.83 441.867C255.35 441.361 255.11 441.067 255.11 440.987L256.11 439.587C256.11 439.641 256.323 439.894 256.75 440.347C257.177 440.801 257.763 441.227 258.51 441.627C259.257 442.001 260.137 442.187 261.15 442.187C262.643 442.187 263.763 441.814 264.51 441.067C265.283 440.321 265.67 439.414 265.67 438.347C265.67 437.574 265.47 436.934 265.07 436.427C264.697 435.921 264.217 435.534 263.63 435.267C263.07 434.974 262.283 434.654 261.27 434.307C260.097 433.881 259.163 433.494 258.47 433.147C257.777 432.774 257.177 432.227 256.67 431.507C256.19 430.787 255.95 429.854 255.95 428.707C255.95 427.001 256.563 425.654 257.79 424.667C259.043 423.654 260.643 423.147 262.59 423.147C263.443 423.147 264.257 423.267 265.03 423.507C265.83 423.721 266.47 423.961 266.95 424.227C267.43 424.467 267.737 424.627 267.87 424.707L267.39 426.427C267.283 426.347 267.017 426.187 266.59 425.947C266.163 425.681 265.603 425.427 264.91 425.187C264.243 424.947 263.55 424.827 262.83 424.827C261.603 424.827 260.603 425.134 259.83 425.747C259.083 426.361 258.71 427.134 258.71 428.067C258.71 428.841 258.91 429.494 259.31 430.027C259.71 430.534 260.203 430.934 260.79 431.227C261.403 431.521 262.217 431.854 263.23 432.227C264.403 432.627 265.35 433.027 266.07 433.427C266.817 433.801 267.443 434.347 267.95 435.067C268.457 435.787 268.71 436.721 268.71 437.867C268.71 439.601 268.11 441.054 266.91 442.227C265.71 443.374 263.95 443.947 261.63 443.947Z" fill="black"/>
<path d="M335.629 932.352C332.029 932.352 329.229 931.192 327.229 928.872C325.229 926.525 324.229 923.298 324.229 919.192C324.229 916.445 324.682 914.045 325.589 911.992C326.522 909.938 327.829 908.365 329.509 907.272C331.215 906.152 333.189 905.592 335.429 905.592C336.655 905.592 337.829 905.752 338.949 906.072C340.095 906.392 341.069 906.752 341.869 907.152C342.669 907.552 343.069 907.765 343.069 907.792L342.709 909.712C342.709 909.685 342.322 909.485 341.549 909.112C340.775 908.738 339.869 908.392 338.829 908.072C337.815 907.752 336.789 907.592 335.749 907.592C333.162 907.592 331.135 908.578 329.669 910.552C328.202 912.498 327.469 915.352 327.469 919.112C327.469 922.818 328.215 925.618 329.709 927.512C331.202 929.405 333.295 930.352 335.989 930.352C337.402 930.352 338.642 930.058 339.709 929.472C340.775 928.885 341.615 928.258 342.229 927.592C342.869 926.925 343.189 926.538 343.189 926.432L344.309 927.712C344.309 927.845 343.962 928.312 343.269 929.112C342.575 929.885 341.575 930.618 340.269 931.312C338.989 932.005 337.442 932.352 335.629 932.352ZM345.841 931.952L354.161 919.032L346.161 905.952H349.841L356.281 916.832L363.001 905.952H365.521L357.561 918.552L366.041 931.952H362.321L355.481 920.792H355.441L348.521 931.952H345.841ZM379.3 932.352C375.7 932.352 372.9 931.192 370.9 928.872C368.9 926.525 367.9 923.298 367.9 919.192C367.9 916.445 368.354 914.045 369.26 911.992C370.194 909.938 371.5 908.365 373.18 907.272C374.887 906.152 376.86 905.592 379.1 905.592C380.327 905.592 381.5 905.752 382.62 906.072C383.767 906.392 384.74 906.752 385.54 907.152C386.34 907.552 386.74 907.765 386.74 907.792L386.38 909.712C386.38 909.685 385.994 909.485 385.22 909.112C384.447 908.738 383.54 908.392 382.5 908.072C381.487 907.752 380.46 907.592 379.42 907.592C376.834 907.592 374.807 908.578 373.34 910.552C371.874 912.498 371.14 915.352 371.14 919.112C371.14 922.818 371.887 925.618 373.38 927.512C374.874 929.405 376.967 930.352 379.66 930.352C381.074 930.352 382.314 930.058 383.38 929.472C384.447 928.885 385.287 928.258 385.9 927.592C386.54 926.925 386.86 926.538 386.86 926.432L387.98 927.712C387.98 927.845 387.634 928.312 386.94 929.112C386.247 929.885 385.247 930.618 383.94 931.312C382.66 932.005 381.114 932.352 379.3 932.352ZM392.553 905.952H398.833C401.473 905.952 403.54 906.645 405.033 908.032C406.526 909.392 407.273 911.352 407.273 913.912C407.273 915.965 406.833 917.645 405.953 918.952C405.073 920.258 403.913 921.192 402.473 921.752L408.993 931.952H405.513L399.553 922.312H395.593V931.952H392.553V905.952ZM398.833 920.512C400.566 920.512 401.873 920.018 402.753 919.032C403.633 918.045 404.073 916.378 404.073 914.032C404.073 909.818 402.206 907.712 398.473 907.712H395.593V920.512H398.833ZM421.075 932.352C418.355 932.352 416.262 931.458 414.795 929.672C413.329 927.885 412.595 925.312 412.595 921.952C412.595 920.885 412.635 919.912 412.715 919.032C412.982 914.525 413.875 911.165 415.395 908.952C416.915 906.712 418.929 905.592 421.435 905.592C422.262 905.592 423.049 905.698 423.795 905.912C424.569 906.098 425.182 906.298 425.635 906.512C426.115 906.725 426.422 906.872 426.555 906.952L426.155 908.712C426.049 908.632 425.782 908.498 425.355 908.312C424.929 908.098 424.382 907.898 423.715 907.712C423.049 907.525 422.369 907.432 421.675 907.432C417.782 907.432 415.715 910.965 415.475 918.032C417.075 916.378 419.009 915.552 421.275 915.552C423.702 915.552 425.609 916.285 426.995 917.752C428.409 919.218 429.115 921.178 429.115 923.632C429.115 925.258 428.809 926.738 428.195 928.072C427.609 929.378 426.702 930.418 425.475 931.192C424.275 931.965 422.809 932.352 421.075 932.352ZM421.075 930.592C422.809 930.592 424.075 929.952 424.875 928.672C425.675 927.365 426.075 925.672 426.075 923.592C426.075 921.672 425.649 920.125 424.795 918.952C423.942 917.778 422.649 917.192 420.915 917.192C419.662 917.192 418.622 917.498 417.795 918.112C416.969 918.698 416.302 919.365 415.795 920.112L415.835 920.152C415.782 920.445 415.729 920.845 415.675 921.352C415.649 921.858 415.635 922.365 415.635 922.872C415.635 928.018 417.449 930.592 421.075 930.592Z" fill="black"/>
<path d="M143.359 958.674C139.759 958.674 136.959 957.514 134.959 955.194C132.959 952.847 131.959 949.62 131.959 945.514C131.959 942.767 132.412 940.367 133.319 938.314C134.252 936.26 135.559 934.687 137.239 933.594C138.946 932.474 140.919 931.914 143.159 931.914C144.386 931.914 145.559 932.074 146.679 932.394C147.826 932.714 148.799 933.074 149.599 933.474C150.399 933.874 150.799 934.087 150.799 934.114L150.439 936.034C150.439 936.007 150.052 935.807 149.279 935.434C148.506 935.06 147.599 934.714 146.559 934.394C145.546 934.074 144.519 933.914 143.479 933.914C140.892 933.914 138.866 934.9 137.399 936.874C135.932 938.82 135.199 941.674 135.199 945.434C135.199 949.14 135.946 951.94 137.439 953.834C138.932 955.727 141.026 956.674 143.719 956.674C145.132 956.674 146.372 956.38 147.439 955.794C148.506 955.207 149.346 954.58 149.959 953.914C150.599 953.247 150.919 952.86 150.919 952.754L152.039 954.034C152.039 954.167 151.692 954.634 150.999 955.434C150.306 956.207 149.306 956.94 147.999 957.634C146.719 958.327 145.172 958.674 143.359 958.674ZM156.612 932.274H164.532C168.265 932.274 171.158 933.407 173.212 935.674C175.292 937.914 176.332 941.14 176.332 945.354C176.332 949.54 175.305 952.74 173.252 954.954C171.225 957.167 168.318 958.274 164.532 958.274H156.612V932.274ZM164.572 956.354C170.225 956.354 173.052 952.687 173.052 945.354C173.052 937.914 170.212 934.194 164.532 934.194H159.652V956.354H164.572ZM188.923 958.674C186.203 958.674 184.11 957.78 182.643 955.994C181.176 954.207 180.443 951.634 180.443 948.274C180.443 947.207 180.483 946.234 180.563 945.354C180.83 940.847 181.723 937.487 183.243 935.274C184.763 933.034 186.776 931.914 189.283 931.914C190.11 931.914 190.896 932.02 191.643 932.234C192.416 932.42 193.03 932.62 193.483 932.834C193.963 933.047 194.27 933.194 194.403 933.274L194.003 935.034C193.896 934.954 193.63 934.82 193.203 934.634C192.776 934.42 192.23 934.22 191.563 934.034C190.896 933.847 190.216 933.754 189.523 933.754C185.63 933.754 183.563 937.287 183.323 944.354C184.923 942.7 186.856 941.874 189.123 941.874C191.55 941.874 193.456 942.607 194.843 944.074C196.256 945.54 196.963 947.5 196.963 949.954C196.963 951.58 196.656 953.06 196.043 954.394C195.456 955.7 194.55 956.74 193.323 957.514C192.123 958.287 190.656 958.674 188.923 958.674ZM188.923 956.914C190.656 956.914 191.923 956.274 192.723 954.994C193.523 953.687 193.923 951.994 193.923 949.914C193.923 947.994 193.496 946.447 192.643 945.274C191.79 944.1 190.496 943.514 188.763 943.514C187.51 943.514 186.47 943.82 185.643 944.434C184.816 945.02 184.15 945.687 183.643 946.434L183.683 946.474C183.63 946.767 183.576 947.167 183.523 947.674C183.496 948.18 183.483 948.687 183.483 949.194C183.483 954.34 185.296 956.914 188.923 956.914ZM208.107 958.674C206.961 958.674 205.974 958.54 205.147 958.274C204.347 957.98 203.734 957.674 203.307 957.354C202.881 957.007 202.667 956.807 202.667 956.754L203.427 955.034C203.427 955.087 203.627 955.274 204.027 955.594C204.427 955.887 204.961 956.167 205.627 956.434C206.321 956.7 207.107 956.834 207.987 956.834C209.854 956.834 211.361 955.98 212.507 954.274C213.654 952.54 214.281 949.94 214.387 946.474C213.001 948.287 211.081 949.194 208.627 949.194C206.227 949.194 204.321 948.447 202.907 946.954C201.494 945.46 200.787 943.487 200.787 941.034C200.787 939.407 201.107 937.9 201.747 936.514C202.387 935.127 203.334 934.02 204.587 933.194C205.841 932.34 207.334 931.914 209.067 931.914C211.761 931.914 213.801 932.807 215.187 934.594C216.601 936.38 217.307 938.954 217.307 942.314C217.307 943.594 217.281 944.527 217.227 945.114C217.121 948.074 216.654 950.567 215.827 952.594C215.027 954.62 213.961 956.14 212.627 957.154C211.294 958.167 209.787 958.674 208.107 958.674ZM208.987 947.554C210.427 947.554 211.574 947.194 212.427 946.474C213.307 945.727 213.867 944.954 214.107 944.154C214.187 943.434 214.227 942.514 214.227 941.394C214.227 938.807 213.814 936.874 212.987 935.594C212.187 934.314 210.881 933.674 209.067 933.674C207.334 933.674 206.027 934.367 205.147 935.754C204.267 937.14 203.827 938.86 203.827 940.914C203.827 942.86 204.254 944.46 205.107 945.714C205.987 946.94 207.281 947.554 208.987 947.554Z" fill="black"/>
<path d="M166.697 1131.57H178.577C184.177 1131.57 188.517 1133.27 191.597 1136.67C194.717 1140.03 196.277 1144.87 196.277 1151.19C196.277 1157.47 194.737 1162.27 191.657 1165.59C188.617 1168.91 184.257 1170.57 178.577 1170.57H166.697V1131.57ZM178.637 1167.69C187.117 1167.69 191.357 1162.19 191.357 1151.19C191.357 1140.03 187.097 1134.45 178.577 1134.45H171.257V1167.69H178.637ZM214.144 1171.17C210.144 1171.17 207.004 1169.93 204.724 1167.45C202.444 1164.93 201.304 1161.17 201.304 1156.17C201.304 1151.13 202.404 1147.17 204.604 1144.29C206.804 1141.41 209.804 1139.97 213.604 1139.97C217.044 1139.97 219.684 1141.17 221.524 1143.57C223.404 1145.93 224.344 1149.29 224.344 1153.65C224.344 1154.41 224.304 1155.03 224.224 1155.51C224.144 1155.99 224.084 1156.29 224.044 1156.41H205.864C205.864 1164.49 208.784 1168.53 214.624 1168.53C216.224 1168.53 217.584 1168.25 218.704 1167.69C219.864 1167.09 220.764 1166.47 221.404 1165.83C222.044 1165.15 222.364 1164.75 222.364 1164.63L224.104 1166.07C224.104 1166.23 223.724 1166.75 222.964 1167.63C222.204 1168.47 221.084 1169.27 219.604 1170.03C218.124 1170.79 216.304 1171.17 214.144 1171.17ZM220.264 1153.89L220.324 1152.75C220.324 1145.95 218.084 1142.55 213.604 1142.55C211.244 1142.55 209.424 1143.49 208.144 1145.37C206.864 1147.21 206.124 1150.05 205.924 1153.89H220.264ZM231.971 1143.51H228.851V1140.99L231.971 1140.63V1136.31C231.971 1132.43 232.571 1129.59 233.771 1127.79C234.971 1125.95 236.991 1125.03 239.831 1125.03C240.791 1125.03 241.691 1125.17 242.531 1125.45C243.371 1125.69 244.051 1125.95 244.571 1126.23C245.091 1126.51 245.411 1126.69 245.531 1126.77L244.931 1129.11C244.811 1129.03 244.551 1128.89 244.151 1128.69C243.751 1128.45 243.231 1128.23 242.591 1128.03C241.951 1127.83 241.291 1127.73 240.611 1127.73C239.531 1127.73 238.691 1127.99 238.091 1128.51C237.491 1129.03 237.031 1129.95 236.711 1131.27C236.431 1132.59 236.291 1134.43 236.291 1136.79V1140.57H244.991V1143.51H236.291V1170.57H231.971V1143.51ZM258.34 1171.17C255.42 1171.17 253.16 1170.37 251.56 1168.77C249.96 1167.13 249.16 1164.71 249.16 1161.51V1140.57H253.54V1160.61C253.54 1165.53 255.62 1167.99 259.78 1167.99C261.22 1167.99 262.46 1167.77 263.5 1167.33C264.54 1166.85 265.36 1166.35 265.96 1165.83C266.6 1165.31 266.92 1165.01 266.92 1164.93V1140.57H271.3V1170.57H267.64L267.04 1167.69C266.52 1168.41 265.56 1169.17 264.16 1169.97C262.76 1170.77 260.82 1171.17 258.34 1171.17ZM280.283 1140.57H283.883L284.423 1143.45C285.063 1142.69 286.063 1141.93 287.423 1141.17C288.783 1140.37 290.743 1139.97 293.303 1139.97C296.183 1139.97 298.423 1140.79 300.023 1142.43C301.623 1144.03 302.423 1146.43 302.423 1149.63V1170.57H298.043V1150.53C298.043 1147.97 297.523 1146.11 296.483 1144.95C295.443 1143.75 293.903 1143.15 291.863 1143.15C290.423 1143.15 289.163 1143.37 288.083 1143.81C287.003 1144.25 286.143 1144.73 285.503 1145.25C284.903 1145.77 284.603 1146.07 284.603 1146.15V1170.57H280.283V1140.57ZM321.666 1171.17C317.506 1171.17 314.306 1169.89 312.066 1167.33C309.826 1164.77 308.706 1160.95 308.706 1155.87C308.706 1150.75 309.806 1146.83 312.006 1144.11C314.246 1141.35 317.506 1139.97 321.786 1139.97C323.186 1139.97 324.506 1140.17 325.746 1140.57C326.986 1140.93 328.026 1141.35 328.866 1141.83C329.746 1142.27 330.186 1142.51 330.186 1142.55L329.646 1145.01C329.486 1144.89 329.046 1144.65 328.326 1144.29C327.646 1143.89 326.746 1143.51 325.626 1143.15C324.546 1142.79 323.426 1142.61 322.266 1142.61C319.186 1142.61 316.926 1143.63 315.486 1145.67C314.046 1147.71 313.326 1151.09 313.326 1155.81C313.326 1160.37 314.086 1163.63 315.606 1165.59C317.126 1167.55 319.266 1168.53 322.026 1168.53C323.586 1168.53 324.906 1168.25 325.986 1167.69C327.106 1167.13 327.966 1166.55 328.566 1165.95C329.166 1165.31 329.466 1164.93 329.466 1164.81L331.386 1166.07C331.386 1166.23 331.026 1166.75 330.306 1167.63C329.586 1168.47 328.506 1169.27 327.066 1170.03C325.626 1170.79 323.826 1171.17 321.666 1171.17ZM343.737 1171.17C341.577 1171.17 339.977 1170.51 338.937 1169.19C337.897 1167.83 337.377 1165.61 337.377 1162.53V1143.51H334.257V1140.99L337.377 1140.63L338.997 1131.09H341.757V1140.57H349.437V1143.51H341.757V1161.45C341.757 1164.05 341.997 1165.85 342.477 1166.85C342.997 1167.81 343.877 1168.29 345.117 1168.29C346.117 1168.29 347.017 1168.19 347.817 1167.99C348.617 1167.79 349.017 1167.67 349.017 1167.63L349.317 1170.03C349.237 1170.11 348.977 1170.25 348.537 1170.45C348.137 1170.61 347.517 1170.77 346.677 1170.93C345.877 1171.09 344.897 1171.17 343.737 1171.17ZM376.952 1170.57V1134.45H365.852V1131.57H392.672V1134.45H381.512V1170.57H376.952ZM398.008 1140.57H406.048C409.288 1140.57 411.808 1141.37 413.608 1142.97C415.448 1144.57 416.368 1146.85 416.368 1149.81C416.368 1152.05 415.868 1153.91 414.868 1155.39C413.908 1156.87 412.608 1157.97 410.968 1158.69L418.408 1170.57H413.428L406.768 1159.59H402.328V1170.57H398.008V1140.57ZM405.868 1157.07C407.828 1157.07 409.308 1156.53 410.308 1155.45C411.348 1154.37 411.868 1152.53 411.868 1149.93C411.868 1147.57 411.328 1145.83 410.248 1144.71C409.208 1143.59 407.628 1143.03 405.508 1143.03H402.328V1157.07H405.868ZM425.488 1170.57L425.668 1140.57H431.008L441.508 1165.29H441.568L451.948 1140.57H457.048L457.228 1170.57H452.968L452.788 1145.79L442.528 1170.57H438.988L428.728 1145.79L428.668 1170.57H425.488ZM491.354 1171.17C487.194 1171.17 483.994 1169.89 481.754 1167.33C479.514 1164.77 478.394 1160.95 478.394 1155.87C478.394 1150.75 479.494 1146.83 481.694 1144.11C483.934 1141.35 487.194 1139.97 491.474 1139.97C492.874 1139.97 494.194 1140.17 495.434 1140.57C496.674 1140.93 497.714 1141.35 498.554 1141.83C499.434 1142.27 499.874 1142.51 499.874 1142.55L499.334 1145.01C499.174 1144.89 498.734 1144.65 498.014 1144.29C497.334 1143.89 496.434 1143.51 495.314 1143.15C494.234 1142.79 493.114 1142.61 491.954 1142.61C488.874 1142.61 486.614 1143.63 485.174 1145.67C483.734 1147.71 483.014 1151.09 483.014 1155.81C483.014 1160.37 483.774 1163.63 485.294 1165.59C486.814 1167.55 488.954 1168.53 491.714 1168.53C493.274 1168.53 494.594 1168.25 495.674 1167.69C496.794 1167.13 497.654 1166.55 498.254 1165.95C498.854 1165.31 499.154 1164.93 499.154 1164.81L501.074 1166.07C501.074 1166.23 500.714 1166.75 499.994 1167.63C499.274 1168.47 498.194 1169.27 496.754 1170.03C495.314 1170.79 493.514 1171.17 491.354 1171.17ZM516.605 1171.17C512.605 1171.17 509.465 1169.93 507.185 1167.45C504.905 1164.93 503.765 1161.17 503.765 1156.17C503.765 1151.13 504.865 1147.17 507.065 1144.29C509.265 1141.41 512.265 1139.97 516.065 1139.97C519.505 1139.97 522.145 1141.17 523.985 1143.57C525.865 1145.93 526.805 1149.29 526.805 1153.65C526.805 1154.41 526.765 1155.03 526.685 1155.51C526.605 1155.99 526.545 1156.29 526.505 1156.41H508.325C508.325 1164.49 511.245 1168.53 517.085 1168.53C518.685 1168.53 520.045 1168.25 521.165 1167.69C522.325 1167.09 523.225 1166.47 523.865 1165.83C524.505 1165.15 524.825 1164.75 524.825 1164.63L526.565 1166.07C526.565 1166.23 526.185 1166.75 525.425 1167.63C524.665 1168.47 523.545 1169.27 522.065 1170.03C520.585 1170.79 518.765 1171.17 516.605 1171.17ZM522.725 1153.89L522.785 1152.75C522.785 1145.95 520.545 1142.55 516.065 1142.55C513.705 1142.55 511.885 1143.49 510.605 1145.37C509.325 1147.21 508.585 1150.05 508.385 1153.89H522.725ZM533.232 1170.57V1125.69L537.552 1125.45V1170.57H533.232ZM546.592 1170.57V1125.69L550.912 1125.45V1170.57H546.592ZM567.391 1171.17C565.271 1171.17 563.471 1170.85 561.991 1170.21C560.551 1169.53 559.451 1168.81 558.691 1168.05C557.971 1167.29 557.611 1166.85 557.611 1166.73L559.111 1164.63C559.111 1164.71 559.431 1165.09 560.071 1165.77C560.711 1166.45 561.591 1167.09 562.711 1167.69C563.831 1168.25 565.151 1168.53 566.671 1168.53C568.911 1168.53 570.591 1167.97 571.711 1166.85C572.871 1165.73 573.451 1164.37 573.451 1162.77C573.451 1161.61 573.151 1160.65 572.551 1159.89C571.991 1159.13 571.271 1158.55 570.391 1158.15C569.551 1157.71 568.371 1157.23 566.851 1156.71C565.091 1156.07 563.691 1155.49 562.651 1154.97C561.611 1154.41 560.711 1153.59 559.951 1152.51C559.231 1151.43 558.871 1150.03 558.871 1148.31C558.871 1145.75 559.791 1143.73 561.631 1142.25C563.511 1140.73 565.911 1139.97 568.831 1139.97C570.111 1139.97 571.331 1140.15 572.491 1140.51C573.691 1140.83 574.651 1141.19 575.371 1141.59C576.091 1141.95 576.551 1142.19 576.751 1142.31L576.031 1144.89C575.871 1144.77 575.471 1144.53 574.831 1144.17C574.191 1143.77 573.351 1143.39 572.311 1143.03C571.311 1142.67 570.271 1142.49 569.191 1142.49C567.351 1142.49 565.851 1142.95 564.691 1143.87C563.571 1144.79 563.011 1145.95 563.011 1147.35C563.011 1148.51 563.311 1149.49 563.911 1150.29C564.511 1151.05 565.251 1151.65 566.131 1152.09C567.051 1152.53 568.271 1153.03 569.791 1153.59C571.551 1154.19 572.971 1154.79 574.051 1155.39C575.171 1155.95 576.111 1156.77 576.871 1157.85C577.631 1158.93 578.011 1160.33 578.011 1162.05C578.011 1164.65 577.111 1166.83 575.311 1168.59C573.511 1170.31 570.871 1171.17 567.391 1171.17Z" fill="black"/>
</svg>
