<svg width="591" height="721" viewBox="0 0 591 721" fill="none" xmlns="http://www.w3.org/2000/svg">
<path d="M144.286 482.674C140.686 482.674 137.886 481.514 135.886 479.194C133.886 476.847 132.886 473.62 132.886 469.514C132.886 466.767 133.339 464.367 134.246 462.314C135.179 460.26 136.486 458.687 138.166 457.594C139.872 456.474 141.846 455.914 144.086 455.914C145.312 455.914 146.486 456.074 147.606 456.394C148.752 456.714 149.726 457.074 150.526 457.474C151.326 457.874 151.726 458.087 151.726 458.114L151.366 460.034C151.366 460.007 150.979 459.807 150.206 459.434C149.432 459.06 148.526 458.714 147.486 458.394C146.472 458.074 145.446 457.914 144.406 457.914C141.819 457.914 139.792 458.9 138.326 460.874C136.859 462.82 136.126 465.674 136.126 469.434C136.126 473.14 136.872 475.94 138.366 477.834C139.859 479.727 141.952 480.674 144.646 480.674C146.059 480.674 147.299 480.38 148.366 479.794C149.432 479.207 150.272 478.58 150.886 477.914C151.526 477.247 151.846 476.86 151.846 476.754L152.966 478.034C152.966 478.167 152.619 478.634 151.926 479.434C151.232 480.207 150.232 480.94 148.926 481.634C147.646 482.327 146.099 482.674 144.286 482.674ZM157.538 456.274H165.458C169.192 456.274 172.085 457.407 174.138 459.674C176.218 461.914 177.258 465.14 177.258 469.354C177.258 473.54 176.232 476.74 174.178 478.954C172.152 481.167 169.245 482.274 165.458 482.274H157.538V456.274ZM165.498 480.354C171.152 480.354 173.978 476.687 173.978 469.354C173.978 461.914 171.138 458.194 165.458 458.194H160.578V480.354H165.498ZM189.85 482.674C187.13 482.674 185.037 481.78 183.57 479.994C182.103 478.207 181.37 475.634 181.37 472.274C181.37 471.207 181.41 470.234 181.49 469.354C181.757 464.847 182.65 461.487 184.17 459.274C185.69 457.034 187.703 455.914 190.21 455.914C191.037 455.914 191.823 456.02 192.57 456.234C193.343 456.42 193.957 456.62 194.41 456.834C194.89 457.047 195.197 457.194 195.33 457.274L194.93 459.034C194.823 458.954 194.557 458.82 194.13 458.634C193.703 458.42 193.157 458.22 192.49 458.034C191.823 457.847 191.143 457.754 190.45 457.754C186.557 457.754 184.49 461.287 184.25 468.354C185.85 466.7 187.783 465.874 190.05 465.874C192.477 465.874 194.383 466.607 195.77 468.074C197.183 469.54 197.89 471.5 197.89 473.954C197.89 475.58 197.583 477.06 196.97 478.394C196.383 479.7 195.477 480.74 194.25 481.514C193.05 482.287 191.583 482.674 189.85 482.674ZM189.85 480.914C191.583 480.914 192.85 480.274 193.65 478.994C194.45 477.687 194.85 475.994 194.85 473.914C194.85 471.994 194.423 470.447 193.57 469.274C192.717 468.1 191.423 467.514 189.69 467.514C188.437 467.514 187.397 467.82 186.57 468.434C185.743 469.02 185.077 469.687 184.57 470.434L184.61 470.474C184.557 470.767 184.503 471.167 184.45 471.674C184.423 472.18 184.41 472.687 184.41 473.194C184.41 478.34 186.223 480.914 189.85 480.914ZM209.034 482.674C207.887 482.674 206.901 482.54 206.074 482.274C205.274 481.98 204.661 481.674 204.234 481.354C203.807 481.007 203.594 480.807 203.594 480.754L204.354 479.034C204.354 479.087 204.554 479.274 204.954 479.594C205.354 479.887 205.887 480.167 206.554 480.434C207.247 480.7 208.034 480.834 208.914 480.834C210.781 480.834 212.287 479.98 213.434 478.274C214.581 476.54 215.207 473.94 215.314 470.474C213.927 472.287 212.007 473.194 209.554 473.194C207.154 473.194 205.247 472.447 203.834 470.954C202.421 469.46 201.714 467.487 201.714 465.034C201.714 463.407 202.034 461.9 202.674 460.514C203.314 459.127 204.261 458.02 205.514 457.194C206.767 456.34 208.261 455.914 209.994 455.914C212.687 455.914 214.727 456.807 216.114 458.594C217.527 460.38 218.234 462.954 218.234 466.314C218.234 467.594 218.207 468.527 218.154 469.114C218.047 472.074 217.581 474.567 216.754 476.594C215.954 478.62 214.887 480.14 213.554 481.154C212.221 482.167 210.714 482.674 209.034 482.674ZM209.914 471.554C211.354 471.554 212.501 471.194 213.354 470.474C214.234 469.727 214.794 468.954 215.034 468.154C215.114 467.434 215.154 466.514 215.154 465.394C215.154 462.807 214.741 460.874 213.914 459.594C213.114 458.314 211.807 457.674 209.994 457.674C208.261 457.674 206.954 458.367 206.074 459.754C205.194 461.14 204.754 462.86 204.754 464.914C204.754 466.86 205.181 468.46 206.034 469.714C206.914 470.94 208.207 471.554 209.914 471.554Z" fill="black"/>
<path d="M285.531 279.438V253.438H288.571V277.518H300.131V279.438H285.531ZM310.639 279.838C307.972 279.838 305.879 279.011 304.359 277.358C302.839 275.678 302.079 273.171 302.079 269.838C302.079 266.478 302.812 263.838 304.279 261.918C305.746 259.998 307.746 259.038 310.279 259.038C312.572 259.038 314.332 259.838 315.559 261.438C316.812 263.011 317.439 265.251 317.439 268.158C317.439 268.664 317.412 269.078 317.359 269.398C317.306 269.718 317.266 269.918 317.239 269.998H305.119C305.119 275.384 307.066 278.078 310.959 278.078C312.026 278.078 312.932 277.891 313.679 277.518C314.452 277.118 315.052 276.704 315.479 276.278C315.906 275.824 316.119 275.558 316.119 275.478L317.279 276.438C317.279 276.544 317.026 276.891 316.519 277.478C316.012 278.038 315.266 278.571 314.279 279.078C313.292 279.584 312.079 279.838 310.639 279.838ZM314.719 268.318L314.759 267.558C314.759 263.024 313.266 260.758 310.279 260.758C308.706 260.758 307.492 261.384 306.639 262.638C305.786 263.864 305.292 265.758 305.159 268.318H314.719ZM327.564 279.838C325.617 279.838 324.111 279.304 323.044 278.238C321.977 277.144 321.444 275.531 321.444 273.398V259.438H324.364V272.798C324.364 276.078 325.751 277.718 328.524 277.718C329.484 277.718 330.311 277.571 331.004 277.278C331.697 276.958 332.244 276.624 332.644 276.278C333.071 275.931 333.284 275.731 333.284 275.678V259.438H336.204V279.438H333.764L333.364 277.518C333.017 277.998 332.377 278.504 331.444 279.038C330.511 279.571 329.217 279.838 327.564 279.838ZM349.313 279.838C346.54 279.838 344.406 278.984 342.913 277.278C341.42 275.571 340.673 273.024 340.673 269.638C340.673 266.224 341.406 263.611 342.873 261.798C344.366 259.958 346.54 259.038 349.393 259.038C350.326 259.038 351.206 259.171 352.033 259.438C352.86 259.678 353.553 259.958 354.113 260.278C354.7 260.571 354.993 260.731 354.993 260.758L354.633 262.398C354.526 262.318 354.233 262.158 353.753 261.918C353.3 261.651 352.7 261.398 351.953 261.158C351.233 260.918 350.486 260.798 349.713 260.798C347.66 260.798 346.153 261.478 345.193 262.838C344.233 264.198 343.753 266.451 343.753 269.598C343.753 272.638 344.26 274.811 345.273 276.118C346.286 277.424 347.713 278.078 349.553 278.078C350.593 278.078 351.473 277.891 352.193 277.518C352.94 277.144 353.513 276.758 353.913 276.358C354.313 275.931 354.513 275.678 354.513 275.598L355.793 276.438C355.793 276.544 355.553 276.891 355.073 277.478C354.593 278.038 353.873 278.571 352.913 279.078C351.953 279.584 350.753 279.838 349.313 279.838ZM360.547 255.398C360.067 255.398 359.68 255.251 359.387 254.958C359.04 254.611 358.867 254.184 358.867 253.678C358.867 253.171 359.04 252.744 359.387 252.398C359.68 252.104 360.067 251.958 360.547 251.958C361.054 251.958 361.454 252.091 361.747 252.358C362.067 252.704 362.227 253.144 362.227 253.678C362.227 254.158 362.067 254.584 361.747 254.958C361.374 255.251 360.974 255.398 360.547 255.398ZM359.067 279.438V259.438H361.987V279.438H359.067ZM367.974 259.438H370.374L370.734 261.358C371.161 260.851 371.827 260.344 372.734 259.838C373.641 259.304 374.947 259.038 376.654 259.038C378.574 259.038 380.067 259.584 381.134 260.678C382.201 261.744 382.734 263.344 382.734 265.478V279.438H379.814V266.078C379.814 264.371 379.467 263.131 378.774 262.358C378.081 261.558 377.054 261.158 375.694 261.158C374.734 261.158 373.894 261.304 373.174 261.598C372.454 261.891 371.881 262.211 371.454 262.558C371.054 262.904 370.854 263.104 370.854 263.158V279.438H367.974V259.438ZM395.483 279.838C392.816 279.838 390.723 279.011 389.203 277.358C387.683 275.678 386.923 273.171 386.923 269.838C386.923 266.478 387.656 263.838 389.123 261.918C390.59 259.998 392.59 259.038 395.123 259.038C397.416 259.038 399.176 259.838 400.403 261.438C401.656 263.011 402.283 265.251 402.283 268.158C402.283 268.664 402.256 269.078 402.203 269.398C402.15 269.718 402.11 269.918 402.083 269.998H389.963C389.963 275.384 391.91 278.078 395.803 278.078C396.87 278.078 397.776 277.891 398.523 277.518C399.296 277.118 399.896 276.704 400.323 276.278C400.75 275.824 400.963 275.558 400.963 275.478L402.123 276.438C402.123 276.544 401.87 276.891 401.363 277.478C400.856 278.038 400.11 278.571 399.123 279.078C398.136 279.584 396.923 279.838 395.483 279.838ZM399.563 268.318L399.603 267.558C399.603 263.024 398.11 260.758 395.123 260.758C393.55 260.758 392.336 261.384 391.483 262.638C390.63 263.864 390.136 265.758 390.003 268.318H399.563ZM414.304 279.438V277.838L424.544 261.238H415.184L415.064 259.438H427.904V261.038L417.744 277.638H427.824L427.904 279.438H414.304ZM433.945 255.398C433.465 255.398 433.079 255.251 432.785 254.958C432.439 254.611 432.265 254.184 432.265 253.678C432.265 253.171 432.439 252.744 432.785 252.398C433.079 252.104 433.465 251.958 433.945 251.958C434.452 251.958 434.852 252.091 435.145 252.358C435.465 252.704 435.625 253.144 435.625 253.678C435.625 254.158 435.465 254.584 435.145 254.958C434.772 255.251 434.372 255.398 433.945 255.398ZM432.465 279.438V259.438H435.385V279.438H432.465ZM441.373 259.438H443.773L444.133 261.838C444.506 261.251 445.146 260.638 446.053 259.998C446.959 259.358 448.213 259.038 449.813 259.038C452.159 259.038 454.026 259.904 455.413 261.638C456.826 263.371 457.533 265.784 457.533 268.878C457.533 272.238 456.826 274.904 455.413 276.878C453.999 278.851 451.999 279.838 449.413 279.838C448.319 279.838 447.386 279.704 446.613 279.438C445.866 279.144 445.293 278.838 444.893 278.518C444.493 278.171 444.293 277.971 444.293 277.918H444.253V289.438L441.373 289.518V259.438ZM448.453 277.918C450.533 277.918 452.053 277.184 453.013 275.718C453.973 274.224 454.453 271.971 454.453 268.958C454.453 266.158 453.973 264.131 453.013 262.878C452.053 261.624 450.666 260.998 448.853 260.998C447.893 260.998 447.066 261.198 446.373 261.598C445.679 261.998 445.146 262.438 444.773 262.918C444.426 263.371 444.253 263.638 444.253 263.718V276.158C444.546 276.531 445.026 276.918 445.693 277.318C446.386 277.718 447.306 277.918 448.453 277.918ZM461.998 259.438H464.398L464.758 261.838C465.131 261.251 465.771 260.638 466.678 259.998C467.584 259.358 468.838 259.038 470.438 259.038C472.784 259.038 474.651 259.904 476.038 261.638C477.451 263.371 478.158 265.784 478.158 268.878C478.158 272.238 477.451 274.904 476.038 276.878C474.624 278.851 472.624 279.838 470.038 279.838C468.944 279.838 468.011 279.704 467.238 279.438C466.491 279.144 465.918 278.838 465.518 278.518C465.118 278.171 464.918 277.971 464.918 277.918H464.878V289.438L461.998 289.518V259.438ZM469.078 277.918C471.158 277.918 472.678 277.184 473.638 275.718C474.598 274.224 475.078 271.971 475.078 268.958C475.078 266.158 474.598 264.131 473.638 262.878C472.678 261.624 471.291 260.998 469.478 260.998C468.518 260.998 467.691 261.198 466.998 261.598C466.304 261.998 465.771 262.438 465.398 262.918C465.051 263.371 464.878 263.638 464.878 263.718V276.158C465.171 276.531 465.651 276.918 466.318 277.318C467.011 277.718 467.931 277.918 469.078 277.918ZM489.663 279.838C486.996 279.838 484.903 279.011 483.383 277.358C481.863 275.678 481.103 273.171 481.103 269.838C481.103 266.478 481.836 263.838 483.303 261.918C484.769 259.998 486.769 259.038 489.303 259.038C491.596 259.038 493.356 259.838 494.583 261.438C495.836 263.011 496.463 265.251 496.463 268.158C496.463 268.664 496.436 269.078 496.383 269.398C496.329 269.718 496.289 269.918 496.263 269.998H484.143C484.143 275.384 486.089 278.078 489.983 278.078C491.049 278.078 491.956 277.891 492.703 277.518C493.476 277.118 494.076 276.704 494.503 276.278C494.929 275.824 495.143 275.558 495.143 275.478L496.303 276.438C496.303 276.544 496.049 276.891 495.543 277.478C495.036 278.038 494.289 278.571 493.303 279.078C492.316 279.584 491.103 279.838 489.663 279.838ZM493.743 268.318L493.783 267.558C493.783 263.024 492.289 260.758 489.303 260.758C487.729 260.758 486.516 261.384 485.663 262.638C484.809 263.864 484.316 265.758 484.183 268.318H493.743ZM500.708 259.438H502.868L503.308 263.558C503.308 263.398 503.454 262.944 503.748 262.198C504.068 261.424 504.548 260.704 505.188 260.038C505.828 259.371 506.654 259.038 507.668 259.038C508.174 259.038 508.748 259.131 509.388 259.318C510.028 259.478 510.441 259.598 510.628 259.678L510.348 261.878C510.161 261.798 509.734 261.678 509.068 261.518C508.428 261.358 507.854 261.278 507.348 261.278C506.574 261.278 505.908 261.544 505.348 262.078C504.814 262.584 504.414 263.131 504.148 263.718C503.881 264.304 503.708 264.744 503.628 265.038V279.438H500.708V259.438ZM286.211 297.398C285.731 297.398 285.344 297.251 285.051 296.958C284.704 296.611 284.531 296.184 284.531 295.678C284.531 295.171 284.704 294.744 285.051 294.398C285.344 294.104 285.731 293.958 286.211 293.958C286.718 293.958 287.118 294.091 287.411 294.358C287.731 294.704 287.891 295.144 287.891 295.678C287.891 296.158 287.731 296.584 287.411 296.958C287.038 297.251 286.638 297.398 286.211 297.398ZM284.731 321.438V301.438H287.651V321.438H284.731ZM298.598 321.838C297.185 321.838 295.985 321.624 294.998 321.198C294.038 320.744 293.305 320.264 292.798 319.758C292.318 319.251 292.078 318.958 292.078 318.878L293.078 317.478C293.078 317.531 293.292 317.784 293.718 318.238C294.145 318.691 294.732 319.118 295.478 319.518C296.225 319.891 297.105 320.078 298.118 320.078C299.612 320.078 300.732 319.704 301.478 318.958C302.252 318.211 302.638 317.304 302.638 316.238C302.638 315.464 302.438 314.824 302.038 314.318C301.665 313.811 301.185 313.424 300.598 313.158C300.038 312.864 299.252 312.544 298.238 312.198C297.065 311.771 296.132 311.384 295.438 311.038C294.745 310.664 294.145 310.118 293.638 309.398C293.158 308.678 292.918 307.744 292.918 306.598C292.918 304.891 293.532 303.544 294.758 302.558C296.012 301.544 297.612 301.038 299.558 301.038C300.412 301.038 301.225 301.158 301.998 301.398C302.798 301.611 303.438 301.851 303.918 302.118C304.398 302.358 304.705 302.518 304.838 302.598L304.358 304.318C304.252 304.238 303.985 304.078 303.558 303.838C303.132 303.571 302.572 303.318 301.878 303.078C301.212 302.838 300.518 302.718 299.798 302.718C298.572 302.718 297.572 303.024 296.798 303.638C296.052 304.251 295.678 305.024 295.678 305.958C295.678 306.731 295.878 307.384 296.278 307.918C296.678 308.424 297.172 308.824 297.758 309.118C298.372 309.411 299.185 309.744 300.198 310.118C301.372 310.518 302.318 310.918 303.038 311.318C303.785 311.691 304.412 312.238 304.918 312.958C305.425 313.678 305.678 314.611 305.678 315.758C305.678 317.491 305.078 318.944 303.878 320.118C302.678 321.264 300.918 321.838 298.598 321.838ZM326.422 321.838C323.649 321.838 321.516 320.984 320.022 319.278C318.529 317.571 317.782 315.024 317.782 311.638C317.782 308.224 318.516 305.611 319.982 303.798C321.476 301.958 323.649 301.038 326.502 301.038C327.436 301.038 328.316 301.171 329.142 301.438C329.969 301.678 330.662 301.958 331.222 302.278C331.809 302.571 332.102 302.731 332.102 302.758L331.742 304.398C331.636 304.318 331.342 304.158 330.862 303.918C330.409 303.651 329.809 303.398 329.062 303.158C328.342 302.918 327.596 302.798 326.822 302.798C324.769 302.798 323.262 303.478 322.302 304.838C321.342 306.198 320.862 308.451 320.862 311.598C320.862 314.638 321.369 316.811 322.382 318.118C323.396 319.424 324.822 320.078 326.662 320.078C327.702 320.078 328.582 319.891 329.302 319.518C330.049 319.144 330.622 318.758 331.022 318.358C331.422 317.931 331.622 317.678 331.622 317.598L332.902 318.438C332.902 318.544 332.662 318.891 332.182 319.478C331.702 320.038 330.982 320.571 330.022 321.078C329.062 321.584 327.862 321.838 326.422 321.838ZM336.216 321.438V291.518L339.096 291.358V321.438H336.216ZM352.123 321.838C349.349 321.838 347.229 320.931 345.763 319.118C344.323 317.304 343.603 314.744 343.603 311.438C343.603 308.131 344.323 305.571 345.763 303.758C347.229 301.944 349.349 301.038 352.123 301.038C354.896 301.038 357.003 301.944 358.443 303.758C359.909 305.571 360.643 308.131 360.643 311.438C360.643 314.718 359.896 317.278 358.403 319.118C356.936 320.931 354.843 321.838 352.123 321.838ZM352.123 320.078C353.989 320.078 355.363 319.371 356.243 317.958C357.123 316.518 357.563 314.344 357.563 311.438C357.563 308.558 357.123 306.398 356.243 304.958C355.363 303.518 353.989 302.798 352.123 302.798C350.256 302.798 348.883 303.518 348.003 304.958C347.123 306.371 346.683 308.531 346.683 311.438C346.683 314.344 347.123 316.518 348.003 317.958C348.883 319.371 350.256 320.078 352.123 320.078ZM370.122 321.838C368.708 321.838 367.508 321.624 366.522 321.198C365.562 320.744 364.828 320.264 364.322 319.758C363.842 319.251 363.602 318.958 363.602 318.878L364.602 317.478C364.602 317.531 364.815 317.784 365.242 318.238C365.668 318.691 366.255 319.118 367.002 319.518C367.748 319.891 368.628 320.078 369.642 320.078C371.135 320.078 372.255 319.704 373.002 318.958C373.775 318.211 374.162 317.304 374.162 316.238C374.162 315.464 373.962 314.824 373.562 314.318C373.188 313.811 372.708 313.424 372.122 313.158C371.562 312.864 370.775 312.544 369.762 312.198C368.588 311.771 367.655 311.384 366.962 311.038C366.268 310.664 365.668 310.118 365.162 309.398C364.682 308.678 364.442 307.744 364.442 306.598C364.442 304.891 365.055 303.544 366.282 302.558C367.535 301.544 369.135 301.038 371.082 301.038C371.935 301.038 372.748 301.158 373.522 301.398C374.322 301.611 374.962 301.851 375.442 302.118C375.922 302.358 376.228 302.518 376.362 302.598L375.882 304.318C375.775 304.238 375.508 304.078 375.082 303.838C374.655 303.571 374.095 303.318 373.402 303.078C372.735 302.838 372.042 302.718 371.322 302.718C370.095 302.718 369.095 303.024 368.322 303.638C367.575 304.251 367.202 305.024 367.202 305.958C367.202 306.731 367.402 307.384 367.802 307.918C368.202 308.424 368.695 308.824 369.282 309.118C369.895 309.411 370.708 309.744 371.722 310.118C372.895 310.518 373.842 310.918 374.562 311.318C375.308 311.691 375.935 312.238 376.442 312.958C376.948 313.678 377.202 314.611 377.202 315.758C377.202 317.491 376.602 318.944 375.402 320.118C374.202 321.264 372.442 321.838 370.122 321.838ZM388.53 321.838C385.863 321.838 383.77 321.011 382.25 319.358C380.73 317.678 379.97 315.171 379.97 311.838C379.97 308.478 380.703 305.838 382.17 303.918C383.636 301.998 385.636 301.038 388.17 301.038C390.463 301.038 392.223 301.838 393.45 303.438C394.703 305.011 395.33 307.251 395.33 310.158C395.33 310.664 395.303 311.078 395.25 311.398C395.196 311.718 395.156 311.918 395.13 311.998H383.01C383.01 317.384 384.956 320.078 388.85 320.078C389.916 320.078 390.823 319.891 391.57 319.518C392.343 319.118 392.943 318.704 393.37 318.278C393.796 317.824 394.01 317.558 394.01 317.478L395.17 318.438C395.17 318.544 394.916 318.891 394.41 319.478C393.903 320.038 393.156 320.571 392.17 321.078C391.183 321.584 389.97 321.838 388.53 321.838ZM392.61 310.318L392.65 309.558C392.65 305.024 391.156 302.758 388.17 302.758C386.596 302.758 385.383 303.384 384.53 304.638C383.676 305.864 383.183 307.758 383.05 310.318H392.61ZM406.135 321.838C403.708 321.838 401.761 320.971 400.295 319.238C398.828 317.504 398.095 315.091 398.095 311.998C398.095 308.664 398.801 306.011 400.215 304.038C401.655 302.038 403.668 301.038 406.255 301.038C407.348 301.038 408.268 301.184 409.015 301.478C409.761 301.744 410.335 302.051 410.735 302.398C411.135 302.718 411.335 302.904 411.335 302.958H411.375V291.518L414.255 291.358V321.438H411.775L411.455 319.078C411.161 319.664 410.588 320.278 409.735 320.918C408.881 321.531 407.681 321.838 406.135 321.838ZM406.775 319.878C407.735 319.878 408.561 319.678 409.255 319.278C409.948 318.851 410.468 318.398 410.815 317.918C411.188 317.438 411.375 317.158 411.375 317.078V304.798C411.375 304.744 411.188 304.558 410.815 304.238C410.468 303.918 409.975 303.624 409.335 303.358C408.721 303.091 407.988 302.958 407.135 302.958C405.081 302.958 403.575 303.718 402.615 305.238C401.655 306.731 401.175 308.958 401.175 311.918C401.175 314.718 401.641 316.744 402.575 317.998C403.535 319.251 404.935 319.878 406.775 319.878ZM434.496 321.838C433.056 321.838 431.989 321.398 431.296 320.518C430.602 319.611 430.256 318.131 430.256 316.078V303.398H428.176V301.718L430.256 301.478L431.336 295.118H433.176V301.438H438.296V303.398H433.176V315.358C433.176 317.091 433.336 318.291 433.656 318.958C434.002 319.598 434.589 319.918 435.416 319.918C436.082 319.918 436.682 319.851 437.216 319.718C437.749 319.584 438.016 319.504 438.016 319.478L438.216 321.078C438.162 321.131 437.989 321.224 437.696 321.358C437.429 321.464 437.016 321.571 436.456 321.678C435.922 321.784 435.269 321.838 434.496 321.838ZM444.063 297.398C443.583 297.398 443.196 297.251 442.903 296.958C442.556 296.611 442.383 296.184 442.383 295.678C442.383 295.171 442.556 294.744 442.903 294.398C443.196 294.104 443.583 293.958 444.063 293.958C444.569 293.958 444.969 294.091 445.263 294.358C445.583 294.704 445.743 295.144 445.743 295.678C445.743 296.158 445.583 296.584 445.263 296.958C444.889 297.251 444.489 297.398 444.063 297.398ZM442.583 321.438V301.438H445.503V321.438H442.583ZM451.49 321.438V291.518L454.37 291.358V321.438H451.49ZM460.396 321.438V291.518L463.276 291.358V321.438H460.396ZM292.691 363.878C291.304 363.878 290.184 363.664 289.331 363.238C288.478 362.784 287.838 362.331 287.411 361.878L286.851 363.438H284.771V333.518L287.691 333.358V345.718H287.731C287.731 345.638 287.918 345.371 288.291 344.918C288.691 344.438 289.278 343.998 290.051 343.598C290.851 343.198 291.851 342.998 293.051 342.998C295.424 342.998 297.331 343.878 298.771 345.638C300.211 347.371 300.931 349.784 300.931 352.878C300.931 356.238 300.224 358.918 298.811 360.918C297.398 362.891 295.358 363.878 292.691 363.878ZM291.931 361.958C293.984 361.958 295.478 361.211 296.411 359.718C297.371 358.198 297.851 355.944 297.851 352.958C297.851 350.184 297.371 348.158 296.411 346.878C295.451 345.571 294.051 344.918 292.211 344.918C290.878 344.918 289.851 345.264 289.131 345.958C288.411 346.651 287.931 347.264 287.691 347.798V360.158C287.878 360.504 288.331 360.891 289.051 361.318C289.771 361.744 290.731 361.958 291.931 361.958ZM312.396 363.838C309.623 363.838 307.503 362.931 306.036 361.118C304.596 359.304 303.876 356.744 303.876 353.438C303.876 350.131 304.596 347.571 306.036 345.758C307.503 343.944 309.623 343.038 312.396 343.038C315.169 343.038 317.276 343.944 318.716 345.758C320.183 347.571 320.916 350.131 320.916 353.438C320.916 356.718 320.169 359.278 318.676 361.118C317.209 362.931 315.116 363.838 312.396 363.838ZM312.396 362.078C314.263 362.078 315.636 361.371 316.516 359.958C317.396 358.518 317.836 356.344 317.836 353.438C317.836 350.558 317.396 348.398 316.516 346.958C315.636 345.518 314.263 344.798 312.396 344.798C310.529 344.798 309.156 345.518 308.276 346.958C307.396 348.371 306.956 350.531 306.956 353.438C306.956 356.344 307.396 358.518 308.276 359.958C309.156 361.371 310.529 362.078 312.396 362.078ZM330.355 363.838C328.915 363.838 327.848 363.398 327.155 362.518C326.462 361.611 326.115 360.131 326.115 358.078V345.398H324.035V343.718L326.115 343.478L327.195 337.118H329.035V343.438H334.155V345.398H329.035V357.358C329.035 359.091 329.195 360.291 329.515 360.958C329.862 361.598 330.448 361.918 331.275 361.918C331.942 361.918 332.542 361.851 333.075 361.718C333.608 361.584 333.875 361.504 333.875 361.478L334.075 363.078C334.022 363.131 333.848 363.224 333.555 363.358C333.288 363.464 332.875 363.571 332.315 363.678C331.782 363.784 331.128 363.838 330.355 363.838ZM338.442 333.518L341.362 333.358V345.238H341.402C341.402 345.238 341.562 345.064 341.882 344.718C342.229 344.344 342.895 343.971 343.882 343.598C344.869 343.224 345.949 343.038 347.122 343.038C349.069 343.038 350.562 343.584 351.602 344.678C352.669 345.744 353.202 347.344 353.202 349.478V363.438H350.322V349.838C350.322 346.718 348.935 345.158 346.162 345.158C345.202 345.158 344.362 345.304 343.642 345.598C342.922 345.891 342.362 346.211 341.962 346.558C341.562 346.904 341.362 347.104 341.362 347.158V363.438H338.442V333.518ZM372.407 363.838C370.647 363.838 369.233 363.411 368.167 362.558C367.1 361.678 366.567 360.464 366.567 358.918C366.567 354.998 370.34 352.638 377.887 351.838V349.718C377.887 347.824 377.58 346.531 376.967 345.838C376.353 345.144 375.273 344.798 373.727 344.798C373.033 344.798 372.327 344.931 371.607 345.198C370.887 345.438 370.273 345.704 369.767 345.998C369.287 346.264 368.98 346.438 368.847 346.518L368.527 344.878C368.66 344.771 368.993 344.571 369.527 344.278C370.087 343.984 370.78 343.704 371.607 343.438C372.46 343.171 373.313 343.038 374.167 343.038C376.46 343.038 378.14 343.518 379.207 344.478C380.273 345.438 380.807 347.131 380.807 349.558V359.358C380.807 360.424 380.9 361.144 381.087 361.518C381.3 361.891 381.553 362.078 381.847 362.078C382.087 362.078 382.38 362.038 382.727 361.958C383.073 361.851 383.3 361.771 383.407 361.718L383.527 363.078C383.313 363.158 382.86 363.304 382.167 363.518C381.473 363.731 380.887 363.838 380.407 363.838C379.713 363.838 379.18 363.624 378.807 363.198C378.433 362.744 378.207 361.958 378.127 360.838H378.087C378.087 360.944 377.873 361.251 377.447 361.758C377.02 362.264 376.38 362.744 375.527 363.198C374.7 363.624 373.66 363.838 372.407 363.838ZM373.287 362.078C374.247 362.078 375.073 361.864 375.767 361.438C376.46 361.011 376.98 360.544 377.327 360.038C377.7 359.531 377.887 359.238 377.887 359.158V353.318C375.46 353.584 373.46 354.104 371.887 354.878C370.34 355.651 369.567 356.878 369.567 358.558C369.567 359.704 369.9 360.584 370.567 361.198C371.233 361.784 372.14 362.078 373.287 362.078ZM387.349 343.438H389.749L390.109 345.358C390.536 344.851 391.202 344.344 392.109 343.838C393.016 343.304 394.322 343.038 396.029 343.038C397.949 343.038 399.442 343.584 400.509 344.678C401.576 345.744 402.109 347.344 402.109 349.478V363.438H399.189V350.078C399.189 348.371 398.842 347.131 398.149 346.358C397.456 345.558 396.429 345.158 395.069 345.158C394.109 345.158 393.269 345.304 392.549 345.598C391.829 345.891 391.256 346.211 390.829 346.558C390.429 346.904 390.229 347.104 390.229 347.158V363.438H387.349V343.438ZM412.738 363.838C411.298 363.838 410.231 363.398 409.538 362.518C408.845 361.611 408.498 360.131 408.498 358.078V345.398H406.418V343.718L408.498 343.478L409.578 337.118H411.418V343.438H416.538V345.398H411.418V357.358C411.418 359.091 411.578 360.291 411.898 360.958C412.245 361.598 412.831 361.918 413.658 361.918C414.325 361.918 414.925 361.851 415.458 361.718C415.991 361.584 416.258 361.504 416.258 361.478L416.458 363.078C416.405 363.131 416.231 363.224 415.938 363.358C415.671 363.464 415.258 363.571 414.698 363.678C414.165 363.784 413.511 363.838 412.738 363.838ZM422.305 339.398C421.825 339.398 421.438 339.251 421.145 338.958C420.798 338.611 420.625 338.184 420.625 337.678C420.625 337.171 420.798 336.744 421.145 336.398C421.438 336.104 421.825 335.958 422.305 335.958C422.811 335.958 423.211 336.091 423.505 336.358C423.825 336.704 423.985 337.144 423.985 337.678C423.985 338.158 423.825 338.584 423.505 338.958C423.131 339.251 422.731 339.398 422.305 339.398ZM420.825 363.438V343.438H423.745V363.438H420.825ZM436.172 373.838C433.345 373.838 431.199 373.278 429.732 372.158C428.265 371.064 427.532 369.451 427.532 367.318C427.532 365.931 427.839 364.811 428.452 363.958C429.092 363.104 429.892 362.478 430.852 362.078C430.372 361.518 430.132 360.731 430.132 359.718C430.132 358.411 430.745 357.291 431.972 356.358C430.905 355.798 430.079 354.998 429.492 353.958C428.905 352.891 428.612 351.611 428.612 350.118C428.612 347.691 429.292 345.904 430.652 344.758C432.039 343.611 433.812 343.038 435.972 343.038C437.012 343.038 437.932 343.171 438.732 343.438L443.892 343.478V345.038L441.332 345.118C442.399 346.318 442.932 347.984 442.932 350.118C442.932 352.411 442.305 354.171 441.052 355.398C439.825 356.624 438.119 357.238 435.932 357.238C435.025 357.238 434.212 357.144 433.492 356.958C432.559 357.571 432.092 358.264 432.092 359.038C432.092 359.758 432.385 360.264 432.972 360.558C433.559 360.824 434.505 360.958 435.812 360.958C441.652 360.958 444.572 363.011 444.572 367.118C444.572 369.304 443.839 370.971 442.372 372.118C440.932 373.264 438.865 373.838 436.172 373.838ZM435.852 355.638C438.679 355.638 440.092 353.784 440.092 350.078C440.092 348.158 439.719 346.798 438.972 345.998C438.225 345.171 437.172 344.758 435.812 344.758C434.452 344.758 433.372 345.158 432.572 345.958C431.799 346.758 431.412 348.144 431.412 350.118C431.412 351.931 431.799 353.304 432.572 354.238C433.345 355.171 434.439 355.638 435.852 355.638ZM436.172 372.038C438.039 372.038 439.479 371.651 440.492 370.878C441.505 370.131 442.012 369.038 442.012 367.598C442.012 364.798 439.839 363.398 435.492 363.398C434.239 363.398 433.239 363.291 432.492 363.078C431.692 363.398 431.039 363.904 430.532 364.598C430.052 365.318 429.812 366.211 429.812 367.278C429.812 368.878 430.359 370.064 431.452 370.838C432.572 371.638 434.145 372.038 436.172 372.038ZM454.819 363.838C452.152 363.838 450.059 363.011 448.539 361.358C447.019 359.678 446.259 357.171 446.259 353.838C446.259 350.478 446.992 347.838 448.459 345.918C449.925 343.998 451.925 343.038 454.459 343.038C456.752 343.038 458.512 343.838 459.739 345.438C460.992 347.011 461.619 349.251 461.619 352.158C461.619 352.664 461.592 353.078 461.539 353.398C461.485 353.718 461.445 353.918 461.419 353.998H449.299C449.299 359.384 451.245 362.078 455.139 362.078C456.205 362.078 457.112 361.891 457.859 361.518C458.632 361.118 459.232 360.704 459.659 360.278C460.085 359.824 460.299 359.558 460.299 359.478L461.459 360.438C461.459 360.544 461.205 360.891 460.699 361.478C460.192 362.038 459.445 362.571 458.459 363.078C457.472 363.584 456.259 363.838 454.819 363.838ZM458.899 352.318L458.939 351.558C458.939 347.024 457.445 344.758 454.459 344.758C452.885 344.758 451.672 345.384 450.819 346.638C449.965 347.864 449.472 349.758 449.339 352.318H458.899ZM465.904 343.438H468.304L468.664 345.358C469.09 344.851 469.757 344.344 470.664 343.838C471.57 343.304 472.877 343.038 474.584 343.038C476.504 343.038 477.997 343.584 479.064 344.678C480.13 345.744 480.664 347.344 480.664 349.478V363.438H477.744V350.078C477.744 348.371 477.397 347.131 476.704 346.358C476.01 345.558 474.984 345.158 473.624 345.158C472.664 345.158 471.824 345.304 471.104 345.598C470.384 345.891 469.81 346.211 469.384 346.558C468.984 346.904 468.784 347.104 468.784 347.158V363.438H465.904V343.438ZM491.333 363.838C489.919 363.838 488.719 363.624 487.733 363.198C486.773 362.744 486.039 362.264 485.533 361.758C485.053 361.251 484.813 360.958 484.813 360.878L485.813 359.478C485.813 359.531 486.026 359.784 486.453 360.238C486.879 360.691 487.466 361.118 488.213 361.518C488.959 361.891 489.839 362.078 490.853 362.078C492.346 362.078 493.466 361.704 494.213 360.958C494.986 360.211 495.373 359.304 495.373 358.238C495.373 357.464 495.173 356.824 494.773 356.318C494.399 355.811 493.919 355.424 493.333 355.158C492.773 354.864 491.986 354.544 490.973 354.198C489.799 353.771 488.866 353.384 488.173 353.038C487.479 352.664 486.879 352.118 486.373 351.398C485.893 350.678 485.653 349.744 485.653 348.598C485.653 346.891 486.266 345.544 487.493 344.558C488.746 343.544 490.346 343.038 492.293 343.038C493.146 343.038 493.959 343.158 494.733 343.398C495.533 343.611 496.173 343.851 496.653 344.118C497.133 344.358 497.439 344.518 497.573 344.598L497.093 346.318C496.986 346.238 496.719 346.078 496.293 345.838C495.866 345.571 495.306 345.318 494.613 345.078C493.946 344.838 493.253 344.718 492.533 344.718C491.306 344.718 490.306 345.024 489.533 345.638C488.786 346.251 488.413 347.024 488.413 347.958C488.413 348.731 488.613 349.384 489.013 349.918C489.413 350.424 489.906 350.824 490.493 351.118C491.106 351.411 491.919 351.744 492.933 352.118C494.106 352.518 495.053 352.918 495.773 353.318C496.519 353.691 497.146 354.238 497.653 354.958C498.159 355.678 498.413 356.611 498.413 357.758C498.413 359.491 497.813 360.944 496.613 362.118C495.413 363.264 493.653 363.838 491.333 363.838ZM288.891 405.838C287.131 405.838 285.718 405.411 284.651 404.558C283.584 403.678 283.051 402.464 283.051 400.918C283.051 396.998 286.824 394.638 294.371 393.838V391.718C294.371 389.824 294.064 388.531 293.451 387.838C292.838 387.144 291.758 386.798 290.211 386.798C289.518 386.798 288.811 386.931 288.091 387.198C287.371 387.438 286.758 387.704 286.251 387.998C285.771 388.264 285.464 388.438 285.331 388.518L285.011 386.878C285.144 386.771 285.478 386.571 286.011 386.278C286.571 385.984 287.264 385.704 288.091 385.438C288.944 385.171 289.798 385.038 290.651 385.038C292.944 385.038 294.624 385.518 295.691 386.478C296.758 387.438 297.291 389.131 297.291 391.558V401.358C297.291 402.424 297.384 403.144 297.571 403.518C297.784 403.891 298.038 404.078 298.331 404.078C298.571 404.078 298.864 404.038 299.211 403.958C299.558 403.851 299.784 403.771 299.891 403.718L300.011 405.078C299.798 405.158 299.344 405.304 298.651 405.518C297.958 405.731 297.371 405.838 296.891 405.838C296.198 405.838 295.664 405.624 295.291 405.198C294.918 404.744 294.691 403.958 294.611 402.838H294.571C294.571 402.944 294.358 403.251 293.931 403.758C293.504 404.264 292.864 404.744 292.011 405.198C291.184 405.624 290.144 405.838 288.891 405.838ZM289.771 404.078C290.731 404.078 291.558 403.864 292.251 403.438C292.944 403.011 293.464 402.544 293.811 402.038C294.184 401.531 294.371 401.238 294.371 401.158V395.318C291.944 395.584 289.944 396.104 288.371 396.878C286.824 397.651 286.051 398.878 286.051 400.558C286.051 401.704 286.384 402.584 287.051 403.198C287.718 403.784 288.624 404.078 289.771 404.078ZM303.793 385.438H305.953L306.393 389.558C306.393 389.398 306.54 388.944 306.833 388.198C307.153 387.424 307.633 386.704 308.273 386.038C308.913 385.371 309.74 385.038 310.753 385.038C311.26 385.038 311.833 385.131 312.473 385.318C313.113 385.478 313.527 385.598 313.713 385.678L313.433 387.878C313.247 387.798 312.82 387.678 312.153 387.518C311.513 387.358 310.94 387.278 310.433 387.278C309.66 387.278 308.993 387.544 308.433 388.078C307.9 388.584 307.5 389.131 307.233 389.718C306.967 390.304 306.793 390.744 306.713 391.038V405.438H303.793V385.438ZM323.452 405.838C320.785 405.838 318.692 405.011 317.172 403.358C315.652 401.678 314.892 399.171 314.892 395.838C314.892 392.478 315.625 389.838 317.092 387.918C318.558 385.998 320.558 385.038 323.092 385.038C325.385 385.038 327.145 385.838 328.372 387.438C329.625 389.011 330.252 391.251 330.252 394.158C330.252 394.664 330.225 395.078 330.172 395.398C330.118 395.718 330.078 395.918 330.052 395.998H317.932C317.932 401.384 319.878 404.078 323.772 404.078C324.838 404.078 325.745 403.891 326.492 403.518C327.265 403.118 327.865 402.704 328.292 402.278C328.718 401.824 328.932 401.558 328.932 401.478L330.092 402.438C330.092 402.544 329.838 402.891 329.332 403.478C328.825 404.038 328.078 404.571 327.092 405.078C326.105 405.584 324.892 405.838 323.452 405.838ZM327.532 394.318L327.572 393.558C327.572 389.024 326.078 386.758 323.092 386.758C321.518 386.758 320.305 387.384 319.452 388.638C318.598 389.864 318.105 391.758 317.972 394.318H327.532ZM351.793 405.878C350.406 405.878 349.286 405.664 348.433 405.238C347.579 404.784 346.939 404.331 346.513 403.878L345.953 405.438H343.873V375.518L346.793 375.358V387.718H346.833C346.833 387.638 347.019 387.371 347.393 386.918C347.793 386.438 348.379 385.998 349.153 385.598C349.953 385.198 350.953 384.998 352.153 384.998C354.526 384.998 356.433 385.878 357.873 387.638C359.313 389.371 360.033 391.784 360.033 394.878C360.033 398.238 359.326 400.918 357.913 402.918C356.499 404.891 354.459 405.878 351.793 405.878ZM351.033 403.958C353.086 403.958 354.579 403.211 355.513 401.718C356.473 400.198 356.953 397.944 356.953 394.958C356.953 392.184 356.473 390.158 355.513 388.878C354.553 387.571 353.153 386.918 351.313 386.918C349.979 386.918 348.953 387.264 348.233 387.958C347.513 388.651 347.033 389.264 346.793 389.798V402.158C346.979 402.504 347.433 402.891 348.153 403.318C348.873 403.744 349.833 403.958 351.033 403.958ZM371.498 405.838C368.724 405.838 366.604 404.931 365.138 403.118C363.698 401.304 362.978 398.744 362.978 395.438C362.978 392.131 363.698 389.571 365.138 387.758C366.604 385.944 368.724 385.038 371.498 385.038C374.271 385.038 376.378 385.944 377.818 387.758C379.284 389.571 380.018 392.131 380.018 395.438C380.018 398.718 379.271 401.278 377.778 403.118C376.311 404.931 374.218 405.838 371.498 405.838ZM371.498 404.078C373.364 404.078 374.738 403.371 375.618 401.958C376.498 400.518 376.938 398.344 376.938 395.438C376.938 392.558 376.498 390.398 375.618 388.958C374.738 387.518 373.364 386.798 371.498 386.798C369.631 386.798 368.258 387.518 367.378 388.958C366.498 390.371 366.058 392.531 366.058 395.438C366.058 398.344 366.498 400.518 367.378 401.958C368.258 403.371 369.631 404.078 371.498 404.078ZM390.377 405.838C388.43 405.838 386.923 405.304 385.857 404.238C384.79 403.144 384.257 401.531 384.257 399.398V385.438H387.177V398.798C387.177 402.078 388.563 403.718 391.337 403.718C392.297 403.718 393.123 403.571 393.817 403.278C394.51 402.958 395.057 402.624 395.457 402.278C395.883 401.931 396.097 401.731 396.097 401.678V385.438H399.017V405.438H396.577L396.177 403.518C395.83 403.998 395.19 404.504 394.257 405.038C393.323 405.571 392.03 405.838 390.377 405.838ZM405.005 385.438H407.405L407.765 387.358C408.192 386.851 408.859 386.344 409.765 385.838C410.672 385.304 411.979 385.038 413.685 385.038C415.605 385.038 417.099 385.584 418.165 386.678C419.232 387.744 419.765 389.344 419.765 391.478V405.438H416.845V392.078C416.845 390.371 416.499 389.131 415.805 388.358C415.112 387.558 414.085 387.158 412.725 387.158C411.765 387.158 410.925 387.304 410.205 387.598C409.485 387.891 408.912 388.211 408.485 388.558C408.085 388.904 407.885 389.104 407.885 389.158V405.438H405.005V385.438ZM431.994 405.838C429.567 405.838 427.621 404.971 426.154 403.238C424.687 401.504 423.954 399.091 423.954 395.998C423.954 392.664 424.661 390.011 426.074 388.038C427.514 386.038 429.527 385.038 432.114 385.038C433.207 385.038 434.127 385.184 434.874 385.478C435.621 385.744 436.194 386.051 436.594 386.398C436.994 386.718 437.194 386.904 437.194 386.958H437.234V375.518L440.114 375.358V405.438H437.634L437.314 403.078C437.021 403.664 436.447 404.278 435.594 404.918C434.741 405.531 433.541 405.838 431.994 405.838ZM432.634 403.878C433.594 403.878 434.421 403.678 435.114 403.278C435.807 402.851 436.327 402.398 436.674 401.918C437.047 401.438 437.234 401.158 437.234 401.078V388.798C437.234 388.744 437.047 388.558 436.674 388.238C436.327 387.918 435.834 387.624 435.194 387.358C434.581 387.091 433.847 386.958 432.994 386.958C430.941 386.958 429.434 387.718 428.474 389.238C427.514 390.731 427.034 392.958 427.034 395.918C427.034 398.718 427.501 400.744 428.434 401.998C429.394 403.251 430.794 403.878 432.634 403.878Z" fill="black"/>
<path d="M192.206 694.566V658.446H181.106V655.566H207.926V658.446H196.766V694.566H192.206ZM213.262 664.566H221.302C224.542 664.566 227.062 665.366 228.862 666.966C230.702 668.566 231.622 670.846 231.622 673.806C231.622 676.046 231.122 677.906 230.122 679.386C229.162 680.866 227.862 681.966 226.222 682.686L233.662 694.566H228.682L222.022 683.586H217.582V694.566H213.262V664.566ZM221.122 681.066C223.082 681.066 224.562 680.526 225.562 679.446C226.602 678.366 227.122 676.526 227.122 673.926C227.122 671.566 226.582 669.826 225.502 668.706C224.462 667.586 222.882 667.026 220.762 667.026H217.582V681.066H221.122ZM240.742 694.566V664.566H258.022V667.206H245.062V678.126H256.822V680.706H245.062V691.926H258.922V694.566H240.742ZM277.265 695.166C273.145 695.166 269.945 693.786 267.665 691.026C265.385 688.266 264.245 684.466 264.245 679.626C264.245 674.746 265.485 670.926 267.965 668.166C270.445 665.366 273.925 663.966 278.405 663.966C279.885 663.966 281.325 664.166 282.725 664.566C284.125 664.966 285.305 665.406 286.265 665.886C287.265 666.366 287.765 666.626 287.765 666.666L287.105 669.186C286.905 669.066 286.385 668.806 285.545 668.406C284.745 668.006 283.725 667.626 282.485 667.266C281.245 666.906 280.025 666.726 278.825 666.726C275.425 666.726 272.925 667.806 271.325 669.966C269.725 672.086 268.925 675.306 268.925 679.626C268.925 683.866 269.725 687.046 271.325 689.166C272.925 691.286 275.125 692.346 277.925 692.346C279.725 692.346 281.125 691.966 282.125 691.206C283.165 690.446 283.865 689.666 284.225 688.866C284.585 688.026 284.765 687.486 284.765 687.246V681.186H278.765V678.786H288.425V694.566H286.325L285.245 691.566C283.525 693.966 280.865 695.166 277.265 695.166ZM321.725 695.166C317.565 695.166 314.365 693.886 312.125 691.326C309.885 688.766 308.765 684.946 308.765 679.866C308.765 674.746 309.865 670.826 312.065 668.106C314.305 665.346 317.565 663.966 321.845 663.966C323.245 663.966 324.565 664.166 325.805 664.566C327.045 664.926 328.085 665.346 328.925 665.826C329.805 666.266 330.245 666.506 330.245 666.546L329.705 669.006C329.545 668.886 329.105 668.646 328.385 668.286C327.705 667.886 326.805 667.506 325.685 667.146C324.605 666.786 323.485 666.606 322.325 666.606C319.245 666.606 316.985 667.626 315.545 669.666C314.105 671.706 313.385 675.086 313.385 679.806C313.385 684.366 314.145 687.626 315.665 689.586C317.185 691.546 319.325 692.526 322.085 692.526C323.645 692.526 324.965 692.246 326.045 691.686C327.165 691.126 328.025 690.546 328.625 689.946C329.225 689.306 329.525 688.926 329.525 688.806L331.445 690.066C331.445 690.226 331.085 690.746 330.365 691.626C329.645 692.466 328.565 693.266 327.125 694.026C325.685 694.786 323.885 695.166 321.725 695.166ZM346.976 695.166C342.976 695.166 339.836 693.926 337.556 691.446C335.276 688.926 334.136 685.166 334.136 680.166C334.136 675.126 335.236 671.166 337.436 668.286C339.636 665.406 342.636 663.966 346.436 663.966C349.876 663.966 352.516 665.166 354.356 667.566C356.236 669.926 357.176 673.286 357.176 677.646C357.176 678.406 357.136 679.026 357.056 679.506C356.976 679.986 356.916 680.286 356.876 680.406H338.696C338.696 688.486 341.616 692.526 347.456 692.526C349.056 692.526 350.416 692.246 351.536 691.686C352.696 691.086 353.596 690.466 354.236 689.826C354.876 689.146 355.196 688.746 355.196 688.626L356.936 690.066C356.936 690.226 356.556 690.746 355.796 691.626C355.036 692.466 353.916 693.266 352.436 694.026C350.956 694.786 349.136 695.166 346.976 695.166ZM353.096 677.886L353.156 676.746C353.156 669.946 350.916 666.546 346.436 666.546C344.076 666.546 342.256 667.486 340.976 669.366C339.696 671.206 338.956 674.046 338.756 677.886H353.096ZM363.604 694.566V649.686L367.924 649.446V694.566H363.604ZM376.963 694.566V649.686L381.283 649.446V694.566H376.963ZM397.762 695.166C395.642 695.166 393.842 694.846 392.362 694.206C390.922 693.526 389.822 692.806 389.062 692.046C388.342 691.286 387.982 690.846 387.982 690.726L389.482 688.626C389.482 688.706 389.802 689.086 390.442 689.766C391.082 690.446 391.962 691.086 393.082 691.686C394.202 692.246 395.522 692.526 397.042 692.526C399.282 692.526 400.962 691.966 402.082 690.846C403.242 689.726 403.822 688.366 403.822 686.766C403.822 685.606 403.522 684.646 402.922 683.886C402.362 683.126 401.642 682.546 400.762 682.146C399.922 681.706 398.742 681.226 397.222 680.706C395.462 680.066 394.062 679.486 393.022 678.966C391.982 678.406 391.082 677.586 390.322 676.506C389.602 675.426 389.242 674.026 389.242 672.306C389.242 669.746 390.162 667.726 392.002 666.246C393.882 664.726 396.282 663.966 399.202 663.966C400.482 663.966 401.702 664.146 402.862 664.506C404.062 664.826 405.022 665.186 405.742 665.586C406.462 665.946 406.922 666.186 407.122 666.306L406.402 668.886C406.242 668.766 405.842 668.526 405.202 668.166C404.562 667.766 403.722 667.386 402.682 667.026C401.682 666.666 400.642 666.486 399.562 666.486C397.722 666.486 396.222 666.946 395.062 667.866C393.942 668.786 393.382 669.946 393.382 671.346C393.382 672.506 393.682 673.486 394.282 674.286C394.882 675.046 395.622 675.646 396.502 676.086C397.422 676.526 398.642 677.026 400.162 677.586C401.922 678.186 403.342 678.786 404.422 679.386C405.542 679.946 406.482 680.766 407.242 681.846C408.002 682.926 408.382 684.326 408.382 686.046C408.382 688.646 407.482 690.826 405.682 692.586C403.882 694.306 401.242 695.166 397.762 695.166Z" fill="black"/>
<path d="M48.6963 200.4C46.963 200.4 45.523 200.147 44.3763 199.64C43.2297 199.133 42.3763 198.6 41.8163 198.04C41.283 197.453 41.0163 197.107 41.0163 197L42.0163 195.44C42.0163 195.52 42.2697 195.827 42.7763 196.36C43.283 196.867 44.0163 197.347 44.9763 197.8C45.963 198.227 47.163 198.44 48.5763 198.44C50.2563 198.44 51.5763 197.96 52.5363 197C53.4963 196.013 53.9763 194.8 53.9763 193.36C53.9763 192.373 53.7363 191.547 53.2563 190.88C52.7763 190.213 52.1763 189.68 51.4563 189.28C50.763 188.88 49.8163 188.427 48.6163 187.92C47.2297 187.36 46.1097 186.827 45.2563 186.32C44.403 185.813 43.683 185.12 43.0963 184.24C42.5097 183.333 42.2163 182.187 42.2163 180.8C42.2163 178.613 42.9097 176.88 44.2963 175.6C45.683 174.293 47.5363 173.64 49.8563 173.64C51.003 173.64 52.0297 173.813 52.9363 174.16C53.8697 174.48 54.6163 174.84 55.1763 175.24C55.7363 175.613 56.0163 175.827 56.0163 175.88L55.6163 177.64C55.6163 177.587 55.3497 177.373 54.8163 177C54.283 176.627 53.603 176.28 52.7763 175.96C51.9497 175.64 51.0297 175.48 50.0163 175.48C48.523 175.48 47.3497 175.893 46.4963 176.72C45.643 177.547 45.2163 178.667 45.2163 180.08C45.2163 181.067 45.443 181.893 45.8963 182.56C46.3763 183.2 46.963 183.72 47.6563 184.12C48.3763 184.52 49.323 184.96 50.4963 185.44C51.9097 186.027 53.043 186.587 53.8963 187.12C54.7497 187.627 55.4697 188.347 56.0563 189.28C56.6697 190.213 56.9763 191.413 56.9763 192.88C56.9763 194.347 56.6297 195.653 55.9363 196.8C55.2697 197.92 54.3097 198.8 53.0563 199.44C51.803 200.08 50.3497 200.4 48.6963 200.4ZM68.9857 200.4C66.2124 200.4 64.0791 199.547 62.5857 197.84C61.0924 196.133 60.3457 193.587 60.3457 190.2C60.3457 186.787 61.0791 184.173 62.5457 182.36C64.0391 180.52 66.2124 179.6 69.0657 179.6C69.9991 179.6 70.8791 179.733 71.7057 180C72.5324 180.24 73.2257 180.52 73.7857 180.84C74.3724 181.133 74.6657 181.293 74.6657 181.32L74.3057 182.96C74.1991 182.88 73.9057 182.72 73.4257 182.48C72.9724 182.213 72.3724 181.96 71.6257 181.72C70.9057 181.48 70.1591 181.36 69.3857 181.36C67.3324 181.36 65.8257 182.04 64.8657 183.4C63.9057 184.76 63.4257 187.013 63.4257 190.16C63.4257 193.2 63.9324 195.373 64.9457 196.68C65.9591 197.987 67.3857 198.64 69.2257 198.64C70.2657 198.64 71.1457 198.453 71.8657 198.08C72.6124 197.707 73.1857 197.32 73.5857 196.92C73.9857 196.493 74.1857 196.24 74.1857 196.16L75.4657 197C75.4657 197.107 75.2257 197.453 74.7457 198.04C74.2657 198.6 73.5457 199.133 72.5857 199.64C71.6257 200.147 70.4257 200.4 68.9857 200.4ZM79.5398 200V174H93.8198V175.92H82.5798V186.28H92.2598V188.12H82.5798V200H79.5398ZM101.694 200L94.8545 180H98.2945L103.494 196.84L109.014 180H111.214L104.334 200H101.694ZM116.757 210V191.6L113.197 193.92L112.517 192.24L117.237 189.2H119.397V210H116.757Z" fill="black"/>
<path d="M224.417 180.039L208.719 154.567L211.087 152.92L226.869 178.528L224.417 180.039ZM238.202 172.013C235.932 173.412 233.716 173.807 231.555 173.196C229.379 172.564 227.417 170.829 225.668 167.991C223.906 165.13 223.145 162.498 223.386 160.094C223.627 157.69 224.826 155.824 226.983 154.494C228.935 153.291 230.853 153.049 232.737 153.767C234.63 154.449 236.338 156.027 237.863 158.502C238.129 158.933 238.323 159.299 238.446 159.599C238.568 159.9 238.639 160.091 238.658 160.173L228.34 166.532C231.167 171.118 234.237 172.389 237.551 170.347C238.459 169.787 239.133 169.152 239.573 168.443C240.022 167.697 240.316 167.03 240.455 166.443C240.58 165.833 240.622 165.494 240.58 165.426L242.071 165.635C242.127 165.726 242.093 166.154 241.97 166.919C241.832 167.661 241.476 168.507 240.902 169.456C240.328 170.405 239.428 171.257 238.202 172.013ZM235.632 160.065L235.267 159.397C232.888 155.538 230.428 154.392 227.885 155.959C226.546 156.784 225.842 157.954 225.773 159.469C225.69 160.961 226.263 162.832 227.493 165.081L235.632 160.065ZM252.611 163.133C250.954 164.154 249.391 164.491 247.923 164.142C246.442 163.771 245.141 162.678 244.022 160.862L236.698 148.977L239.184 147.445L246.193 158.819C247.914 161.611 249.955 162.28 252.316 160.825C253.133 160.321 253.76 159.762 254.196 159.149C254.619 158.513 254.909 157.942 255.068 157.437C255.249 156.918 255.326 156.636 255.298 156.591L246.777 142.765L249.263 141.233L259.756 158.26L257.679 159.54L256.331 158.115C256.288 158.706 256.009 159.473 255.494 160.416C254.979 161.36 254.018 162.266 252.611 163.133ZM271.126 151.722C268.765 153.177 266.501 153.57 264.334 152.901C262.168 152.231 260.196 150.455 258.419 147.572C256.628 144.666 255.881 142.057 256.179 139.744C256.484 137.394 257.852 135.47 260.281 133.973C261.076 133.483 261.895 133.135 262.738 132.929C263.568 132.699 264.305 132.574 264.95 132.552C265.603 132.494 265.937 132.477 265.951 132.499L266.505 134.084C266.372 134.072 266.038 134.09 265.504 134.137C264.978 134.148 264.334 134.247 263.573 134.435C262.834 134.608 262.135 134.898 261.477 135.304C259.729 136.381 258.803 137.75 258.699 139.412C258.595 141.073 259.369 143.243 261.02 145.922C262.615 148.51 264.187 150.094 265.735 150.675C267.283 151.256 268.84 151.064 270.407 150.098C271.292 149.553 271.943 148.932 272.36 148.236C272.8 147.527 273.085 146.897 273.216 146.346C273.333 145.773 273.37 145.453 273.328 145.385L274.858 145.428C274.914 145.519 274.892 145.94 274.791 146.691C274.676 147.42 274.343 148.252 273.792 149.187C273.24 150.122 272.352 150.967 271.126 151.722ZM267.867 125.022C267.458 125.274 267.052 125.352 266.649 125.256C266.172 125.143 265.8 124.871 265.534 124.439C265.268 124.008 265.192 123.554 265.305 123.077C265.401 122.673 265.653 122.346 266.062 122.094C266.493 121.828 266.904 121.732 267.294 121.805C267.748 121.932 268.115 122.223 268.395 122.677C268.647 123.085 268.734 123.532 268.658 124.018C268.494 124.464 268.23 124.798 267.867 125.022ZM279.22 146.264L268.727 129.238L271.212 127.706L281.706 144.732L279.22 146.264ZM276.309 124.565L278.353 123.306L279.666 124.751C279.764 124.096 280.065 123.315 280.571 122.408C281.064 121.478 282.036 120.566 283.489 119.67C285.123 118.663 286.682 118.345 288.163 118.716C289.631 119.064 290.924 120.147 292.044 121.963L299.368 133.847L296.882 135.379L289.873 124.006C288.977 122.553 288.032 121.679 287.036 121.384C286.026 121.067 284.942 121.265 283.784 121.979C282.967 122.482 282.329 123.048 281.869 123.676C281.41 124.303 281.09 124.876 280.909 125.395C280.75 125.9 280.685 126.175 280.713 126.221L289.254 140.08L286.803 141.591L276.309 124.565ZM310.431 127.499C308.161 128.898 305.945 129.293 303.784 128.683C301.608 128.05 299.646 126.315 297.897 123.477C296.134 120.617 295.373 117.984 295.615 115.58C295.856 113.176 297.055 111.31 299.212 109.981C301.164 108.777 303.082 108.535 304.966 109.254C306.858 109.935 308.567 111.514 310.092 113.988C310.358 114.419 310.552 114.785 310.674 115.086C310.797 115.386 310.868 115.577 310.887 115.659L300.569 122.018C303.395 126.604 306.466 127.875 309.78 125.833C310.688 125.273 311.362 124.639 311.802 123.929C312.25 123.183 312.544 122.516 312.684 121.929C312.809 121.319 312.851 120.98 312.809 120.912L314.3 121.121C314.356 121.212 314.322 121.64 314.198 122.405C314.061 123.147 313.705 123.993 313.131 124.942C312.557 125.891 311.657 126.744 310.431 127.499ZM307.86 115.551L307.496 114.883C305.117 111.024 302.657 109.878 300.114 111.445C298.775 112.27 298.07 113.44 298.002 114.955C297.919 116.447 298.492 118.318 299.722 120.567L307.86 115.551ZM326.244 117.284L325.404 115.922L325.412 96.4176L317.444 101.328L316.397 99.8589L327.328 93.1223L328.168 94.4845L328.228 113.947L336.809 108.658L337.821 110.149L326.244 117.284ZM330.352 86.5133C329.943 86.7651 329.537 86.8431 329.134 86.7473C328.657 86.6341 328.285 86.3618 328.019 85.9305C327.754 85.4991 327.677 85.045 327.79 84.568C327.886 84.1643 328.139 83.8366 328.547 83.5848C328.978 83.3189 329.389 83.2226 329.779 83.2957C330.233 83.4229 330.6 83.7136 330.88 84.1676C331.132 84.5762 331.219 85.0234 331.143 85.5091C330.979 85.9547 330.715 86.2894 330.352 86.5133ZM341.705 107.755L331.212 90.7291L333.697 89.1971L344.191 106.223L341.705 107.755ZM338.794 86.0559L340.838 84.7967L342.403 86.651C342.413 85.9557 342.636 85.0977 343.072 84.0772C343.508 83.0567 344.408 82.1267 345.77 81.2872C347.767 80.056 349.811 79.8145 351.901 80.5626C354.014 81.2967 355.882 82.9804 357.504 85.6138C359.267 88.4742 360.065 91.1152 359.897 93.5366C359.729 95.958 358.544 97.8473 356.342 99.2044C355.411 99.7781 354.547 100.154 353.748 100.333C352.959 100.475 352.31 100.515 351.802 100.452C351.279 100.367 351.004 100.302 350.976 100.256L350.942 100.277L356.986 110.084L354.576 111.663L338.794 86.0559ZM354.517 98.0736C356.288 96.9823 357.197 95.5605 357.245 93.8083C357.279 92.0333 356.505 89.8632 354.924 87.2979C353.455 84.9142 351.983 83.4407 350.509 82.8774C349.034 82.3141 347.524 82.5081 345.981 83.4595C345.163 83.9632 344.565 84.5671 344.184 85.2714C343.804 85.9757 343.581 86.6301 343.515 87.2346C343.457 87.8024 343.45 88.1204 343.492 88.1885L350.019 98.7788C350.464 98.9428 351.076 99.0201 351.853 99.0108C352.653 98.9876 353.541 98.6752 354.517 98.0736ZM356.353 75.2348L358.396 73.9756L359.962 75.8299C359.972 75.1346 360.195 74.2767 360.631 73.2562C361.067 72.2356 361.966 71.3056 363.328 70.4662C365.326 69.235 367.37 68.9934 369.459 69.7415C371.572 70.4756 373.44 72.1594 375.063 74.7928C376.826 77.6532 377.623 80.2941 377.455 82.7155C377.287 85.137 376.102 87.0263 373.9 88.3834C372.97 88.957 372.105 89.3332 371.307 89.5119C370.517 89.6539 369.868 89.6937 369.36 89.6311C368.837 89.5458 368.562 89.4805 368.534 89.4351L368.5 89.4561L374.544 99.2632L372.134 100.842L356.353 75.2348ZM372.076 87.2525C373.847 86.1612 374.756 84.7395 374.804 82.9872C374.837 81.2122 374.064 79.0421 372.483 76.4768C371.014 74.0931 369.542 72.6196 368.067 72.0563C366.592 71.493 365.083 71.6871 363.539 72.6384C362.722 73.1421 362.123 73.7461 361.743 74.4504C361.362 75.1547 361.139 75.8091 361.073 76.4136C361.016 76.9814 361.008 77.2993 361.05 77.3674L367.577 87.9578C368.022 88.1217 368.634 88.199 369.411 88.1898C370.211 88.1666 371.1 87.8541 372.076 87.2525ZM390.607 78.087C388.337 79.4861 386.121 79.8806 383.96 79.2706C381.785 78.6378 379.822 76.9026 378.074 74.0649C376.311 71.2045 375.55 68.5723 375.791 66.1683C376.032 63.7642 377.231 61.8977 379.388 60.5685C381.34 59.3653 383.258 59.123 385.142 59.8415C387.035 60.5233 388.743 62.1015 390.268 64.576C390.534 65.0073 390.728 65.3732 390.851 65.6736C390.973 65.974 391.044 66.1652 391.063 66.2473L380.746 72.6062C383.572 77.1919 386.642 78.4634 389.956 76.4208C390.864 75.8611 391.538 75.2265 391.978 74.517C392.427 73.7707 392.721 73.104 392.86 72.517C392.985 71.9072 393.027 71.5682 392.985 71.5001L394.476 71.7088C394.532 71.7996 394.498 72.2276 394.375 72.9929C394.237 73.7355 393.882 74.5812 393.307 75.5302C392.733 76.4792 391.833 77.3315 390.607 78.087ZM388.037 66.1392L387.672 65.4713C385.294 61.612 382.833 60.4658 380.29 62.0328C378.951 62.8583 378.247 64.0283 378.178 65.543C378.095 67.035 378.669 68.9057 379.898 71.155L388.037 66.1392ZM389.307 54.9253L391.146 53.7921L393.682 57.0687C393.598 56.9324 393.485 56.4696 393.343 55.68C393.21 54.8538 393.241 53.989 393.436 53.0857C393.631 52.1823 394.16 51.4649 395.022 50.9332C395.454 50.6674 395.991 50.446 396.634 50.2692C397.262 50.0696 397.677 49.9549 397.878 49.9251L398.794 51.9449C398.593 51.9747 398.167 52.0964 397.515 52.3099C396.887 52.5095 396.357 52.7422 395.925 53.008C395.267 53.4138 394.839 53.9906 394.642 54.7384C394.454 55.4496 394.4 56.1248 394.481 56.7641C394.562 57.4035 394.645 57.869 394.731 58.1607L402.286 70.4196L399.8 71.9516L389.307 54.9253Z" fill="black"/>
</svg>
