<svg width="630" height="721" viewBox="0 0 630 721" fill="none" xmlns="http://www.w3.org/2000/svg">
<g clip-path="url(#clip0_102_3193)">
<path d="M184.204 456.352C180.604 456.352 177.804 455.192 175.804 452.872C173.804 450.525 172.804 447.298 172.804 443.192C172.804 440.445 173.257 438.045 174.164 435.992C175.097 433.938 176.404 432.365 178.084 431.272C179.79 430.152 181.764 429.592 184.004 429.592C185.23 429.592 186.404 429.752 187.524 430.072C188.67 430.392 189.644 430.752 190.444 431.152C191.244 431.552 191.644 431.765 191.644 431.792L191.284 433.712C191.284 433.685 190.897 433.485 190.124 433.112C189.35 432.738 188.444 432.392 187.404 432.072C186.39 431.752 185.364 431.592 184.324 431.592C181.737 431.592 179.71 432.578 178.244 434.552C176.777 436.498 176.044 439.352 176.044 443.112C176.044 446.818 176.79 449.618 178.284 451.512C179.777 453.405 181.87 454.352 184.564 454.352C185.977 454.352 187.217 454.058 188.284 453.472C189.35 452.885 190.19 452.258 190.804 451.592C191.444 450.925 191.764 450.538 191.764 450.432L192.884 451.712C192.884 451.845 192.537 452.312 191.844 453.112C191.15 453.885 190.15 454.618 188.844 455.312C187.564 456.005 186.017 456.352 184.204 456.352ZM194.416 455.952L202.736 443.032L194.736 429.952H198.416L204.856 440.832L211.576 429.952H214.096L206.136 442.552L214.616 455.952H210.896L204.056 444.792H204.016L197.096 455.952H194.416ZM227.876 456.352C224.276 456.352 221.476 455.192 219.476 452.872C217.476 450.525 216.476 447.298 216.476 443.192C216.476 440.445 216.929 438.045 217.836 435.992C218.769 433.938 220.076 432.365 221.756 431.272C223.462 430.152 225.436 429.592 227.676 429.592C228.902 429.592 230.076 429.752 231.196 430.072C232.342 430.392 233.316 430.752 234.116 431.152C234.916 431.552 235.316 431.765 235.316 431.792L234.956 433.712C234.956 433.685 234.569 433.485 233.796 433.112C233.022 432.738 232.116 432.392 231.076 432.072C230.062 431.752 229.036 431.592 227.996 431.592C225.409 431.592 223.382 432.578 221.916 434.552C220.449 436.498 219.716 439.352 219.716 443.112C219.716 446.818 220.462 449.618 221.956 451.512C223.449 453.405 225.542 454.352 228.236 454.352C229.649 454.352 230.889 454.058 231.956 453.472C233.022 452.885 233.862 452.258 234.476 451.592C235.116 450.925 235.436 450.538 235.436 450.432L236.556 451.712C236.556 451.845 236.209 452.312 235.516 453.112C234.822 453.885 233.822 454.618 232.516 455.312C231.236 456.005 229.689 456.352 227.876 456.352ZM241.128 429.952H247.408C250.048 429.952 252.115 430.645 253.608 432.032C255.101 433.392 255.848 435.352 255.848 437.912C255.848 439.965 255.408 441.645 254.528 442.952C253.648 444.258 252.488 445.192 251.048 445.752L257.568 455.952H254.088L248.128 446.312H244.168V455.952H241.128V429.952ZM247.408 444.512C249.141 444.512 250.448 444.018 251.328 443.032C252.208 442.045 252.648 440.378 252.648 438.032C252.648 433.818 250.781 431.712 247.048 431.712H244.168V444.512H247.408ZM269.651 456.352C266.931 456.352 264.837 455.458 263.371 453.672C261.904 451.885 261.171 449.312 261.171 445.952C261.171 444.885 261.211 443.912 261.291 443.032C261.557 438.525 262.451 435.165 263.971 432.952C265.491 430.712 267.504 429.592 270.011 429.592C270.837 429.592 271.624 429.698 272.371 429.912C273.144 430.098 273.757 430.298 274.211 430.512C274.691 430.725 274.997 430.872 275.131 430.952L274.731 432.712C274.624 432.632 274.357 432.498 273.931 432.312C273.504 432.098 272.957 431.898 272.291 431.712C271.624 431.525 270.944 431.432 270.251 431.432C266.357 431.432 264.291 434.965 264.051 442.032C265.651 440.378 267.584 439.552 269.851 439.552C272.277 439.552 274.184 440.285 275.571 441.752C276.984 443.218 277.691 445.178 277.691 447.632C277.691 449.258 277.384 450.738 276.771 452.072C276.184 453.378 275.277 454.418 274.051 455.192C272.851 455.965 271.384 456.352 269.651 456.352ZM269.651 454.592C271.384 454.592 272.651 453.952 273.451 452.672C274.251 451.365 274.651 449.672 274.651 447.592C274.651 445.672 274.224 444.125 273.371 442.952C272.517 441.778 271.224 441.192 269.491 441.192C268.237 441.192 267.197 441.498 266.371 442.112C265.544 442.698 264.877 443.365 264.371 444.112L264.411 444.152C264.357 444.445 264.304 444.845 264.251 445.352C264.224 445.858 264.211 446.365 264.211 446.872C264.211 452.018 266.024 454.592 269.651 454.592Z" fill="black"/>
<path d="M13.4325 291.503C11.7805 292.027 10.3313 292.221 9.08508 292.086C7.83885 291.95 6.86413 291.7 6.16091 291.335C5.47505 290.938 5.11597 290.688 5.08369 290.586L5.5647 288.797C5.58891 288.873 5.92317 289.089 6.56748 289.444C7.20372 289.773 8.04793 290.009 9.1001 290.15C10.1696 290.258 11.3779 290.098 12.725 289.671C14.3262 289.162 15.439 288.305 16.0635 287.1C16.6799 285.869 16.7702 284.567 16.3344 283.195C16.0358 282.254 15.5569 281.539 14.8976 281.049C14.2384 280.559 13.5051 280.232 12.6978 280.069C11.916 279.897 10.8765 279.752 9.57943 279.632C8.08832 279.518 6.85943 279.348 5.89278 279.124C4.92613 278.899 4.03007 278.456 3.2046 277.795C2.37106 277.108 1.74446 276.104 1.32482 274.783C0.663066 272.698 0.799329 270.837 1.73361 269.197C2.65981 267.532 4.22852 266.348 6.43973 265.646C7.53263 265.299 8.56361 265.154 9.53267 265.21C10.5191 265.232 11.3397 265.349 11.9945 265.561C12.6412 265.748 12.9726 265.866 12.9888 265.917L13.1402 267.716C13.124 267.665 12.8053 267.542 12.184 267.348C11.5627 267.153 10.8097 267.029 9.92491 266.974C9.04017 266.919 8.11489 267.045 7.14907 267.352C5.72576 267.804 4.73253 268.553 4.16939 269.599C3.60624 270.645 3.53853 271.841 3.96625 273.189C4.26484 274.129 4.73105 274.848 5.36488 275.346C6.01606 275.811 6.73258 276.129 7.51446 276.301C8.32175 276.464 9.35718 276.597 10.6208 276.699C12.1454 276.831 13.395 277.021 14.3697 277.272C15.3364 277.496 16.2405 277.965 17.0821 278.677C17.9492 279.381 18.6046 280.431 19.0485 281.829C19.4923 283.227 19.5573 284.578 19.2435 285.88C18.9471 287.15 18.2984 288.279 17.2975 289.268C16.2967 290.257 15.0083 291.002 13.4325 291.503ZM32.7705 285.362C30.1272 286.202 27.8356 286.034 25.8958 284.859C23.9561 283.684 22.4737 281.483 21.4488 278.255C20.4158 275.002 20.3239 272.289 21.173 270.117C22.0395 267.912 23.8325 266.377 26.552 265.513C27.4416 265.231 28.3207 265.092 29.1893 265.096C30.0498 265.074 30.7954 265.131 31.426 265.267C32.0739 265.369 32.4019 265.433 32.4099 265.458L32.5631 267.13C32.4373 267.086 32.1093 267.022 31.5791 266.939C31.0664 266.822 30.4178 266.762 29.6336 266.759C28.8747 266.748 28.1267 266.86 27.3896 267.094C25.4326 267.716 24.2024 268.82 23.699 270.406C23.1956 271.993 23.42 274.286 24.3723 277.285C25.2923 280.183 26.4329 282.101 27.7941 283.039C29.1554 283.978 30.7129 284.169 32.4666 283.612C33.4578 283.297 34.2401 282.853 34.8133 282.28C35.412 281.698 35.8414 281.156 36.1016 280.653C36.3537 280.126 36.4677 279.824 36.4435 279.747L37.9177 280.161C37.95 280.262 37.8261 280.665 37.5462 281.37C37.2582 282.049 36.7333 282.775 35.9717 283.549C35.21 284.322 34.1429 284.927 32.7705 285.362ZM42.7086 281.787L34.8402 257.006L48.4506 252.685L49.0316 254.515L38.3187 257.916L41.4539 267.79L50.68 264.861L51.2369 266.615L42.0108 269.544L45.606 280.867L42.7086 281.787ZM63.8244 275.082L51.2525 258.09L54.5312 257.049L64.5837 271.526L64.7485 253.805L66.8454 253.139L66.3406 274.284L63.8244 275.082ZM75.6615 279.508C76.0879 279.176 76.74 278.102 77.6178 276.285C78.5291 274.484 79.232 272.512 79.7265 270.369C80.2544 268.243 80.2683 266.392 79.7679 264.816C79.3079 263.367 78.7061 262.397 77.9626 261.906C77.2109 261.389 76.187 261.337 74.8908 261.748C74.4079 261.901 73.9232 262.181 73.4366 262.588C72.9755 262.986 72.582 263.377 72.256 263.76C71.9555 264.135 71.7665 264.377 71.689 264.485L70.8738 263.108C70.9686 262.966 71.2004 262.682 71.5691 262.257C71.9378 261.832 72.4249 261.384 73.0305 260.912C73.6614 260.432 74.3327 260.079 75.0444 259.853C76.9252 259.256 78.4885 259.333 79.7344 260.084C81.0057 260.828 81.9116 262.051 82.4523 263.754C83.1222 265.863 82.966 268.235 81.9837 270.869C81.0269 273.495 79.7895 275.987 78.2715 278.343L86.6588 275.68L87.4215 278.082L76.3273 281.605L75.6615 279.508Z" fill="black"/>
<path d="M322.68 279.438V255.358H315.28V253.438H333.16V255.358H325.72V279.438H322.68ZM336.398 249.518L339.317 249.358V261.238H339.358C339.358 261.238 339.518 261.064 339.838 260.718C340.184 260.344 340.851 259.971 341.838 259.598C342.824 259.224 343.904 259.038 345.078 259.038C347.024 259.038 348.518 259.584 349.558 260.678C350.624 261.744 351.158 263.344 351.158 265.478V279.438H348.278V265.838C348.278 262.718 346.891 261.158 344.118 261.158C343.158 261.158 342.318 261.304 341.598 261.598C340.878 261.891 340.318 262.211 339.918 262.558C339.518 262.904 339.317 263.104 339.317 263.158V279.438H336.398V249.518ZM363.946 279.838C361.28 279.838 359.186 279.011 357.666 277.358C356.146 275.678 355.386 273.171 355.386 269.838C355.386 266.478 356.12 263.838 357.586 261.918C359.053 259.998 361.053 259.038 363.586 259.038C365.88 259.038 367.64 259.838 368.866 261.438C370.12 263.011 370.746 265.251 370.746 268.158C370.746 268.664 370.72 269.078 370.666 269.398C370.613 269.718 370.573 269.918 370.546 269.998H358.426C358.426 275.384 360.373 278.078 364.266 278.078C365.333 278.078 366.24 277.891 366.986 277.518C367.76 277.118 368.36 276.704 368.786 276.278C369.213 275.824 369.426 275.558 369.426 275.478L370.586 276.438C370.586 276.544 370.333 276.891 369.826 277.478C369.32 278.038 368.573 278.571 367.586 279.078C366.6 279.584 365.386 279.838 363.946 279.838ZM368.026 268.318L368.066 267.558C368.066 263.024 366.573 260.758 363.586 260.758C362.013 260.758 360.8 261.384 359.946 262.638C359.093 263.864 358.6 265.758 358.466 268.318H368.026ZM391.407 279.838C388.741 279.838 386.647 279.011 385.127 277.358C383.607 275.678 382.847 273.171 382.847 269.838C382.847 266.478 383.581 263.838 385.047 261.918C386.514 259.998 388.514 259.038 391.047 259.038C393.341 259.038 395.101 259.838 396.327 261.438C397.581 263.011 398.207 265.251 398.207 268.158C398.207 268.664 398.181 269.078 398.127 269.398C398.074 269.718 398.034 269.918 398.007 269.998H385.887C385.887 275.384 387.834 278.078 391.727 278.078C392.794 278.078 393.701 277.891 394.447 277.518C395.221 277.118 395.821 276.704 396.247 276.278C396.674 275.824 396.887 275.558 396.887 275.478L398.047 276.438C398.047 276.544 397.794 276.891 397.287 277.478C396.781 278.038 396.034 278.571 395.047 279.078C394.061 279.584 392.847 279.838 391.407 279.838ZM395.487 268.318L395.527 267.558C395.527 263.024 394.034 260.758 391.047 260.758C389.474 260.758 388.261 261.384 387.407 262.638C386.554 263.864 386.061 265.758 385.927 268.318H395.487ZM402.492 259.438H404.892L405.252 261.838C405.626 261.251 406.266 260.638 407.172 259.998C408.079 259.358 409.332 259.038 410.932 259.038C413.279 259.038 415.146 259.904 416.532 261.638C417.946 263.371 418.652 265.784 418.652 268.878C418.652 272.238 417.946 274.904 416.532 276.878C415.119 278.851 413.119 279.838 410.532 279.838C409.439 279.838 408.506 279.704 407.732 279.438C406.986 279.144 406.412 278.838 406.012 278.518C405.612 278.171 405.412 277.971 405.412 277.918H405.372V289.438L402.492 289.518V259.438ZM409.572 277.918C411.652 277.918 413.172 277.184 414.132 275.718C415.092 274.224 415.572 271.971 415.572 268.958C415.572 266.158 415.092 264.131 414.132 262.878C413.172 261.624 411.786 260.998 409.972 260.998C409.012 260.998 408.186 261.198 407.492 261.598C406.799 261.998 406.266 262.438 405.892 262.918C405.546 263.371 405.372 263.638 405.372 263.718V276.158C405.666 276.531 406.146 276.918 406.812 277.318C407.506 277.718 408.426 277.918 409.572 277.918ZM424.557 255.398C424.077 255.398 423.691 255.251 423.397 254.958C423.051 254.611 422.877 254.184 422.877 253.678C422.877 253.171 423.051 252.744 423.397 252.398C423.691 252.104 424.077 251.958 424.557 251.958C425.064 251.958 425.464 252.091 425.757 252.358C426.077 252.704 426.237 253.144 426.237 253.678C426.237 254.158 426.077 254.584 425.757 254.958C425.384 255.251 424.984 255.398 424.557 255.398ZM423.077 279.438V259.438H425.997V279.438H423.077ZM436.904 279.838C435.464 279.838 434.398 279.398 433.704 278.518C433.011 277.611 432.664 276.131 432.664 274.078V261.398H430.584V259.718L432.664 259.478L433.744 253.118H435.584V259.438H440.704V261.398H435.584V273.358C435.584 275.091 435.744 276.291 436.064 276.958C436.411 277.598 436.998 277.918 437.824 277.918C438.491 277.918 439.091 277.851 439.624 277.718C440.158 277.584 440.424 277.504 440.424 277.478L440.624 279.078C440.571 279.131 440.398 279.224 440.104 279.358C439.838 279.464 439.424 279.571 438.864 279.678C438.331 279.784 437.678 279.838 436.904 279.838ZM452.031 279.838C449.258 279.838 447.138 278.931 445.671 277.118C444.231 275.304 443.511 272.744 443.511 269.438C443.511 266.131 444.231 263.571 445.671 261.758C447.138 259.944 449.258 259.038 452.031 259.038C454.805 259.038 456.911 259.944 458.351 261.758C459.818 263.571 460.551 266.131 460.551 269.438C460.551 272.718 459.805 275.278 458.311 277.118C456.845 278.931 454.751 279.838 452.031 279.838ZM452.031 278.078C453.898 278.078 455.271 277.371 456.151 275.958C457.031 274.518 457.471 272.344 457.471 269.438C457.471 266.558 457.031 264.398 456.151 262.958C455.271 261.518 453.898 260.798 452.031 260.798C450.165 260.798 448.791 261.518 447.911 262.958C447.031 264.371 446.591 266.531 446.591 269.438C446.591 272.344 447.031 274.518 447.911 275.958C448.791 277.371 450.165 278.078 452.031 278.078ZM465.07 259.438H467.47L467.83 261.838C468.204 261.251 468.844 260.638 469.75 259.998C470.657 259.358 471.91 259.038 473.51 259.038C475.857 259.038 477.724 259.904 479.11 261.638C480.524 263.371 481.23 265.784 481.23 268.878C481.23 272.238 480.524 274.904 479.11 276.878C477.697 278.851 475.697 279.838 473.11 279.838C472.017 279.838 471.084 279.704 470.31 279.438C469.564 279.144 468.99 278.838 468.59 278.518C468.19 278.171 467.99 277.971 467.99 277.918H467.95V289.438L465.07 289.518V259.438ZM472.15 277.918C474.23 277.918 475.75 277.184 476.71 275.718C477.67 274.224 478.15 271.971 478.15 268.958C478.15 266.158 477.67 264.131 476.71 262.878C475.75 261.624 474.364 260.998 472.55 260.998C471.59 260.998 470.764 261.198 470.07 261.598C469.377 261.998 468.844 262.438 468.47 262.918C468.124 263.371 467.95 263.638 467.95 263.718V276.158C468.244 276.531 468.724 276.918 469.39 277.318C470.084 277.718 471.004 277.918 472.15 277.918ZM492.735 279.838C490.069 279.838 487.975 279.011 486.455 277.358C484.935 275.678 484.175 273.171 484.175 269.838C484.175 266.478 484.909 263.838 486.375 261.918C487.842 259.998 489.842 259.038 492.375 259.038C494.669 259.038 496.429 259.838 497.655 261.438C498.909 263.011 499.535 265.251 499.535 268.158C499.535 268.664 499.509 269.078 499.455 269.398C499.402 269.718 499.362 269.918 499.335 269.998H487.215C487.215 275.384 489.162 278.078 493.055 278.078C494.122 278.078 495.029 277.891 495.775 277.518C496.549 277.118 497.149 276.704 497.575 276.278C498.002 275.824 498.215 275.558 498.215 275.478L499.375 276.438C499.375 276.544 499.122 276.891 498.615 277.478C498.109 278.038 497.362 278.571 496.375 279.078C495.389 279.584 494.175 279.838 492.735 279.838ZM496.815 268.318L496.855 267.558C496.855 263.024 495.362 260.758 492.375 260.758C490.802 260.758 489.589 261.384 488.735 262.638C487.882 263.864 487.389 265.758 487.255 268.318H496.815ZM325.12 321.838C322.347 321.838 320.213 320.984 318.72 319.278C317.227 317.571 316.48 315.024 316.48 311.638C316.48 308.224 317.213 305.611 318.68 303.798C320.173 301.958 322.347 301.038 325.2 301.038C326.133 301.038 327.013 301.171 327.84 301.438C328.667 301.678 329.36 301.958 329.92 302.278C330.507 302.571 330.8 302.731 330.8 302.758L330.44 304.398C330.333 304.318 330.04 304.158 329.56 303.918C329.107 303.651 328.507 303.398 327.76 303.158C327.04 302.918 326.293 302.798 325.52 302.798C323.467 302.798 321.96 303.478 321 304.838C320.04 306.198 319.56 308.451 319.56 311.598C319.56 314.638 320.067 316.811 321.08 318.118C322.093 319.424 323.52 320.078 325.36 320.078C326.4 320.078 327.28 319.891 328 319.518C328.747 319.144 329.32 318.758 329.72 318.358C330.12 317.931 330.32 317.678 330.32 317.598L331.6 318.438C331.6 318.544 331.36 318.891 330.88 319.478C330.4 320.038 329.68 320.571 328.72 321.078C327.76 321.584 326.56 321.838 325.12 321.838ZM339.034 321.838C337.274 321.838 335.861 321.411 334.794 320.558C333.727 319.678 333.194 318.464 333.194 316.918C333.194 312.998 336.967 310.638 344.514 309.838V307.718C344.514 305.824 344.207 304.531 343.594 303.838C342.981 303.144 341.901 302.798 340.354 302.798C339.661 302.798 338.954 302.931 338.234 303.198C337.514 303.438 336.901 303.704 336.394 303.998C335.914 304.264 335.607 304.438 335.474 304.518L335.154 302.878C335.287 302.771 335.621 302.571 336.154 302.278C336.714 301.984 337.407 301.704 338.234 301.438C339.087 301.171 339.941 301.038 340.794 301.038C343.087 301.038 344.767 301.518 345.834 302.478C346.901 303.438 347.434 305.131 347.434 307.558V317.358C347.434 318.424 347.527 319.144 347.714 319.518C347.927 319.891 348.181 320.078 348.474 320.078C348.714 320.078 349.007 320.038 349.354 319.958C349.701 319.851 349.927 319.771 350.034 319.718L350.154 321.078C349.941 321.158 349.487 321.304 348.794 321.518C348.101 321.731 347.514 321.838 347.034 321.838C346.341 321.838 345.807 321.624 345.434 321.198C345.061 320.744 344.834 319.958 344.754 318.838H344.714C344.714 318.944 344.501 319.251 344.074 319.758C343.647 320.264 343.007 320.744 342.154 321.198C341.327 321.624 340.287 321.838 339.034 321.838ZM339.914 320.078C340.874 320.078 341.701 319.864 342.394 319.438C343.087 319.011 343.607 318.544 343.954 318.038C344.327 317.531 344.514 317.238 344.514 317.158V311.318C342.087 311.584 340.087 312.104 338.514 312.878C336.967 313.651 336.194 314.878 336.194 316.558C336.194 317.704 336.527 318.584 337.194 319.198C337.861 319.784 338.767 320.078 339.914 320.078ZM353.977 301.438H356.377L356.737 303.358C357.163 302.851 357.83 302.344 358.737 301.838C359.643 301.304 360.95 301.038 362.657 301.038C364.577 301.038 366.07 301.584 367.137 302.678C368.203 303.744 368.737 305.344 368.737 307.478V321.438H365.817V308.078C365.817 306.371 365.47 305.131 364.777 304.358C364.083 303.558 363.057 303.158 361.697 303.158C360.737 303.158 359.897 303.304 359.177 303.598C358.457 303.891 357.883 304.211 357.457 304.558C357.057 304.904 356.857 305.104 356.857 305.158V321.438H353.977V301.438ZM371.485 300.838C372.312 300.091 372.979 299.131 373.485 297.958C373.992 296.784 374.245 295.704 374.245 294.718V294.518H374.085C373.659 294.518 373.312 294.384 373.045 294.118C372.725 293.798 372.565 293.398 372.565 292.918C372.565 292.438 372.725 292.038 373.045 291.718C373.312 291.451 373.672 291.318 374.125 291.318C374.579 291.318 374.952 291.451 375.245 291.718C375.272 291.744 375.365 291.878 375.525 292.118C375.765 292.598 375.885 293.198 375.885 293.918C375.885 295.198 375.552 296.611 374.885 298.158C374.219 299.704 373.379 300.904 372.365 301.758L371.485 300.838ZM384.99 321.838C383.55 321.838 382.484 321.398 381.79 320.518C381.097 319.611 380.75 318.131 380.75 316.078V303.398H378.67V301.718L380.75 301.478L381.83 295.118H383.67V301.438H388.79V303.398H383.67V315.358C383.67 317.091 383.83 318.291 384.15 318.958C384.497 319.598 385.084 319.918 385.91 319.918C386.577 319.918 387.177 319.851 387.71 319.718C388.244 319.584 388.51 319.504 388.51 319.478L388.71 321.078C388.657 321.131 388.484 321.224 388.19 321.358C387.924 321.464 387.51 321.571 386.95 321.678C386.417 321.784 385.764 321.838 384.99 321.838ZM410.373 321.878C408.986 321.878 407.866 321.664 407.013 321.238C406.16 320.784 405.52 320.331 405.093 319.878L404.533 321.438H402.453V291.518L405.373 291.358V303.718H405.413C405.413 303.638 405.6 303.371 405.973 302.918C406.373 302.438 406.96 301.998 407.733 301.598C408.533 301.198 409.533 300.998 410.733 300.998C413.106 300.998 415.013 301.878 416.453 303.638C417.893 305.371 418.613 307.784 418.613 310.878C418.613 314.238 417.906 316.918 416.493 318.918C415.08 320.891 413.04 321.878 410.373 321.878ZM409.613 319.958C411.666 319.958 413.16 319.211 414.093 317.718C415.053 316.198 415.533 313.944 415.533 310.958C415.533 308.184 415.053 306.158 414.093 304.878C413.133 303.571 411.733 302.918 409.893 302.918C408.56 302.918 407.533 303.264 406.813 303.958C406.093 304.651 405.613 305.264 405.373 305.798V318.158C405.56 318.504 406.013 318.891 406.733 319.318C407.453 319.744 408.413 319.958 409.613 319.958ZM424.518 297.398C424.038 297.398 423.651 297.251 423.358 296.958C423.011 296.611 422.838 296.184 422.838 295.678C422.838 295.171 423.011 294.744 423.358 294.398C423.651 294.104 424.038 293.958 424.518 293.958C425.025 293.958 425.425 294.091 425.718 294.358C426.038 294.704 426.198 295.144 426.198 295.678C426.198 296.158 426.038 296.584 425.718 296.958C425.345 297.251 424.945 297.398 424.518 297.398ZM423.038 321.438V301.438H425.958V321.438H423.038ZM431.945 301.438H434.345L434.705 303.358C435.132 302.851 435.799 302.344 436.705 301.838C437.612 301.304 438.919 301.038 440.625 301.038C442.545 301.038 444.039 301.584 445.105 302.678C446.172 303.744 446.705 305.344 446.705 307.478V321.438H443.785V308.078C443.785 306.371 443.439 305.131 442.745 304.358C442.052 303.558 441.025 303.158 439.665 303.158C438.705 303.158 437.865 303.304 437.145 303.598C436.425 303.891 435.852 304.211 435.425 304.558C435.025 304.904 434.825 305.104 434.825 305.158V321.438H431.945V301.438ZM458.934 321.838C456.507 321.838 454.561 320.971 453.094 319.238C451.627 317.504 450.894 315.091 450.894 311.998C450.894 308.664 451.601 306.011 453.014 304.038C454.454 302.038 456.467 301.038 459.054 301.038C460.147 301.038 461.067 301.184 461.814 301.478C462.561 301.744 463.134 302.051 463.534 302.398C463.934 302.718 464.134 302.904 464.134 302.958H464.174V291.518L467.054 291.358V321.438H464.574L464.254 319.078C463.961 319.664 463.387 320.278 462.534 320.918C461.681 321.531 460.481 321.838 458.934 321.838ZM459.574 319.878C460.534 319.878 461.361 319.678 462.054 319.278C462.747 318.851 463.267 318.398 463.614 317.918C463.987 317.438 464.174 317.158 464.174 317.078V304.798C464.174 304.744 463.987 304.558 463.614 304.238C463.267 303.918 462.774 303.624 462.134 303.358C461.521 303.091 460.787 302.958 459.934 302.958C457.881 302.958 456.374 303.718 455.414 305.238C454.454 306.731 453.974 308.958 453.974 311.918C453.974 314.718 454.441 316.744 455.374 317.998C456.334 319.251 457.734 319.878 459.574 319.878ZM487.295 321.838C485.855 321.838 484.788 321.398 484.095 320.518C483.402 319.611 483.055 318.131 483.055 316.078V303.398H480.975V301.718L483.055 301.478L484.135 295.118H485.975V301.438H491.095V303.398H485.975V315.358C485.975 317.091 486.135 318.291 486.455 318.958C486.802 319.598 487.388 319.918 488.215 319.918C488.882 319.918 489.482 319.851 490.015 319.718C490.548 319.584 490.815 319.504 490.815 319.478L491.015 321.078C490.962 321.131 490.788 321.224 490.495 321.358C490.228 321.464 489.815 321.571 489.255 321.678C488.722 321.784 488.068 321.838 487.295 321.838ZM502.422 321.838C499.649 321.838 497.529 320.931 496.062 319.118C494.622 317.304 493.902 314.744 493.902 311.438C493.902 308.131 494.622 305.571 496.062 303.758C497.529 301.944 499.649 301.038 502.422 301.038C505.195 301.038 507.302 301.944 508.742 303.758C510.209 305.571 510.942 308.131 510.942 311.438C510.942 314.718 510.195 317.278 508.702 319.118C507.235 320.931 505.142 321.838 502.422 321.838ZM502.422 320.078C504.289 320.078 505.662 319.371 506.542 317.958C507.422 316.518 507.862 314.344 507.862 311.438C507.862 308.558 507.422 306.398 506.542 304.958C505.662 303.518 504.289 302.798 502.422 302.798C500.555 302.798 499.182 303.518 498.302 304.958C497.422 306.371 496.982 308.531 496.982 311.438C496.982 314.344 497.422 316.518 498.302 317.958C499.182 319.371 500.555 320.078 502.422 320.078ZM322.12 363.838C320.36 363.838 318.947 363.411 317.88 362.558C316.813 361.678 316.28 360.464 316.28 358.918C316.28 354.998 320.053 352.638 327.6 351.838V349.718C327.6 347.824 327.293 346.531 326.68 345.838C326.067 345.144 324.987 344.798 323.44 344.798C322.747 344.798 322.04 344.931 321.32 345.198C320.6 345.438 319.987 345.704 319.48 345.998C319 346.264 318.693 346.438 318.56 346.518L318.24 344.878C318.373 344.771 318.707 344.571 319.24 344.278C319.8 343.984 320.493 343.704 321.32 343.438C322.173 343.171 323.027 343.038 323.88 343.038C326.173 343.038 327.853 343.518 328.92 344.478C329.987 345.438 330.52 347.131 330.52 349.558V359.358C330.52 360.424 330.613 361.144 330.8 361.518C331.013 361.891 331.267 362.078 331.56 362.078C331.8 362.078 332.093 362.038 332.44 361.958C332.787 361.851 333.013 361.771 333.12 361.718L333.24 363.078C333.027 363.158 332.573 363.304 331.88 363.518C331.187 363.731 330.6 363.838 330.12 363.838C329.427 363.838 328.893 363.624 328.52 363.198C328.147 362.744 327.92 361.958 327.84 360.838H327.8C327.8 360.944 327.587 361.251 327.16 361.758C326.733 362.264 326.093 362.744 325.24 363.198C324.413 363.624 323.373 363.838 322.12 363.838ZM323 362.078C323.96 362.078 324.787 361.864 325.48 361.438C326.173 361.011 326.693 360.544 327.04 360.038C327.413 359.531 327.6 359.238 327.6 359.158V353.318C325.173 353.584 323.173 354.104 321.6 354.878C320.053 355.651 319.28 356.878 319.28 358.558C319.28 359.704 319.613 360.584 320.28 361.198C320.947 361.784 321.853 362.078 323 362.078ZM337.063 343.438H339.463L339.823 345.358C340.249 344.851 340.916 344.344 341.823 343.838C342.729 343.304 344.036 343.038 345.743 343.038C347.663 343.038 349.156 343.584 350.223 344.678C351.289 345.744 351.823 347.344 351.823 349.478V363.438H348.903V350.078C348.903 348.371 348.556 347.131 347.863 346.358C347.169 345.558 346.143 345.158 344.783 345.158C343.823 345.158 342.983 345.304 342.263 345.598C341.543 345.891 340.969 346.211 340.543 346.558C340.143 346.904 339.942 347.104 339.942 347.158V363.438H337.063V343.438ZM362.451 363.838C361.011 363.838 359.945 363.398 359.251 362.518C358.558 361.611 358.211 360.131 358.211 358.078V345.398H356.131V343.718L358.211 343.478L359.291 337.118H361.131V343.438H366.251V345.398H361.131V357.358C361.131 359.091 361.291 360.291 361.611 360.958C361.958 361.598 362.545 361.918 363.371 361.918C364.038 361.918 364.638 361.851 365.171 361.718C365.705 361.584 365.971 361.504 365.971 361.478L366.171 363.078C366.118 363.131 365.945 363.224 365.651 363.358C365.385 363.464 364.971 363.571 364.411 363.678C363.878 363.784 363.225 363.838 362.451 363.838ZM372.018 339.398C371.538 339.398 371.151 339.251 370.858 338.958C370.511 338.611 370.338 338.184 370.338 337.678C370.338 337.171 370.511 336.744 370.858 336.398C371.151 336.104 371.538 335.958 372.018 335.958C372.525 335.958 372.925 336.091 373.218 336.358C373.538 336.704 373.698 337.144 373.698 337.678C373.698 338.158 373.538 338.584 373.218 338.958C372.845 339.251 372.445 339.398 372.018 339.398ZM370.538 363.438V343.438H373.458V363.438H370.538ZM387.365 363.878C385.979 363.878 384.859 363.664 384.005 363.238C383.152 362.784 382.512 362.331 382.085 361.878L381.525 363.438H379.445V333.518L382.365 333.358V345.718H382.405C382.405 345.638 382.592 345.371 382.965 344.918C383.365 344.438 383.952 343.998 384.725 343.598C385.525 343.198 386.525 342.998 387.725 342.998C390.099 342.998 392.005 343.878 393.445 345.638C394.885 347.371 395.605 349.784 395.605 352.878C395.605 356.238 394.899 358.918 393.485 360.918C392.072 362.891 390.032 363.878 387.365 363.878ZM386.605 361.958C388.659 361.958 390.152 361.211 391.085 359.718C392.045 358.198 392.525 355.944 392.525 352.958C392.525 350.184 392.045 348.158 391.085 346.878C390.125 345.571 388.725 344.918 386.885 344.918C385.552 344.918 384.525 345.264 383.805 345.958C383.085 346.651 382.605 347.264 382.365 347.798V360.158C382.552 360.504 383.005 360.891 383.725 361.318C384.445 361.744 385.405 361.958 386.605 361.958ZM407.07 363.838C404.297 363.838 402.177 362.931 400.71 361.118C399.27 359.304 398.55 356.744 398.55 353.438C398.55 350.131 399.27 347.571 400.71 345.758C402.177 343.944 404.297 343.038 407.07 343.038C409.844 343.038 411.95 343.944 413.39 345.758C414.857 347.571 415.59 350.131 415.59 353.438C415.59 356.718 414.844 359.278 413.35 361.118C411.884 362.931 409.79 363.838 407.07 363.838ZM407.07 362.078C408.937 362.078 410.31 361.371 411.19 359.958C412.07 358.518 412.51 356.344 412.51 353.438C412.51 350.558 412.07 348.398 411.19 346.958C410.31 345.518 408.937 344.798 407.07 344.798C405.204 344.798 403.83 345.518 402.95 346.958C402.07 348.371 401.63 350.531 401.63 353.438C401.63 356.344 402.07 358.518 402.95 359.958C403.83 361.371 405.204 362.078 407.07 362.078ZM426.629 363.838C424.203 363.838 422.256 362.971 420.789 361.238C419.323 359.504 418.589 357.091 418.589 353.998C418.589 350.664 419.296 348.011 420.709 346.038C422.149 344.038 424.163 343.038 426.749 343.038C427.843 343.038 428.763 343.184 429.509 343.478C430.256 343.744 430.829 344.051 431.229 344.398C431.629 344.718 431.829 344.904 431.829 344.958H431.869V333.518L434.749 333.358V363.438H432.269L431.949 361.078C431.656 361.664 431.083 362.278 430.229 362.918C429.376 363.531 428.176 363.838 426.629 363.838ZM427.269 361.878C428.229 361.878 429.056 361.678 429.749 361.278C430.443 360.851 430.963 360.398 431.309 359.918C431.683 359.438 431.869 359.158 431.869 359.078V346.798C431.869 346.744 431.683 346.558 431.309 346.238C430.963 345.918 430.469 345.624 429.829 345.358C429.216 345.091 428.483 344.958 427.629 344.958C425.576 344.958 424.069 345.718 423.109 347.238C422.149 348.731 421.669 350.958 421.669 353.918C421.669 356.718 422.136 358.744 423.069 359.998C424.029 361.251 425.429 361.878 427.269 361.878ZM440.774 373.838C440.294 373.838 439.881 373.798 439.534 373.718C439.188 373.638 438.921 373.558 438.734 373.478C438.548 373.398 438.428 373.344 438.374 373.318L438.694 371.478C438.774 371.531 438.974 371.598 439.294 371.678C439.614 371.784 439.961 371.838 440.334 371.838C441.561 371.838 442.588 371.171 443.414 369.838C444.241 368.531 445.161 366.478 446.174 363.678L438.334 343.438H441.774L447.694 360.158L453.054 343.438H455.174L448.254 363.758C447.108 367.038 445.974 369.531 444.854 371.238C443.761 372.971 442.401 373.838 440.774 373.838ZM472.959 363.838C471.519 363.838 470.452 363.398 469.759 362.518C469.066 361.611 468.719 360.131 468.719 358.078V345.398H466.639V343.718L468.719 343.478L469.799 337.118H471.639V343.438H476.759V345.398H471.639V357.358C471.639 359.091 471.799 360.291 472.119 360.958C472.466 361.598 473.052 361.918 473.879 361.918C474.546 361.918 475.146 361.851 475.679 361.718C476.212 361.584 476.479 361.504 476.479 361.478L476.679 363.078C476.626 363.131 476.452 363.224 476.159 363.358C475.892 363.464 475.479 363.571 474.919 363.678C474.386 363.784 473.732 363.838 472.959 363.838ZM482.526 339.398C482.046 339.398 481.659 339.251 481.366 338.958C481.019 338.611 480.846 338.184 480.846 337.678C480.846 337.171 481.019 336.744 481.366 336.398C481.659 336.104 482.046 335.958 482.526 335.958C483.033 335.958 483.433 336.091 483.726 336.358C484.046 336.704 484.206 337.144 484.206 337.678C484.206 338.158 484.046 338.584 483.726 338.958C483.353 339.251 482.953 339.398 482.526 339.398ZM481.046 363.438V343.438H483.966V363.438H481.046ZM489.953 363.438V333.518L492.833 333.358V363.438H489.953ZM498.859 363.438V333.518L501.739 333.358V363.438H498.859ZM522.022 363.838C520.582 363.838 519.515 363.398 518.822 362.518C518.128 361.611 517.782 360.131 517.782 358.078V345.398H515.702V343.718L517.782 343.478L518.862 337.118H520.702V343.438H525.822V345.398H520.702V357.358C520.702 359.091 520.862 360.291 521.182 360.958C521.528 361.598 522.115 361.918 522.942 361.918C523.608 361.918 524.208 361.851 524.742 361.718C525.275 361.584 525.542 361.504 525.542 361.478L525.742 363.078C525.688 363.131 525.515 363.224 525.222 363.358C524.955 363.464 524.542 363.571 523.982 363.678C523.448 363.784 522.795 363.838 522.022 363.838ZM530.108 333.518L533.028 333.358V345.238H533.068C533.068 345.238 533.228 345.064 533.548 344.718C533.895 344.344 534.562 343.971 535.548 343.598C536.535 343.224 537.615 343.038 538.788 343.038C540.735 343.038 542.228 343.584 543.268 344.678C544.335 345.744 544.868 347.344 544.868 349.478V363.438H541.988V349.838C541.988 346.718 540.602 345.158 537.828 345.158C536.868 345.158 536.028 345.304 535.308 345.598C534.588 345.891 534.028 346.211 533.628 346.558C533.228 346.904 533.028 347.104 533.028 347.158V363.438H530.108V333.518ZM557.657 363.838C554.991 363.838 552.897 363.011 551.377 361.358C549.857 359.678 549.097 357.171 549.097 353.838C549.097 350.478 549.831 347.838 551.297 345.918C552.764 343.998 554.764 343.038 557.297 343.038C559.591 343.038 561.351 343.838 562.577 345.438C563.831 347.011 564.457 349.251 564.457 352.158C564.457 352.664 564.431 353.078 564.377 353.398C564.324 353.718 564.284 353.918 564.257 353.998H552.137C552.137 359.384 554.084 362.078 557.977 362.078C559.044 362.078 559.951 361.891 560.697 361.518C561.471 361.118 562.071 360.704 562.497 360.278C562.924 359.824 563.137 359.558 563.137 359.478L564.297 360.438C564.297 360.544 564.044 360.891 563.537 361.478C563.031 362.038 562.284 362.571 561.297 363.078C560.311 363.584 559.097 363.838 557.657 363.838ZM561.737 352.318L561.777 351.558C561.777 347.024 560.284 344.758 557.297 344.758C555.724 344.758 554.511 345.384 553.657 346.638C552.804 347.864 552.311 349.758 552.177 352.318H561.737ZM316.4 405.438V403.838L326.64 387.238H317.28L317.16 385.438H330V387.038L319.84 403.638H329.92L330 405.438H316.4ZM336.042 381.398C335.562 381.398 335.175 381.251 334.882 380.958C334.535 380.611 334.362 380.184 334.362 379.678C334.362 379.171 334.535 378.744 334.882 378.398C335.175 378.104 335.562 377.958 336.042 377.958C336.548 377.958 336.948 378.091 337.242 378.358C337.562 378.704 337.722 379.144 337.722 379.678C337.722 380.158 337.562 380.584 337.242 380.958C336.868 381.251 336.468 381.398 336.042 381.398ZM334.562 405.438V385.438H337.482V405.438H334.562ZM343.469 385.438H345.869L346.229 387.838C346.602 387.251 347.242 386.638 348.149 385.998C349.055 385.358 350.309 385.038 351.909 385.038C354.255 385.038 356.122 385.904 357.509 387.638C358.922 389.371 359.629 391.784 359.629 394.878C359.629 398.238 358.922 400.904 357.509 402.878C356.095 404.851 354.095 405.838 351.509 405.838C350.415 405.838 349.482 405.704 348.709 405.438C347.962 405.144 347.389 404.838 346.989 404.518C346.589 404.171 346.389 403.971 346.389 403.918H346.349V415.438L343.469 415.518V385.438ZM350.549 403.918C352.629 403.918 354.149 403.184 355.109 401.718C356.069 400.224 356.549 397.971 356.549 394.958C356.549 392.158 356.069 390.131 355.109 388.878C354.149 387.624 352.762 386.998 350.949 386.998C349.989 386.998 349.162 387.198 348.469 387.598C347.775 387.998 347.242 388.438 346.869 388.918C346.522 389.371 346.349 389.638 346.349 389.718V402.158C346.642 402.531 347.122 402.918 347.789 403.318C348.482 403.718 349.402 403.918 350.549 403.918ZM364.094 385.438H366.494L366.854 387.838C367.227 387.251 367.867 386.638 368.774 385.998C369.68 385.358 370.934 385.038 372.534 385.038C374.88 385.038 376.747 385.904 378.134 387.638C379.547 389.371 380.254 391.784 380.254 394.878C380.254 398.238 379.547 400.904 378.134 402.878C376.72 404.851 374.72 405.838 372.134 405.838C371.04 405.838 370.107 405.704 369.334 405.438C368.587 405.144 368.014 404.838 367.614 404.518C367.214 404.171 367.014 403.971 367.014 403.918H366.974V415.438L364.094 415.518V385.438ZM371.174 403.918C373.254 403.918 374.774 403.184 375.734 401.718C376.694 400.224 377.174 397.971 377.174 394.958C377.174 392.158 376.694 390.131 375.734 388.878C374.774 387.624 373.387 386.998 371.574 386.998C370.614 386.998 369.787 387.198 369.094 387.598C368.4 387.998 367.867 388.438 367.494 388.918C367.147 389.371 366.974 389.638 366.974 389.718V402.158C367.267 402.531 367.747 402.918 368.414 403.318C369.107 403.718 370.027 403.918 371.174 403.918ZM391.759 405.838C389.092 405.838 386.999 405.011 385.479 403.358C383.959 401.678 383.199 399.171 383.199 395.838C383.199 392.478 383.932 389.838 385.399 387.918C386.865 385.998 388.865 385.038 391.399 385.038C393.692 385.038 395.452 385.838 396.679 387.438C397.932 389.011 398.559 391.251 398.559 394.158C398.559 394.664 398.532 395.078 398.479 395.398C398.425 395.718 398.385 395.918 398.359 395.998H386.239C386.239 401.384 388.185 404.078 392.079 404.078C393.145 404.078 394.052 403.891 394.799 403.518C395.572 403.118 396.172 402.704 396.599 402.278C397.025 401.824 397.239 401.558 397.239 401.478L398.399 402.438C398.399 402.544 398.145 402.891 397.639 403.478C397.132 404.038 396.385 404.571 395.399 405.078C394.412 405.584 393.199 405.838 391.759 405.838ZM395.839 394.318L395.879 393.558C395.879 389.024 394.385 386.758 391.399 386.758C389.825 386.758 388.612 387.384 387.759 388.638C386.905 389.864 386.412 391.758 386.279 394.318H395.839ZM402.804 385.438H404.964L405.404 389.558C405.404 389.398 405.55 388.944 405.844 388.198C406.164 387.424 406.644 386.704 407.284 386.038C407.924 385.371 408.75 385.038 409.764 385.038C410.27 385.038 410.844 385.131 411.484 385.318C412.124 385.478 412.537 385.598 412.724 385.678L412.444 387.878C412.257 387.798 411.83 387.678 411.164 387.518C410.524 387.358 409.95 387.278 409.444 387.278C408.67 387.278 408.004 387.544 407.444 388.078C406.91 388.584 406.51 389.131 406.244 389.718C405.977 390.304 405.804 390.744 405.724 391.038V405.438H402.804V385.438ZM426.784 381.398C426.304 381.398 425.917 381.251 425.624 380.958C425.277 380.611 425.104 380.184 425.104 379.678C425.104 379.171 425.277 378.744 425.624 378.398C425.917 378.104 426.304 377.958 426.784 377.958C427.29 377.958 427.69 378.091 427.984 378.358C428.304 378.704 428.464 379.144 428.464 379.678C428.464 380.158 428.304 380.584 427.984 380.958C427.61 381.251 427.21 381.398 426.784 381.398ZM425.304 405.438V385.438H428.224V405.438H425.304ZM439.171 405.838C437.758 405.838 436.558 405.624 435.571 405.198C434.611 404.744 433.878 404.264 433.371 403.758C432.891 403.251 432.651 402.958 432.651 402.878L433.651 401.478C433.651 401.531 433.864 401.784 434.291 402.238C434.718 402.691 435.304 403.118 436.051 403.518C436.798 403.891 437.678 404.078 438.691 404.078C440.184 404.078 441.304 403.704 442.051 402.958C442.824 402.211 443.211 401.304 443.211 400.238C443.211 399.464 443.011 398.824 442.611 398.318C442.238 397.811 441.758 397.424 441.171 397.158C440.611 396.864 439.824 396.544 438.811 396.198C437.638 395.771 436.704 395.384 436.011 395.038C435.318 394.664 434.718 394.118 434.211 393.398C433.731 392.678 433.491 391.744 433.491 390.598C433.491 388.891 434.104 387.544 435.331 386.558C436.584 385.544 438.184 385.038 440.131 385.038C440.984 385.038 441.798 385.158 442.571 385.398C443.371 385.611 444.011 385.851 444.491 386.118C444.971 386.358 445.278 386.518 445.411 386.598L444.931 388.318C444.824 388.238 444.558 388.078 444.131 387.838C443.704 387.571 443.144 387.318 442.451 387.078C441.784 386.838 441.091 386.718 440.371 386.718C439.144 386.718 438.144 387.024 437.371 387.638C436.624 388.251 436.251 389.024 436.251 389.958C436.251 390.731 436.451 391.384 436.851 391.918C437.251 392.424 437.744 392.824 438.331 393.118C438.944 393.411 439.758 393.744 440.771 394.118C441.944 394.518 442.891 394.918 443.611 395.318C444.358 395.691 444.984 396.238 445.491 396.958C445.998 397.678 446.251 398.611 446.251 399.758C446.251 401.491 445.651 402.944 444.451 404.118C443.251 405.264 441.491 405.838 439.171 405.838ZM459.835 385.438H461.995L462.435 389.558C462.435 389.398 462.582 388.944 462.875 388.198C463.195 387.424 463.675 386.704 464.315 386.038C464.955 385.371 465.782 385.038 466.795 385.038C467.302 385.038 467.875 385.131 468.515 385.318C469.155 385.478 469.568 385.598 469.755 385.678L469.475 387.878C469.288 387.798 468.862 387.678 468.195 387.518C467.555 387.358 466.982 387.278 466.475 387.278C465.702 387.278 465.035 387.544 464.475 388.078C463.942 388.584 463.542 389.131 463.275 389.718C463.008 390.304 462.835 390.744 462.755 391.038V405.438H459.835V385.438ZM479.493 405.838C476.826 405.838 474.733 405.011 473.213 403.358C471.693 401.678 470.933 399.171 470.933 395.838C470.933 392.478 471.666 389.838 473.133 387.918C474.6 385.998 476.6 385.038 479.133 385.038C481.426 385.038 483.186 385.838 484.413 387.438C485.666 389.011 486.293 391.251 486.293 394.158C486.293 394.664 486.266 395.078 486.213 395.398C486.16 395.718 486.12 395.918 486.093 395.998H473.973C473.973 401.384 475.92 404.078 479.813 404.078C480.88 404.078 481.786 403.891 482.533 403.518C483.306 403.118 483.906 402.704 484.333 402.278C484.76 401.824 484.973 401.558 484.973 401.478L486.133 402.438C486.133 402.544 485.88 402.891 485.373 403.478C484.866 404.038 484.12 404.571 483.133 405.078C482.146 405.584 480.933 405.838 479.493 405.838ZM483.573 394.318L483.613 393.558C483.613 389.024 482.12 386.758 479.133 386.758C477.56 386.758 476.346 387.384 475.493 388.638C474.64 389.864 474.146 391.758 474.013 394.318H483.573ZM490.578 405.438V375.518L493.458 375.358V405.438H490.578ZM503.604 405.838C501.844 405.838 500.431 405.411 499.364 404.558C498.298 403.678 497.764 402.464 497.764 400.918C497.764 396.998 501.538 394.638 509.084 393.838V391.718C509.084 389.824 508.778 388.531 508.164 387.838C507.551 387.144 506.471 386.798 504.924 386.798C504.231 386.798 503.524 386.931 502.804 387.198C502.084 387.438 501.471 387.704 500.964 387.998C500.484 388.264 500.178 388.438 500.044 388.518L499.724 386.878C499.858 386.771 500.191 386.571 500.724 386.278C501.284 385.984 501.978 385.704 502.804 385.438C503.658 385.171 504.511 385.038 505.364 385.038C507.658 385.038 509.338 385.518 510.404 386.478C511.471 387.438 512.004 389.131 512.004 391.558V401.358C512.004 402.424 512.098 403.144 512.284 403.518C512.498 403.891 512.751 404.078 513.044 404.078C513.284 404.078 513.578 404.038 513.924 403.958C514.271 403.851 514.498 403.771 514.604 403.718L514.724 405.078C514.511 405.158 514.058 405.304 513.364 405.518C512.671 405.731 512.084 405.838 511.604 405.838C510.911 405.838 510.378 405.624 510.004 405.198C509.631 404.744 509.404 403.958 509.324 402.838H509.284C509.284 402.944 509.071 403.251 508.644 403.758C508.218 404.264 507.578 404.744 506.724 405.198C505.898 405.624 504.858 405.838 503.604 405.838ZM504.484 404.078C505.444 404.078 506.271 403.864 506.964 403.438C507.658 403.011 508.178 402.544 508.524 402.038C508.898 401.531 509.084 401.238 509.084 401.158V395.318C506.658 395.584 504.658 396.104 503.084 396.878C501.538 397.651 500.764 398.878 500.764 400.558C500.764 401.704 501.098 402.584 501.764 403.198C502.431 403.784 503.338 404.078 504.484 404.078ZM516.027 405.438L522.667 395.478L516.347 385.438H519.787L524.707 393.798L529.867 385.438H532.227L526.027 394.998L532.747 405.438H529.347L523.987 396.798L518.427 405.438H516.027ZM543.321 405.838C540.655 405.838 538.561 405.011 537.041 403.358C535.521 401.678 534.761 399.171 534.761 395.838C534.761 392.478 535.495 389.838 536.961 387.918C538.428 385.998 540.428 385.038 542.961 385.038C545.255 385.038 547.015 385.838 548.241 387.438C549.495 389.011 550.121 391.251 550.121 394.158C550.121 394.664 550.095 395.078 550.041 395.398C549.988 395.718 549.948 395.918 549.921 395.998H537.801C537.801 401.384 539.748 404.078 543.641 404.078C544.708 404.078 545.615 403.891 546.361 403.518C547.135 403.118 547.735 402.704 548.161 402.278C548.588 401.824 548.801 401.558 548.801 401.478L549.961 402.438C549.961 402.544 549.708 402.891 549.201 403.478C548.695 404.038 547.948 404.571 546.961 405.078C545.975 405.584 544.761 405.838 543.321 405.838ZM547.401 394.318L547.441 393.558C547.441 389.024 545.948 386.758 542.961 386.758C541.388 386.758 540.175 387.384 539.321 388.638C538.468 389.864 537.975 391.758 537.841 394.318H547.401ZM560.926 405.838C558.5 405.838 556.553 404.971 555.086 403.238C553.62 401.504 552.886 399.091 552.886 395.998C552.886 392.664 553.593 390.011 555.006 388.038C556.446 386.038 558.46 385.038 561.046 385.038C562.14 385.038 563.06 385.184 563.806 385.478C564.553 385.744 565.126 386.051 565.526 386.398C565.926 386.718 566.126 386.904 566.126 386.958H566.166V375.518L569.046 375.358V405.438H566.566L566.246 403.078C565.953 403.664 565.38 404.278 564.526 404.918C563.673 405.531 562.473 405.838 560.926 405.838ZM561.566 403.878C562.526 403.878 563.353 403.678 564.046 403.278C564.74 402.851 565.26 402.398 565.606 401.918C565.98 401.438 566.166 401.158 566.166 401.078V388.798C566.166 388.744 565.98 388.558 565.606 388.238C565.26 387.918 564.766 387.624 564.126 387.358C563.513 387.091 562.78 386.958 561.926 386.958C559.873 386.958 558.366 387.718 557.406 389.238C556.446 390.731 555.966 392.958 555.966 395.918C555.966 398.718 556.433 400.744 557.366 401.998C558.326 403.251 559.726 403.878 561.566 403.878Z" fill="black"/>
<path d="M478.089 36.4C475.422 36.4 473.329 35.5733 471.809 33.92C470.289 32.24 469.529 29.7333 469.529 26.4C469.529 23.04 470.262 20.4 471.729 18.48C473.195 16.56 475.195 15.6 477.729 15.6C480.022 15.6 481.782 16.4 483.009 18C484.262 19.5733 484.889 21.8133 484.889 24.72C484.889 25.2267 484.862 25.64 484.809 25.96C484.755 26.28 484.715 26.48 484.689 26.56H472.569C472.569 31.9467 474.515 34.64 478.409 34.64C479.475 34.64 480.382 34.4533 481.129 34.08C481.902 33.68 482.502 33.2667 482.929 32.84C483.355 32.3867 483.569 32.12 483.569 32.04L484.729 33C484.729 33.1067 484.475 33.4533 483.969 34.04C483.462 34.6 482.715 35.1333 481.729 35.64C480.742 36.1467 479.529 36.4 478.089 36.4ZM482.169 24.88L482.209 24.12C482.209 19.5867 480.715 17.32 477.729 17.32C476.155 17.32 474.942 17.9467 474.089 19.2C473.235 20.4267 472.742 22.32 472.609 24.88H482.169ZM489.174 16H491.574L491.934 18.4C492.307 17.8133 492.947 17.2 493.854 16.56C494.76 15.92 496.014 15.6 497.614 15.6C499.96 15.6 501.827 16.4667 503.214 18.2C504.627 19.9333 505.334 22.3467 505.334 25.44C505.334 28.8 504.627 31.4667 503.214 33.44C501.8 35.4133 499.8 36.4 497.214 36.4C496.12 36.4 495.187 36.2667 494.414 36C493.667 35.7067 493.094 35.4 492.694 35.08C492.294 34.7333 492.094 34.5333 492.094 34.48H492.054V46L489.174 46.08V16ZM496.254 34.48C498.334 34.48 499.854 33.7467 500.814 32.28C501.774 30.7867 502.254 28.5333 502.254 25.52C502.254 22.72 501.774 20.6933 500.814 19.44C499.854 18.1867 498.467 17.56 496.654 17.56C495.694 17.56 494.867 17.76 494.174 18.16C493.48 18.56 492.947 19 492.574 19.48C492.227 19.9333 492.054 20.2 492.054 20.28V32.72C492.347 33.0933 492.827 33.48 493.494 33.88C494.187 34.28 495.107 34.48 496.254 34.48ZM511.239 11.96C510.759 11.96 510.372 11.8133 510.079 11.52C509.732 11.1733 509.559 10.7467 509.559 10.24C509.559 9.73333 509.732 9.30666 510.079 8.96C510.372 8.66666 510.759 8.52 511.239 8.52C511.745 8.52 512.145 8.65333 512.439 8.92C512.759 9.26667 512.919 9.70667 512.919 10.24C512.919 10.72 512.759 11.1467 512.439 11.52C512.065 11.8133 511.665 11.96 511.239 11.96ZM509.759 36V16H512.679V36H509.759ZM523.586 36.4C522.146 36.4 521.079 35.96 520.386 35.08C519.693 34.1733 519.346 32.6933 519.346 30.64V17.96H517.266V16.28L519.346 16.04L520.426 9.68H522.266V16H527.386V17.96H522.266V29.92C522.266 31.6533 522.426 32.8533 522.746 33.52C523.093 34.16 523.679 34.48 524.506 34.48C525.173 34.48 525.773 34.4133 526.306 34.28C526.839 34.1467 527.106 34.0667 527.106 34.04L527.306 35.64C527.253 35.6933 527.079 35.7867 526.786 35.92C526.519 36.0267 526.106 36.1333 525.546 36.24C525.013 36.3467 524.359 36.4 523.586 36.4ZM538.713 36.4C535.94 36.4 533.82 35.4933 532.353 33.68C530.913 31.8667 530.193 29.3067 530.193 26C530.193 22.6933 530.913 20.1333 532.353 18.32C533.82 16.5067 535.94 15.6 538.713 15.6C541.486 15.6 543.593 16.5067 545.033 18.32C546.5 20.1333 547.233 22.6933 547.233 26C547.233 29.28 546.486 31.84 544.993 33.68C543.526 35.4933 541.433 36.4 538.713 36.4ZM538.713 34.64C540.58 34.64 541.953 33.9333 542.833 32.52C543.713 31.08 544.153 28.9067 544.153 26C544.153 23.12 543.713 20.96 542.833 19.52C541.953 18.08 540.58 17.36 538.713 17.36C536.846 17.36 535.473 18.08 534.593 19.52C533.713 20.9333 533.273 23.0933 533.273 26C533.273 28.9067 533.713 31.08 534.593 32.52C535.473 33.9333 536.846 34.64 538.713 34.64ZM551.752 16H554.152L554.512 18.4C554.885 17.8133 555.525 17.2 556.432 16.56C557.339 15.92 558.592 15.6 560.192 15.6C562.539 15.6 564.405 16.4667 565.792 18.2C567.205 19.9333 567.912 22.3467 567.912 25.44C567.912 28.8 567.205 31.4667 565.792 33.44C564.379 35.4133 562.379 36.4 559.792 36.4C558.699 36.4 557.765 36.2667 556.992 36C556.245 35.7067 555.672 35.4 555.272 35.08C554.872 34.7333 554.672 34.5333 554.672 34.48H554.632V46L551.752 46.08V16ZM558.832 34.48C560.912 34.48 562.432 33.7467 563.392 32.28C564.352 30.7867 564.832 28.5333 564.832 25.52C564.832 22.72 564.352 20.6933 563.392 19.44C562.432 18.1867 561.045 17.56 559.232 17.56C558.272 17.56 557.445 17.76 556.752 18.16C556.059 18.56 555.525 19 555.152 19.48C554.805 19.9333 554.632 20.2 554.632 20.28V32.72C554.925 33.0933 555.405 33.48 556.072 33.88C556.765 34.28 557.685 34.48 558.832 34.48ZM579.417 36.4C576.75 36.4 574.657 35.5733 573.137 33.92C571.617 32.24 570.857 29.7333 570.857 26.4C570.857 23.04 571.59 20.4 573.057 18.48C574.524 16.56 576.524 15.6 579.057 15.6C581.35 15.6 583.11 16.4 584.337 18C585.59 19.5733 586.217 21.8133 586.217 24.72C586.217 25.2267 586.19 25.64 586.137 25.96C586.084 26.28 586.044 26.48 586.017 26.56H573.897C573.897 31.9467 575.844 34.64 579.737 34.64C580.804 34.64 581.71 34.4533 582.457 34.08C583.23 33.68 583.83 33.2667 584.257 32.84C584.684 32.3867 584.897 32.12 584.897 32.04L586.057 33C586.057 33.1067 585.804 33.4533 585.297 34.04C584.79 34.6 584.044 35.1333 583.057 35.64C582.07 36.1467 580.857 36.4 579.417 36.4ZM583.497 24.88L583.537 24.12C583.537 19.5867 582.044 17.32 579.057 17.32C577.484 17.32 576.27 17.9467 575.417 19.2C574.564 20.4267 574.07 22.32 573.937 24.88H583.497Z" fill="black"/>
<path d="M121.978 655.566H133.858C139.458 655.566 143.798 657.266 146.878 660.666C149.998 664.026 151.558 668.866 151.558 675.186C151.558 681.466 150.018 686.266 146.938 689.586C143.898 692.906 139.538 694.566 133.858 694.566H121.978V655.566ZM133.918 691.686C142.398 691.686 146.638 686.186 146.638 675.186C146.638 664.026 142.378 658.446 133.858 658.446H126.538V691.686H133.918ZM174.345 695.166C168.945 695.166 164.745 693.426 161.745 689.946C158.745 686.426 157.245 681.586 157.245 675.426C157.245 671.306 157.925 667.706 159.285 664.626C160.685 661.546 162.645 659.186 165.165 657.546C167.725 655.866 170.685 655.026 174.045 655.026C175.885 655.026 177.645 655.266 179.325 655.746C181.045 656.226 182.505 656.766 183.705 657.366C184.905 657.966 185.505 658.286 185.505 658.326L184.965 661.206C184.965 661.166 184.385 660.866 183.225 660.306C182.065 659.746 180.705 659.226 179.145 658.746C177.625 658.266 176.085 658.026 174.525 658.026C170.645 658.026 167.605 659.506 165.405 662.466C163.205 665.386 162.105 669.666 162.105 675.306C162.105 680.866 163.225 685.066 165.465 687.906C167.705 690.746 170.845 692.166 174.885 692.166C177.005 692.166 178.865 691.726 180.465 690.846C182.065 689.966 183.325 689.026 184.245 688.026C185.205 687.026 185.685 686.446 185.685 686.286L187.365 688.206C187.365 688.406 186.845 689.106 185.805 690.306C184.765 691.466 183.265 692.566 181.305 693.606C179.385 694.646 177.065 695.166 174.345 695.166ZM191.284 702.906C192.524 701.746 193.524 700.266 194.284 698.466C195.044 696.706 195.404 695.086 195.364 693.606H195.184C194.544 693.606 193.964 693.386 193.444 692.946C192.964 692.466 192.724 691.846 192.724 691.086C192.724 690.366 192.964 689.746 193.444 689.226C193.884 688.826 194.444 688.626 195.124 688.626C195.844 688.626 196.424 688.826 196.864 689.226L197.164 689.646C197.604 690.286 197.824 691.246 197.824 692.526C197.824 694.446 197.324 696.566 196.324 698.886C195.324 701.206 194.064 702.986 192.544 704.226L191.284 702.906ZM221.763 694.566V655.566H226.323V694.566H221.763ZM237.642 694.566V655.566H242.202V691.686H259.542V694.566H237.642ZM280.224 695.166C274.824 695.166 270.624 693.426 267.624 689.946C264.624 686.426 263.124 681.586 263.124 675.426C263.124 671.306 263.804 667.706 265.164 664.626C266.564 661.546 268.524 659.186 271.044 657.546C273.604 655.866 276.564 655.026 279.924 655.026C281.764 655.026 283.524 655.266 285.204 655.746C286.924 656.226 288.384 656.766 289.584 657.366C290.784 657.966 291.384 658.286 291.384 658.326L290.844 661.206C290.844 661.166 290.264 660.866 289.104 660.306C287.944 659.746 286.584 659.226 285.024 658.746C283.504 658.266 281.964 658.026 280.404 658.026C276.524 658.026 273.484 659.506 271.284 662.466C269.084 665.386 267.984 669.666 267.984 675.306C267.984 680.866 269.104 685.066 271.344 687.906C273.584 690.746 276.724 692.166 280.764 692.166C282.884 692.166 284.744 691.726 286.344 690.846C287.944 689.966 289.204 689.026 290.124 688.026C291.084 687.026 291.564 686.446 291.564 686.286L293.244 688.206C293.244 688.406 292.724 689.106 291.684 690.306C290.644 691.466 289.144 692.566 287.184 693.606C285.264 694.646 282.944 695.166 280.224 695.166ZM297.163 702.906C298.403 701.746 299.403 700.266 300.163 698.466C300.923 696.706 301.283 695.086 301.243 693.606H301.063C300.423 693.606 299.843 693.386 299.323 692.946C298.843 692.466 298.603 691.846 298.603 691.086C298.603 690.366 298.843 689.746 299.323 689.226C299.763 688.826 300.323 688.626 301.003 688.626C301.723 688.626 302.303 688.826 302.743 689.226L303.043 689.646C303.483 690.286 303.703 691.246 303.703 692.526C303.703 694.446 303.203 696.566 302.203 698.886C301.203 701.206 299.943 702.986 298.423 704.226L297.163 702.906ZM327.642 694.566V655.566H332.382L352.302 687.726L352.122 686.286V655.566H355.422V694.566H351.462L330.702 661.326H330.642L330.942 663.186V694.566H327.642ZM366.724 694.566V655.566H371.284V676.806L376.024 672.606L389.164 655.566H392.824L379.144 672.966L394.684 694.566H388.984L375.784 676.446L371.284 680.226V694.566H366.724ZM425.073 695.166C420.913 695.166 417.713 693.886 415.473 691.326C413.233 688.766 412.113 684.946 412.113 679.866C412.113 674.746 413.213 670.826 415.413 668.106C417.653 665.346 420.913 663.966 425.193 663.966C426.593 663.966 427.913 664.166 429.153 664.566C430.393 664.926 431.433 665.346 432.273 665.826C433.153 666.266 433.593 666.506 433.593 666.546L433.053 669.006C432.893 668.886 432.453 668.646 431.733 668.286C431.053 667.886 430.153 667.506 429.033 667.146C427.953 666.786 426.833 666.606 425.673 666.606C422.593 666.606 420.333 667.626 418.893 669.666C417.453 671.706 416.733 675.086 416.733 679.806C416.733 684.366 417.493 687.626 419.013 689.586C420.533 691.546 422.673 692.526 425.433 692.526C426.993 692.526 428.313 692.246 429.393 691.686C430.513 691.126 431.373 690.546 431.973 689.946C432.573 689.306 432.873 688.926 432.873 688.806L434.793 690.066C434.793 690.226 434.433 690.746 433.713 691.626C432.993 692.466 431.913 693.266 430.473 694.026C429.033 694.786 427.233 695.166 425.073 695.166ZM450.324 695.166C446.324 695.166 443.184 693.926 440.904 691.446C438.624 688.926 437.484 685.166 437.484 680.166C437.484 675.126 438.584 671.166 440.784 668.286C442.984 665.406 445.984 663.966 449.784 663.966C453.224 663.966 455.864 665.166 457.704 667.566C459.584 669.926 460.524 673.286 460.524 677.646C460.524 678.406 460.484 679.026 460.404 679.506C460.324 679.986 460.264 680.286 460.224 680.406H442.044C442.044 688.486 444.964 692.526 450.804 692.526C452.404 692.526 453.764 692.246 454.884 691.686C456.044 691.086 456.944 690.466 457.584 689.826C458.224 689.146 458.544 688.746 458.544 688.626L460.284 690.066C460.284 690.226 459.904 690.746 459.144 691.626C458.384 692.466 457.264 693.266 455.784 694.026C454.304 694.786 452.484 695.166 450.324 695.166ZM456.444 677.886L456.504 676.746C456.504 669.946 454.264 666.546 449.784 666.546C447.424 666.546 445.604 667.486 444.324 669.366C443.044 671.206 442.304 674.046 442.104 677.886H456.444ZM466.951 694.566V649.686L471.271 649.446V694.566H466.951ZM480.311 694.566V649.686L484.631 649.446V694.566H480.311ZM501.11 695.166C498.99 695.166 497.19 694.846 495.71 694.206C494.27 693.526 493.17 692.806 492.41 692.046C491.69 691.286 491.33 690.846 491.33 690.726L492.83 688.626C492.83 688.706 493.15 689.086 493.79 689.766C494.43 690.446 495.31 691.086 496.43 691.686C497.55 692.246 498.87 692.526 500.39 692.526C502.63 692.526 504.31 691.966 505.43 690.846C506.59 689.726 507.17 688.366 507.17 686.766C507.17 685.606 506.87 684.646 506.27 683.886C505.71 683.126 504.99 682.546 504.11 682.146C503.27 681.706 502.09 681.226 500.57 680.706C498.81 680.066 497.41 679.486 496.37 678.966C495.33 678.406 494.43 677.586 493.67 676.506C492.95 675.426 492.59 674.026 492.59 672.306C492.59 669.746 493.51 667.726 495.35 666.246C497.23 664.726 499.63 663.966 502.55 663.966C503.83 663.966 505.05 664.146 506.21 664.506C507.41 664.826 508.37 665.186 509.09 665.586C509.81 665.946 510.27 666.186 510.47 666.306L509.75 668.886C509.59 668.766 509.19 668.526 508.55 668.166C507.91 667.766 507.07 667.386 506.03 667.026C505.03 666.666 503.99 666.486 502.91 666.486C501.07 666.486 499.57 666.946 498.41 667.866C497.29 668.786 496.73 669.946 496.73 671.346C496.73 672.506 497.03 673.486 497.63 674.286C498.23 675.046 498.97 675.646 499.85 676.086C500.77 676.526 501.99 677.026 503.51 677.586C505.27 678.186 506.69 678.786 507.77 679.386C508.89 679.946 509.83 680.766 510.59 681.846C511.35 682.926 511.73 684.326 511.73 686.046C511.73 688.646 510.83 690.826 509.03 692.586C507.23 694.306 504.59 695.166 501.11 695.166Z" fill="black"/>
</g>
<defs>
<clipPath id="clip0_102_3193">
<rect width="630" height="721" fill="white"/>
</clipPath>
</defs>
</svg>
