<svg width="550" height="128" viewBox="0 0 550 128" fill="none" xmlns="http://www.w3.org/2000/svg">
<g clip-path="url(#clip0_237_1618)">
<path d="M1.55411 96.5V6.74L10.1941 6.26V96.5H1.55411ZM45.6729 97.7C37.3529 97.7 30.9929 94.98 26.5929 89.54C22.2729 84.1 20.1129 76.42 20.1129 66.5C20.1129 56.58 22.2729 48.9 26.5929 43.46C30.9929 38.02 37.3529 35.3 45.6729 35.3C53.9929 35.3 60.3129 38.02 64.6329 43.46C69.0329 48.9 71.2329 56.58 71.2329 66.5C71.2329 76.34 68.9929 84.02 64.5129 89.54C60.1129 94.98 53.8329 97.7 45.6729 97.7ZM45.6729 92.42C51.2729 92.42 55.3929 90.3 58.0329 86.06C60.6729 81.74 61.9929 75.22 61.9929 66.5C61.9929 57.86 60.6729 51.38 58.0329 47.06C55.3929 42.74 51.2729 40.58 45.6729 40.58C40.0729 40.58 35.9529 42.74 33.3129 47.06C30.6729 51.3 29.3529 57.78 29.3529 66.5C29.3529 75.22 30.6729 81.74 33.3129 86.06C35.9529 90.3 40.0729 92.42 45.6729 92.42ZM100.51 127.7C92.03 127.7 85.59 126.02 81.19 122.66C76.79 119.38 74.59 114.54 74.59 108.14C74.59 103.98 75.51 100.62 77.35 98.06C79.27 95.5 81.67 93.62 84.55 92.42C83.11 90.74 82.39 88.38 82.39 85.34C82.39 81.42 84.23 78.06 87.91 75.26C84.71 73.58 82.23 71.18 80.47 68.06C78.71 64.86 77.83 61.02 77.83 56.54C77.83 49.26 79.87 43.9 83.95 40.46C88.11 37.02 93.43 35.3 99.91 35.3C103.03 35.3 105.79 35.7 108.19 36.5L123.67 36.62V41.3L115.99 41.54C119.19 45.14 120.79 50.14 120.79 56.54C120.79 63.42 118.91 68.7 115.15 72.38C111.47 76.06 106.35 77.9 99.79 77.9C97.07 77.9 94.63 77.62 92.47 77.06C89.67 78.9 88.27 80.98 88.27 83.3C88.27 85.46 89.15 86.98 90.91 87.86C92.67 88.66 95.51 89.06 99.43 89.06C116.95 89.06 125.71 95.22 125.71 107.54C125.71 114.1 123.51 119.1 119.11 122.54C114.79 125.98 108.59 127.7 100.51 127.7ZM99.5501 73.1C108.03 73.1 112.27 67.54 112.27 56.42C112.27 50.66 111.15 46.58 108.91 44.18C106.67 41.7 103.51 40.46 99.43 40.46C95.35 40.46 92.11 41.66 89.71 44.06C87.39 46.46 86.23 50.62 86.23 56.54C86.23 61.98 87.39 66.1 89.71 68.9C92.03 71.7 95.31 73.1 99.5501 73.1ZM100.51 122.3C106.11 122.3 110.43 121.14 113.47 118.82C116.51 116.58 118.03 113.3 118.03 108.98C118.03 100.58 111.51 96.38 98.47 96.38C94.71 96.38 91.71 96.06 89.47 95.42C87.07 96.38 85.11 97.9 83.59 99.98C82.15 102.14 81.43 104.82 81.43 108.02C81.43 112.82 83.07 116.38 86.35 118.7C89.71 121.1 94.43 122.3 100.51 122.3ZM136.051 24.38C134.611 24.38 133.451 23.94 132.571 23.06C131.531 22.02 131.011 20.74 131.011 19.22C131.011 17.7 131.531 16.42 132.571 15.38C133.451 14.5 134.611 14.06 136.051 14.06C137.571 14.06 138.771 14.46 139.651 15.26C140.611 16.3 141.091 17.62 141.091 19.22C141.091 20.66 140.611 21.94 139.651 23.06C138.531 23.94 137.331 24.38 136.051 24.38ZM131.611 96.5V36.5H140.371V96.5H131.611ZM176.092 97.7C167.772 97.7 161.372 95.14 156.892 90.02C152.412 84.9 150.172 77.26 150.172 67.1C150.172 56.86 152.372 49.02 156.772 43.58C161.252 38.06 167.772 35.3 176.332 35.3C179.132 35.3 181.772 35.7 184.252 36.5C186.732 37.22 188.812 38.06 190.492 39.02C192.252 39.9 193.132 40.38 193.132 40.46L192.052 45.38C191.732 45.14 190.852 44.66 189.412 43.94C188.052 43.14 186.252 42.38 184.012 41.66C181.852 40.94 179.612 40.58 177.292 40.58C171.132 40.58 166.612 42.62 163.732 46.7C160.852 50.78 159.412 57.54 159.412 66.98C159.412 76.1 160.932 82.62 163.972 86.54C167.012 90.46 171.292 92.42 176.812 92.42C179.932 92.42 182.572 91.86 184.732 90.74C186.972 89.62 188.692 88.46 189.892 87.26C191.092 85.98 191.692 85.22 191.692 84.98L195.532 87.5C195.532 87.82 194.812 88.86 193.372 90.62C191.932 92.3 189.772 93.9 186.892 95.42C184.012 96.94 180.412 97.7 176.092 97.7ZM221.194 127.7C212.714 127.7 206.274 126.02 201.874 122.66C197.474 119.38 195.274 114.54 195.274 108.14C195.274 103.98 196.194 100.62 198.034 98.06C199.954 95.5 202.354 93.62 205.234 92.42C203.794 90.74 203.074 88.38 203.074 85.34C203.074 81.42 204.914 78.06 208.594 75.26C205.394 73.58 202.914 71.18 201.154 68.06C199.394 64.86 198.514 61.02 198.514 56.54C198.514 49.26 200.554 43.9 204.634 40.46C208.794 37.02 214.114 35.3 220.594 35.3C223.714 35.3 226.474 35.7 228.874 36.5L244.354 36.62V41.3L236.674 41.54C239.874 45.14 241.474 50.14 241.474 56.54C241.474 63.42 239.594 68.7 235.834 72.38C232.154 76.06 227.034 77.9 220.474 77.9C217.754 77.9 215.314 77.62 213.154 77.06C210.354 78.9 208.954 80.98 208.954 83.3C208.954 85.46 209.834 86.98 211.594 87.86C213.354 88.66 216.194 89.06 220.114 89.06C237.634 89.06 246.394 95.22 246.394 107.54C246.394 114.1 244.194 119.1 239.794 122.54C235.474 125.98 229.274 127.7 221.194 127.7ZM220.234 73.1C228.714 73.1 232.954 67.54 232.954 56.42C232.954 50.66 231.834 46.58 229.594 44.18C227.354 41.7 224.194 40.46 220.114 40.46C216.034 40.46 212.794 41.66 210.394 44.06C208.074 46.46 206.914 50.62 206.914 56.54C206.914 61.98 208.074 66.1 210.394 68.9C212.714 71.7 215.994 73.1 220.234 73.1ZM221.194 122.3C226.794 122.3 231.114 121.14 234.154 118.82C237.194 116.58 238.714 113.3 238.714 108.98C238.714 100.58 232.194 96.38 219.154 96.38C215.394 96.38 212.394 96.06 210.154 95.42C207.754 96.38 205.794 97.9 204.274 99.98C202.834 102.14 202.114 104.82 202.114 108.02C202.114 112.82 203.754 116.38 207.034 118.7C210.394 121.1 215.114 122.3 221.194 122.3ZM264.775 97.7C259.495 97.7 255.255 96.42 252.055 93.86C248.855 91.22 247.255 87.58 247.255 82.94C247.255 71.18 258.575 64.1 281.215 61.7V55.34C281.215 49.66 280.295 45.78 278.455 43.7C276.615 41.62 273.375 40.58 268.735 40.58C266.655 40.58 264.535 40.98 262.375 41.78C260.215 42.5 258.375 43.3 256.855 44.18C255.415 44.98 254.495 45.5 254.095 45.74L253.135 40.82C253.535 40.5 254.535 39.9 256.135 39.02C257.815 38.14 259.895 37.3 262.375 36.5C264.935 35.7 267.495 35.3 270.055 35.3C276.935 35.3 281.975 36.74 285.175 39.62C288.375 42.5 289.975 47.58 289.975 54.86V84.26C289.975 87.46 290.255 89.62 290.815 90.74C291.455 91.86 292.215 92.42 293.095 92.42C293.815 92.42 294.695 92.3 295.735 92.06C296.775 91.74 297.455 91.5 297.775 91.34L298.135 95.42C297.495 95.66 296.135 96.1 294.055 96.74C291.975 97.38 290.215 97.7 288.775 97.7C286.695 97.7 285.095 97.06 283.975 95.78C282.855 94.42 282.175 92.06 281.935 88.7H281.815C281.815 89.02 281.175 89.94 279.895 91.46C278.615 92.98 276.695 94.42 274.135 95.78C271.655 97.06 268.535 97.7 264.775 97.7ZM267.415 92.42C270.295 92.42 272.775 91.78 274.855 90.5C276.935 89.22 278.495 87.82 279.535 86.3C280.655 84.78 281.215 83.9 281.215 83.66V66.14C273.935 66.94 267.935 68.5 263.215 70.82C258.575 73.14 256.255 76.82 256.255 81.86C256.255 85.3 257.255 87.94 259.255 89.78C261.255 91.54 263.975 92.42 267.415 92.42ZM320.763 97.7C316.443 97.7 313.243 96.38 311.163 93.74C309.083 91.02 308.043 86.58 308.043 80.42V42.38H301.803V37.34L308.043 36.62L311.283 17.54H316.803V36.5H332.163V42.38H316.803V78.26C316.803 83.46 317.283 87.06 318.243 89.06C319.283 90.98 321.043 91.94 323.523 91.94C325.523 91.94 327.323 91.74 328.923 91.34C330.523 90.94 331.323 90.7 331.323 90.62L331.923 95.42C331.763 95.58 331.243 95.86 330.363 96.26C329.563 96.58 328.323 96.9 326.643 97.22C325.043 97.54 323.083 97.7 320.763 97.7ZM362.663 97.7C354.663 97.7 348.383 95.22 343.823 90.26C339.263 85.22 336.983 77.7 336.983 67.7C336.983 57.62 339.183 49.7 343.583 43.94C347.983 38.18 353.983 35.3 361.583 35.3C368.463 35.3 373.743 37.7 377.423 42.5C381.183 47.22 383.063 53.94 383.063 62.66C383.063 64.18 382.983 65.42 382.823 66.38C382.663 67.34 382.543 67.94 382.463 68.18H346.103C346.103 84.34 351.943 92.42 363.623 92.42C366.823 92.42 369.543 91.86 371.783 90.74C374.103 89.54 375.903 88.3 377.183 87.02C378.463 85.66 379.103 84.86 379.103 84.62L382.583 87.5C382.583 87.82 381.823 88.86 380.303 90.62C378.783 92.3 376.543 93.9 373.583 95.42C370.623 96.94 366.983 97.7 362.663 97.7ZM374.903 63.14L375.023 60.86C375.023 47.26 370.543 40.46 361.583 40.46C356.863 40.46 353.223 42.34 350.663 46.1C348.103 49.78 346.623 55.46 346.223 63.14H374.903ZM397.718 97.58C396.358 97.58 395.118 97.1 393.998 96.14C392.878 95.1 392.318 93.74 392.318 92.06C392.318 90.38 392.878 89.02 393.998 87.98C395.118 87.02 396.358 86.54 397.718 86.54C399.238 86.54 400.518 87.02 401.558 87.98C402.598 89.02 403.118 90.38 403.118 92.06C403.118 93.74 402.598 95.1 401.558 96.14C400.438 97.1 399.158 97.58 397.718 97.58ZM441.658 97.82C437.498 97.82 434.138 97.18 431.578 95.9C429.018 94.54 427.098 93.18 425.818 91.82L424.138 96.5H417.898V6.74L426.658 6.26V43.34H426.778C426.778 43.1 427.338 42.3 428.458 40.94C429.658 39.5 431.418 38.18 433.738 36.98C436.138 35.78 439.138 35.18 442.738 35.18C449.858 35.18 455.578 37.82 459.898 43.1C464.218 48.3 466.378 55.54 466.378 64.82C466.378 74.9 464.258 82.94 460.018 88.94C455.778 94.86 449.658 97.82 441.658 97.82ZM439.378 92.06C445.538 92.06 450.018 89.82 452.818 85.34C455.698 80.78 457.138 74.02 457.138 65.06C457.138 56.74 455.698 50.66 452.818 46.82C449.938 42.9 445.738 40.94 440.218 40.94C436.218 40.94 433.138 41.98 430.978 44.06C428.818 46.14 427.378 47.98 426.658 49.58V86.66C427.218 87.7 428.578 88.86 430.738 90.14C432.898 91.42 435.778 92.06 439.378 92.06ZM480.493 24.38C479.053 24.38 477.893 23.94 477.013 23.06C475.973 22.02 475.453 20.74 475.453 19.22C475.453 17.7 475.973 16.42 477.013 15.38C477.893 14.5 479.053 14.06 480.493 14.06C482.013 14.06 483.213 14.46 484.093 15.26C485.053 16.3 485.533 17.62 485.533 19.22C485.533 20.66 485.053 21.94 484.093 23.06C482.973 23.94 481.773 24.38 480.493 24.38ZM476.053 96.5V36.5H484.813V96.5H476.053ZM520.174 97.7C511.854 97.7 505.494 94.98 501.094 89.54C496.774 84.1 494.614 76.42 494.614 66.5C494.614 56.58 496.774 48.9 501.094 43.46C505.494 38.02 511.854 35.3 520.174 35.3C528.494 35.3 534.814 38.02 539.134 43.46C543.534 48.9 545.734 56.58 545.734 66.5C545.734 76.34 543.494 84.02 539.014 89.54C534.614 94.98 528.334 97.7 520.174 97.7ZM520.174 92.42C525.774 92.42 529.894 90.3 532.534 86.06C535.174 81.74 536.494 75.22 536.494 66.5C536.494 57.86 535.174 51.38 532.534 47.06C529.894 42.74 525.774 40.58 520.174 40.58C514.574 40.58 510.454 42.74 507.814 47.06C505.174 51.3 503.854 57.78 503.854 66.5C503.854 75.22 505.174 81.74 507.814 86.06C510.454 90.3 514.574 92.42 520.174 92.42Z" fill="black"/>
</g>
<defs>
<clipPath id="clip0_237_1618">
<rect width="550" height="128" fill="white"/>
</clipPath>
</defs>
</svg>
