<svg width="229" height="113" viewBox="0 0 229 113" fill="none" xmlns="http://www.w3.org/2000/svg" style=":root {--line-color: #2F2D34;}">
<style>
  :root {
    --line-color: #2F2D34;
  }

  @media (prefers-color-scheme: dark) {
    :root {
      --line-color: white;
    }
  }
</style>
<g clip-path="url(#clip0_237_1594)">
<path d="M112.267 43.5109C122.563 43.511 130.909 51.8575 130.909 62.1534C130.909 72.4495 122.563 80.7959 112.267 80.796H94.2021C93.0976 80.796 92.2021 79.9006 92.2021 78.796V45.5109C92.2021 44.4063 93.0976 43.5109 94.2021 43.5109H112.267Z" stroke="var(--line-color)" stroke-width="4" stroke-linejoin="round"/>
<path d="M8.50731 70.2101L1.09493 88.7414C0.821212 89.4257 0.808977 90.1868 1.06056 90.8796L7.23294 107.876C7.66371 109.062 8.79077 109.852 10.0527 109.852H33.8829C35.1383 109.852 36.2609 109.07 36.6965 107.893L40.2723 98.2275C40.7252 97.0036 40.3348 95.6273 39.3068 94.8234L29.3433 87.0315C28.7921 86.6003 28.4088 85.99 28.26 85.3062L25.0787 70.6863C24.7787 69.3076 23.5584 68.3242 22.1473 68.3242H11.2927C10.066 68.3242 8.9629 69.0711 8.50731 70.2101Z" fill="#7AB5F4"/>
<path d="M22.3774 68.3242H11.5229C10.2961 68.3242 9.193 69.0711 8.73741 70.2101L7.52942 73.2301C6.7412 75.2007 8.19246 77.3443 10.3148 77.3443H23.0346C24.9484 77.3443 26.3729 75.5765 25.966 73.7064L25.3088 70.6863C25.0088 69.3076 23.7885 68.3242 22.3774 68.3242Z" fill="#7AB5F4"/>
<path d="M22.3774 68.3242H11.5229C10.2961 68.3242 9.193 69.0711 8.73741 70.2101L7.52942 73.2301C6.7412 75.2007 8.19246 77.3443 10.3148 77.3443H23.0346C24.9484 77.3443 26.3729 75.5765 25.966 73.7064L25.3088 70.6863C25.0088 69.3076 23.7885 68.3242 22.3774 68.3242Z" fill="white" fill-opacity="0.44"/>
<path d="M48.7314 29.8713C52.892 29.8716 56.2646 33.2449 56.2646 37.4055C56.2644 41.5659 52.8918 44.9385 48.7314 44.9387C44.5709 44.9387 41.1975 41.566 41.1973 37.4055C41.1973 33.2448 44.5707 29.8713 48.7314 29.8713Z" stroke="#DC7AF4" stroke-width="4"/>
<path d="M172.098 55.4344C176.258 55.4347 179.631 58.808 179.631 62.9686C179.631 67.129 176.258 70.5016 172.098 70.5018C167.937 70.5018 164.564 67.1291 164.563 62.9686C164.563 58.8079 167.937 55.4344 172.098 55.4344Z" stroke="#F43E2E" stroke-width="4"/>
<path d="M54.2627 43.5593C59.5431 56.2571 77.786 60.8979 92.2266 56.0504" stroke="url(#paint0_linear_237_1594)" stroke-width="4" stroke-linecap="round"/>
<circle cx="43.3608" cy="77.3442" r="7.53369" stroke="#838DFD" stroke-width="4"/>
<path d="M51.4092 74.2671C67.0344 65.3361 70.4958 80.0767 91.9205 70.4355" stroke="url(#paint1_linear_237_1594)" stroke-width="4" stroke-linecap="round"/>
<path d="M131.115 62.9682C143.824 60.2802 151.073 60.2805 163.812 62.9682" stroke="url(#paint2_linear_237_1594)" stroke-width="4" stroke-linecap="round"/>
<path d="M195.264 74.9221L196.152 83.5488M196.152 83.5488L204.653 90.518M196.152 83.5488L186.503 84.2381" stroke="url(#paint3_linear_237_1594)" stroke-width="4" stroke-linecap="round"/>
<rect x="162.668" y="91.2842" width="13.4078" height="27.5688" rx="5" transform="rotate(-89.6451 162.668 91.2842)" fill="#F87961"/>
<rect width="13.4078" height="27.5688" rx="5" transform="matrix(-0.992958 0.118468 0.118468 0.992958 198.076 49.0841)" fill="#F87961"/>
<rect x="229.246" y="102.63" width="13.4078" height="34.7773" rx="5" transform="rotate(130.305 229.246 102.63)" fill="#F87961"/>
<circle cx="18.5316" cy="26.0772" r="18.8616" fill="#AF7AF4"/>
<ellipse cx="14.5176" cy="17.0523" rx="9.78516" ry="6.61015" transform="rotate(-22.3698 14.5176 17.0523)" fill="#AF7AF4"/>
<ellipse cx="14.5176" cy="17.0523" rx="9.78516" ry="6.61015" transform="rotate(-22.3698 14.5176 17.0523)" fill="white" fill-opacity="0.44"/>
</g>
<defs>
<linearGradient id="paint0_linear_237_1594" x1="93.1344" y1="57.9324" x2="57.8355" y2="40.5942" gradientUnits="userSpaceOnUse">
<stop stop-color="var(--line-color)"/>
<stop offset="1" stop-color="#DC7AF4"/>
</linearGradient>
<linearGradient id="paint1_linear_237_1594" x1="56.2939" y1="75.6886" x2="92.8387" y2="70.4355" gradientUnits="userSpaceOnUse">
<stop stop-color="#838DFD"/>
<stop offset="1" stop-color="var(--line-color)"/>
</linearGradient>
<linearGradient id="paint2_linear_237_1594" x1="131.115" y1="62.9681" x2="161.812" y2="62.9681" gradientUnits="userSpaceOnUse">
<stop stop-color="var(--line-color)"/>
<stop offset="1" stop-color="#F43E2E"/>
</linearGradient>
<linearGradient id="paint3_linear_237_1594" x1="186.503" y1="75.2013" x2="204.653" y2="75.2013" gradientUnits="userSpaceOnUse">
<stop offset="1" stop-color="#F43E2E"/>
</linearGradient>
<clipPath id="clip0_237_1594">
<rect width="229" height="113" fill="white"/>
</clipPath>
</defs>
</svg>
