<svg width="303" height="177" viewBox="0 0 303 177" fill="none" xmlns="http://www.w3.org/2000/svg">
<style>
  :root {
    --line-color: #2F2D34;
  }

  @media (prefers-color-scheme: dark) {
    :root {
      --line-color: white;
    }
  }
</style>
<g clip-path="url(#clip0_237_1595)">
<path d="M114.903 42.8169C125.199 42.817 133.546 51.1635 133.546 61.4595C133.546 71.7555 125.199 80.1019 114.903 80.1021H96.8389C95.7343 80.1021 94.8389 79.2066 94.8389 78.1021V44.8169C94.8389 43.7123 95.7343 42.8169 96.8389 42.8169H114.903Z" stroke="var(--line-color)" stroke-width="3" stroke-linejoin="round"/>
<path d="M183.545 74.6503C193.841 74.6504 202.187 82.9969 202.188 93.2928C202.188 103.589 193.841 111.935 183.545 111.935H165.48C164.376 111.935 163.48 111.04 163.48 109.935V76.6503C163.48 75.5457 164.376 74.6503 165.48 74.6503H183.545Z" stroke="var(--line-color)" stroke-width="3" stroke-linejoin="round"/>
<rect x="18.585" y="4.8302" width="34.8571" height="34.8571" rx="8" transform="rotate(35.7142 18.585 4.8302)" fill="#AF7AF4"/>
<path d="M17.6306 13.7305C18.0723 13.1262 18.997 13.2037 19.332 13.873L27.1555 29.5C27.5049 30.1979 26.9557 31.0093 26.1779 30.9442L8.04109 29.4255C7.26326 29.3603 6.85659 28.469 7.31723 27.8388L17.6306 13.7305Z" fill="#AF7AF4"/>
<path d="M17.6306 13.7305C18.0723 13.1262 18.997 13.2037 19.332 13.873L27.1555 29.5C27.5049 30.1979 26.9557 31.0093 26.1779 30.9442L8.04109 29.4255C7.26326 29.3603 6.85659 28.469 7.31723 27.8388L17.6306 13.7305Z" fill="white" fill-opacity="0.44"/>
<path d="M8.20165 70.1365L0.888378 88.42C0.556413 89.2499 0.61182 90.1847 1.03951 90.9696L10.4355 108.213C10.961 109.178 11.9715 109.778 13.0698 109.778H38.4821C39.8129 109.778 40.9847 108.901 41.3602 107.625L46.3902 90.5225C47.0485 88.2843 45.0123 86.1842 42.7548 86.7731L34.1347 89.0219C32.6065 89.4205 31.0309 88.566 30.5314 87.0677L24.9428 70.3019C24.5345 69.0769 23.3881 68.2506 22.0968 68.2506H10.9871C9.76036 68.2506 8.65723 68.9975 8.20165 70.1365Z" fill="#7AB5F4"/>
<mask id="mask0_237_1595" style="mask-type:alpha" maskUnits="userSpaceOnUse" x="0" y="68" width="47" height="42">
<path d="M8.20165 70.1365L0.888378 88.42C0.556413 89.2499 0.61182 90.1847 1.03951 90.9696L10.4355 108.213C10.961 109.178 11.9715 109.778 13.0698 109.778H38.4821C39.8129 109.778 40.9847 108.901 41.3602 107.625L46.3902 90.5225C47.0485 88.2843 45.0123 86.1842 42.7548 86.7731L34.1347 89.0219C32.6065 89.4205 31.0309 88.566 30.5314 87.0677L24.9428 70.3019C24.5345 69.0769 23.3881 68.2506 22.0968 68.2506H10.9871C9.76036 68.2506 8.65723 68.9975 8.20165 70.1365Z" fill="#7AB5F4"/>
</mask>
<g mask="url(#mask0_237_1595)">
<path d="M22.068 68.2506H10.9962C9.76477 68.2506 8.65841 69.0031 8.206 70.1484L6.75396 73.8242C5.99492 75.7457 7.35992 77.8414 9.42425 77.924L23.3 78.4791C25.3809 78.5623 26.9115 76.552 26.2776 74.5683L24.9256 70.3374C24.5284 69.0943 23.373 68.2506 22.068 68.2506Z" fill="#7AB5F4"/>
<path d="M22.068 68.2506H10.9962C9.76477 68.2506 8.65841 69.0031 8.206 70.1484L6.75396 73.8242C5.99492 75.7457 7.35992 77.8414 9.42425 77.924L23.3 78.4791C25.3809 78.5623 26.9115 76.552 26.2776 74.5683L24.9256 70.3374C24.5284 69.0943 23.373 68.2506 22.068 68.2506Z" fill="white" fill-opacity="0.44"/>
<path d="M43.7144 84.9616L34.0005 84.694C31.9099 84.6365 30.4033 86.682 31.0786 88.6615L33.3987 95.4631C34.0899 97.4895 36.6203 98.1603 38.2247 96.7425L45.6184 90.2085C47.6583 88.4057 46.4357 85.0366 43.7144 84.9616Z" fill="#7AB5F4"/>
<path d="M43.7144 84.9616L34.0005 84.694C31.9099 84.6365 30.4033 86.682 31.0786 88.6615L33.3987 95.4631C34.0899 97.4895 36.6203 98.1603 38.2247 96.7425L45.6184 90.2085C47.6583 88.4057 46.4357 85.0366 43.7144 84.9616Z" fill="white" fill-opacity="0.44"/>
</g>
<path d="M59.4355 19.8495C63.5961 19.8498 66.9688 23.2231 66.9688 27.3837C66.9685 31.544 63.5959 34.9166 59.4355 34.9169C55.275 34.9169 51.9016 31.5442 51.9014 27.3837C51.9014 23.2229 55.2748 19.8495 59.4355 19.8495Z" stroke="#DC7AF4" stroke-width="3"/>
<path d="M244.922 83.8715C249.082 83.8717 252.455 87.2451 252.455 91.4056C252.455 95.566 249.082 98.9386 244.922 98.9388C240.761 98.9388 237.388 95.5662 237.388 91.4056C237.388 87.2449 240.761 83.8715 244.922 83.8715Z" stroke="#F43E2E" stroke-width="3"/>
<path d="M60.1348 35.0251C62.7323 51.3389 71.5644 56.9076 93.8937 54.4628" stroke="url(#paint0_linear_237_1595)" stroke-width="3" stroke-linecap="round"/>
<circle cx="41.3677" cy="72.3378" r="7.53369" stroke="#838DFD" stroke-width="3"/>
<circle cx="37.353" cy="137.482" r="7.53369" stroke="#F4C108" stroke-width="3"/>
<circle cx="133.11" cy="131.598" r="5.67877" stroke="#E5CA41" stroke-width="3"/>
<circle cx="133.11" cy="131.598" r="5.67877" stroke="var(--line-color)" stroke-width="3"/>
<path d="M49.8867 70.7616C65.512 61.8306 72.3166 75.5654 94.0563 68.6428" stroke="url(#paint1_linear_237_1595)" stroke-width="3" stroke-linecap="round"/>
<path d="M44.8867 134.762C66.0872 125.831 64.5599 139.38 94.0566 132.458" stroke="url(#paint2_linear_237_1595)" stroke-width="3" stroke-linecap="round"/>
<path d="M133.752 62.2743C160.711 56.4425 144.557 86.1543 162.276 86.1543" stroke="var(--line-color)" stroke-width="3" stroke-linecap="round"/>
<path d="M140.291 131.598C159.366 132.718 144.765 101.121 162.484 101.121" stroke="var(--line-color)" stroke-width="3" stroke-linecap="round"/>
<path d="M269.044 103.64L269.933 112.267M269.933 112.267L278.434 119.236M269.933 112.267L260.283 112.956" stroke="url(#paint3_linear_237_1595)" stroke-width="3" stroke-linecap="round"/>
<rect x="236.448" y="120.002" width="13.4078" height="27.5688" rx="5" transform="rotate(-89.6451 236.448 120.002)" fill="#F87961"/>
<rect width="13.4078" height="27.5688" rx="5" transform="matrix(-0.992958 0.118468 0.118468 0.992958 271.856 77.8022)" fill="#F87961"/>
<rect x="303.026" y="131.348" width="13.4078" height="34.7773" rx="5" transform="rotate(130.305 303.026 131.348)" fill="#F87961"/>
<path d="M202.857 93.2931C216.147 97.8575 225.285 98.1636 237.419 93.2931" stroke="url(#paint4_linear_237_1595)" stroke-width="3" stroke-linecap="round"/>
<path d="M125.807 129.117C127.558 130.298 127.559 132.899 125.807 134.08L125.625 134.194L99.3672 149.416C97.3673 150.576 94.8626 149.133 94.8623 146.822L94.8623 116.375C94.8623 114.064 97.3672 112.62 99.3672 113.78L125.625 129.003L125.807 129.117Z" stroke="url(#paint5_linear_237_1595)" stroke-width="3" stroke-linejoin="round"/>
<path d="M125.807 129.117C127.558 130.298 127.559 132.899 125.807 134.08L125.625 134.194L99.3672 149.416C97.3673 150.576 94.8626 149.133 94.8623 146.822L94.8623 116.375C94.8623 114.064 97.3672 112.62 99.3672 113.78L125.625 129.003L125.807 129.117Z" stroke="var(--line-color)" stroke-width="3" stroke-linejoin="round"/>
<circle cx="35.6793" cy="162.665" r="11.9602" transform="rotate(116.839 35.6793 162.665)" fill="#79DD84"/>
<ellipse cx="38.02" cy="155.92" rx="5.88361" ry="3.44075" transform="rotate(16.4944 38.02 155.92)" fill="#79DD84"/>
<ellipse cx="38.02" cy="155.92" rx="5.88361" ry="3.44075" transform="rotate(16.4944 38.02 155.92)" fill="white" fill-opacity="0.44"/>
<path d="M28.0051 160.256C19.5803 158.572 28.7987 150.423 22.5236 149.842" stroke="#21822B" stroke-width="3" stroke-linecap="round"/>
<circle cx="12.9293" cy="145.391" r="11.9602" transform="rotate(116.839 12.9293 145.391)" fill="#79DD84"/>
<ellipse cx="15.2935" cy="138.707" rx="5.88361" ry="3.44075" transform="rotate(16.4944 15.2935 138.707)" fill="#79DD84"/>
<ellipse cx="15.2935" cy="138.707" rx="5.88361" ry="3.44075" transform="rotate(16.4944 15.2935 138.707)" fill="white" fill-opacity="0.44"/>
</g>
<defs>
<linearGradient id="paint0_linear_237_1595" x1="95.6866" y1="54.1368" x2="60.1348" y2="35.0251" gradientUnits="userSpaceOnUse">
<stop stop-color="var(--line-color)"/>
<stop offset="1" stop-color="#DC7AF4"/>
</linearGradient>
<linearGradient id="paint1_linear_237_1595" x1="48.9307" y1="74.9946" x2="95.3606" y2="68.6427" gradientUnits="userSpaceOnUse">
<stop stop-color="#838DFD"/>
<stop offset="1" stop-color="var(--line-color)"/>
</linearGradient>
<linearGradient id="paint2_linear_237_1595" x1="48.0277" y1="134.762" x2="93.4285" y2="131.85" gradientUnits="userSpaceOnUse">
<stop stop-color="#F4C108"/>
<stop offset="1" stop-color="var(--line-color)"/>
</linearGradient>
<linearGradient id="paint3_linear_237_1595" x1="260.283" y1="103.919" x2="278.434" y2="103.919" gradientUnits="userSpaceOnUse">
<stop offset="1" stop-color="#F43E2E"/>
</linearGradient>
<linearGradient id="paint4_linear_237_1595" x1="202.857" y1="93.2931" x2="233.554" y2="93.2931" gradientUnits="userSpaceOnUse">
<stop stop-color="var(--line-color)"/>
<stop offset="1" stop-color="#F43E2E"/>
</linearGradient>
<linearGradient id="paint5_linear_237_1595" x1="95.4639" y1="134.081" x2="128.304" y2="132.109" gradientUnits="userSpaceOnUse">
<stop/>
<stop offset="1" stop-color="#E5CA41"/>
</linearGradient>
<clipPath id="clip0_237_1595">
<rect width="303" height="177" fill="white"/>
</clipPath>
</defs>
</svg>
