<svg width="395" height="294" viewBox="0 0 395 294" fill="none" xmlns="http://www.w3.org/2000/svg">
<g clip-path="url(#clip0_237_1603)">
<path d="M121.599 58.3169C131.895 58.317 140.241 66.6635 140.241 76.9595C140.241 87.2555 131.895 95.6019 121.599 95.6021H103.534C102.43 95.6021 101.534 94.7066 101.534 93.6021V60.3169C101.534 59.2123 102.43 58.3169 103.534 58.3169H121.599Z" stroke="#2F2D34" stroke-width="4" stroke-linejoin="round"/>
<path d="M198.394 101.909C208.69 101.909 217.036 110.255 217.036 120.551C217.036 130.847 208.69 139.194 198.394 139.194H180.329C179.225 139.194 178.329 138.298 178.329 137.194V103.909C178.329 102.804 179.225 101.909 180.329 101.909H198.394Z" stroke="#2F2D34" stroke-width="4" stroke-linejoin="round"/>
<path d="M198.394 166.367C208.69 166.367 217.036 174.713 217.036 185.009C217.036 195.305 208.69 203.652 198.394 203.652H180.329C179.225 203.652 178.329 202.756 178.329 201.652V168.367C178.329 167.262 179.225 166.367 180.329 166.367H198.394Z" stroke="#2F2D34" stroke-width="4" stroke-linejoin="round"/>
<path d="M276.539 135.869C286.835 135.869 295.182 144.216 295.182 154.511C295.182 164.808 286.835 173.154 276.539 173.154H258.475C257.37 173.154 256.475 172.259 256.475 171.154V137.869C256.475 136.764 257.37 135.869 258.475 135.869H276.539Z" stroke="#2F2D34" stroke-width="4" stroke-linejoin="round"/>
<path d="M7.96815 69.7771L4.4935 83.4281C4.25704 84.3572 4.4788 85.3433 5.09024 86.0816L9.14442 90.9772C9.7594 91.7198 9.97997 92.7127 9.73724 93.6459L6.81214 104.891C6.16485 107.379 8.74307 109.476 11.0471 108.334L18.779 104.505C19.8887 103.955 21.2221 104.144 22.1358 104.98L24.7102 107.335C25.5738 108.125 26.8182 108.341 27.8974 107.888L41.5577 102.148C42.7835 101.633 43.524 100.372 43.3772 99.051L42.4715 90.8963C42.3028 89.377 41.0186 88.2275 39.4899 88.2275H37.0289C35.6852 88.2275 34.5054 87.3339 34.1412 86.0405L32.334 79.6215C31.9699 78.328 30.79 77.4345 29.4463 77.4345H25.1839C23.8357 77.4345 22.6531 76.5351 22.2929 75.2358L20.7629 69.7158C20.4028 68.4165 19.2202 67.5171 17.8719 67.5171H10.8755C9.50361 67.5171 8.30654 68.4476 7.96815 69.7771Z" fill="#7AB5F4"/>
<mask id="mask0_237_1603" style="mask-type:alpha" maskUnits="userSpaceOnUse" x="4" y="67" width="45" height="42">
<path d="M9.42587 69.5376L4.66779 83.3126C4.32588 84.3024 4.52489 85.3989 5.19283 86.2055L9.14442 90.9772C9.7594 91.7198 9.97997 92.7127 9.73724 93.6459L6.81214 104.891C6.16485 107.379 8.74307 109.476 11.0471 108.334L18.779 104.505C19.8887 103.955 21.2221 104.144 22.1358 104.98L25.2992 107.874C25.833 108.363 26.5253 108.642 27.2485 108.66L40.3041 108.99C41.5874 109.023 42.7492 108.235 43.1941 107.031L48.6053 92.385C49.3244 90.4388 47.898 88.3676 45.8232 88.3455L37.0037 88.2514C35.6719 88.2372 34.5089 87.3467 34.148 86.0646L32.334 79.6215C31.9699 78.328 30.79 77.4345 29.4463 77.4345H25.1839C23.8357 77.4345 22.6531 76.5351 22.2929 75.2358L20.7629 69.7158C20.4028 68.4165 19.2202 67.5171 17.8719 67.5171H12.2615C10.9821 67.5171 9.84356 68.3284 9.42587 69.5376Z" fill="#7AB5F4"/>
</mask>
<g mask="url(#mask0_237_1603)">
<path d="M25.5578 67.5171L16.7209 67.5171C14.8488 67.5171 13.4339 69.2129 13.7695 71.0548L14.4507 74.7943C14.7054 76.1922 15.9059 77.2198 17.3264 77.2557L26.6463 77.491C28.6788 77.5423 30.1726 75.5998 29.6011 73.6487L28.4368 69.6738C28.0624 68.3955 26.8899 67.5171 25.5578 67.5171Z" fill="#7AB5F4"/>
<path d="M25.5578 67.5171L16.7209 67.5171C14.8488 67.5171 13.4339 69.2129 13.7695 71.0548L14.4507 74.7943C14.7054 76.1922 15.9059 77.2198 17.3264 77.2557L26.6463 77.491C28.6788 77.5423 30.1726 75.5998 29.6011 73.6487L28.4368 69.6738C28.0624 68.3955 26.8899 67.5171 25.5578 67.5171Z" fill="white" fill-opacity="0.44"/>
<path d="M37.1705 77.5171L29.6641 77.5171C27.8111 77.5171 26.4011 79.1804 26.7046 81.0084L27.4802 85.6803C27.7166 87.1043 28.9336 88.158 30.3767 88.1883L36.182 88.3101C37.643 88.3408 38.9135 87.3143 39.1906 85.8795L40.1161 81.0858C40.4734 79.235 39.0555 77.5171 37.1705 77.5171Z" fill="#7AB5F4"/>
<path d="M37.1705 77.5171L29.6641 77.5171C27.8111 77.5171 26.4011 79.1804 26.7046 81.0084L27.4802 85.6803C27.7166 87.1043 28.9336 88.158 30.3767 88.1883L36.182 88.3101C37.643 88.3408 38.9135 87.3143 39.1906 85.8795L40.1161 81.0858C40.4734 79.235 39.0555 77.5171 37.1705 77.5171Z" fill="white" fill-opacity="0.44"/>
<path d="M14.1564 97.0776C14.4824 96.5227 15.2402 96.4157 15.707 96.8587L19.7216 100.668C20.2208 101.142 20.1034 101.967 19.4917 102.282L10.5205 106.911C9.62989 107.371 8.69214 106.38 9.19973 105.516L14.1564 97.0776Z" fill="#7AB5F4"/>
<path d="M14.1564 97.0776C14.4824 96.5227 15.2402 96.4157 15.707 96.8587L19.7216 100.668C20.2208 101.142 20.1034 101.967 19.4917 102.282L10.5205 106.911C9.62989 107.371 8.69214 106.38 9.19973 105.516L14.1564 97.0776Z" fill="black" fill-opacity="0.2"/>
</g>
<path d="M49.4912 36.9119C53.6517 36.9122 57.0244 40.2855 57.0244 44.4461C57.0242 48.6065 53.6516 51.979 49.4912 51.9793C45.3306 51.9793 41.9573 48.6066 41.957 44.4461C41.957 40.2854 45.3305 36.9119 49.4912 36.9119Z" stroke="#DC7AF4" stroke-width="4"/>
<path d="M336.957 143.427C341.118 143.428 344.49 146.801 344.49 150.962C344.49 155.122 341.117 158.495 336.957 158.495C332.796 158.495 329.423 155.122 329.423 150.962C329.423 146.801 332.796 143.427 336.957 143.427Z" stroke="#F43E2E" stroke-width="4"/>
<path d="M56.3184 49.7639C72.7674 68.3735 80.5023 74.1703 100.915 69.289" stroke="url(#paint0_linear_237_1603)" stroke-width="4" stroke-linecap="round"/>
<circle cx="49.4067" cy="74.0455" r="7.53369" stroke="#838DFD" stroke-width="4"/>
<path d="M55.8877 79.4114C66.7992 100.044 92.9136 90.1347 100.472 83.9328" stroke="url(#paint1_linear_237_1603)" stroke-width="4" stroke-linecap="round"/>
<circle cx="49.4067" cy="136.564" r="7.53369" stroke="#23BF93" stroke-width="4"/>
<path d="M58.0869 139.386C73.5949 148.529 78.6497 112.784 101.507 135" stroke="url(#paint2_linear_237_1603)" stroke-width="4" stroke-linecap="round"/>
<circle cx="49.4067" cy="248.197" r="7.53369" stroke="#F67E4B" stroke-width="4"/>
<path d="M56.8848 253.127C80.2131 264.807 78.2591 229.189 101.066 229.189" stroke="url(#paint3_linear_237_1603)" stroke-width="4" stroke-linecap="round"/>
<circle cx="49.4067" cy="195.105" r="7.53369" stroke="#DCD800" stroke-width="4"/>
<path d="M58.9404 195.105C113.585 195.105 121.954 162.339 177.357 178.469" stroke="url(#paint4_linear_237_1603)" stroke-width="4" stroke-linecap="round"/>
<path d="M142.467 75.5656C161.178 80.9336 155.403 114.091 178.129 114.091" stroke="#2F2D34" stroke-width="4" stroke-linecap="round"/>
<path d="M217.959 120.841C238.351 120.841 238.78 146.404 256.499 146.404" stroke="#2F2D34" stroke-width="4" stroke-linecap="round"/>
<path d="M218.734 186.106C240.038 183.395 234.034 165.19 256.1 159.994" stroke="#2F2D34" stroke-width="4" stroke-linecap="round"/>
<path d="M146.64 135.092C158.182 145.249 178.033 127.706 178.033 127.706" stroke="#2F2D34" stroke-width="4" stroke-linecap="round"/>
<path d="M146.537 228.717C170.114 225.448 157.351 202.506 177.632 196.697" stroke="#2F2D34" stroke-width="4" stroke-linecap="round"/>
<path d="M361.072 163.196L361.96 171.823M361.96 171.823L370.461 178.792M361.96 171.823L352.311 172.512" stroke="url(#paint5_linear_237_1603)" stroke-width="4" stroke-linecap="round"/>
<rect x="328.476" y="179.558" width="13.4078" height="27.5688" rx="5" transform="rotate(-89.6451 328.476 179.558)" fill="#F87961"/>
<rect width="13.4078" height="27.5688" rx="5" transform="matrix(-0.992958 0.118468 0.118468 0.992958 363.884 137.358)" fill="#F87961"/>
<rect x="395.054" y="190.904" width="13.4078" height="34.7773" rx="5" transform="rotate(130.305 395.054 190.904)" fill="#F87961"/>
<path d="M295.642 153.888C313.295 164.122 314.837 146.07 329.454 152.849" stroke="url(#paint6_linear_237_1603)" stroke-width="4" stroke-linecap="round"/>
<circle cx="140.048" cy="134.261" r="5.67877" stroke="#2F2D34" stroke-width="4"/>
<path d="M132.744 131.779C134.496 132.961 134.496 135.562 132.744 136.743L132.562 136.856L106.305 152.079C104.305 153.238 101.8 151.796 101.8 149.484L101.8 119.038C101.8 116.726 104.305 115.283 106.305 116.442L132.562 131.666L132.744 131.779Z" stroke="#2F2D34" stroke-width="4" stroke-linejoin="round"/>
<circle cx="140.048" cy="228.237" r="5.67877" stroke="#2F2D34" stroke-width="4"/>
<path d="M132.744 225.755C134.496 226.937 134.496 229.537 132.744 230.719L132.562 230.832L106.305 246.055C104.305 247.214 101.8 245.772 101.8 243.46L101.8 213.014C101.8 210.702 104.305 209.259 106.305 210.418L132.562 225.642L132.744 225.755Z" stroke="#2F2D34" stroke-width="4" stroke-linejoin="round"/>
<path d="M20.9241 13.4741C21.2293 9.78553 21.3818 7.94124 22.2424 6.95211C22.9928 6.08963 24.0764 5.58945 25.2195 5.57785C26.5306 5.56455 28.0331 6.64482 31.0383 8.80537L44.0181 18.1372C46.8703 20.1878 48.2964 21.2131 48.7097 22.4207C49.0704 23.4748 48.9752 24.6314 48.447 25.6123C47.8418 26.7361 46.2672 27.5144 43.118 29.071L36.5489 32.318C35.4402 32.866 34.8859 33.14 34.4564 33.5406C34.0762 33.8953 33.7687 34.3207 33.5513 34.7931C33.3057 35.3266 33.2196 35.939 33.0472 37.1636L31.9904 44.6736C31.5033 48.1357 31.2597 49.8667 30.3862 50.7929C29.6238 51.6014 28.5593 52.0563 27.448 52.0485C26.1749 52.0395 24.7556 51.0191 21.9169 48.9783L8.38952 39.2527C5.52689 37.1946 4.09557 36.1656 3.68288 34.9552C3.3227 33.8988 3.42024 32.74 3.95195 31.7587C4.56117 30.6344 6.14437 29.8591 9.31077 28.3085L16.8715 24.606C18.0616 24.0233 18.6566 23.7319 19.1071 23.2991C19.5059 22.9162 19.8209 22.4547 20.0323 21.9439C20.2712 21.3666 20.3258 20.7064 20.435 19.3858L20.9241 13.4741Z" fill="#AF7AF4"/>
<path d="M24.3681 23.6503C23.6797 24.2589 22.6038 23.6948 22.7129 22.7824L24.3282 9.26914C24.4185 8.51373 25.2858 8.13183 25.904 8.57526L33.4507 13.9886C33.9726 14.3629 34.0113 15.125 33.5302 15.5503L24.3681 23.6503Z" fill="#AF7AF4"/>
<path d="M24.3681 23.6503C23.6797 24.2589 22.6038 23.6948 22.7129 22.7824L24.3282 9.26914C24.4185 8.51373 25.2858 8.13183 25.904 8.57526L33.4507 13.9886C33.9726 14.3629 34.0113 15.125 33.5302 15.5503L24.3681 23.6503Z" fill="white" fill-opacity="0.44"/>
<path d="M28.4668 33.1465C29.1553 32.5378 30.2312 33.102 30.1221 34.0144L28.5068 47.5276C28.4165 48.283 27.5492 48.6649 26.931 48.2215L19.3842 42.8082C18.8624 42.4339 18.8236 41.6718 19.3047 41.2464L28.4668 33.1465Z" fill="#AF7AF4"/>
<path d="M28.4668 33.1465C29.1553 32.5378 30.2312 33.102 30.1221 34.0144L28.5068 47.5276C28.4165 48.283 27.5492 48.6649 26.931 48.2215L19.3842 42.8082C18.8624 42.4339 18.8236 41.6718 19.3047 41.2464L28.4668 33.1465Z" fill="black" fill-opacity="0.2"/>
<ellipse cx="37.1749" cy="170.666" rx="11.7588" ry="5.03296" transform="rotate(-9.23625 37.1749 170.666)" fill="#79DD84"/>
<rect x="23.0615" y="157.134" width="23.5176" height="15.6223" transform="rotate(-9.23625 23.0615 157.134)" fill="#79DD84"/>
<ellipse cx="34.7013" cy="155.449" rx="11.7588" ry="5.03296" transform="rotate(-9.23625 34.7013 155.449)" fill="#79DD84"/>
<ellipse cx="34.7013" cy="155.449" rx="11.7588" ry="5.03296" transform="rotate(-9.23625 34.7013 155.449)" fill="white" fill-opacity="0.44"/>
<path d="M34.2716 152.824C34.2725 147.556 32.6598 144.392 27.9762 143.713" stroke="#21822B" stroke-width="4" stroke-linecap="round"/>
<ellipse cx="24.3152" cy="143.431" rx="11.7588" ry="5.03296" transform="rotate(-54.4517 24.3152 143.431)" fill="#79DD84"/>
<rect x="4.76855" y="143.916" width="23.5176" height="15.6223" transform="rotate(-54.4517 4.76855 143.916)" fill="#79DD84"/>
<ellipse cx="11.7722" cy="134.468" rx="11.7588" ry="5.03296" transform="rotate(-54.4517 11.7722 134.468)" fill="#79DD84"/>
<ellipse cx="11.7722" cy="134.468" rx="11.7588" ry="5.03296" transform="rotate(-54.4517 11.7722 134.468)" fill="white" fill-opacity="0.44"/>
<path d="M27.1785 280.24C30.9591 297.741 33.6659 277.784 43.7234 280.821C53.3975 283.742 45.8597 267.641 36.3271 268.669" stroke="#A25624" stroke-width="4"/>
<ellipse cx="22.6111" cy="264.124" rx="11.8775" ry="19.2644" transform="rotate(-19.3812 22.6111 264.124)" fill="#F6A94B"/>
<ellipse cx="22.6111" cy="264.124" rx="11.8775" ry="19.2644" transform="rotate(-19.3812 22.6111 264.124)" fill="#770505" fill-opacity="0.15"/>
<ellipse cx="12.1476" cy="19.839" rx="12.1476" ry="19.839" transform="matrix(-0.258819 0.965926 0.965926 0.258819 5.35156 247.772)" fill="#F6A94B"/>
<ellipse cx="18.2061" cy="258.811" rx="8.61915" ry="3.01499" transform="rotate(8.4821 18.2061 258.811)" fill="#F6A94B"/>
<ellipse cx="18.2061" cy="258.811" rx="8.61915" ry="3.01499" transform="rotate(8.4821 18.2061 258.811)" fill="white" fill-opacity="0.44"/>
<path d="M2.64341 207.119C0.363034 204.756 1.74456 200.804 5.00056 200.376L16.2779 198.894C17.127 198.782 17.9179 198.401 18.5342 197.806L26.7192 189.908C29.0824 187.628 33.0347 189.009 33.4626 192.265L34.9448 203.542C35.0565 204.392 35.4376 205.183 36.0323 205.799L43.9305 213.984C46.2109 216.347 44.8294 220.299 41.5734 220.727L30.296 222.209C29.4469 222.321 28.656 222.702 28.0397 223.297L19.8548 231.195C17.4916 233.475 13.5393 232.094 13.1113 228.838L11.6291 217.561C11.5175 216.711 11.1363 215.921 10.5416 215.304L2.64341 207.119Z" fill="#F7D448"/>
<path d="M21.0196 210.597L6.64676 205.732C4.62712 205.048 4.93654 202.1 7.05413 201.851L17.7857 200.587C18.2254 200.535 18.6355 200.339 18.9517 200.029L26.5959 192.538C28.1615 191.003 30.6989 192.742 29.8332 194.756L23.4983 209.493C23.0864 210.451 22.0074 210.932 21.0196 210.597Z" fill="#F7D448"/>
<path d="M21.0196 210.597L6.64676 205.732C4.62712 205.048 4.93654 202.1 7.05413 201.851L17.7857 200.587C18.2254 200.535 18.6355 200.339 18.9517 200.029L26.5959 192.538C28.1615 191.003 30.6989 192.742 29.8332 194.756L23.4983 209.493C23.0864 210.451 22.0074 210.932 21.0196 210.597Z" fill="white" fill-opacity="0.3"/>
<path d="M25.7649 211.887L39.3987 215.709C41.5701 216.318 41.2306 219.495 38.9796 219.631L28.8032 220.247C28.2968 220.277 27.821 220.499 27.4721 220.867L20.4072 228.324C18.8399 229.978 16.1688 228.143 17.1505 226.086L23.4202 212.952C23.8391 212.074 24.8285 211.625 25.7649 211.887Z" fill="#F7D448"/>
<path d="M25.7649 211.887L39.3987 215.709C41.5701 216.318 41.2306 219.495 38.9796 219.631L28.8032 220.247C28.2968 220.277 27.821 220.499 27.4721 220.867L20.4072 228.324C18.8399 229.978 16.1688 228.143 17.1505 226.086L23.4202 212.952C23.8391 212.074 24.8285 211.625 25.7649 211.887Z" fill="#9A0505" fill-opacity="0.2"/>
</g>
<defs>
<linearGradient id="paint0_linear_237_1603" x1="102.382" y1="63.4836" x2="66.8301" y2="44.3719" gradientUnits="userSpaceOnUse">
<stop stop-color="#2F2D34"/>
<stop offset="1" stop-color="#DC7AF4"/>
</linearGradient>
<linearGradient id="paint1_linear_237_1603" x1="58.0698" y1="77.2289" x2="102.157" y2="81.1346" gradientUnits="userSpaceOnUse">
<stop stop-color="#838DFD"/>
<stop offset="1" stop-color="#2F2D34"/>
</linearGradient>
<linearGradient id="paint2_linear_237_1603" x1="55.6262" y1="128.612" x2="101.054" y2="125.696" gradientUnits="userSpaceOnUse">
<stop stop-color="#23BF93"/>
<stop offset="1" stop-color="#2F2D34"/>
</linearGradient>
<linearGradient id="paint3_linear_237_1603" x1="55.6262" y1="235.245" x2="101.054" y2="232.33" gradientUnits="userSpaceOnUse">
<stop stop-color="#F67E4B"/>
<stop offset="1" stop-color="#2F2D34"/>
</linearGradient>
<linearGradient id="paint4_linear_237_1603" x1="55.6262" y1="187.153" x2="101.054" y2="184.237" gradientUnits="userSpaceOnUse">
<stop stop-color="#DCD800"/>
<stop offset="1" stop-color="#2F2D34"/>
</linearGradient>
<linearGradient id="paint5_linear_237_1603" x1="352.311" y1="163.475" x2="370.461" y2="163.475" gradientUnits="userSpaceOnUse">
<stop offset="1" stop-color="#F43E2E"/>
</linearGradient>
<linearGradient id="paint6_linear_237_1603" x1="294.893" y1="152.849" x2="325.589" y2="152.849" gradientUnits="userSpaceOnUse">
<stop stop-color="#2F2D34"/>
<stop offset="1" stop-color="#F43E2E"/>
</linearGradient>
<clipPath id="clip0_237_1603">
<rect width="395" height="293" fill="white" transform="translate(0 0.5)"/>
</clipPath>
</defs>
</svg>
