<svg width="395" height="293" viewBox="0 0 395 293" fill="none" xmlns="http://www.w3.org/2000/svg">
<style>
  :root {
    --line-color: #2F2D34;
  }

  @media (prefers-color-scheme: dark) {
    :root {
      --line-color: white;
    }
  }
</style>
<g clip-path="url(#clip0_237_1603)">
<path d="M121.599 57.8169C131.895 57.817 140.241 66.1635 140.241 76.4595C140.241 86.7555 131.895 95.1019 121.599 95.1021H103.534C102.43 95.1021 101.534 94.2066 101.534 93.1021V59.8169C101.534 58.7123 102.43 57.8169 103.534 57.8169H121.599Z" stroke="var(--line-color)" stroke-width="4" stroke-linejoin="round"/>
<path d="M198.394 101.409C208.69 101.409 217.036 109.755 217.036 120.051C217.036 130.347 208.69 138.694 198.394 138.694H180.329C179.225 138.694 178.329 137.798 178.329 136.694V103.409C178.329 102.304 179.225 101.409 180.329 101.409H198.394Z" stroke="var(--line-color)" stroke-width="4" stroke-linejoin="round"/>
<path d="M198.394 165.867C208.69 165.867 217.036 174.213 217.036 184.509C217.036 194.805 208.69 203.152 198.394 203.152H180.329C179.225 203.152 178.329 202.256 178.329 201.152V167.867C178.329 166.762 179.225 165.867 180.329 165.867H198.394Z" stroke="var(--line-color)" stroke-width="4" stroke-linejoin="round"/>
<path d="M276.539 135.369C286.835 135.369 295.182 143.716 295.182 154.011C295.182 164.308 286.835 172.654 276.539 172.654H258.475C257.37 172.654 256.475 171.759 256.475 170.654V137.369C256.475 136.264 257.37 135.369 258.475 135.369H276.539Z" stroke="var(--line-color)" stroke-width="4" stroke-linejoin="round"/>
<path d="M7.96815 69.2771L4.4935 82.9281C4.25704 83.8572 4.4788 84.8433 5.09024 85.5816L9.14442 90.4772C9.7594 91.2198 9.97997 92.2127 9.73724 93.1459L6.81214 104.391C6.16485 106.879 8.74307 108.976 11.0471 107.834L18.779 104.005C19.8887 103.455 21.2221 103.644 22.1358 104.48L24.7102 106.835C25.5738 107.625 26.8182 107.841 27.8974 107.388L41.5577 101.648C42.7835 101.133 43.524 99.8725 43.3772 98.551L42.4715 90.3963C42.3028 88.877 41.0186 87.7275 39.4899 87.7275H37.0289C35.6852 87.7275 34.5054 86.8339 34.1412 85.5405L32.334 79.1215C31.9699 77.828 30.79 76.9345 29.4463 76.9345H25.1839C23.8357 76.9345 22.6531 76.0351 22.2929 74.7358L20.7629 69.2158C20.4028 67.9165 19.2202 67.0171 17.8719 67.0171H10.8755C9.50361 67.0171 8.30654 67.9476 7.96815 69.2771Z" fill="#7AB5F4"/>
<mask id="mask0_237_1603" style="mask-type:alpha" maskUnits="userSpaceOnUse" x="4" y="67" width="45" height="42">
<path d="M9.42587 69.0376L4.66779 82.8126C4.32588 83.8024 4.52489 84.8989 5.19283 85.7055L9.14442 90.4772C9.7594 91.2198 9.97997 92.2127 9.73724 93.1459L6.81214 104.391C6.16485 106.879 8.74307 108.976 11.0471 107.834L18.779 104.005C19.8887 103.455 21.2221 103.644 22.1358 104.48L25.2992 107.374C25.833 107.863 26.5253 108.142 27.2485 108.16L40.3041 108.49C41.5874 108.523 42.7492 107.735 43.1941 106.531L48.6053 91.885C49.3244 89.9388 47.898 87.8676 45.8232 87.8455L37.0037 87.7514C35.6719 87.7372 34.5089 86.8467 34.148 85.5646L32.334 79.1215C31.9699 77.828 30.79 76.9345 29.4463 76.9345H25.1839C23.8357 76.9345 22.6531 76.0351 22.2929 74.7358L20.7629 69.2158C20.4028 67.9165 19.2202 67.0171 17.8719 67.0171H12.2615C10.9821 67.0171 9.84356 67.8284 9.42587 69.0376Z" fill="#7AB5F4"/>
</mask>
<g mask="url(#mask0_237_1603)">
<path d="M25.5578 67.0171L16.7209 67.0171C14.8488 67.0171 13.4339 68.7129 13.7695 70.5548L14.4507 74.2943C14.7054 75.6922 15.9059 76.7198 17.3264 76.7557L26.6463 76.991C28.6788 77.0423 30.1726 75.0998 29.6011 73.1487L28.4368 69.1738C28.0624 67.8955 26.8899 67.0171 25.5578 67.0171Z" fill="#7AB5F4"/>
<path d="M25.5578 67.0171L16.7209 67.0171C14.8488 67.0171 13.4339 68.7129 13.7695 70.5548L14.4507 74.2943C14.7054 75.6922 15.9059 76.7198 17.3264 76.7557L26.6463 76.991C28.6788 77.0423 30.1726 75.0998 29.6011 73.1487L28.4368 69.1738C28.0624 67.8955 26.8899 67.0171 25.5578 67.0171Z" fill="white" fill-opacity="0.44"/>
<path d="M37.1705 77.0171L29.6641 77.0171C27.8111 77.0171 26.4011 78.6804 26.7046 80.5084L27.4802 85.1803C27.7166 86.6043 28.9336 87.658 30.3767 87.6883L36.182 87.8101C37.643 87.8408 38.9135 86.8143 39.1906 85.3795L40.1161 80.5858C40.4734 78.735 39.0555 77.0171 37.1705 77.0171Z" fill="#7AB5F4"/>
<path d="M37.1705 77.0171L29.6641 77.0171C27.8111 77.0171 26.4011 78.6804 26.7046 80.5084L27.4802 85.1803C27.7166 86.6043 28.9336 87.658 30.3767 87.6883L36.182 87.8101C37.643 87.8408 38.9135 86.8143 39.1906 85.3795L40.1161 80.5858C40.4734 78.735 39.0555 77.0171 37.1705 77.0171Z" fill="white" fill-opacity="0.44"/>
<path d="M14.1564 96.5776C14.4824 96.0227 15.2402 95.9157 15.707 96.3587L19.7216 100.168C20.2208 100.642 20.1034 101.467 19.4917 101.782L10.5205 106.411C9.62989 106.871 8.69214 105.88 9.19973 105.016L14.1564 96.5776Z" fill="#7AB5F4"/>
<path d="M14.1564 96.5776C14.4824 96.0227 15.2402 95.9157 15.707 96.3587L19.7216 100.168C20.2208 100.642 20.1034 101.467 19.4917 101.782L10.5205 106.411C9.62989 106.871 8.69214 105.88 9.19973 105.016L14.1564 96.5776Z" fill="black" fill-opacity="0.2"/>
</g>
<path d="M49.4912 36.4119C53.6517 36.4122 57.0244 39.7855 57.0244 43.9461C57.0242 48.1065 53.6516 51.479 49.4912 51.4793C45.3306 51.4793 41.9573 48.1066 41.957 43.9461C41.957 39.7854 45.3305 36.4119 49.4912 36.4119Z" stroke="#DC7AF4" stroke-width="4"/>
<path d="M336.957 142.927C341.118 142.928 344.49 146.301 344.49 150.462C344.49 154.622 341.117 157.995 336.957 157.995C332.796 157.995 329.423 154.622 329.423 150.462C329.423 146.301 332.796 142.927 336.957 142.927Z" stroke="#F43E2E" stroke-width="4"/>
<path d="M56.3184 49.2639C72.7674 67.8735 80.5023 73.6703 100.915 68.789" stroke="url(#paint0_linear_237_1603)" stroke-width="4" stroke-linecap="round"/>
<circle cx="49.4067" cy="73.5455" r="7.53369" stroke="#838DFD" stroke-width="4"/>
<path d="M55.8877 78.9114C66.7992 99.5444 92.9136 89.6347 100.472 83.4328" stroke="url(#paint1_linear_237_1603)" stroke-width="4" stroke-linecap="round"/>
<circle cx="49.4067" cy="136.064" r="7.53369" stroke="#23BF93" stroke-width="4"/>
<path d="M58.0869 138.886C73.5949 148.029 78.6497 112.284 101.507 134.5" stroke="url(#paint2_linear_237_1603)" stroke-width="4" stroke-linecap="round"/>
<circle cx="49.4067" cy="247.697" r="7.53369" stroke="#F67E4B" stroke-width="4"/>
<path d="M56.8848 252.627C80.2131 264.307 78.2591 228.689 101.066 228.689" stroke="url(#paint3_linear_237_1603)" stroke-width="4" stroke-linecap="round"/>
<circle cx="49.4067" cy="194.605" r="7.53369" stroke="#DCD800" stroke-width="4"/>
<path d="M58.9404 194.605C113.585 194.605 121.954 161.839 177.357 177.969" stroke="url(#paint4_linear_237_1603)" stroke-width="4" stroke-linecap="round"/>
<path d="M142.467 75.0656C161.178 80.4336 155.403 113.591 178.129 113.591" stroke="var(--line-color)" stroke-width="4" stroke-linecap="round"/>
<path d="M217.959 120.341C238.351 120.341 238.78 145.904 256.499 145.904" stroke="var(--line-color)" stroke-width="4" stroke-linecap="round"/>
<path d="M218.734 185.606C240.038 182.895 234.034 164.69 256.1 159.494" stroke="var(--line-color)" stroke-width="4" stroke-linecap="round"/>
<path d="M146.64 134.592C158.182 144.749 178.033 127.206 178.033 127.206" stroke="var(--line-color)" stroke-width="4" stroke-linecap="round"/>
<path d="M146.537 228.217C170.114 224.948 157.351 202.006 177.632 196.197" stroke="var(--line-color)" stroke-width="4" stroke-linecap="round"/>
<path d="M361.072 162.696L361.96 171.323M361.96 171.323L370.461 178.292M361.96 171.323L352.311 172.012" stroke="url(#paint5_linear_237_1603)" stroke-width="4" stroke-linecap="round"/>
<rect x="328.476" y="179.058" width="13.4078" height="27.5688" rx="5" transform="rotate(-89.6451 328.476 179.058)" fill="#F87961"/>
<rect width="13.4078" height="27.5688" rx="5" transform="matrix(-0.992958 0.118468 0.118468 0.992958 363.884 136.858)" fill="#F87961"/>
<rect x="395.054" y="190.404" width="13.4078" height="34.7773" rx="5" transform="rotate(130.305 395.054 190.404)" fill="#F87961"/>
<path d="M295.642 153.388C313.295 163.622 314.837 145.57 329.454 152.349" stroke="url(#paint6_linear_237_1603)" stroke-width="4" stroke-linecap="round"/>
<circle cx="140.048" cy="133.761" r="5.67877" stroke="var(--line-color)" stroke-width="4"/>
<path d="M132.744 131.279C134.496 132.461 134.496 135.062 132.744 136.243L132.562 136.356L106.305 151.579C104.305 152.738 101.8 151.296 101.8 148.984L101.8 118.538C101.8 116.226 104.305 114.783 106.305 115.942L132.562 131.166L132.744 131.279Z" stroke="var(--line-color)" stroke-width="4" stroke-linejoin="round"/>
<circle cx="140.048" cy="227.737" r="5.67877" stroke="var(--line-color)" stroke-width="4"/>
<path d="M132.744 225.255C134.496 226.437 134.496 229.037 132.744 230.219L132.562 230.332L106.305 245.555C104.305 246.714 101.8 245.272 101.8 242.96L101.8 212.514C101.8 210.202 104.305 208.759 106.305 209.918L132.562 225.142L132.744 225.255Z" stroke="var(--line-color)" stroke-width="4" stroke-linejoin="round"/>
<path d="M20.9241 12.9741C21.2293 9.28553 21.3818 7.44124 22.2424 6.45211C22.9928 5.58963 24.0764 5.08945 25.2195 5.07785C26.5306 5.06455 28.0331 6.14482 31.0383 8.30537L44.0181 17.6372C46.8703 19.6878 48.2964 20.7131 48.7097 21.9207C49.0704 22.9748 48.9752 24.1314 48.447 25.1123C47.8418 26.2361 46.2672 27.0144 43.118 28.571L36.5489 31.818C35.4402 32.366 34.8859 32.64 34.4564 33.0406C34.0762 33.3953 33.7687 33.8207 33.5513 34.2931C33.3057 34.8266 33.2196 35.439 33.0472 36.6636L31.9904 44.1736C31.5033 47.6357 31.2597 49.3667 30.3862 50.2929C29.6238 51.1014 28.5593 51.5563 27.448 51.5485C26.1749 51.5395 24.7556 50.5191 21.9169 48.4783L8.38952 38.7527C5.52689 36.6946 4.09557 35.6656 3.68288 34.4552C3.3227 33.3988 3.42024 32.24 3.95195 31.2587C4.56117 30.1344 6.14437 29.3591 9.31077 27.8085L16.8715 24.106C18.0616 23.5233 18.6566 23.2319 19.1071 22.7991C19.5059 22.4162 19.8209 21.9547 20.0323 21.4439C20.2712 20.8666 20.3258 20.2064 20.435 18.8858L20.9241 12.9741Z" fill="#AF7AF4"/>
<path d="M24.3681 23.1503C23.6797 23.7589 22.6038 23.1948 22.7129 22.2824L24.3282 8.76914C24.4185 8.01373 25.2858 7.63183 25.904 8.07526L33.4507 13.4886C33.9726 13.8629 34.0113 14.625 33.5302 15.0503L24.3681 23.1503Z" fill="#AF7AF4"/>
<path d="M24.3681 23.1503C23.6797 23.7589 22.6038 23.1948 22.7129 22.2824L24.3282 8.76914C24.4185 8.01373 25.2858 7.63183 25.904 8.07526L33.4507 13.4886C33.9726 13.8629 34.0113 14.625 33.5302 15.0503L24.3681 23.1503Z" fill="white" fill-opacity="0.44"/>
<path d="M28.4668 32.6465C29.1553 32.0378 30.2312 32.602 30.1221 33.5144L28.5068 47.0276C28.4165 47.783 27.5492 48.1649 26.931 47.7215L19.3842 42.3082C18.8624 41.9339 18.8236 41.1718 19.3047 40.7464L28.4668 32.6465Z" fill="#AF7AF4"/>
<path d="M28.4668 32.6465C29.1553 32.0378 30.2312 32.602 30.1221 33.5144L28.5068 47.0276C28.4165 47.783 27.5492 48.1649 26.931 47.7215L19.3842 42.3082C18.8624 41.9339 18.8236 41.1718 19.3047 40.7464L28.4668 32.6465Z" fill="black" fill-opacity="0.2"/>
<ellipse cx="37.1749" cy="170.166" rx="11.7588" ry="5.03296" transform="rotate(-9.23625 37.1749 170.166)" fill="#79DD84"/>
<rect x="23.0615" y="156.634" width="23.5176" height="15.6223" transform="rotate(-9.23625 23.0615 156.634)" fill="#79DD84"/>
<ellipse cx="34.7013" cy="154.949" rx="11.7588" ry="5.03296" transform="rotate(-9.23625 34.7013 154.949)" fill="#79DD84"/>
<ellipse cx="34.7013" cy="154.949" rx="11.7588" ry="5.03296" transform="rotate(-9.23625 34.7013 154.949)" fill="white" fill-opacity="0.44"/>
<path d="M34.2716 152.324C34.2725 147.056 32.6598 143.892 27.9762 143.213" stroke="#21822B" stroke-width="4" stroke-linecap="round"/>
<ellipse cx="24.3152" cy="142.931" rx="11.7588" ry="5.03296" transform="rotate(-54.4517 24.3152 142.931)" fill="#79DD84"/>
<rect x="4.76855" y="143.416" width="23.5176" height="15.6223" transform="rotate(-54.4517 4.76855 143.416)" fill="#79DD84"/>
<ellipse cx="11.7722" cy="133.968" rx="11.7588" ry="5.03296" transform="rotate(-54.4517 11.7722 133.968)" fill="#79DD84"/>
<ellipse cx="11.7722" cy="133.968" rx="11.7588" ry="5.03296" transform="rotate(-54.4517 11.7722 133.968)" fill="white" fill-opacity="0.44"/>
<path d="M27.1775 279.74C30.9581 297.241 33.6649 277.284 43.7224 280.321C53.3965 283.242 45.8588 267.141 36.3261 268.169" stroke="#A25624" stroke-width="4"/>
<ellipse cx="22.6101" cy="263.624" rx="11.8775" ry="19.2644" transform="rotate(-19.3812 22.6101 263.624)" fill="#F6A94B"/>
<g filter="url(#filter0_d_237_1603)">
<ellipse cx="12.1476" cy="19.839" rx="12.1476" ry="19.839" transform="matrix(0.0458491 0.998948 0.998948 -0.0458491 2.99512 255.915)" fill="#F6A94B"/>
</g>
<ellipse cx="20.2054" cy="261.311" rx="8.61915" ry="3.01499" transform="rotate(-11.2783 20.2054 261.311)" fill="#F6A94B"/>
<ellipse cx="20.2054" cy="261.311" rx="8.61915" ry="3.01499" transform="rotate(-11.2783 20.2054 261.311)" fill="white" fill-opacity="0.44"/>
<path d="M2.64341 206.619C0.363034 204.256 1.74456 200.304 5.00056 199.876L16.2779 198.394C17.127 198.282 17.9179 197.901 18.5342 197.306L26.7192 189.408C29.0824 187.128 33.0347 188.509 33.4626 191.765L34.9448 203.042C35.0565 203.892 35.4376 204.683 36.0323 205.299L43.9305 213.484C46.2109 215.847 44.8294 219.799 41.5734 220.227L30.296 221.709C29.4469 221.821 28.656 222.202 28.0397 222.797L19.8548 230.695C17.4916 232.975 13.5393 231.594 13.1113 228.338L11.6291 217.061C11.5175 216.211 11.1363 215.421 10.5416 214.804L2.64341 206.619Z" fill="#F7D448"/>
<path d="M21.0196 210.097L6.64676 205.232C4.62712 204.548 4.93654 201.6 7.05413 201.351L17.7857 200.087C18.2254 200.035 18.6355 199.839 18.9517 199.529L26.5959 192.038C28.1615 190.503 30.6989 192.242 29.8332 194.256L23.4983 208.993C23.0864 209.951 22.0074 210.432 21.0196 210.097Z" fill="#F7D448"/>
<path d="M21.0196 210.097L6.64676 205.232C4.62712 204.548 4.93654 201.6 7.05413 201.351L17.7857 200.087C18.2254 200.035 18.6355 199.839 18.9517 199.529L26.5959 192.038C28.1615 190.503 30.6989 192.242 29.8332 194.256L23.4983 208.993C23.0864 209.951 22.0074 210.432 21.0196 210.097Z" fill="white" fill-opacity="0.3"/>
<path d="M25.7649 211.387L39.3987 215.209C41.5701 215.818 41.2306 218.995 38.9796 219.131L28.8032 219.747C28.2968 219.777 27.821 219.999 27.4721 220.367L20.4072 227.824C18.8399 229.478 16.1688 227.643 17.1505 225.586L23.4202 212.452C23.8391 211.574 24.8285 211.125 25.7649 211.387Z" fill="#F7D448"/>
<path d="M25.7649 211.387L39.3987 215.209C41.5701 215.818 41.2306 218.995 38.9796 219.131L28.8032 219.747C28.2968 219.777 27.821 219.999 27.4721 220.367L20.4072 227.824C18.8399 229.478 16.1688 227.643 17.1505 225.586L23.4202 212.452C23.8391 211.574 24.8285 211.125 25.7649 211.387Z" fill="#9A0505" fill-opacity="0.2"/>
</g>
<defs>
<filter id="filter0_d_237_1603" x="0.543945" y="251.971" width="45.6523" height="30.3389" filterUnits="userSpaceOnUse" color-interpolation-filters="sRGB">
<feFlood flood-opacity="0" result="BackgroundImageFix"/>
<feColorMatrix in="SourceAlpha" type="matrix" values="0 0 0 0 0 0 0 0 0 0 0 0 0 0 0 0 0 0 127 0" result="hardAlpha"/>
<feMorphology radius="3" operator="dilate" in="SourceAlpha" result="effect1_dropShadow_237_1603"/>
<feOffset/>
<feComposite in2="hardAlpha" operator="out"/>
<feColorMatrix type="matrix" values="0 0 0 0 0 0 0 0 0 0 0 0 0 0 0 0 0 0 0.4 0"/>
<feBlend mode="overlay" in2="BackgroundImageFix" result="effect1_dropShadow_237_1603"/>
<feBlend mode="normal" in="SourceGraphic" in2="effect1_dropShadow_237_1603" result="shape"/>
</filter>
<linearGradient id="paint0_linear_237_1603" x1="102.382" y1="62.9836" x2="66.8301" y2="43.8719" gradientUnits="userSpaceOnUse">
<stop stop-color="var(--line-color)"/>
<stop offset="1" stop-color="#DC7AF4"/>
</linearGradient>
<linearGradient id="paint1_linear_237_1603" x1="58.0698" y1="76.7289" x2="102.157" y2="80.6346" gradientUnits="userSpaceOnUse">
<stop stop-color="#838DFD"/>
<stop offset="1" stop-color="var(--line-color)"/>
</linearGradient>
<linearGradient id="paint2_linear_237_1603" x1="55.6262" y1="128.112" x2="101.054" y2="125.196" gradientUnits="userSpaceOnUse">
<stop stop-color="#23BF93"/>
<stop offset="1" stop-color="var(--line-color)"/>
</linearGradient>
<linearGradient id="paint3_linear_237_1603" x1="55.6262" y1="234.745" x2="101.054" y2="231.83" gradientUnits="userSpaceOnUse">
<stop stop-color="#F67E4B"/>
<stop offset="1" stop-color="var(--line-color)"/>
</linearGradient>
<linearGradient id="paint4_linear_237_1603" x1="55.6262" y1="186.653" x2="101.054" y2="183.737" gradientUnits="userSpaceOnUse">
<stop stop-color="#DCD800"/>
<stop offset="1" stop-color="var(--line-color)"/>
</linearGradient>
<linearGradient id="paint5_linear_237_1603" x1="352.311" y1="162.975" x2="370.461" y2="162.975" gradientUnits="userSpaceOnUse">
<stop offset="1" stop-color="#F43E2E"/>
</linearGradient>
<linearGradient id="paint6_linear_237_1603" x1="294.893" y1="152.349" x2="325.589" y2="152.349" gradientUnits="userSpaceOnUse">
<stop stop-color="var(--line-color)"/>
<stop offset="1" stop-color="#F43E2E"/>
</linearGradient>
<clipPath id="clip0_237_1603">
<rect width="395" height="293" fill="white"/>
</clipPath>
</defs>
</svg>
