<svg width="32" height="32" viewBox="0 0 32 32" fill="none" xmlns="http://www.w3.org/2000/svg">
<path fill-rule="evenodd" clip-rule="evenodd" d="M26.463 23.2651L26.3115 24.144C26.3115 24.144 21.2747 24.176 16.9974 24.1952L14.111 27.9221L12.4043 27.8432L15.2459 24.1952H13.68L10.9216 27.7728L9.21496 27.6939L11.9499 24.1952C11.3632 24.1717 10.8086 24.1227 10.2859 24.0523L7.52536 27.6085L5.81869 27.5296L8.76909 23.7685C1.30242 21.8955 1.80589 14.7552 7.03256 13.5627L7.48056 16.176L6.99629 16.4256L5.71629 15.7344C4.40429 16.7285 4.15256 19.4187 8.23362 19.4187C9.50082 19.4187 13.3536 19.4187 16.6667 19.3995L16.6539 18.0427L18.0406 17.9317V19.3973H20.6326C23.1542 19.3973 24.5216 18.288 26.288 17.0229L26.928 17.648C24.8694 19.6299 23.4678 22.2197 26.463 23.2651ZM22.9558 17.9317C19.8731 16.2571 12.703 17.3899 9.43469 18.5312C11.1691 14.832 10.1878 10.6379 9.62456 8.85655L8.10989 9.01655L7.89656 7.40801L16.5558 6.72108L16.5259 4.96748L17.904 4.93121H18.0662V6.60588L25.9318 5.98295L26.1878 7.09655L24.9526 7.22881C24.7947 9.14028 24.1206 16.2528 22.9558 17.9381V17.9317Z" fill="#F84890"/>
</svg>
