<svg width="50" height="50" viewBox="0 0 50 50" fill="none" xmlns="http://www.w3.org/2000/svg">
<g clip-path="url(#clip0_237_1636)">
<path d="M33.4727 7.21582C28.1197 7.21608 23.7803 11.5561 23.7803 16.9092C23.7805 22.262 28.1198 26.6013 33.4727 26.6016C38.8257 26.6016 43.1658 22.2622 43.166 16.9092C43.166 11.556 38.8259 7.21582 33.4727 7.21582Z" stroke="#F43E2E" stroke-width="5"/>
<path d="M8.13062 31.1016L7.24228 39.7282M7.24228 39.7282L-1.25882 46.6974M7.24228 39.7282L16.8916 40.4175" stroke="url(#paint0_linear_237_1636)" stroke-width="4" stroke-linecap="round"/>
<rect width="13.4078" height="27.5688" rx="5" transform="matrix(-0.00619349 -0.999981 -0.999981 0.00619349 40.7266 47.4636)" fill="#F87961"/>
<rect x="5.31836" y="5.26349" width="13.4078" height="27.5688" rx="5" transform="rotate(6.80367 5.31836 5.26349)" fill="#F87961"/>
<rect width="13.4078" height="34.7773" rx="5" transform="matrix(0.646852 0.762615 0.762615 -0.646852 -25.8516 58.8096)" fill="#F87961"/>
<path d="M58.0615 -7.81177L41.2661 8.71335" stroke="#F43E2E" stroke-width="5" stroke-linecap="round"/>
</g>
<defs>
<linearGradient id="paint0_linear_237_1636" x1="16.8916" y1="31.3807" x2="-1.25882" y2="31.3807" gradientUnits="userSpaceOnUse">
<stop offset="1" stop-color="#F43E2E"/>
</linearGradient>
<clipPath id="clip0_237_1636">
<rect width="50" height="50" fill="white" transform="matrix(-1 0 0 1 50 0)"/>
</clipPath>
</defs>
</svg>
