<svg id="Слой_1" data-name="Слой 1" xmlns="http://www.w3.org/2000/svg" viewBox="0 0 150 190"><defs><style>.cls-1{fill-rule:evenodd;}</style></defs><title>Монтажная область 13</title><path class="cls-1" d="M137.23,89.91l-5.73-1.72-1.36,5.08-5-2.24-2.08,5.55-3.24-3.84c-4.84,2.23-9.44,4.37-11.93,5.5-6.38,2.9-5.83,5.43-2.65,7.81,1.12.84,2.89,2.21,4.82,3.72l5.35-1.78-.35,4.57,6.15-.71-3,4.35,2,1.6a6.84,6.84,0,0,1-8.64,1.16C101,113,98,118.23,99.31,123.8c.93,3.91,4.89,19.3,4.89,19.3,2.89.26,4.3,2.33,4.28,4l-11,.06L85.41,130.31,54.92,141.44,56,143.79c2.72.75,3.05,2.46,2.94,3.61l-15.07.08L9.57,74.54l3.15-1.78,25.16,37.68c1.58-13.92,13-23.36,30.55-28.35-8.43-8,4.79-17.33,11.77-10.86C83,64.62,96.89,62,98,78c1.56,0,3.13-.07,4.73-.07,16,0,37.18.17,37.18.17s2.51,4-3.46,7.08ZM99.71,84c-6,0-6.14,9.3-.41,9.3C106.1,93.28,105.6,84,99.71,84Zm11-.61a2.89,2.89,0,1,0,.06,5.78C114.5,89.15,114.52,83.37,110.72,83.37ZM68.27,142.74c3.13.44,5.14,2.79,5.43,4.58l-11,.06L60.46,143l7.26-1.56ZM89,143.1c3,.44,4.61,2.43,4.82,4.11l-11.37.06-7.61-8.68,10.62-3.18Z"/></svg>